<?xml version="1.0" encoding="utf-8"?>
<!-- Generator: Adobe Illustrator 25.3.1, SVG Export Plug-In . SVG Version: 6.00 Build 0)  -->
<svg version="1.1" id="Capa_1" xmlns="http://www.w3.org/2000/svg" xmlns:xlink="http://www.w3.org/1999/xlink" x="0px" y="0px"
	 viewBox="0 0 477.1 290.5" style="enable-background:new 0 0 477.1 290.5;" xml:space="preserve">
<style type="text/css">
	.st0{fill:#FFFFFF;}
	.st1{fill:#8C8C8C;}
	.st2{fill:#CDE6F4;}
	.st3{fill:#124980;}
	.st4{fill:#E81F79;}
	.st5{fill-rule:evenodd;clip-rule:evenodd;fill:#124980;}
	.st6{fill:#74BBE7;}
	.st7{fill:none;stroke:#E81F79;stroke-width:2;stroke-miterlimit:10;}
	.st8{display:none;}
	.st9{display:inline;opacity:0.3;}
</style>
<g id="Layer_1">
	<g>
		<path class="st0" d="M430.5,290.5H46.6C21,290.5,0,269.5,0,243.9V46.6C0,21,21,0,46.6,0h383.9c25.6,0,46.6,21,46.6,46.6v197.3
			C477.1,269.5,456.1,290.5,430.5,290.5z"/>
		<g>
			<path class="st1" d="M42.8,2l112.7,0.1l116.1,0.1l162.7,0.1C456.7,2.3,475,20.6,475,43v204.8c0,22.4-18.3,40.7-40.7,40.7
				l-391.6-0.2C20.2,288.3,2,270.1,2,247.6L2.1,42.7C2.1,20.2,20.4,2,42.8,2L42.8,2 M42.8,0C19.3,0,0.1,19.2,0.1,42.7L0,247.6
				c0,23.5,19.2,42.7,42.7,42.7l391.6,0.2l0,0c23.5,0,42.7-19.2,42.7-42.7l0.1-204.9c0-23.5-19.2-42.7-42.7-42.7L271.7,0.1H155.5
				L42.8,0L42.8,0L42.8,0z"/>
		</g>
		<path class="st2" d="M263.2,9.1l172.7,0.1c14.6,0,29.6,14,29.6,28.6l-0.1,212.8c0,14.6-15,28.6-29.6,28.6L40.2,279
			c-14.6,0-28.6-14-28.6-28.6l0.1-212.8C11.7,23,25.7,9,40.3,9L263.2,9.1z"/>
		<g>
			<path class="st3" d="M260.7,87.9h-64.4c-1.3,0-2.5,1.1-2.5,2.5s1.1,2.5,2.5,2.5h64.4c1.4,0,2.5-1.1,2.5-2.5
				S262.1,87.9,260.7,87.9L260.7,87.9z"/>
			<path class="st3" d="M271.7,78h-75.4c-1.4,0-2.5,1.1-2.5,2.5s1.1,2.5,2.5,2.5h75.4c1.4,0,2.5-1.1,2.5-2.5
				C274.1,79.1,273,78,271.7,78L271.7,78z"/>
		</g>
		<path class="st3" d="M230.7,261.1h-34.4c-1.3,0-2.5,1.1-2.5,2.5s1.1,2.5,2.5,2.5h34.4c1.4,0,2.5-1.1,2.5-2.5
			C233.2,262.2,232.1,261.1,230.7,261.1L230.7,261.1z"/>
		<g>
			<path class="st3" d="M177.5,42H70c-1.1,0-2,0.9-2,2s0.9,2,2,2h107.5c1.1,0,2-0.9,2-2S178.6,42,177.5,42L177.5,42z"/>
			<path class="st3" d="M90.9,33.9"/>
			<path class="st3" d="M158.3,50.1H70.1c-0.9,0-1.8,0.6-2,1.5c-0.4,1.3,0.7,2.6,2,2.6h88.2c0.8,0,1.6-0.4,1.9-1.2
				C160.7,51.5,159.7,50.1,158.3,50.1L158.3,50.1z"/>
			<path class="st3" d="M170.4,50.1h-2.9c-1.1,0-2.1,0.8-2.2,1.8c-0.1,1.2,0.8,2.2,2,2.2h2.9c1.1,0,2.1-0.8,2.2-1.8
				C172.6,51.2,171.6,50.1,170.4,50.1L170.4,50.1z"/>
		</g>
		<rect x="45.5" y="65.4" class="st0" width="132" height="152.5"/>
		<g>
			<path class="st3" d="M46.5,263.2l1.9-2.2c0.5,0.6,1.5,1.1,2.4,1.1c1.8,0,3.3-1.4,3.3-5.6c0-3.9-1.2-5-2.5-5c-1.1,0-2,0.8-2,2.5
				s0.9,2.3,2.1,2.3c0.8,0,1.7-0.5,2.4-1.7l0.2,2.4c-0.8,1.2-2.3,1.9-3.3,1.9c-2.7,0-4.7-1.5-4.7-4.8s2.4-5.3,5.2-5.3
				c3,0,5.9,2.3,5.9,7.8c0,5.9-3,8.5-6.3,8.5C49,265.1,47.5,264.2,46.5,263.2z"/>
			<path class="st3" d="M59.5,263.2l1.9-2.2c0.5,0.6,1.5,1.1,2.4,1.1c1.8,0,3.3-1.4,3.3-5.6c0-3.9-1.2-5-2.5-5c-1.1,0-2,0.8-2,2.5
				s0.9,2.3,2.1,2.3c0.8,0,1.7-0.5,2.4-1.7l0.2,2.4c-0.8,1.2-2.3,1.9-3.3,1.9c-2.7,0-4.7-1.5-4.7-4.8s2.4-5.3,5.2-5.3
				c3,0,5.9,2.3,5.9,7.8c0,5.9-3,8.5-6.3,8.5C62,265.1,60.5,264.2,59.5,263.2z"/>
			<path class="st3" d="M73,262.8c0-1.3,0.9-2.3,2.2-2.3s2.2,1,2.2,2.3s-0.9,2.3-2.2,2.3S73,264.1,73,262.8z"/>
			<path class="st3" d="M80,263.2l1.9-2.2c0.5,0.6,1.5,1.1,2.4,1.1c1.8,0,3.3-1.4,3.3-5.6c0-3.9-1.2-5-2.5-5c-1.1,0-2,0.8-2,2.5
				s0.9,2.3,2.1,2.3c0.8,0,1.7-0.5,2.4-1.7l0.2,2.4c-0.8,1.2-2.3,1.9-3.3,1.9c-2.7,0-4.7-1.5-4.7-4.8s2.4-5.3,5.2-5.3
				c3,0,5.9,2.3,5.9,7.8c0,5.9-3,8.5-6.3,8.5C82.5,265.1,81,264.2,80,263.2z"/>
			<path class="st3" d="M93,263.2l1.9-2.2c0.5,0.6,1.5,1.1,2.4,1.1c1.8,0,3.3-1.4,3.3-5.6c0-3.9-1.2-5-2.5-5c-1.1,0-2,0.8-2,2.5
				s0.9,2.3,2.1,2.3c0.8,0,1.7-0.5,2.4-1.7l0.2,2.4c-0.8,1.2-2.3,1.9-3.3,1.9c-2.7,0-4.7-1.5-4.7-4.8s2.4-5.3,5.2-5.3
				c3,0,5.9,2.3,5.9,7.8c0,5.9-3,8.5-6.3,8.5C95.5,265.1,94,264.2,93,263.2z"/>
			<path class="st3" d="M106,263.2l1.9-2.2c0.5,0.6,1.5,1.1,2.4,1.1c1.8,0,3.3-1.4,3.3-5.6c0-3.9-1.2-5-2.5-5c-1.1,0-2,0.8-2,2.5
				s0.9,2.3,2.1,2.3c0.8,0,1.7-0.5,2.4-1.7l0.2,2.4c-0.8,1.2-2.3,1.9-3.3,1.9c-2.7,0-4.7-1.5-4.7-4.8s2.4-5.3,5.2-5.3
				c3,0,5.9,2.3,5.9,7.8c0,5.9-3,8.5-6.3,8.5C108.5,265.1,107,264.2,106,263.2z"/>
			<path class="st3" d="M119.5,262.8c0-1.3,0.9-2.3,2.2-2.3s2.2,1,2.2,2.3s-0.9,2.3-2.2,2.3S119.5,264.1,119.5,262.8z"/>
			<path class="st3" d="M126.5,263.2l1.9-2.2c0.5,0.6,1.5,1.1,2.4,1.1c1.8,0,3.3-1.4,3.3-5.6c0-3.9-1.2-5-2.5-5c-1.1,0-2,0.8-2,2.5
				s0.9,2.3,2.1,2.3c0.8,0,1.7-0.5,2.4-1.7l0.2,2.4c-0.8,1.2-2.3,1.9-3.3,1.9c-2.7,0-4.7-1.5-4.7-4.8s2.4-5.3,5.2-5.3
				c3,0,5.9,2.3,5.9,7.8c0,5.9-3,8.5-6.3,8.5C129,265.1,127.4,264.2,126.5,263.2z"/>
			<path class="st3" d="M139.5,263.2l1.9-2.2c0.5,0.6,1.5,1.1,2.4,1.1c1.8,0,3.3-1.4,3.3-5.6c0-3.9-1.2-5-2.5-5c-1.1,0-2,0.8-2,2.5
				s0.9,2.3,2.1,2.3c0.8,0,1.7-0.5,2.4-1.7l0.2,2.4c-0.8,1.2-2.3,1.9-3.3,1.9c-2.7,0-4.7-1.5-4.7-4.8s2.4-5.3,5.2-5.3
				c3,0,5.9,2.3,5.9,7.8c0,5.9-3,8.5-6.3,8.5C142,265.1,140.5,264.2,139.5,263.2z"/>
			<path class="st3" d="M152.5,263.2l1.9-2.2c0.5,0.6,1.5,1.1,2.4,1.1c1.8,0,3.3-1.4,3.3-5.6c0-3.9-1.2-5-2.5-5c-1.1,0-2,0.8-2,2.5
				s0.9,2.3,2.1,2.3c0.8,0,1.7-0.5,2.4-1.7l0.2,2.4c-0.8,1.2-2.3,1.9-3.3,1.9c-2.7,0-4.7-1.5-4.7-4.8s2.4-5.3,5.2-5.3
				c3,0,5.9,2.3,5.9,7.8c0,5.9-3,8.5-6.3,8.5C155,265.1,153.5,264.2,152.5,263.2z"/>
			<path class="st3" d="M165.5,263.2l1.9-2.2c0.5,0.6,1.5,1.1,2.4,1.1c1.8,0,3.3-1.4,3.3-5.6c0-3.9-1.2-5-2.5-5c-1.1,0-2,0.8-2,2.5
				s0.9,2.3,2.1,2.3c0.8,0,1.7-0.5,2.4-1.7l0.2,2.4c-0.8,1.2-2.3,1.9-3.3,1.9c-2.7,0-4.7-1.5-4.7-4.8s2.4-5.3,5.2-5.3
				c3,0,5.9,2.3,5.9,7.8c0,5.9-3,8.5-6.3,8.5C168,265.1,166.5,264.2,165.5,263.2z"/>
		</g>
		<g>
			<rect x="315.7" y="234.7" class="st3" width="1.4" height="31.2"/>
			<rect x="318.5" y="234.7" class="st3" width="2.7" height="31.2"/>
			<rect x="309.4" y="234.7" class="st3" width="1.4" height="31.2"/>
			<rect x="312.1" y="234.7" class="st3" width="2.7" height="31.2"/>
			<rect x="322.1" y="234.7" class="st3" width="2" height="31.2"/>
			<rect x="325.9" y="234.7" class="st3" width="1.1" height="31.2"/>
			<rect x="429.2" y="234.7" class="st3" width="2.7" height="31.2"/>
			<rect x="433" y="234.7" class="st3" width="2.7" height="31.2"/>
			<rect x="426.3" y="234.7" class="st3" width="1.9" height="31.2"/>
			<rect x="423.3" y="234.7" class="st3" width="1.1" height="31.2"/>
			<rect x="419.7" y="234.7" class="st3" width="1.7" height="31.2"/>
			<g>
				<rect x="331.3" y="237.8" class="st3" width="3.1" height="3.1"/>
				<path class="st3" d="M350.1,245.6v1.6 M350.1,234.7v1.6h-1.6v1.6h1.6v6.3"/>
				<rect x="331.3" y="259.7" class="st3" width="3.1" height="3.1"/>
				<rect x="342.3" y="264.4" class="st3" width="1.6" height="1.6"/>
				<rect x="343.8" y="258.1" class="st3" width="1.6" height="1.6"/>
				<rect x="343.8" y="261.2" class="st3" width="1.6" height="1.6"/>
				<rect x="328.2" y="253.4" class="st3" width="1.6" height="1.6"/>
				<rect x="328.2" y="245.6" class="st3" width="1.6" height="1.6"/>
				<polygon class="st3" points="345.4,236.3 345.4,237.8 342.3,237.8 342.3,239.4 346.9,239.4 346.9,237.8 346.9,236.3 				"/>
				<path class="st3" d="M350.1,250.3v-1.6h-1.6v1.6h-3.1v1.6h4.7v1.6h-4.7v-1.6h-1.6v1.6h-1.6v-1.6h-1.6v1.6H339v1.6h3.1v1.6h1.6
					V255h3.1v1.6h-1.6v1.6h1.6v3.1h1.6v1.6h1.6v-1.6 M348.5,259.7V255"/>
				<polygon class="st3" points="348.5,244.1 346.9,244.1 346.9,245.6 345.4,245.6 345.4,247.2 345.4,248.7 346.9,248.7 
					346.9,247.2 348.5,247.2 348.5,245.6 350.1,245.6 350.1,244.1 				"/>
				<rect x="345.4" y="264.4" class="st3" width="3.1" height="1.6"/>
				<rect x="340.7" y="236.3" class="st3" width="1.6" height="1.6"/>
				<rect x="334.4" y="253.4" class="st3" width="1.6" height="1.6"/>
				<path class="st3" d="M337.6,264.4v-6.2h1.6V255h-1.6v1.6h-4.7V255h-3.1v1.6h-1.6v9.4h12.5v-1.6H337.6z M336,264.4h-6.2v-6.2h6.2
					V264.4z"/>
				<rect x="337.6" y="244.1" class="st3" width="1.6" height="1.6"/>
				<path class="st3" d="M339.1,234.7h-10.9v9.4h1.6v1.6h1.6v-1.6h1.6v1.6h1.6v-1.6h3.1v-3.2h1.6v-1.6h-1.6v-3.1h3.1v-1.6h-1.7
					V234.7z M336,242.5h-6.2v-6.2h6.2V242.5z"/>
				<rect x="346.9" y="239.4" class="st3" width="1.6" height="1.6"/>
				<rect x="343.8" y="234.7" class="st3" width="1.6" height="1.6"/>
				<path class="st3" d="M346.9,244.1v-1.6h-1.6v-1.6h-1.6v1.6h-3.1v-1.6H339v3.2h1.6v3.1H336v-1.6h-1.6v1.6h-4.7v1.6h3.1v1.6h-4.7
					v1.6h4.7v1.6h1.6V252h1.6v1.6h1.6V252h3.1v-1.6h-1.6v-1.6h3.1v1.6h3.1v-1.6h-1.6v-1.6h-1.6v-3.1L346.9,244.1L346.9,244.1z
					 M337.6,250.3h-3.1v-1.6h3.1V250.3z"/>
				<polygon class="st3" points="342.3,259.7 342.3,258.1 342.3,256.6 340.7,256.6 340.7,258.1 339.1,258.1 339.1,259.7 
					340.7,259.7 340.7,261.2 339.1,261.2 339.1,262.8 342.3,262.8 342.3,261.2 343.8,261.2 343.8,259.7 				"/>
			</g>
			<g>
				<rect x="366.7" y="259.7" class="st3" width="3.1" height="3.1"/>
				<path class="st3" d="M351.1,255v-1.6 M351.1,265.9v-1.6h1.6v-1.6h-1.6v-6.3"/>
				<rect x="366.7" y="237.8" class="st3" width="3.1" height="3.1"/>
				<rect x="357.4" y="234.7" class="st3" width="1.6" height="1.6"/>
				<rect x="355.8" y="240.9" class="st3" width="1.6" height="1.6"/>
				<rect x="355.8" y="237.8" class="st3" width="1.6" height="1.6"/>
				<rect x="371.4" y="245.6" class="st3" width="1.6" height="1.6"/>
				<rect x="371.4" y="253.4" class="st3" width="1.6" height="1.6"/>
				<polygon class="st3" points="355.8,264.4 355.8,262.8 358.9,262.8 358.9,261.2 354.2,261.2 354.2,262.8 354.2,264.4 				"/>
				<path class="st3" d="M351.1,250.3v1.6h1.6v-1.6h3.1v-1.6h-4.7v-1.6h4.7v1.6h1.6v-1.6h1.6v1.6h1.6v-1.6h1.6v-1.6h-3.1v-1.6h-1.6
					v1.6h-3.1v-1.6h1.6v-1.6h-1.6v-3.1h-1.6v-1.6h-1.6v1.6 M352.7,240.9v4.7"/>
				<polygon class="st3" points="352.7,256.6 354.2,256.6 354.2,255 355.8,255 355.8,253.4 355.8,251.9 354.2,251.9 354.2,253.4 
					352.7,253.4 352.7,255 351.1,255 351.1,256.6 				"/>
				<rect x="352.7" y="234.7" class="st3" width="3.1" height="1.6"/>
				<rect x="358.9" y="262.8" class="st3" width="1.6" height="1.6"/>
				<rect x="365.2" y="245.6" class="st3" width="1.6" height="1.6"/>
				<path class="st3" d="M363.6,236.3v6.2H362v3.1h1.6V244h4.7v1.6h3.1V244h1.6v-9.4h-12.5v1.6L363.6,236.3z M365.2,236.3h6.2v6.2
					h-6.2V236.3z"/>
				<rect x="362" y="255" class="st3" width="1.6" height="1.6"/>
				<path class="st3" d="M362,265.9h11v-9.4h-1.6V255h-1.6v1.6h-1.6V255h-1.6v1.6h-3.1v3.2H362v1.6h1.6v3.1h-3.1v1.6h1.5V265.9z
					 M365.2,258.1h6.2v6.2h-6.2V258.1z"/>
				<rect x="352.7" y="259.7" class="st3" width="1.6" height="1.6"/>
				<rect x="355.8" y="264.4" class="st3" width="1.6" height="1.6"/>
				<path class="st3" d="M354.2,256.5v1.6h1.6v1.6h1.6v-1.6h3.1v1.6h1.6v-3.2h-1.6v-3.1h4.7v1.6h1.6v-1.6h4.7v-1.6h-3.1v-1.6h4.7
					v-1.6h-4.7V247h-1.6v1.6h-1.6V247h-1.6v1.6h-3.1v1.6h1.6v1.6H359v-1.6h-3.1v1.6h1.6v1.6h1.6v3.1H354.2z M363.6,250.3h3.1v1.6
					h-3.1V250.3z"/>
				<polygon class="st3" points="358.9,240.9 358.9,242.5 358.9,244.1 360.5,244.1 360.5,242.5 362,242.5 362,240.9 360.5,240.9 
					360.5,239.4 362,239.4 362,237.8 358.9,237.8 358.9,239.4 357.4,239.4 357.4,240.9 				"/>
			</g>
			<g>
				<rect x="377.1" y="237.8" class="st3" width="3.1" height="3.1"/>
				<path class="st3" d="M395.9,245.6v1.6 M395.9,234.7v1.6h-1.6v1.6h1.6v6.3"/>
				<rect x="377.1" y="259.7" class="st3" width="3.1" height="3.1"/>
				<rect x="388.1" y="264.4" class="st3" width="1.6" height="1.6"/>
				<rect x="389.6" y="258.1" class="st3" width="1.6" height="1.6"/>
				<rect x="389.6" y="261.2" class="st3" width="1.6" height="1.6"/>
				<rect x="374" y="253.4" class="st3" width="1.6" height="1.6"/>
				<rect x="374" y="245.6" class="st3" width="1.6" height="1.6"/>
				<polygon class="st3" points="391.2,236.3 391.2,237.8 388.1,237.8 388.1,239.4 392.8,239.4 392.8,237.8 392.8,236.3 				"/>
				<path class="st3" d="M395.9,250.3v-1.6h-1.6v1.6h-3.1v1.6h4.7v1.6h-4.7v-1.6h-1.6v1.6H388v-1.6h-1.6v1.6H385v1.6h3.1v1.6h1.6
					V255h3.1v1.6h-1.6v1.6h1.6v3.1h1.6v1.6h1.6v-1.6 M394.3,259.7V255"/>
				<polygon class="st3" points="394.3,244.1 392.8,244.1 392.8,245.6 391.2,245.6 391.2,247.2 391.2,248.7 392.8,248.7 
					392.8,247.2 394.3,247.2 394.3,245.6 395.9,245.6 395.9,244.1 				"/>
				<rect x="391.2" y="264.4" class="st3" width="3.1" height="1.6"/>
				<rect x="386.5" y="236.3" class="st3" width="1.6" height="1.6"/>
				<rect x="380.3" y="253.4" class="st3" width="1.6" height="1.6"/>
				<path class="st3" d="M383.4,264.4v-6.2h1.6V255h-1.6v1.6h-4.7V255h-3.1v1.6H374v9.4h12.5v-1.6H383.4z M381.8,264.4h-6.2v-6.2
					h6.2V264.4z"/>
				<rect x="383.4" y="244.1" class="st3" width="1.6" height="1.6"/>
				<path class="st3" d="M385,234.7h-11v9.4h1.6v1.6h1.6v-1.6h1.6v1.6h1.6v-1.6h3.1v-3.2h1.6v-1.6h-1.6v-3.1h3.1v-1.6H385V234.7z
					 M381.8,242.5h-6.2v-6.2h6.2V242.5z"/>
				<rect x="392.8" y="239.4" class="st3" width="1.6" height="1.6"/>
				<rect x="389.6" y="234.7" class="st3" width="1.6" height="1.6"/>
				<path class="st3" d="M392.8,244.1v-1.6h-1.6v-1.6h-1.6v1.6h-3.1v-1.6H385v3.2h1.6v3.1h-4.7v-1.6h-1.6v1.6h-4.7v1.6h3.1v1.6H374
					v1.6h4.7v1.6h1.6V252h1.6v1.6h1.6V252h3.1v-1.6H385v-1.6h3.1v1.6h3.1v-1.6h-1.6v-1.6H388v-3.1L392.8,244.1L392.8,244.1z
					 M383.4,250.3h-3.1v-1.6h3.1V250.3z"/>
				<polygon class="st3" points="388.1,259.7 388.1,258.1 388.1,256.6 386.5,256.6 386.5,258.1 385,258.1 385,259.7 386.5,259.7 
					386.5,261.2 385,261.2 385,262.8 388.1,262.8 388.1,261.2 389.6,261.2 389.6,259.7 				"/>
			</g>
			<g>
				<rect x="412.6" y="259.7" class="st3" width="3.1" height="3.1"/>
				<path class="st3" d="M396.9,255v-1.6 M396.9,265.9v-1.6h1.6v-1.6h-1.6v-6.3"/>
				<rect x="412.6" y="237.8" class="st3" width="3.1" height="3.1"/>
				<rect x="403.2" y="234.7" class="st3" width="1.6" height="1.6"/>
				<rect x="401.6" y="240.9" class="st3" width="1.6" height="1.6"/>
				<rect x="401.6" y="237.8" class="st3" width="1.6" height="1.6"/>
				<rect x="417.2" y="245.6" class="st3" width="1.6" height="1.6"/>
				<rect x="417.2" y="253.4" class="st3" width="1.6" height="1.6"/>
				<polygon class="st3" points="401.6,264.4 401.6,262.8 404.7,262.8 404.7,261.2 400.1,261.2 400.1,262.8 400.1,264.4 				"/>
				<path class="st3" d="M396.9,250.3v1.6h1.6v-1.6h3.1v-1.6h-4.7v-1.6h4.7v1.6h1.6v-1.6h1.6v1.6h1.6v-1.6h1.6v-1.6h-3.1v-1.6h-1.6
					v1.6h-3.1v-1.6h1.6v-1.6h-1.6v-3.1h-1.6v-1.6H397v1.6 M398.5,240.9v4.7"/>
				<polygon class="st3" points="398.5,256.6 400.1,256.6 400.1,255 401.6,255 401.6,253.4 401.6,251.9 400.1,251.9 400.1,253.4 
					398.5,253.4 398.5,255 396.9,255 396.9,256.6 				"/>
				<rect x="398.5" y="234.7" class="st3" width="3.1" height="1.6"/>
				<rect x="404.7" y="262.8" class="st3" width="1.6" height="1.6"/>
				<rect x="411" y="245.6" class="st3" width="1.6" height="1.6"/>
				<path class="st3" d="M409.4,236.3v6.2h-1.6v3.1h1.6V244h4.7v1.6h3.1V244h1.6v-9.4h-12.5v1.6L409.4,236.3z M411,236.3h6.2v6.2
					H411V236.3z"/>
				<rect x="407.9" y="255" class="st3" width="1.6" height="1.6"/>
				<path class="st3" d="M407.9,265.9h10.9v-9.4h-1.6V255h-1.6v1.6H414V255h-1.6v1.6h-3.1v3.2h-1.6v1.6h1.6v3.1h-3.1v1.6h1.7V265.9z
					 M411,258.1h6.2v6.2H411V258.1z"/>
				<rect x="398.5" y="259.7" class="st3" width="1.6" height="1.6"/>
				<rect x="401.6" y="264.4" class="st3" width="1.6" height="1.6"/>
				<path class="st3" d="M400.1,256.5v1.6h1.6v1.6h1.6v-1.6h3.1v1.6h1.6v-3.2h-1.6v-3.1h4.7v1.6h1.6v-1.6h4.7v-1.6h-3.1v-1.6h4.7
					v-1.6h-4.7V247h-1.6v1.6H411V247h-1.6v1.6h-3.1v1.6h1.6v1.6h-3.1v-1.6h-3.1v1.6h1.6v1.6h1.6v3.1H400.1z M409.4,250.3h3.1v1.6
					h-3.1V250.3z"/>
				<polygon class="st3" points="404.7,240.9 404.7,242.5 404.7,244.1 406.3,244.1 406.3,242.5 407.9,242.5 407.9,240.9 
					406.3,240.9 406.3,239.4 407.9,239.4 407.9,237.8 404.7,237.8 404.7,239.4 403.2,239.4 403.2,240.9 				"/>
			</g>
		</g>
		<g>
			<path class="st3" d="M193.8,69.6l2.4-7.8h2.1l2.4,7.8h-1.9l-0.5-1.9h-2.4l-0.5,1.9H193.8z M196.6,65.6l-0.2,0.7h1.7l-0.2-0.7
				c-0.1-0.4-0.2-0.8-0.3-1.2s-0.2-0.9-0.3-1.3l0,0c-0.1,0.4-0.2,0.8-0.3,1.3C196.8,64.8,196.7,65.2,196.6,65.6z"/>
			<path class="st3" d="M201.5,71.8v-8.2h1.4l0.1,0.6l0,0c0.2-0.2,0.5-0.4,0.8-0.5s0.6-0.2,0.9-0.2c0.4,0,0.7,0.1,1,0.2
				c0.3,0.1,0.5,0.3,0.7,0.6c0.2,0.3,0.4,0.6,0.5,1s0.2,0.8,0.2,1.2c0,0.5-0.1,1-0.2,1.4c-0.1,0.4-0.3,0.7-0.6,1
				c-0.2,0.3-0.5,0.5-0.8,0.6s-0.6,0.2-0.9,0.2c-0.3,0-0.5-0.1-0.7-0.2s-0.5-0.3-0.7-0.5l0.1,0.9v1.7h-1.8V71.8z M204.2,68.3
				c0.3,0,0.6-0.1,0.8-0.4s0.3-0.7,0.3-1.3c0-1.1-0.3-1.6-1-1.6c-0.3,0-0.7,0.2-1,0.5v2.4c0.2,0.1,0.3,0.2,0.5,0.3
				S204.1,68.3,204.2,68.3z"/>
			<path class="st3" d="M211.1,69.7c-0.4,0-0.8-0.1-1.2-0.2s-0.7-0.3-1-0.6c-0.3-0.3-0.5-0.6-0.6-1c-0.2-0.4-0.2-0.8-0.2-1.3
				s0.1-0.9,0.2-1.3s0.4-0.7,0.6-1c0.3-0.3,0.6-0.5,0.9-0.6c0.3-0.1,0.7-0.2,1-0.2c0.4,0,0.8,0.1,1.1,0.2c0.3,0.1,0.6,0.3,0.8,0.6
				c0.2,0.3,0.4,0.6,0.5,0.9s0.2,0.7,0.2,1.1c0,0.2,0,0.3,0,0.5s0,0.3,0,0.3h-3.6c0.1,0.4,0.3,0.8,0.5,1s0.6,0.3,1,0.3
				s0.9-0.1,1.3-0.4l0.6,1.1c-0.3,0.2-0.6,0.4-1,0.5C211.8,69.6,211.4,69.7,211.1,69.7z M209.7,65.9h2.1c0-0.3-0.1-0.6-0.2-0.8
				s-0.4-0.3-0.8-0.3c-0.3,0-0.5,0.1-0.7,0.3S209.8,65.5,209.7,65.9z"/>
			<path class="st3" d="M216.2,69.7c-0.3,0-0.6,0-0.8-0.1s-0.4-0.2-0.5-0.4s-0.2-0.4-0.3-0.6s-0.1-0.5-0.1-0.8v-6.6h1.8v6.6
				c0,0.2,0,0.3,0.1,0.4s0.1,0.1,0.2,0.1h0.1h0.1l0.2,1.3c-0.1,0-0.2,0.1-0.4,0.1C216.6,69.7,216.4,69.7,216.2,69.7z"/>
			<path class="st3" d="M219.7,69.7c-0.3,0-0.6,0-0.8-0.1s-0.4-0.2-0.5-0.4s-0.2-0.4-0.3-0.6s-0.1-0.5-0.1-0.8v-6.6h1.8v6.6
				c0,0.2,0,0.3,0.1,0.4s0.1,0.1,0.2,0.1h0.1h0.1l0.2,1.3c-0.1,0-0.2,0.1-0.4,0.1C220,69.7,219.9,69.7,219.7,69.7z"/>
			<path class="st3" d="M222.4,62.7c-0.3,0-0.5-0.1-0.7-0.3s-0.3-0.4-0.3-0.7s0.1-0.5,0.3-0.7s0.4-0.3,0.7-0.3s0.5,0.1,0.7,0.3
				s0.3,0.4,0.3,0.7s-0.1,0.5-0.3,0.7C222.9,62.6,222.7,62.7,222.4,62.7z M221.5,69.6v-6h1.8v6H221.5z"/>
			<path class="st3" d="M226.9,69.7c-0.4,0-0.7-0.1-1-0.2s-0.6-0.4-0.8-0.6s-0.4-0.6-0.5-1s-0.2-0.8-0.2-1.3s0.1-0.9,0.2-1.3
				c0.1-0.4,0.3-0.7,0.6-1c0.2-0.3,0.5-0.5,0.8-0.6s0.6-0.2,0.9-0.2c0.3,0,0.6,0.1,0.8,0.2c0.2,0.1,0.4,0.3,0.6,0.5l-0.1-0.9v-2h1.8
				v8.4h-1.4l-0.1-0.6l0,0c-0.2,0.2-0.5,0.4-0.7,0.5C227.5,69.6,227.2,69.7,226.9,69.7z M227.4,68.3c0.2,0,0.4,0,0.5-0.1
				s0.3-0.2,0.5-0.4v-2.4c-0.2-0.1-0.3-0.2-0.5-0.3c-0.2-0.1-0.3-0.1-0.5-0.1c-0.3,0-0.5,0.1-0.7,0.4s-0.3,0.7-0.3,1.3
				c0,0.6,0.1,1,0.3,1.3C226.8,68.1,227,68.3,227.4,68.3z"/>
			<path class="st3" d="M234.2,69.7c-0.4,0-0.7-0.1-1.1-0.2c-0.4-0.1-0.7-0.3-0.9-0.6c-0.3-0.3-0.5-0.6-0.6-1s-0.2-0.8-0.2-1.3
				s0.1-0.9,0.2-1.3c0.2-0.4,0.4-0.7,0.6-1c0.3-0.3,0.6-0.5,0.9-0.6c0.4-0.1,0.7-0.2,1.1-0.2s0.7,0.1,1.1,0.2
				c0.3,0.1,0.7,0.3,0.9,0.6c0.3,0.3,0.5,0.6,0.6,1c0.2,0.4,0.2,0.8,0.2,1.3s-0.1,0.9-0.2,1.3c-0.2,0.4-0.4,0.7-0.6,1
				c-0.3,0.3-0.6,0.5-0.9,0.6C235,69.6,234.6,69.7,234.2,69.7z M234.2,68.3c0.4,0,0.6-0.2,0.8-0.5s0.3-0.7,0.3-1.2s-0.1-0.9-0.3-1.2
				c-0.2-0.3-0.5-0.5-0.8-0.5c-0.4,0-0.6,0.2-0.8,0.5s-0.3,0.7-0.3,1.2s0.1,0.9,0.3,1.2C233.6,68.1,233.9,68.3,234.2,68.3z"/>
		</g>
		<g>
			<path class="st3" d="M46.2,241.7v-7.8h2.2c0.6,0,1.1,0.1,1.6,0.2s0.9,0.4,1.2,0.7s0.6,0.7,0.8,1.2s0.3,1.1,0.3,1.7
				c0,0.7-0.1,1.3-0.3,1.8s-0.4,0.9-0.8,1.2s-0.7,0.6-1.2,0.7c-0.5,0.2-1,0.2-1.6,0.2h-2.2V241.7z M47.9,240.3h0.3
				c0.3,0,0.6,0,0.9-0.1s0.5-0.2,0.7-0.4s0.3-0.5,0.5-0.8s0.2-0.7,0.2-1.2s-0.1-0.9-0.2-1.2c-0.1-0.3-0.3-0.6-0.5-0.8
				s-0.4-0.3-0.7-0.4s-0.6-0.1-0.9-0.1h-0.3V240.3z"/>
			<path class="st3" d="M56.2,241.9c-0.4,0-0.7-0.1-1.1-0.2c-0.4-0.1-0.7-0.3-0.9-0.6s-0.5-0.6-0.6-1c-0.2-0.4-0.2-0.8-0.2-1.3
				s0.1-0.9,0.2-1.3s0.4-0.7,0.6-1c0.3-0.3,0.6-0.5,0.9-0.6c0.4-0.1,0.7-0.2,1.1-0.2s0.7,0.1,1.1,0.2c0.3,0.1,0.7,0.3,0.9,0.6
				c0.3,0.3,0.5,0.6,0.6,1s0.2,0.8,0.2,1.3s-0.1,0.9-0.2,1.3c-0.2,0.4-0.4,0.7-0.6,1c-0.3,0.3-0.6,0.5-0.9,0.6
				C56.9,241.8,56.6,241.9,56.2,241.9z M56.2,240.4c0.4,0,0.6-0.2,0.8-0.5s0.3-0.7,0.3-1.2s-0.1-0.9-0.3-1.2s-0.5-0.5-0.8-0.5
				c-0.4,0-0.6,0.2-0.8,0.5s-0.3,0.7-0.3,1.2s0.1,0.9,0.3,1.2C55.6,240.3,55.8,240.4,56.2,240.4z"/>
			<path class="st3" d="M62.9,241.9c-0.4,0-0.8-0.1-1.2-0.2c-0.4-0.1-0.7-0.3-0.9-0.6c-0.3-0.3-0.5-0.6-0.6-1
				c-0.2-0.4-0.2-0.8-0.2-1.3s0.1-0.9,0.3-1.3s0.4-0.7,0.7-1s0.6-0.5,1-0.6s0.8-0.2,1.2-0.2s0.7,0.1,1,0.2c0.3,0.1,0.5,0.3,0.8,0.5
				l-0.8,1.1c-0.3-0.2-0.5-0.3-0.8-0.3c-0.4,0-0.8,0.2-1,0.5s-0.4,0.7-0.4,1.2s0.1,0.9,0.4,1.2c0.3,0.3,0.6,0.5,1,0.5
				c0.2,0,0.4,0,0.6-0.1c0.2-0.1,0.4-0.2,0.5-0.3l0.7,1.2c-0.3,0.3-0.6,0.4-1,0.5C63.6,241.8,63.2,241.9,62.9,241.9z"/>
			<path class="st3" d="M67.7,241.9c-0.6,0-1.1-0.2-1.4-0.6c-0.3-0.4-0.4-1-0.4-1.8v-3.7h1.8v3.5c0,0.4,0.1,0.7,0.2,0.9
				s0.3,0.2,0.6,0.2c0.2,0,0.4-0.1,0.6-0.2c0.2-0.1,0.3-0.3,0.5-0.5v-3.9h1.8v6H70l-0.1-0.8l0,0c-0.3,0.3-0.5,0.5-0.8,0.7
				C68.5,241.8,68.1,241.9,67.7,241.9z"/>
			<path class="st3" d="M72.7,241.7v-6h1.4l0.1,0.8l0,0c0.2-0.2,0.5-0.5,0.8-0.6c0.3-0.2,0.6-0.3,1-0.3s0.8,0.1,1,0.3
				s0.5,0.4,0.6,0.7c0.3-0.3,0.5-0.5,0.8-0.7s0.6-0.3,1-0.3c0.6,0,1.1,0.2,1.4,0.6c0.3,0.4,0.5,1,0.5,1.8v3.7h-1.8v-3.5
				c0-0.4-0.1-0.7-0.2-0.9s-0.3-0.2-0.6-0.2c-0.3,0-0.6,0.2-1,0.6v4h-1.8v-3.5c0-0.4-0.1-0.7-0.2-0.9s-0.3-0.2-0.6-0.2
				c-0.3,0-0.6,0.2-1,0.6v4L72.7,241.7L72.7,241.7z"/>
			<path class="st3" d="M85.7,241.9c-0.4,0-0.8-0.1-1.2-0.2c-0.4-0.1-0.7-0.3-1-0.6s-0.5-0.6-0.6-1c-0.2-0.4-0.2-0.8-0.2-1.3
				s0.1-0.9,0.2-1.3c0.2-0.4,0.4-0.7,0.6-1c0.3-0.3,0.6-0.5,0.9-0.6s0.7-0.2,1-0.2c0.4,0,0.8,0.1,1.1,0.2c0.3,0.1,0.6,0.3,0.8,0.6
				c0.2,0.3,0.4,0.6,0.5,0.9c0.1,0.3,0.2,0.7,0.2,1.1c0,0.2,0,0.3,0,0.5c0,0.1,0,0.3,0,0.3h-3.6c0.1,0.4,0.3,0.8,0.5,1
				s0.6,0.3,1,0.3s0.9-0.1,1.3-0.4l0.6,1.1c-0.3,0.2-0.6,0.4-1,0.5C86.4,241.8,86,241.9,85.7,241.9z M84.4,238.1h2.1
				c0-0.3-0.1-0.6-0.2-0.8s-0.4-0.3-0.8-0.3c-0.3,0-0.5,0.1-0.7,0.3C84.6,237.4,84.4,237.7,84.4,238.1z"/>
			<path class="st3" d="M89.2,241.7v-6h1.4l0.1,0.8l0,0c0.3-0.2,0.5-0.5,0.8-0.6c0.3-0.2,0.7-0.3,1.1-0.3c0.6,0,1.1,0.2,1.4,0.6
				c0.3,0.4,0.4,1,0.4,1.8v3.7h-1.8v-3.5c0-0.4-0.1-0.7-0.2-0.9s-0.3-0.2-0.6-0.2c-0.2,0-0.4,0-0.6,0.2c-0.2,0.1-0.3,0.2-0.5,0.4v4
				H89.2z"/>
			<path class="st3" d="M98.4,241.9c-0.4,0-0.7-0.1-0.9-0.2c-0.3-0.1-0.5-0.3-0.6-0.5c-0.2-0.2-0.3-0.4-0.4-0.7s-0.1-0.6-0.1-0.9
				v-2.4h-0.8v-1.3l0.9-0.1l0.2-1.6h1.5v1.6h1.4v1.4h-1.4v2.4c0,0.3,0.1,0.6,0.2,0.7c0.1,0.1,0.3,0.2,0.6,0.2c0.1,0,0.2,0,0.3,0
				c0.1,0,0.2-0.1,0.3-0.1l0.3,1.3c-0.2,0-0.3,0.1-0.6,0.1S98.7,241.9,98.4,241.9z"/>
			<path class="st3" d="M103,241.9c-0.4,0-0.7-0.1-1.1-0.2c-0.4-0.1-0.7-0.3-0.9-0.6c-0.3-0.3-0.5-0.6-0.6-1
				c-0.2-0.4-0.2-0.8-0.2-1.3s0.1-0.9,0.2-1.3s0.4-0.7,0.6-1c0.3-0.3,0.6-0.5,0.9-0.6c0.4-0.1,0.7-0.2,1.1-0.2s0.7,0.1,1.1,0.2
				s0.7,0.3,0.9,0.6c0.3,0.3,0.5,0.6,0.6,1c0.2,0.4,0.2,0.8,0.2,1.3s-0.1,0.9-0.2,1.3c-0.2,0.4-0.4,0.7-0.6,1
				c-0.3,0.3-0.6,0.5-0.9,0.6C103.8,241.8,103.4,241.9,103,241.9z M103,240.4c0.4,0,0.6-0.2,0.8-0.5c0.2-0.3,0.3-0.7,0.3-1.2
				s-0.1-0.9-0.3-1.2c-0.2-0.3-0.5-0.5-0.8-0.5c-0.4,0-0.6,0.2-0.8,0.5c-0.2,0.3-0.3,0.7-0.3,1.2s0.1,0.9,0.3,1.2
				C102.4,240.3,102.7,240.4,103,240.4z"/>
		</g>
		<g>
			<path class="st3" d="M260.7,133.3h-64.4c-1.3,0-2.5,1.1-2.5,2.5s1.1,2.5,2.5,2.5h64.4c1.4,0,2.5-1.1,2.5-2.5
				C263.2,134.4,262.1,133.3,260.7,133.3L260.7,133.3z"/>
			<path class="st3" d="M271.7,123.4h-75.4c-1.4,0-2.5,1.1-2.5,2.5s1.1,2.5,2.5,2.5h75.4c1.4,0,2.5-1.1,2.5-2.5
				C274.1,124.5,273,123.4,271.7,123.4L271.7,123.4z"/>
		</g>
		<g>
			<path class="st3" d="M194.8,114.9v-7.8h1.8l2,3.9l0.8,1.7l0,0c0-0.4-0.1-0.9-0.1-1.4c-0.1-0.5-0.1-1-0.1-1.5V107h1.7v7.8h-1.8
				l-2-3.9l-0.8-1.7l0,0c0,0.4,0.1,0.9,0.1,1.4s0.1,1,0.1,1.4v2.8L194.8,114.9L194.8,114.9z"/>
			<path class="st3" d="M205.2,115.1c-0.4,0-0.7-0.1-1.1-0.2c-0.4-0.1-0.7-0.3-0.9-0.6c-0.3-0.3-0.5-0.6-0.6-1s-0.2-0.8-0.2-1.3
				s0.1-0.9,0.2-1.3c0.2-0.4,0.4-0.7,0.6-1c0.3-0.3,0.6-0.5,0.9-0.6c0.4-0.1,0.7-0.2,1.1-0.2s0.7,0.1,1.1,0.2
				c0.3,0.1,0.7,0.3,0.9,0.6c0.3,0.3,0.5,0.6,0.6,1c0.2,0.4,0.2,0.8,0.2,1.3s-0.1,0.9-0.2,1.3s-0.4,0.7-0.6,1
				c-0.3,0.3-0.6,0.5-0.9,0.6C205.9,115,205.6,115.1,205.2,115.1z M205.2,113.7c0.4,0,0.6-0.2,0.8-0.5s0.3-0.7,0.3-1.2
				s-0.1-0.9-0.3-1.2s-0.5-0.5-0.8-0.5c-0.4,0-0.6,0.2-0.8,0.5s-0.3,0.7-0.3,1.2s0.1,0.9,0.3,1.2
				C204.5,113.5,204.8,113.7,205.2,113.7z"/>
			<path class="st3" d="M209.3,114.9v-6h1.4l0.1,0.8l0,0c0.2-0.2,0.5-0.5,0.8-0.6c0.3-0.2,0.6-0.3,1-0.3s0.8,0.1,1,0.3
				s0.5,0.4,0.6,0.7c0.3-0.3,0.5-0.5,0.8-0.7s0.6-0.3,1-0.3c0.6,0,1.1,0.2,1.4,0.6c0.3,0.4,0.5,1,0.5,1.8v3.7h-1.8v-3.5
				c0-0.4-0.1-0.7-0.2-0.9c-0.1-0.2-0.3-0.2-0.6-0.2s-0.6,0.2-1,0.6v4h-1.8v-3.5c0-0.4-0.1-0.7-0.2-0.9c-0.1-0.2-0.3-0.2-0.6-0.2
				s-0.6,0.2-1,0.6v4H209.3z"/>
			<path class="st3" d="M222.7,115.1c-0.3,0-0.5-0.1-0.8-0.2s-0.5-0.3-0.8-0.6l0,0l-0.1,0.6h-1.4v-8.4h1.8v2.1v0.9
				c0.2-0.2,0.5-0.4,0.8-0.5s0.5-0.2,0.8-0.2c0.4,0,0.7,0.1,1,0.2s0.5,0.3,0.7,0.6s0.4,0.6,0.5,0.9c0.1,0.4,0.2,0.8,0.2,1.2
				c0,0.5-0.1,1-0.2,1.4c-0.1,0.4-0.3,0.7-0.6,1c-0.2,0.3-0.5,0.5-0.8,0.6C223.3,115,223,115.1,222.7,115.1z M222.3,113.6
				c0.3,0,0.6-0.1,0.8-0.4s0.3-0.7,0.3-1.3c0-1.1-0.3-1.6-1-1.6c-0.4,0-0.7,0.2-1,0.5v2.4c0.2,0.1,0.3,0.2,0.5,0.3
				C222,113.6,222.1,113.6,222.3,113.6z"/>
			<path class="st3" d="M226.5,114.9v-6h1.4l0.1,1l0,0c0.2-0.4,0.5-0.7,0.8-0.9s0.6-0.3,0.9-0.3c0.2,0,0.3,0,0.4,0
				c0.1,0,0.2,0,0.3,0.1l-0.3,1.5c-0.1,0-0.2-0.1-0.3-0.1s-0.2,0-0.3,0c-0.2,0-0.5,0.1-0.7,0.2c-0.2,0.2-0.4,0.4-0.6,0.9v3.5h-1.7
				V114.9z"/>
			<path class="st3" d="M233.8,115.1c-0.4,0-0.8-0.1-1.2-0.2s-0.7-0.3-1-0.6c-0.3-0.3-0.5-0.6-0.6-1c-0.2-0.4-0.2-0.8-0.2-1.3
				s0.1-0.9,0.2-1.3s0.4-0.7,0.6-1c0.3-0.3,0.6-0.5,0.9-0.6s0.7-0.2,1-0.2c0.4,0,0.8,0.1,1.1,0.2s0.6,0.3,0.8,0.6
				c0.2,0.3,0.4,0.6,0.5,0.9s0.2,0.7,0.2,1.1c0,0.2,0,0.3,0,0.5c0,0.1,0,0.3,0,0.3h-3.6c0.1,0.4,0.3,0.8,0.5,1s0.6,0.3,1,0.3
				s0.9-0.1,1.3-0.4l0.6,1.1c-0.3,0.2-0.6,0.4-1,0.5C234.5,115,234.1,115.1,233.8,115.1z M232.5,111.3h2.1c0-0.3-0.1-0.6-0.2-0.8
				s-0.4-0.3-0.8-0.3c-0.3,0-0.5,0.1-0.7,0.3S232.5,110.9,232.5,111.3z"/>
		</g>
		<path class="st3" d="M271.7,169.6h-75.4c-1.4,0-2.5,1.1-2.5,2.5s1.1,2.5,2.5,2.5h75.4c1.4,0,2.5-1.1,2.5-2.5
			C274.1,170.7,273,169.6,271.7,169.6L271.7,169.6z"/>
		<g>
			<path class="st3" d="M197.2,161.3c-0.5,0-1-0.1-1.5-0.3s-1-0.5-1.4-0.8l1-1.2c0.3,0.2,0.6,0.4,0.9,0.6c0.3,0.2,0.7,0.2,1,0.2
				c0.4,0,0.6-0.1,0.8-0.2c0.2-0.1,0.3-0.3,0.3-0.6c0-0.1,0-0.2-0.1-0.3s-0.1-0.2-0.2-0.2s-0.2-0.1-0.4-0.2
				c-0.1-0.1-0.3-0.1-0.5-0.2l-1-0.4c-0.2-0.1-0.4-0.2-0.6-0.3c-0.2-0.1-0.4-0.3-0.5-0.5s-0.3-0.4-0.4-0.6c-0.1-0.2-0.1-0.5-0.1-0.8
				s0.1-0.6,0.2-0.9c0.1-0.3,0.3-0.5,0.6-0.7c0.2-0.2,0.5-0.4,0.9-0.5c0.3-0.1,0.7-0.2,1.1-0.2c0.5,0,0.9,0.1,1.4,0.3
				c0.4,0.2,0.8,0.4,1.2,0.8l-0.9,1.1c-0.3-0.2-0.5-0.4-0.8-0.5s-0.5-0.2-0.9-0.2c-0.3,0-0.5,0.1-0.7,0.2s-0.3,0.3-0.3,0.5
				c0,0.1,0,0.2,0.1,0.3s0.1,0.2,0.3,0.2c0.1,0.1,0.2,0.1,0.4,0.2c0.1,0.1,0.3,0.1,0.5,0.2l1,0.4c0.5,0.2,0.9,0.5,1.1,0.8
				c0.3,0.3,0.4,0.8,0.4,1.3c0,0.3-0.1,0.6-0.2,0.9c-0.1,0.3-0.3,0.5-0.6,0.8c-0.3,0.2-0.6,0.4-0.9,0.5
				C198.1,161.2,197.6,161.3,197.2,161.3z"/>
			<path class="st3" d="M204,161.3c-0.4,0-0.8-0.1-1.2-0.2c-0.4-0.1-0.7-0.3-1-0.6s-0.5-0.6-0.6-1c-0.2-0.4-0.2-0.8-0.2-1.3
				s0.1-0.9,0.2-1.3s0.4-0.7,0.6-1c0.3-0.3,0.6-0.5,0.9-0.6c0.3-0.1,0.7-0.2,1-0.2c0.4,0,0.8,0.1,1.1,0.2c0.3,0.1,0.6,0.3,0.8,0.6
				s0.4,0.6,0.5,0.9c0.1,0.3,0.2,0.7,0.2,1.1c0,0.2,0,0.3,0,0.5c0,0.1,0,0.3,0,0.3h-3.6c0.1,0.4,0.3,0.8,0.5,1s0.6,0.3,1,0.3
				s0.9-0.1,1.3-0.4l0.6,1.1c-0.3,0.2-0.6,0.4-1,0.5C204.7,161.2,204.3,161.3,204,161.3z M202.7,157.5h2.1c0-0.3-0.1-0.6-0.2-0.8
				s-0.4-0.3-0.8-0.3c-0.3,0-0.5,0.1-0.7,0.3S202.7,157.1,202.7,157.5z"/>
			<path class="st3" d="M206.7,161.1l1.8-3.1l-1.7-2.9h1.9l0.5,1c0.1,0.2,0.2,0.3,0.2,0.5s0.2,0.3,0.3,0.5l0,0
				c0.1-0.2,0.1-0.3,0.2-0.5c0.1-0.2,0.1-0.3,0.2-0.5l0.4-1h1.8l-1.7,3.1l1.8,2.9h-1.9l-0.6-1c-0.1-0.2-0.2-0.3-0.3-0.5
				s-0.2-0.3-0.3-0.5l0,0c-0.1,0.2-0.1,0.3-0.2,0.5s-0.2,0.3-0.2,0.5l-0.5,1H206.7z"/>
			<path class="st3" d="M215.8,161.3c-0.4,0-0.7-0.1-1.1-0.2c-0.4-0.1-0.7-0.3-0.9-0.6s-0.5-0.6-0.6-1c-0.2-0.4-0.2-0.8-0.2-1.3
				s0.1-0.9,0.2-1.3c0.2-0.4,0.4-0.7,0.6-1c0.3-0.3,0.6-0.5,0.9-0.6c0.4-0.1,0.7-0.2,1.1-0.2s0.7,0.1,1.1,0.2
				c0.3,0.1,0.7,0.3,0.9,0.6c0.3,0.3,0.5,0.6,0.6,1c0.2,0.4,0.2,0.8,0.2,1.3s-0.1,0.9-0.2,1.3c-0.2,0.4-0.4,0.7-0.6,1
				c-0.3,0.3-0.6,0.5-0.9,0.6C216.5,161.2,216.1,161.3,215.8,161.3z M215.8,159.8c0.4,0,0.6-0.2,0.8-0.5s0.3-0.7,0.3-1.2
				s-0.1-0.9-0.3-1.2s-0.5-0.5-0.8-0.5c-0.4,0-0.6,0.2-0.8,0.5s-0.3,0.7-0.3,1.2s0.1,0.9,0.3,1.2
				C215.1,159.7,215.4,159.8,215.8,159.8z"/>
		</g>
		<path class="st3" d="M408.2,169.6H289.3c-1.4,0-2.5,1.1-2.5,2.5s1.1,2.5,2.5,2.5h118.9c1.4,0,2.5-1.1,2.5-2.5
			C410.7,170.7,409.6,169.6,408.2,169.6L408.2,169.6z"/>
		<g>
			<path class="st3" d="M287.8,161.1v-7.8h1.8l2,3.9l0.8,1.7l0,0c0-0.4-0.1-0.9-0.1-1.4c-0.1-0.5-0.1-1-0.1-1.5v-2.8h1.7v7.8h-1.8
				l-2-3.9l-0.8-1.7l0,0c0,0.4,0.1,0.9,0.1,1.4s0.1,1,0.1,1.4v2.8h-1.7V161.1z"/>
			<path class="st3" d="M297.1,161.3c-0.3,0-0.5,0-0.7-0.1s-0.4-0.2-0.6-0.4s-0.3-0.4-0.4-0.6c-0.1-0.2-0.1-0.5-0.1-0.7
				c0-0.6,0.3-1.1,0.8-1.5s1.4-0.6,2.6-0.7c0-0.3-0.1-0.5-0.2-0.6c-0.1-0.2-0.4-0.2-0.7-0.2c-0.3,0-0.5,0-0.8,0.1s-0.5,0.2-0.8,0.4
				l-0.6-1.2c0.4-0.2,0.8-0.4,1.2-0.6s0.9-0.2,1.3-0.2c0.8,0,1.4,0.2,1.8,0.7c0.4,0.4,0.6,1.1,0.6,2v3.4H299l-0.1-0.6l0,0
				c-0.3,0.2-0.5,0.4-0.8,0.5C297.8,161.2,297.5,161.3,297.1,161.3z M297.7,159.9c0.2,0,0.4,0,0.5-0.1s0.3-0.2,0.5-0.4v-1
				c-0.6,0.1-1.1,0.2-1.3,0.4c-0.2,0.2-0.4,0.4-0.4,0.6c0,0.2,0.1,0.3,0.2,0.4C297.3,159.9,297.5,159.9,297.7,159.9z"/>
			<path class="st3" d="M304.5,161.3c-0.4,0-0.8-0.1-1.2-0.2c-0.4-0.1-0.7-0.3-0.9-0.6c-0.3-0.3-0.5-0.6-0.6-1
				c-0.2-0.4-0.2-0.8-0.2-1.3s0.1-0.9,0.3-1.3c0.2-0.4,0.4-0.7,0.7-1c0.3-0.3,0.6-0.5,1-0.6s0.8-0.2,1.2-0.2c0.4,0,0.7,0.1,1,0.2
				c0.3,0.1,0.5,0.3,0.8,0.5l-0.8,1.1c-0.3-0.2-0.5-0.3-0.8-0.3c-0.4,0-0.8,0.2-1,0.5s-0.4,0.7-0.4,1.2s0.1,0.9,0.4,1.2
				s0.6,0.5,1,0.5c0.2,0,0.4,0,0.6-0.1s0.4-0.2,0.5-0.3l0.7,1.2c-0.3,0.3-0.6,0.4-1,0.5C305.2,161.2,304.9,161.3,304.5,161.3z"/>
			<path class="st3" d="M308.4,154.3c-0.3,0-0.5-0.1-0.7-0.3s-0.3-0.4-0.3-0.7s0.1-0.5,0.3-0.7c0.2-0.2,0.4-0.3,0.7-0.3
				c0.3,0,0.6,0.1,0.7,0.3s0.3,0.4,0.3,0.7s-0.1,0.5-0.3,0.7S308.7,154.3,308.4,154.3z M307.5,161.1v-6h1.8v6H307.5z"/>
			<path class="st3" d="M313.4,161.3c-0.4,0-0.7-0.1-1.1-0.2c-0.4-0.1-0.7-0.3-0.9-0.6c-0.3-0.3-0.5-0.6-0.6-1
				c-0.2-0.4-0.2-0.8-0.2-1.3s0.1-0.9,0.2-1.3c0.2-0.4,0.4-0.7,0.6-1c0.3-0.3,0.6-0.5,0.9-0.6c0.4-0.1,0.7-0.2,1.1-0.2
				s0.7,0.1,1.1,0.2c0.3,0.1,0.7,0.3,0.9,0.6c0.3,0.3,0.5,0.6,0.6,1c0.2,0.4,0.2,0.8,0.2,1.3s-0.1,0.9-0.2,1.3
				c-0.2,0.4-0.4,0.7-0.6,1c-0.3,0.3-0.6,0.5-0.9,0.6C314.2,161.2,313.8,161.3,313.4,161.3z M313.4,159.8c0.4,0,0.6-0.2,0.8-0.5
				c0.2-0.3,0.3-0.7,0.3-1.2s-0.1-0.9-0.3-1.2s-0.5-0.5-0.8-0.5c-0.4,0-0.6,0.2-0.8,0.5c-0.2,0.3-0.3,0.7-0.3,1.2s0.1,0.9,0.3,1.2
				C312.8,159.7,313,159.8,313.4,159.8z"/>
			<path class="st3" d="M317.5,161.1v-6h1.4l0.1,0.8l0,0c0.3-0.2,0.5-0.5,0.8-0.6c0.3-0.2,0.7-0.3,1.1-0.3c0.6,0,1.1,0.2,1.4,0.6
				c0.3,0.4,0.4,1,0.4,1.8v3.7h-1.8v-3.5c0-0.4-0.1-0.7-0.2-0.9s-0.3-0.2-0.6-0.2c-0.2,0-0.4,0.1-0.6,0.2s-0.3,0.2-0.5,0.4v4H317.5z
				"/>
			<path class="st3" d="M325.9,161.3c-0.3,0-0.5,0-0.7-0.1s-0.4-0.2-0.6-0.4s-0.3-0.4-0.4-0.6c-0.1-0.2-0.1-0.5-0.1-0.7
				c0-0.6,0.3-1.1,0.8-1.5s1.4-0.6,2.6-0.7c0-0.3-0.1-0.5-0.2-0.6c-0.1-0.2-0.4-0.2-0.7-0.2c-0.3,0-0.5,0-0.8,0.1s-0.5,0.2-0.8,0.4
				l-0.6-1.2c0.4-0.2,0.8-0.4,1.2-0.6s0.9-0.2,1.3-0.2c0.8,0,1.4,0.2,1.8,0.7s0.6,1.1,0.6,2v3.4h-1.4l-0.1-0.6l0,0
				c-0.3,0.2-0.5,0.4-0.8,0.5C326.5,161.2,326.2,161.3,325.9,161.3z M326.5,159.9c0.2,0,0.4,0,0.5-0.1s0.3-0.2,0.5-0.4v-1
				c-0.6,0.1-1.1,0.2-1.3,0.4c-0.2,0.2-0.4,0.4-0.4,0.6c0,0.2,0.1,0.3,0.2,0.4C326.1,159.9,326.3,159.9,326.5,159.9z"/>
			<path class="st3" d="M332.3,161.3c-0.3,0-0.6,0-0.8-0.1c-0.2-0.1-0.4-0.2-0.5-0.4s-0.2-0.4-0.3-0.6c-0.1-0.2-0.1-0.5-0.1-0.8
				v-6.6h1.8v6.6c0,0.2,0,0.3,0.1,0.4c0.1,0.1,0.1,0.1,0.2,0.1h0.1h0.1l0.2,1.3c-0.1,0-0.2,0.1-0.4,0.1
				C332.7,161.3,332.5,161.3,332.3,161.3z"/>
			<path class="st3" d="M335,154.3c-0.3,0-0.5-0.1-0.7-0.3s-0.3-0.4-0.3-0.7s0.1-0.5,0.3-0.7c0.2-0.2,0.4-0.3,0.7-0.3
				c0.3,0,0.5,0.1,0.7,0.3s0.3,0.4,0.3,0.7s-0.1,0.5-0.3,0.7C335.6,154.2,335.3,154.3,335,154.3z M334.1,161.1v-6h1.8v6H334.1z"/>
			<path class="st3" d="M339.6,161.3c-0.4,0-0.7-0.1-1-0.2c-0.3-0.1-0.6-0.4-0.8-0.6c-0.2-0.3-0.4-0.6-0.5-1s-0.2-0.8-0.2-1.3
				s0.1-0.9,0.2-1.3c0.1-0.4,0.3-0.7,0.6-1c0.2-0.3,0.5-0.5,0.8-0.6s0.6-0.2,0.9-0.2s0.6,0.1,0.8,0.2c0.2,0.1,0.4,0.3,0.6,0.5
				l-0.1-0.9v-2h1.8v8.4h-1.4l-0.1-0.6l0,0c-0.2,0.2-0.5,0.4-0.7,0.5C340.1,161.2,339.9,161.3,339.6,161.3z M340,159.8
				c0.2,0,0.4,0,0.5-0.1s0.3-0.2,0.5-0.4v-2.4c-0.2-0.1-0.3-0.2-0.5-0.3s-0.3-0.1-0.5-0.1c-0.3,0-0.5,0.1-0.7,0.4
				c-0.2,0.3-0.3,0.7-0.3,1.3s0.1,1,0.3,1.3C339.4,159.7,339.7,159.8,340,159.8z"/>
			<path class="st3" d="M345.8,161.3c-0.3,0-0.5,0-0.7-0.1s-0.4-0.2-0.6-0.4s-0.3-0.4-0.4-0.6c-0.1-0.2-0.1-0.5-0.1-0.7
				c0-0.6,0.3-1.1,0.8-1.5s1.4-0.6,2.6-0.7c0-0.3-0.1-0.5-0.2-0.6c-0.1-0.2-0.4-0.2-0.7-0.2c-0.3,0-0.5,0-0.8,0.1s-0.5,0.2-0.8,0.4
				l-0.6-1.2c0.4-0.2,0.8-0.4,1.2-0.6s0.9-0.2,1.3-0.2c0.8,0,1.4,0.2,1.8,0.7s0.6,1.1,0.6,2v3.4h-1.4l-0.1-0.6l0,0
				c-0.3,0.2-0.5,0.4-0.8,0.5C346.5,161.2,346.2,161.3,345.8,161.3z M346.4,159.9c0.2,0,0.4,0,0.5-0.1s0.3-0.2,0.5-0.4v-1
				c-0.6,0.1-1.1,0.2-1.3,0.4c-0.2,0.2-0.4,0.4-0.4,0.6c0,0.2,0.1,0.3,0.2,0.4C346,159.9,346.2,159.9,346.4,159.9z"/>
			<path class="st3" d="M352.8,161.3c-0.4,0-0.7-0.1-1-0.2c-0.3-0.1-0.6-0.4-0.8-0.6c-0.2-0.3-0.4-0.6-0.5-1s-0.2-0.8-0.2-1.3
				s0.1-0.9,0.2-1.3c0.1-0.4,0.3-0.7,0.6-1c0.2-0.3,0.5-0.5,0.8-0.6s0.6-0.2,0.9-0.2s0.6,0.1,0.8,0.2c0.2,0.1,0.4,0.3,0.6,0.5
				l-0.1-0.9v-2h1.8v8.4h-1.4l-0.1-0.6l0,0c-0.2,0.2-0.5,0.4-0.7,0.5C353.3,161.2,353.1,161.3,352.8,161.3z M353.2,159.8
				c0.2,0,0.4,0,0.5-0.1s0.3-0.2,0.5-0.4v-2.4c-0.2-0.1-0.3-0.2-0.5-0.3s-0.3-0.1-0.5-0.1c-0.3,0-0.5,0.1-0.7,0.4
				c-0.2,0.3-0.3,0.7-0.3,1.3s0.1,1,0.3,1.3C352.6,159.7,352.9,159.8,353.2,159.8z"/>
		</g>
		<g>
			<path class="st3" d="M260.7,222"/>
			<path class="st3" d="M271.7,212.1h-75.4c-1.4,0-2.5,1.1-2.5,2.5s1.1,2.5,2.5,2.5h75.4c1.4,0,2.5-1.1,2.5-2.5
				C274.1,213.2,273,212.1,271.7,212.1L271.7,212.1z"/>
		</g>
		<g>
			<path class="st3" d="M196.2,203.6l-2.4-7.8h1.9l0.9,3.6c0.1,0.4,0.2,0.8,0.3,1.3c0.1,0.4,0.2,0.8,0.3,1.3l0,0
				c0.1-0.4,0.2-0.9,0.3-1.3c0.1-0.4,0.2-0.8,0.3-1.3l0.9-3.6h1.8l-2.4,7.8H196.2z"/>
			<path class="st3" d="M203.8,203.7c-0.4,0-0.8-0.1-1.2-0.2s-0.7-0.3-1-0.6s-0.5-0.6-0.6-1c-0.2-0.4-0.2-0.8-0.2-1.3
				s0.1-0.9,0.2-1.3c0.2-0.4,0.4-0.7,0.6-1c0.3-0.3,0.6-0.5,0.9-0.6c0.3-0.1,0.7-0.2,1-0.2c0.4,0,0.8,0.1,1.1,0.2
				c0.3,0.1,0.6,0.3,0.8,0.6s0.4,0.6,0.5,0.9c0.1,0.3,0.2,0.7,0.2,1.1c0,0.2,0,0.3,0,0.5c0,0.1,0,0.3,0,0.3h-3.6
				c0.1,0.4,0.3,0.8,0.5,1s0.6,0.3,1,0.3s0.9-0.1,1.3-0.4l0.6,1.1c-0.3,0.2-0.6,0.4-1,0.5S204.1,203.7,203.8,203.7z M202.4,200h2.1
				c0-0.3-0.1-0.6-0.2-0.8s-0.4-0.3-0.8-0.3c-0.3,0-0.5,0.1-0.7,0.3C202.6,199.3,202.5,199.6,202.4,200z"/>
			<path class="st3" d="M207.3,203.6v-6h1.4l0.1,0.8l0,0c0.3-0.2,0.5-0.5,0.8-0.6c0.3-0.2,0.7-0.3,1.1-0.3c0.6,0,1.1,0.2,1.4,0.6
				s0.4,1,0.4,1.8v3.7h-1.8v-3.5c0-0.4-0.1-0.7-0.2-0.9c-0.1-0.2-0.3-0.2-0.6-0.2c-0.2,0-0.4,0.1-0.6,0.2c-0.2,0.1-0.3,0.2-0.5,0.4
				v4H207.3z"/>
			<path class="st3" d="M216.8,203.7c-0.4,0-0.8-0.1-1.2-0.2s-0.7-0.3-0.9-0.6c-0.3-0.3-0.5-0.6-0.6-1c-0.2-0.4-0.2-0.8-0.2-1.3
				s0.1-0.9,0.3-1.3c0.2-0.4,0.4-0.7,0.7-1s0.6-0.5,1-0.6s0.8-0.2,1.2-0.2s0.7,0.1,1,0.2c0.3,0.1,0.5,0.3,0.8,0.5l-0.8,1.1
				c-0.3-0.2-0.5-0.3-0.8-0.3c-0.4,0-0.8,0.2-1,0.5s-0.4,0.7-0.4,1.2s0.1,0.9,0.4,1.2s0.6,0.5,1,0.5c0.2,0,0.4,0,0.6-0.1
				c0.2-0.1,0.4-0.2,0.5-0.3l0.7,1.2c-0.3,0.3-0.6,0.4-1,0.5C217.4,203.7,217.1,203.7,216.8,203.7z"/>
			<path class="st3" d="M220.7,196.8c-0.3,0-0.5-0.1-0.7-0.3s-0.3-0.4-0.3-0.7s0.1-0.5,0.3-0.7s0.4-0.3,0.7-0.3s0.5,0.1,0.7,0.3
				s0.3,0.4,0.3,0.7s-0.1,0.5-0.3,0.7S221,196.8,220.7,196.8z M219.8,203.6v-6h1.8v6H219.8z"/>
			<path class="st3" d="M223.1,203.6v-6h1.4l0.1,0.8l0,0c0.2-0.2,0.5-0.5,0.8-0.6s0.6-0.3,1-0.3s0.8,0.1,1,0.3s0.5,0.4,0.6,0.7
				c0.3-0.3,0.5-0.5,0.8-0.7s0.6-0.3,1-0.3c0.6,0,1.1,0.2,1.4,0.6s0.5,1,0.5,1.8v3.7h-1.8v-3.5c0-0.4-0.1-0.7-0.2-0.9
				s-0.3-0.2-0.6-0.2s-0.6,0.2-1,0.6v4h-1.8v-3.5c0-0.4-0.1-0.7-0.2-0.9c-0.1-0.2-0.3-0.2-0.6-0.2s-0.6,0.2-1,0.6v4L223.1,203.6
				L223.1,203.6z"/>
			<path class="st3" d="M234.3,196.8c-0.3,0-0.5-0.1-0.7-0.3s-0.3-0.4-0.3-0.7s0.1-0.5,0.3-0.7s0.4-0.3,0.7-0.3s0.5,0.1,0.7,0.3
				s0.3,0.4,0.3,0.7s-0.1,0.5-0.3,0.7S234.6,196.8,234.3,196.8z M233.4,203.6v-6h1.8v6H233.4z"/>
			<path class="st3" d="M239.4,203.7c-0.4,0-0.8-0.1-1.2-0.2s-0.7-0.3-1-0.6s-0.5-0.6-0.6-1c-0.2-0.4-0.2-0.8-0.2-1.3
				s0.1-0.9,0.2-1.3c0.2-0.4,0.4-0.7,0.6-1c0.3-0.3,0.6-0.5,0.9-0.6c0.3-0.1,0.7-0.2,1-0.2c0.4,0,0.8,0.1,1.1,0.2
				c0.3,0.1,0.6,0.3,0.8,0.6s0.4,0.6,0.5,0.9c0.1,0.3,0.2,0.7,0.2,1.1c0,0.2,0,0.3,0,0.5c0,0.1,0,0.3,0,0.3H238
				c0.1,0.4,0.3,0.8,0.5,1s0.6,0.3,1,0.3s0.9-0.1,1.3-0.4l0.6,1.1c-0.3,0.2-0.6,0.4-1,0.5S239.7,203.7,239.4,203.7z M238,200h2.1
				c0-0.3-0.1-0.6-0.2-0.8s-0.4-0.3-0.8-0.3c-0.3,0-0.5,0.1-0.7,0.3C238.2,199.3,238.1,199.6,238,200z"/>
			<path class="st3" d="M242.9,203.6v-6h1.4l0.1,0.8l0,0c0.3-0.2,0.5-0.5,0.8-0.6c0.3-0.2,0.7-0.3,1.1-0.3c0.6,0,1.1,0.2,1.4,0.6
				s0.4,1,0.4,1.8v3.7h-1.8v-3.5c0-0.4-0.1-0.7-0.2-0.9s-0.3-0.2-0.6-0.2c-0.2,0-0.4,0.1-0.6,0.2c-0.2,0.1-0.3,0.2-0.5,0.4v4H242.9z
				"/>
			<path class="st3" d="M252.1,203.7c-0.4,0-0.7-0.1-0.9-0.2c-0.3-0.1-0.5-0.3-0.6-0.5s-0.3-0.4-0.4-0.7c-0.1-0.3-0.1-0.6-0.1-0.9
				V199h-0.8v-1.3l0.9-0.1l0.2-1.6h1.5v1.6h1.4v1.4h-1.4v2.4c0,0.3,0.1,0.6,0.2,0.7c0.1,0.1,0.3,0.2,0.6,0.2c0.1,0,0.2,0,0.3,0
				s0.2-0.1,0.3-0.1l0.3,1.3c-0.2,0-0.3,0.1-0.6,0.1C252.6,203.7,252.3,203.7,252.1,203.7z"/>
			<path class="st3" d="M256.7,203.7c-0.4,0-0.7-0.1-1.1-0.2c-0.4-0.1-0.7-0.3-0.9-0.6c-0.3-0.3-0.5-0.6-0.6-1
				c-0.2-0.4-0.2-0.8-0.2-1.3s0.1-0.9,0.2-1.3c0.2-0.4,0.4-0.7,0.6-1c0.3-0.3,0.6-0.5,0.9-0.6c0.4-0.1,0.7-0.2,1.1-0.2
				s0.7,0.1,1.1,0.2c0.3,0.1,0.7,0.3,0.9,0.6c0.3,0.3,0.5,0.6,0.6,1c0.2,0.4,0.2,0.8,0.2,1.3s-0.1,0.9-0.2,1.3
				c-0.2,0.4-0.4,0.7-0.6,1c-0.3,0.3-0.6,0.5-0.9,0.6S257.1,203.7,256.7,203.7z M256.7,202.3c0.4,0,0.6-0.2,0.8-0.5
				c0.2-0.3,0.3-0.7,0.3-1.2s-0.1-0.9-0.3-1.2c-0.2-0.3-0.5-0.5-0.8-0.5c-0.4,0-0.6,0.2-0.8,0.5s-0.3,0.7-0.3,1.2s0.1,0.9,0.3,1.2
				S256.3,202.3,256.7,202.3z"/>
		</g>
		<g>
			<path class="st4" d="M196.3,239.2v-6.3h-2.1v-1.5h6.1v1.5h-2.1v6.3H196.3z"/>
			<path class="st4" d="M200.8,239.2v-6h1.4l0.1,1l0,0c0.2-0.4,0.5-0.7,0.8-0.9s0.6-0.3,0.9-0.3c0.2,0,0.3,0,0.4,0
				c0.1,0,0.2,0,0.3,0.1l-0.3,1.5c-0.1,0-0.2-0.1-0.3-0.1s-0.2,0-0.3,0c-0.2,0-0.5,0.1-0.7,0.2c-0.2,0.2-0.4,0.4-0.6,0.9v3.5h-1.7
				V239.2z"/>
			<path class="st4" d="M206.8,239.4c-0.3,0-0.5,0-0.7-0.1s-0.4-0.2-0.6-0.4s-0.3-0.4-0.4-0.6s-0.1-0.5-0.1-0.7
				c0-0.6,0.3-1.1,0.8-1.5s1.4-0.6,2.6-0.7c0-0.3-0.1-0.5-0.2-0.6c-0.1-0.2-0.4-0.2-0.7-0.2s-0.5,0-0.8,0.1s-0.5,0.2-0.8,0.4
				l-0.6-1.2c0.4-0.2,0.8-0.4,1.2-0.6c0.4-0.1,0.9-0.2,1.3-0.2c0.8,0,1.4,0.2,1.8,0.7c0.4,0.4,0.6,1.1,0.6,2v3.4h-1.4l-0.1-0.6l0,0
				c-0.3,0.2-0.5,0.4-0.8,0.5C207.4,239.3,207.1,239.4,206.8,239.4z M207.4,238c0.2,0,0.4,0,0.5-0.1s0.3-0.2,0.5-0.4v-1
				c-0.6,0.1-1.1,0.2-1.3,0.4s-0.4,0.4-0.4,0.6c0,0.2,0.1,0.3,0.2,0.4S207.2,238,207.4,238z M207.9,232.4l-0.9-0.9l1.8-2.2l1.2,1.2
				L207.9,232.4z"/>
			<path class="st4" d="M211.6,239.2v-6h1.4l0.1,0.8l0,0c0.2-0.2,0.5-0.5,0.8-0.6c0.3-0.2,0.6-0.3,1-0.3s0.8,0.1,1,0.3
				s0.5,0.4,0.6,0.7c0.3-0.3,0.5-0.5,0.8-0.7s0.6-0.3,1-0.3c0.6,0,1.1,0.2,1.4,0.6s0.5,1,0.5,1.8v3.7h-1.8v-3.5
				c0-0.4-0.1-0.7-0.2-0.9s-0.3-0.2-0.6-0.2s-0.6,0.2-1,0.6v4h-1.8v-3.5c0-0.4-0.1-0.7-0.2-0.9c-0.1-0.2-0.3-0.2-0.6-0.2
				s-0.6,0.2-1,0.6v4L211.6,239.2L211.6,239.2z"/>
			<path class="st4" d="M222.7,232.4c-0.3,0-0.5-0.1-0.7-0.3s-0.3-0.4-0.3-0.7s0.1-0.5,0.3-0.7s0.4-0.3,0.7-0.3s0.5,0.1,0.7,0.3
				s0.3,0.4,0.3,0.7s-0.1,0.5-0.3,0.7C223.3,232.3,223,232.4,222.7,232.4z M221.9,239.2v-6h1.8v6H221.9z"/>
			<path class="st4" d="M227.5,239.4c-0.4,0-0.7-0.1-0.9-0.2c-0.3-0.1-0.5-0.3-0.6-0.5s-0.3-0.4-0.4-0.7c-0.1-0.3-0.1-0.6-0.1-0.9
				v-2.4h-0.8v-1.3l0.9-0.1l0.2-1.6h1.5v1.6h1.4v1.4h-1.4v2.4c0,0.3,0.1,0.6,0.2,0.7c0.1,0.1,0.3,0.2,0.6,0.2c0.1,0,0.2,0,0.3,0
				s0.2-0.1,0.3-0.1l0.3,1.3c-0.2,0-0.3,0.1-0.6,0.1C228,239.3,227.8,239.4,227.5,239.4z"/>
			<path class="st4" d="M232.2,239.4c-0.4,0-0.8-0.1-1.2-0.2s-0.7-0.3-1-0.6s-0.5-0.6-0.6-1c-0.2-0.4-0.2-0.8-0.2-1.3
				s0.1-0.9,0.2-1.3c0.2-0.4,0.4-0.7,0.6-1c0.3-0.3,0.6-0.5,0.9-0.6c0.3-0.1,0.7-0.2,1-0.2c0.4,0,0.8,0.1,1.1,0.2
				c0.3,0.1,0.6,0.3,0.8,0.6s0.4,0.6,0.5,0.9c0.1,0.3,0.2,0.7,0.2,1.1c0,0.2,0,0.3,0,0.5c0,0.1,0,0.3,0,0.3h-3.6
				c0.1,0.4,0.3,0.8,0.5,1s0.6,0.3,1,0.3s0.9-0.1,1.3-0.4l0.6,1.1c-0.3,0.2-0.6,0.4-1,0.5S232.6,239.4,232.2,239.4z M230.9,235.6
				h2.1c0-0.3-0.1-0.6-0.2-0.8s-0.4-0.3-0.8-0.3c-0.3,0-0.5,0.1-0.7,0.3C231.1,234.9,231,235.2,230.9,235.6z"/>
			<path class="st4" d="M238.3,239.2v-7.8h1.8l2,3.9l0.8,1.7l0,0c0-0.4-0.1-0.9-0.1-1.4c-0.1-0.5-0.1-1-0.1-1.5v-2.8h1.7v7.8h-1.8
				l-2-3.9l-0.8-1.7l0,0c0,0.4,0.1,0.9,0.1,1.4c0.1,0.5,0.1,1,0.1,1.4v2.8h-1.7V239.2z"/>
			<path class="st4" d="M247.6,234.8c-0.3,0-0.5,0-0.7-0.1s-0.4-0.2-0.6-0.4s-0.3-0.4-0.4-0.6c-0.1-0.3-0.2-0.5-0.2-0.9
				s0.1-0.6,0.2-0.9c0.1-0.3,0.3-0.5,0.4-0.7c0.2-0.2,0.4-0.3,0.6-0.4s0.5-0.1,0.7-0.1c0.3,0,0.5,0,0.7,0.1s0.4,0.2,0.6,0.4
				c0.2,0.2,0.3,0.4,0.4,0.7c0.1,0.3,0.2,0.5,0.2,0.9s-0.1,0.6-0.2,0.9c-0.1,0.3-0.3,0.5-0.4,0.6s-0.4,0.3-0.6,0.4
				S247.9,234.8,247.6,234.8z M247.6,233.8c0.2,0,0.4-0.1,0.5-0.3s0.2-0.5,0.2-0.8s-0.1-0.6-0.2-0.8c-0.1-0.2-0.3-0.3-0.5-0.3
				s-0.4,0.1-0.5,0.3s-0.2,0.5-0.2,0.8s0.1,0.6,0.2,0.8S247.4,233.8,247.6,233.8z"/>
			<path class="st4" d="M252.4,241.1l2.4-10.4h1.2l-2.4,10.4H252.4z"/>
			<path class="st4" d="M262.8,239.4c-0.5,0-1-0.1-1.4-0.3s-0.8-0.5-1.1-0.8c-0.3-0.4-0.6-0.8-0.7-1.3c-0.2-0.5-0.3-1.1-0.3-1.7
				s0.1-1.2,0.3-1.7c0.2-0.5,0.4-0.9,0.7-1.3c0.3-0.3,0.7-0.6,1.1-0.8s0.9-0.3,1.4-0.3s1,0.1,1.4,0.3s0.8,0.4,1.1,0.8
				c0.3,0.3,0.6,0.8,0.7,1.3c0.2,0.5,0.3,1.1,0.3,1.7c0,0.6-0.1,1.2-0.3,1.7c-0.2,0.5-0.4,0.9-0.7,1.3c-0.3,0.4-0.7,0.6-1.1,0.8
				C263.8,239.3,263.4,239.4,262.8,239.4z M262.8,237.8c0.5,0,1-0.2,1.3-0.7s0.5-1.1,0.5-1.9c0-0.8-0.2-1.4-0.5-1.8
				c-0.3-0.4-0.7-0.7-1.3-0.7c-0.5,0-1,0.2-1.3,0.7c-0.3,0.4-0.5,1.1-0.5,1.8c0,0.8,0.2,1.4,0.5,1.9
				C261.9,237.6,262.3,237.8,262.8,237.8z"/>
			<path class="st4" d="M268,239.2v-4.6h-0.8v-1.3l0.8-0.1V233c0-0.3,0-0.6,0.1-0.9c0.1-0.3,0.2-0.5,0.4-0.7
				c0.2-0.2,0.4-0.4,0.7-0.5s0.6-0.2,1-0.2c0.2,0,0.5,0,0.7,0.1s0.4,0.1,0.5,0.1l-0.3,1.3c-0.2-0.1-0.4-0.1-0.6-0.1
				s-0.4,0.1-0.5,0.2c-0.1,0.1-0.2,0.3-0.2,0.7v0.4h1.1v1.4h-1.1v4.6H268V239.2z"/>
			<path class="st4" d="M272.1,239.4c-0.3,0-0.6-0.1-0.8-0.3s-0.3-0.5-0.3-0.8s0.1-0.6,0.3-0.8s0.5-0.3,0.8-0.3s0.6,0.1,0.8,0.3
				c0.2,0.2,0.3,0.5,0.3,0.8s-0.1,0.6-0.3,0.8C272.6,239.3,272.4,239.4,272.1,239.4z"/>
			<path class="st4" d="M195.7,253.8c-0.3,0-0.6-0.1-0.8-0.3s-0.3-0.5-0.3-0.8s0.1-0.6,0.3-0.8s0.5-0.3,0.8-0.3s0.6,0.1,0.8,0.3
				s0.3,0.5,0.3,0.8s-0.1,0.6-0.3,0.8S196,253.8,195.7,253.8z"/>
		</g>
		<g>
			<path class="st4" d="M196.6,253.1c-0.7,0-1.3-0.3-1.7-0.9s-0.6-1.5-0.6-2.7s0.2-2.1,0.6-2.7s0.9-0.9,1.7-0.9
				c0.7,0,1.3,0.3,1.7,0.9s0.6,1.5,0.6,2.7s-0.2,2.1-0.6,2.7S197.3,253.1,196.6,253.1z M196.6,252.4c0.2,0,0.4-0.1,0.6-0.2
				c0.2-0.1,0.3-0.3,0.4-0.5s0.2-0.5,0.3-0.9s0.1-0.8,0.1-1.3s0-1-0.1-1.3c-0.1-0.4-0.2-0.7-0.3-0.9s-0.3-0.4-0.4-0.5
				s-0.4-0.2-0.6-0.2c-0.2,0-0.4,0.1-0.6,0.2c-0.2,0.1-0.3,0.3-0.4,0.5c-0.1,0.2-0.2,0.5-0.3,0.9s-0.1,0.8-0.1,1.3
				c0,1,0.1,1.8,0.4,2.2S196.2,252.4,196.6,252.4z"/>
			<path class="st4" d="M202.1,253.1c-0.7,0-1.3-0.3-1.7-0.9s-0.6-1.5-0.6-2.7s0.2-2.1,0.6-2.7s0.9-0.9,1.7-0.9
				c0.7,0,1.3,0.3,1.7,0.9s0.6,1.5,0.6,2.7s-0.2,2.1-0.6,2.7S202.8,253.1,202.1,253.1z M202.1,252.4c0.2,0,0.4-0.1,0.6-0.2
				c0.2-0.1,0.3-0.3,0.4-0.5s0.2-0.5,0.3-0.9s0.1-0.8,0.1-1.3s0-1-0.1-1.3c-0.1-0.4-0.2-0.7-0.3-0.9s-0.3-0.4-0.4-0.5
				s-0.4-0.2-0.6-0.2c-0.2,0-0.4,0.1-0.6,0.2c-0.2,0.1-0.3,0.3-0.4,0.5c-0.1,0.2-0.2,0.5-0.3,0.9s-0.1,0.8-0.1,1.3
				c0,1,0.1,1.8,0.4,2.2S201.7,252.4,202.1,252.4z"/>
			<path class="st4" d="M205.7,253v-0.7h1.6v-5.2H206v-0.6c0.3-0.1,0.6-0.1,0.8-0.2c0.2-0.1,0.5-0.2,0.6-0.3h0.7v6.3h1.5v0.7H205.7z
				"/>
			<path class="st4" d="M211.1,253v-0.7h1.6v-5.2h-1.3v-0.6c0.3-0.1,0.6-0.1,0.8-0.2c0.2-0.1,0.5-0.2,0.6-0.3h0.7v6.3h1.5v0.7H211.1
				z"/>
			<path class="st4" d="M216.2,253v-0.5c0.5-0.5,1-1,1.4-1.4s0.8-0.8,1-1.2c0.3-0.4,0.5-0.7,0.6-1s0.2-0.6,0.2-0.9
				c0-0.4-0.1-0.7-0.3-1s-0.6-0.4-1-0.4c-0.3,0-0.6,0.1-0.8,0.2c-0.2,0.2-0.5,0.4-0.7,0.6l-0.5-0.5c0.3-0.3,0.6-0.6,0.9-0.8
				s0.7-0.3,1.2-0.3c0.7,0,1.2,0.2,1.5,0.6s0.6,0.9,0.6,1.5c0,0.3-0.1,0.7-0.2,1c-0.1,0.3-0.3,0.7-0.6,1c-0.3,0.4-0.6,0.7-0.9,1.1
				c-0.3,0.4-0.7,0.8-1.2,1.2c0.2,0,0.4,0,0.6,0c0.2,0,0.4,0,0.6,0h2v0.8L216.2,253L216.2,253z"/>
			<path class="st4" d="M221.6,253v-0.5c0.5-0.5,1-1,1.4-1.4s0.8-0.8,1-1.2s0.5-0.7,0.6-1s0.2-0.6,0.2-0.9c0-0.4-0.1-0.7-0.3-1
				s-0.6-0.4-1-0.4c-0.3,0-0.6,0.1-0.8,0.2s-0.5,0.4-0.7,0.6l-0.5-0.5c0.3-0.3,0.6-0.6,0.9-0.8s0.7-0.3,1.2-0.3
				c0.7,0,1.2,0.2,1.5,0.6s0.6,0.9,0.6,1.5c0,0.3-0.1,0.7-0.2,1c-0.1,0.3-0.3,0.7-0.6,1c-0.3,0.4-0.6,0.7-0.9,1.1
				c-0.3,0.4-0.7,0.8-1.1,1.2c0.2,0,0.4,0,0.6,0c0.2,0,0.4,0,0.6,0h2v0.8L221.6,253L221.6,253z"/>
			<path class="st4" d="M229.3,253.1c-0.3,0-0.5,0-0.8-0.1c-0.2-0.1-0.4-0.1-0.6-0.2c-0.2-0.1-0.4-0.2-0.5-0.3s-0.3-0.2-0.4-0.4
				l0.5-0.6c0.2,0.2,0.5,0.4,0.7,0.6c0.3,0.2,0.6,0.3,1.1,0.3c0.4,0,0.8-0.1,1-0.3c0.3-0.2,0.4-0.5,0.4-0.9c0-0.2,0-0.4-0.1-0.6
				c-0.1-0.2-0.2-0.3-0.4-0.4c-0.2-0.1-0.4-0.2-0.7-0.3s-0.6-0.1-1.1-0.1V249c0.4,0,0.7,0,0.9-0.1s0.5-0.2,0.6-0.3
				c0.2-0.1,0.3-0.3,0.3-0.4c0.1-0.2,0.1-0.3,0.1-0.5c0-0.3-0.1-0.6-0.3-0.8s-0.5-0.3-0.9-0.3c-0.3,0-0.6,0.1-0.8,0.2
				c-0.2,0.1-0.5,0.3-0.7,0.5l-0.5-0.6c0.3-0.3,0.6-0.5,0.9-0.6s0.7-0.2,1.1-0.2c0.3,0,0.6,0,0.8,0.1c0.3,0.1,0.5,0.2,0.7,0.3
				c0.2,0.2,0.3,0.3,0.4,0.6s0.2,0.5,0.2,0.8c0,0.4-0.1,0.8-0.4,1c-0.2,0.3-0.5,0.5-0.9,0.6l0,0c0.2,0.1,0.4,0.1,0.6,0.2
				c0.2,0.1,0.3,0.2,0.5,0.4c0.1,0.2,0.2,0.3,0.3,0.5s0.1,0.4,0.1,0.7s-0.1,0.6-0.2,0.8c-0.1,0.3-0.3,0.5-0.5,0.6
				c-0.2,0.2-0.5,0.3-0.7,0.4C229.9,253.1,229.6,253.1,229.3,253.1z"/>
			<path class="st4" d="M234.7,253.1c-0.3,0-0.5,0-0.8-0.1c-0.2-0.1-0.4-0.1-0.6-0.2c-0.2-0.1-0.4-0.2-0.5-0.3s-0.3-0.2-0.4-0.4
				l0.5-0.6c0.2,0.2,0.5,0.4,0.7,0.6c0.3,0.2,0.6,0.3,1.1,0.3c0.4,0,0.8-0.1,1-0.3c0.3-0.2,0.4-0.5,0.4-0.9c0-0.2,0-0.4-0.1-0.6
				c-0.1-0.2-0.2-0.3-0.4-0.4c-0.2-0.1-0.4-0.2-0.7-0.3s-0.6-0.1-1.1-0.1V249c0.4,0,0.7,0,0.9-0.1s0.5-0.2,0.6-0.3
				c0.2-0.1,0.3-0.3,0.3-0.4c0.1-0.2,0.1-0.3,0.1-0.5c0-0.3-0.1-0.6-0.3-0.8s-0.5-0.3-0.9-0.3c-0.3,0-0.6,0.1-0.8,0.2
				c-0.2,0.1-0.5,0.3-0.7,0.5l-0.5-0.6c0.3-0.3,0.6-0.5,0.9-0.6s0.7-0.2,1.1-0.2c0.3,0,0.6,0,0.8,0.1c0.3,0.1,0.5,0.2,0.7,0.3
				c0.2,0.2,0.3,0.3,0.4,0.6s0.2,0.5,0.2,0.8c0,0.4-0.1,0.8-0.4,1c-0.2,0.3-0.5,0.5-0.9,0.6l0,0c0.2,0.1,0.4,0.1,0.6,0.2
				c0.2,0.1,0.3,0.2,0.5,0.4c0.1,0.2,0.2,0.3,0.3,0.5s0.1,0.4,0.1,0.7s-0.1,0.6-0.2,0.8c-0.1,0.3-0.3,0.5-0.5,0.6
				c-0.2,0.2-0.5,0.3-0.7,0.4C235.4,253.1,235.1,253.1,234.7,253.1z"/>
			<path class="st4" d="M241,253v-2h-3.2v-0.6l3-4.5h1v4.4h1v0.7h-1v1.9H241V253z M238.8,250.3h2.2v-2c0-0.2,0-0.4,0-0.7
				s0-0.5,0-0.7l0,0c-0.1,0.2-0.2,0.3-0.3,0.5s-0.2,0.3-0.3,0.5L238.8,250.3z"/>
			<path class="st4" d="M246.4,253v-2h-3.2v-0.6l3-4.5h1v4.4h1v0.7h-1v1.9h-0.8V253z M244.2,250.3h2.2v-2c0-0.2,0-0.4,0-0.7
				s0-0.5,0-0.7l0,0c-0.1,0.2-0.2,0.3-0.3,0.5s-0.2,0.3-0.3,0.5L244.2,250.3z"/>
			<path class="st4" d="M251.1,253.1c-0.3,0-0.5,0-0.8-0.1c-0.2-0.1-0.4-0.1-0.6-0.2c-0.2-0.1-0.4-0.2-0.5-0.3
				c-0.2-0.1-0.3-0.2-0.4-0.4l0.4-0.6c0.2,0.2,0.4,0.4,0.7,0.6s0.6,0.2,1,0.2c0.2,0,0.4,0,0.6-0.1c0.2-0.1,0.3-0.2,0.5-0.3
				c0.1-0.1,0.2-0.3,0.3-0.5s0.1-0.4,0.1-0.7c0-0.5-0.1-0.9-0.4-1.1s-0.6-0.4-1.1-0.4c-0.2,0-0.4,0-0.6,0.1
				c-0.2,0.1-0.4,0.2-0.6,0.3l-0.5-0.3l0.2-3.4h3.5v0.8h-2.7l-0.2,2.1c0.2-0.1,0.3-0.2,0.5-0.2c0.2-0.1,0.4-0.1,0.6-0.1
				c0.3,0,0.6,0,0.8,0.1c0.3,0.1,0.5,0.2,0.7,0.4s0.4,0.4,0.5,0.7s0.2,0.6,0.2,1s-0.1,0.7-0.2,1c-0.1,0.3-0.3,0.5-0.5,0.7
				s-0.5,0.4-0.8,0.5C251.7,253.1,251.4,253.1,251.1,253.1z"/>
		</g>
		<g>
			<path class="st3" d="M68.8,35.7v-6.5h2.3c0.3,0,0.7,0,1,0.1s0.6,0.2,0.8,0.3c0.2,0.2,0.4,0.4,0.5,0.6c0.1,0.3,0.2,0.6,0.2,1
				c0,0.5-0.1,0.9-0.3,1.2c-0.2,0.3-0.5,0.5-0.8,0.7l1.5,2.6h-1.6L71,33.3h-0.8v2.3h-1.4V35.7z M70.2,32.2H71c0.4,0,0.7-0.1,0.9-0.2
				c0.2-0.2,0.3-0.4,0.3-0.7c0-0.3-0.1-0.5-0.3-0.7s-0.5-0.2-0.9-0.2h-0.8V32.2z"/>
			<path class="st3" d="M74.9,35.7v-6.5h4v1.2h-2.6v1.3h2.2V33h-2.2v1.5H79v1.2H74.9z"/>
			<path class="st3" d="M80.3,35.7v-6.5h2.2c0.4,0,0.7,0,1,0.1s0.6,0.2,0.8,0.3c0.2,0.2,0.4,0.4,0.5,0.6c0.1,0.3,0.2,0.6,0.2,1
				s-0.1,0.7-0.2,1s-0.3,0.5-0.5,0.7s-0.5,0.3-0.8,0.4c-0.3,0.1-0.6,0.1-1,0.1h-0.8v2.2L80.3,35.7L80.3,35.7z M81.7,32.3h0.7
				c0.8,0,1.2-0.3,1.2-1c0-0.3-0.1-0.6-0.3-0.7c-0.2-0.1-0.5-0.2-0.9-0.2h-0.7C81.7,30.4,81.7,32.3,81.7,32.3z"/>
			<path class="st3" d="M88.7,35.8c-0.8,0-1.5-0.2-1.9-0.7s-0.7-1.3-0.7-2.4v-3.5h1.5v3.6c0,0.6,0.1,1.1,0.3,1.3s0.5,0.4,0.8,0.4
				c0.4,0,0.6-0.1,0.8-0.4c0.2-0.3,0.3-0.7,0.3-1.3v-3.6h1.4v3.5c0,1.1-0.2,1.9-0.6,2.4C90.2,35.5,89.6,35.8,88.7,35.8z M88.6,28.9
				l-0.7-0.7l1.7-1.4l0.8,0.9L88.6,28.9z"/>
			<path class="st3" d="M92.8,35.7v-6.5H95c0.3,0,0.6,0,0.9,0.1c0.3,0,0.5,0.1,0.8,0.3s0.4,0.3,0.5,0.5s0.2,0.5,0.2,0.8
				c0,0.1,0,0.3-0.1,0.4c0,0.1-0.1,0.3-0.2,0.4C97,31.8,97,31.9,96.9,32c-0.1,0.1-0.2,0.2-0.4,0.2l0,0c0.2,0,0.3,0.1,0.5,0.2
				s0.3,0.2,0.4,0.3s0.2,0.3,0.2,0.4s0.1,0.4,0.1,0.6c0,0.3-0.1,0.6-0.2,0.9c-0.1,0.2-0.3,0.4-0.5,0.6c-0.2,0.2-0.5,0.3-0.8,0.3
				s-0.6,0.1-1,0.1h-2.4V35.7z M94.2,31.8h0.7c0.4,0,0.6-0.1,0.8-0.2c0.2-0.1,0.2-0.3,0.2-0.6c0-0.3-0.1-0.4-0.2-0.5
				c-0.2-0.1-0.4-0.2-0.8-0.2h-0.7V31.8z M94.2,34.5H95c0.8,0,1.2-0.3,1.2-0.9c0-0.3-0.1-0.5-0.3-0.6c-0.2-0.1-0.5-0.2-0.9-0.2h-0.8
				C94.2,32.8,94.2,34.5,94.2,34.5z"/>
			<path class="st3" d="M98.8,35.7v-6.5h1.5v5.2h2.6v1.2L98.8,35.7L98.8,35.7z"/>
			<path class="st3" d="M103.9,35.7v-6.5h1.5v6.5H103.9z"/>
			<path class="st3" d="M109.6,35.8c-0.4,0-0.8-0.1-1.2-0.2c-0.4-0.1-0.7-0.4-1-0.6c-0.3-0.3-0.5-0.6-0.6-1
				c-0.2-0.4-0.2-0.9-0.2-1.4s0.1-1,0.2-1.4c0.2-0.4,0.4-0.8,0.7-1.1s0.6-0.5,1-0.7s0.8-0.2,1.2-0.2c0.4,0,0.8,0.1,1.1,0.3
				c0.3,0.2,0.6,0.4,0.8,0.6l-0.8,0.9c-0.2-0.2-0.3-0.3-0.5-0.4s-0.4-0.1-0.6-0.1s-0.4,0-0.6,0.1s-0.4,0.2-0.5,0.4
				c-0.1,0.2-0.3,0.4-0.3,0.7c-0.1,0.3-0.1,0.5-0.1,0.9c0,0.7,0.1,1.2,0.4,1.5c0.3,0.4,0.7,0.5,1.1,0.5c0.3,0,0.5-0.1,0.7-0.2
				c0.2-0.1,0.4-0.3,0.5-0.4l0.8,0.9C111.1,35.5,110.4,35.8,109.6,35.8z"/>
			<path class="st3" d="M111.8,35.7l2-6.5h1.8l2,6.5H116l-0.4-1.5h-2l-0.4,1.5H111.8z M114.1,32.4L114,33h1.4l-0.1-0.6
				c-0.1-0.3-0.2-0.7-0.3-1c-0.1-0.4-0.2-0.7-0.3-1l0,0c-0.1,0.3-0.2,0.7-0.2,1.1C114.3,31.7,114.2,32.1,114.1,32.4z"/>
			<path class="st3" d="M119.5,35.7l2-6.5h1.8l2,6.5h-1.5l-0.4-1.5h-2l-0.4,1.5H119.5z M121.8,32.4l-0.2,0.6h1.4l-0.1-0.6
				c-0.1-0.3-0.2-0.7-0.3-1c-0.1-0.4-0.2-0.7-0.3-1l0,0c-0.1,0.3-0.2,0.7-0.2,1.1C122,31.7,121.9,32.1,121.8,32.4z"/>
			<path class="st3" d="M125.9,35.7v-6.5h2.3c0.3,0,0.7,0,1,0.1s0.6,0.2,0.8,0.3c0.2,0.2,0.4,0.4,0.5,0.6c0.1,0.3,0.2,0.6,0.2,1
				c0,0.5-0.1,0.9-0.3,1.2s-0.5,0.5-0.8,0.7l1.5,2.6h-1.6l-1.2-2.3h-0.8v2.3H125.9z M127.4,32.2h0.8c0.4,0,0.7-0.1,0.9-0.2
				c0.2-0.2,0.3-0.4,0.3-0.7c0-0.3-0.1-0.5-0.3-0.7s-0.5-0.2-0.9-0.2h-0.8C127.4,30.4,127.4,32.2,127.4,32.2z"/>
			<path class="st3" d="M134.9,35.8c-0.4,0-0.9-0.1-1.2-0.2c-0.4-0.1-0.7-0.4-1-0.6c-0.3-0.3-0.5-0.6-0.7-1s-0.2-0.9-0.2-1.4
				s0.1-1,0.2-1.4c0.2-0.4,0.4-0.8,0.7-1.1s0.6-0.5,1-0.7s0.8-0.2,1.2-0.2c0.5,0,0.9,0.1,1.2,0.3c0.3,0.2,0.6,0.4,0.8,0.6l-0.8,0.9
				c-0.2-0.1-0.3-0.3-0.5-0.4s-0.4-0.1-0.7-0.1s-0.5,0-0.7,0.1s-0.4,0.2-0.5,0.4c-0.2,0.2-0.3,0.4-0.4,0.7c-0.1,0.3-0.1,0.5-0.1,0.9
				c0,0.7,0.2,1.2,0.5,1.5c0.3,0.4,0.8,0.5,1.4,0.5c0.1,0,0.3,0,0.4,0c0.1,0,0.2-0.1,0.3-0.1v-1.1h-1.1V32h2.4v3
				c-0.2,0.2-0.5,0.4-0.9,0.6C135.7,35.7,135.3,35.8,134.9,35.8z"/>
			<path class="st3" d="M138.3,35.7v-6.5h4v1.2h-2.6v1.3h2.2V33h-2.2v1.5h2.7v1.2H138.3z"/>
			<path class="st3" d="M143.8,35.7v-6.5h1.5l1.7,3.2l0.6,1.4l0,0c0-0.3-0.1-0.7-0.1-1.1c0-0.4-0.1-0.8-0.1-1.2v-2.3h1.4v6.5h-1.5
				l-1.7-3.2L145,31l0,0c0,0.4,0.1,0.7,0.1,1.1c0,0.4,0.1,0.8,0.1,1.2v2.3h-1.4V35.7z"/>
			<path class="st3" d="M151.6,35.7v-5.2h-1.8v-1.2h5v1.2H153v5.2H151.6z"/>
			<path class="st3" d="M155.8,35.7v-6.5h1.5v6.5H155.8z"/>
			<path class="st3" d="M158.8,35.7v-6.5h1.5l1.7,3.2l0.6,1.4l0,0c0-0.3-0.1-0.7-0.1-1.1c0-0.4-0.1-0.8-0.1-1.2v-2.3h1.4v6.5h-1.5
				l-1.7-3.2l-0.6-1.4l0,0c0,0.4,0.1,0.7,0.1,1.1c0,0.4,0.1,0.8,0.1,1.2v2.3C160.2,35.7,158.8,35.7,158.8,35.7z"/>
			<path class="st3" d="M164.6,35.7l2-6.5h1.8l2,6.5h-1.5l-0.4-1.5h-2l-0.4,1.5H164.6z M166.9,32.4l-0.2,0.6h1.4l-0.1-0.6
				c-0.1-0.3-0.2-0.7-0.3-1c-0.1-0.4-0.2-0.7-0.3-1l0,0c-0.1,0.3-0.2,0.7-0.2,1.1C167.1,31.7,167,32.1,166.9,32.4z"/>
			<path class="st3" d="M172.7,33.7v-1h2.4v1H172.7z"/>
			<path class="st3" d="M178.3,35.7v-6.5h1.6l1,2.9c0.1,0.2,0.1,0.4,0.2,0.6s0.1,0.4,0.2,0.6l0,0c0.1-0.2,0.1-0.4,0.2-0.6
				c0.1-0.2,0.1-0.4,0.2-0.6l1-2.9h1.6v6.5H183v-2.4c0-0.2,0-0.3,0-0.5s0-0.4,0-0.6c0-0.2,0-0.4,0.1-0.6c0-0.2,0-0.4,0.1-0.5l0,0
				l-0.5,1.5l-0.9,2.5H181l-0.9-2.5l-0.5-1.5l0,0c0,0.2,0,0.3,0.1,0.5c0,0.2,0,0.4,0.1,0.6c0,0.2,0,0.4,0,0.6c0,0.2,0,0.4,0,0.5v2.4
				C179.8,35.7,178.3,35.7,178.3,35.7z"/>
			<path class="st3" d="M185.9,35.7v-6.5h4v1.2h-2.6v1.3h2.2V33h-2.2v1.5h2.7v1.2H185.9z"/>
			<path class="st3" d="M191.3,35.7v-6.5h2.3c0.3,0,0.7,0,1,0.1s0.6,0.2,0.8,0.3c0.2,0.2,0.4,0.4,0.5,0.6c0.1,0.3,0.2,0.6,0.2,1
				c0,0.5-0.1,0.9-0.3,1.2s-0.5,0.5-0.8,0.7l1.5,2.6h-1.6l-1.2-2.3h-0.8v2.3H191.3z M192.8,32.2h0.8c0.4,0,0.7-0.1,0.9-0.2
				c0.2-0.2,0.3-0.4,0.3-0.7c0-0.3-0.1-0.5-0.3-0.7s-0.5-0.2-0.9-0.2h-0.8V32.2z"/>
			<path class="st3" d="M200.1,35.8c-0.4,0-0.8-0.1-1.2-0.2c-0.4-0.1-0.7-0.4-1-0.6c-0.3-0.3-0.5-0.6-0.6-1
				c-0.2-0.4-0.2-0.9-0.2-1.4s0.1-1,0.2-1.4c0.2-0.4,0.4-0.8,0.7-1.1s0.6-0.5,1-0.7s0.8-0.2,1.2-0.2s0.8,0.1,1.1,0.3
				s0.6,0.4,0.8,0.6l-0.8,0.9c-0.2-0.2-0.3-0.3-0.5-0.4s-0.4-0.1-0.6-0.1c-0.2,0-0.4,0-0.6,0.1c-0.2,0.1-0.4,0.2-0.5,0.4
				c-0.1,0.2-0.3,0.4-0.3,0.7c-0.1,0.3-0.1,0.5-0.1,0.9c0,0.7,0.1,1.2,0.4,1.5c0.3,0.4,0.7,0.5,1.1,0.5c0.3,0,0.5-0.1,0.7-0.2
				c0.2-0.1,0.4-0.3,0.5-0.4l0.8,0.9C201.6,35.5,200.9,35.8,200.1,35.8z"/>
			<path class="st3" d="M205.4,35.8c-0.4,0-0.8-0.1-1.2-0.2c-0.4-0.2-0.7-0.4-0.9-0.7c-0.3-0.3-0.5-0.6-0.6-1.1
				c-0.1-0.4-0.2-0.9-0.2-1.4s0.1-1,0.2-1.4c0.1-0.4,0.3-0.8,0.6-1c0.3-0.3,0.6-0.5,0.9-0.6c0.4-0.1,0.8-0.2,1.2-0.2
				s0.8,0.1,1.2,0.2s0.7,0.4,0.9,0.6c0.3,0.3,0.5,0.6,0.6,1s0.2,0.9,0.2,1.4s-0.1,1-0.2,1.4c-0.1,0.4-0.3,0.8-0.6,1.1
				s-0.6,0.5-0.9,0.7C206.2,35.7,205.8,35.8,205.4,35.8z M205.4,34.5c0.4,0,0.8-0.2,1-0.6c0.3-0.4,0.4-0.9,0.4-1.5
				c0-0.6-0.1-1.2-0.4-1.5c-0.3-0.4-0.6-0.5-1-0.5s-0.8,0.2-1,0.5c-0.3,0.4-0.4,0.9-0.4,1.5c0,0.7,0.1,1.2,0.4,1.5
				C204.6,34.3,204.9,34.5,205.4,34.5z"/>
			<path class="st3" d="M211.5,35.8c-0.4,0-0.8-0.1-1.3-0.2c-0.4-0.2-0.8-0.4-1.1-0.7l0.8-1c0.2,0.2,0.5,0.4,0.8,0.5
				s0.6,0.2,0.8,0.2c0.3,0,0.5-0.1,0.7-0.2s0.2-0.3,0.2-0.5c0-0.1,0-0.2-0.1-0.3s-0.1-0.1-0.2-0.2c-0.1-0.1-0.2-0.1-0.3-0.2
				s-0.2-0.1-0.4-0.2l-0.8-0.4c-0.2-0.1-0.3-0.2-0.5-0.3s-0.3-0.2-0.4-0.4c-0.1-0.1-0.2-0.3-0.3-0.5s-0.1-0.4-0.1-0.6
				c0-0.3,0.1-0.5,0.2-0.7s0.3-0.4,0.5-0.6s0.4-0.3,0.7-0.4s0.6-0.1,0.9-0.1c0.4,0,0.7,0.1,1.1,0.2c0.4,0.1,0.7,0.4,1,0.6l-0.7,0.9
				c-0.2-0.2-0.4-0.3-0.6-0.4c-0.2-0.1-0.4-0.1-0.7-0.1s-0.5,0.1-0.6,0.2s-0.2,0.2-0.2,0.4c0,0.1,0,0.2,0.1,0.3
				c0,0.1,0.1,0.1,0.2,0.2c0.1,0.1,0.2,0.1,0.3,0.2s0.2,0.1,0.4,0.2l0.8,0.3c0.4,0.2,0.7,0.4,0.9,0.7s0.3,0.6,0.3,1.1
				c0,0.3-0.1,0.5-0.2,0.8c-0.1,0.2-0.3,0.5-0.5,0.6s-0.5,0.3-0.8,0.4S211.9,35.8,211.5,35.8z"/>
			<path class="st3" d="M217.6,35.8c-0.8,0-1.5-0.2-1.9-0.7s-0.7-1.3-0.7-2.4v-3.5h1.5v3.6c0,0.6,0.1,1.1,0.3,1.3s0.5,0.4,0.8,0.4
				s0.6-0.1,0.8-0.4s0.3-0.7,0.3-1.3v-3.6h1.4v3.5c0,1.1-0.2,1.9-0.6,2.4C219,35.5,218.4,35.8,217.6,35.8z"/>
			<path class="st3" d="M221.6,35.7v-6.5h2.3c0.3,0,0.7,0,1,0.1s0.6,0.2,0.8,0.3c0.2,0.2,0.4,0.4,0.5,0.6c0.1,0.3,0.2,0.6,0.2,1
				c0,0.5-0.1,0.9-0.3,1.2s-0.5,0.5-0.8,0.7l1.5,2.6h-1.6l-1.2-2.3h-0.8v2.3H221.6z M223.1,32.2h0.8c0.4,0,0.7-0.1,0.9-0.2
				c0.2-0.2,0.3-0.4,0.3-0.7c0-0.3-0.1-0.5-0.3-0.7s-0.5-0.2-0.9-0.2h-0.8V32.2z"/>
		</g>
		<g>
			<path class="st5" d="M52.4,29.9c0.2-0.2,0.3-0.2,0.5-0.2s0.3,0,0.6-0.1c0,0.1-0.2,0.3-0.4,0.4s-0.3,0.2-0.5,0.2
				c0.1,0,0.2,0.1,0.2,0.2c0.1,0.1,0.3,0.3,0.4,0.5c-0.2-0.1-0.3-0.1-0.4-0.1c-0.1,0-0.2,0-0.4-0.2c-0.2-0.1-0.2-0.2-0.2-0.3
				c0-0.1,0-0.1-0.2-0.2c0.1-0.1,0.1-0.1,0.1-0.1C52.3,30.1,52.3,30,52.4,29.9L52.4,29.9L52.4,29.9z M46.6,51.9c0-0.2,0-0.3,0-0.5
				c0.1,0.1,0.2,0.2,0.3,0.3s0.2,0.2,0.2,0.4c0,0.1,0,0.3,0,0.3c0,0.1,0,0.2,0.1,0.3c0-0.1-0.1-0.1-0.1-0.1c-0.1,0-0.1-0.1-0.2-0.1
				c0.1,0,0.1,0.1,0.2,0.2c0.1,0.1,0.1,0.1,0.1,0.2c-0.1,0-0.1-0.1-0.2-0.1c-0.1-0.1-0.2-0.1-0.3,0c-0.3,0-0.5-0.1-0.7-0.3
				c-0.2-0.1-0.3-0.3-0.6-0.4c0.1-0.1,0.3,0,0.5,0c0.2,0.1,0.5,0.1,0.6,0.2C46.6,52.2,46.6,52.1,46.6,51.9L46.6,51.9L46.6,51.9z
				 M57.7,52.6c-0.1,0.1-0.3,0.2-0.6,0.2c-0.1-0.1-0.2,0-0.3,0c-0.1,0.1-0.2,0.1-0.2,0.2c0-0.1,0.1-0.1,0.2-0.2
				c0.1-0.1,0.1-0.1,0.2-0.2c-0.1,0-0.1,0.1-0.2,0.1c-0.1,0-0.1,0.1-0.2,0.1c0-0.1,0-0.1,0-0.2c0-0.1,0-0.2,0-0.3
				c0-0.2,0.1-0.3,0.2-0.4c0.1-0.1,0.2-0.2,0.3-0.3c0,0.2,0,0.3,0,0.5s0,0.3-0.1,0.4c0.1-0.1,0.4-0.2,0.7-0.2c0.2-0.1,0.5-0.1,0.5,0
				C58,52.3,57.8,52.5,57.7,52.6L57.7,52.6L57.7,52.6z M58.6,51.7c-0.1,0.1-0.3,0.2-0.6,0.3c-0.2,0-0.2,0-0.3,0s-0.1,0-0.2,0.1
				c0.1-0.1,0.1-0.1,0.2-0.2c0.1-0.1,0.1-0.1,0.2-0.1c-0.1,0-0.1,0-0.2,0.1c-0.1,0-0.2,0.1-0.2,0.1l-0.1-0.1c0-0.1-0.1-0.1-0.1-0.3
				s0-0.3,0.1-0.4c0.1-0.1,0.2-0.2,0.2-0.4c0,0.2,0.1,0.3,0.1,0.5s0.1,0.3,0,0.4c0.1-0.1,0.4-0.2,0.6-0.3c0.2-0.1,0.4-0.1,0.5-0.1
				C58.8,51.4,58.7,51.6,58.6,51.7L58.6,51.7L58.6,51.7z M59.3,50.7c-0.1,0.1-0.3,0.2-0.5,0.3c-0.2,0-0.3,0-0.3,0
				c-0.1,0-0.1,0.1-0.2,0.1c0.1-0.1,0.1-0.2,0-0.2c-0.1-0.1-0.1-0.1-0.1-0.3s0-0.3,0.1-0.4c0.1-0.1,0.2-0.2,0.2-0.3
				c0,0.2,0.1,0.4,0.1,0.6c0,0.1,0,0.2,0,0.3c0.1-0.1,0.3-0.2,0.5-0.3c0.3-0.1,0.5-0.1,0.6-0.1C59.5,50.4,59.4,50.6,59.3,50.7
				L59.3,50.7L59.3,50.7z M60,49.6c-0.1,0.2-0.2,0.3-0.5,0.3c-0.2,0-0.2,0-0.3,0S59.1,50,59.1,50c0.1-0.1,0.1-0.1,0.2-0.2
				c0.1-0.1,0.1-0.1,0.2-0.1c-0.1,0-0.1,0-0.2,0.1c-0.1,0-0.1,0.1-0.2,0.1c0-0.1-0.1-0.1-0.1-0.1c0-0.1-0.1-0.1-0.1-0.3s0-0.3,0-0.4
				c0.1-0.1,0.1-0.2,0.2-0.4c0.1,0.2,0.1,0.3,0.2,0.5c0.1,0.2,0.1,0.3,0.1,0.4c0.1-0.1,0.3-0.3,0.5-0.3c0.2-0.1,0.4-0.2,0.5-0.1
				C60.1,49.3,60,49.5,60,49.6L60,49.6L60,49.6z M60.5,48.5c-0.1,0.1-0.2,0.2-0.5,0.3c-0.2,0-0.2,0-0.3,0s-0.1,0.1-0.1,0.1
				c0.1-0.1,0.1-0.1,0.2-0.2c0.1-0.1,0.1-0.1,0.2-0.1c-0.1,0-0.2,0-0.2,0.1c-0.1,0-0.1,0.1-0.2,0.1l-0.1-0.1
				c-0.1-0.1-0.1-0.1-0.1-0.3s0-0.3,0.1-0.4c0.1-0.1,0.1-0.2,0.2-0.4c0,0.2,0.1,0.3,0.2,0.5c0.1,0.2,0.1,0.3,0.1,0.4
				c0.1-0.1,0.3-0.3,0.5-0.3c0.2-0.1,0.4-0.1,0.5-0.1C60.7,48.2,60.6,48.3,60.5,48.5L60.5,48.5L60.5,48.5z M61,47.4
				c-0.1,0.2-0.2,0.3-0.4,0.4c-0.1,0-0.2,0-0.3,0.1c-0.1,0-0.1,0.1-0.1,0.1c0-0.1,0.1-0.1,0.1-0.2c0.1-0.1,0.1-0.1,0.2-0.2
				c-0.1,0-0.1,0.1-0.2,0.1c-0.1,0.1-0.1,0.1-0.2,0.1L60,47.7c0,0-0.1-0.1-0.1-0.3c-0.1-0.2-0.1-0.3,0-0.5c0-0.1,0.1-0.2,0.1-0.4
				c0.1,0.2,0.2,0.3,0.2,0.5c0.1,0.2,0.1,0.3,0.1,0.4c0.1-0.2,0.3-0.3,0.5-0.4c0.2-0.1,0.3-0.2,0.4-0.2C61.1,47,61,47.2,61,47.4
				L61,47.4L61,47.4z M61.4,46c-0.1,0.2-0.1,0.3-0.4,0.4c-0.2,0-0.2,0.1-0.3,0.1s-0.1,0.1-0.1,0.1c0-0.1,0.1-0.2,0.1-0.2
				c0.1-0.1,0.1-0.1,0.2-0.2c-0.1,0-0.1,0.1-0.2,0.1c-0.1,0.1-0.1,0.1-0.2,0.1l-0.1-0.1c0-0.1-0.1-0.1-0.1-0.3
				c-0.1-0.2-0.1-0.3-0.1-0.5c0-0.1,0.1-0.2,0.1-0.4c0.1,0.2,0.2,0.3,0.3,0.5s0.1,0.3,0.1,0.4c0.1-0.2,0.2-0.3,0.4-0.5
				c0.2-0.1,0.3-0.2,0.4-0.2C61.5,45.7,61.5,45.9,61.4,46L61.4,46L61.4,46z M61.7,44.3c-0.1,0.2-0.1,0.4-0.1,0.6
				c0,0.2-0.1,0.3-0.3,0.5c-0.2,0-0.2,0.1-0.2,0.1c-0.1,0-0.1,0.1-0.1,0.1c0-0.1,0.1-0.2,0.1-0.2c0.1-0.1,0.1-0.2,0.1-0.2
				c-0.1,0-0.1,0.1-0.2,0.1c-0.1,0-0.1,0.1-0.1,0.2c0-0.1-0.1-0.1-0.1-0.1c-0.1,0-0.1-0.1-0.2-0.2c-0.1-0.2-0.1-0.3-0.1-0.5
				c0-0.1,0-0.3,0-0.5c0.1,0.2,0.2,0.3,0.3,0.5c0.1,0.1,0.2,0.3,0.2,0.4c0.1-0.2,0.2-0.4,0.3-0.5C61.5,44.4,61.6,44.3,61.7,44.3
				L61.7,44.3L61.7,44.3z M61.7,43.3c-0.1,0.2-0.1,0.3-0.3,0.5c-0.2,0.1-0.2,0.1-0.3,0.2C61,44.1,61,44.1,61,44.1
				c0-0.1,0.1-0.2,0.1-0.2c0.1-0.1,0.1-0.2,0.2-0.2c-0.1,0.1-0.1,0.1-0.2,0.2C61,43.9,61,44,60.9,44c0,0-0.1,0-0.1-0.1
				c-0.1,0-0.1-0.1-0.2-0.2c-0.1-0.2-0.1-0.3-0.1-0.4c0-0.1,0-0.3,0-0.4c0.1,0.1,0.2,0.3,0.3,0.4c0.1,0.1,0.2,0.2,0.2,0.3
				c0.1-0.2,0.2-0.4,0.4-0.6c0.2-0.2,0.3-0.3,0.4-0.3C61.8,43,61.8,43.2,61.7,43.3L61.7,43.3L61.7,43.3z M61.2,42.3
				c0.1-0.2,0.2-0.4,0.3-0.6c0.1-0.2,0.3-0.3,0.4-0.3c-0.1,0.2-0.1,0.4-0.1,0.6c0,0.2-0.1,0.3-0.3,0.6c-0.1,0.1-0.2,0.1-0.2,0.2
				c0,0.1-0.1,0.1-0.1,0.1c0-0.1,0-0.2,0.1-0.2c0-0.1,0.1-0.2,0.1-0.2c-0.1,0.1-0.1,0.1-0.2,0.2c-0.1,0.1-0.1,0.1-0.1,0.2H61
				c-0.1,0-0.1-0.1-0.2-0.2c-0.1-0.1-0.1-0.3-0.2-0.4c0-0.1,0-0.3,0-0.5c0.1,0.1,0.2,0.2,0.4,0.3C61,42.1,61.1,42.2,61.2,42.3
				L61.2,42.3L61.2,42.3z M61.8,40c-0.1,0.2-0.1,0.3-0.1,0.5s-0.1,0.3-0.3,0.5c-0.1,0.1-0.2,0.1-0.2,0.2c0,0.1-0.1,0.1-0.1,0.1
				c0-0.1,0-0.2,0.1-0.2c0-0.1,0.1-0.2,0.1-0.2c-0.1,0.1-0.1,0.1-0.1,0.2c-0.1,0.1-0.1,0.1-0.1,0.2c0,0-0.1,0-0.1-0.1
				c-0.1,0-0.1-0.1-0.2-0.2c-0.1-0.2-0.1-0.3-0.2-0.4c0-0.1,0-0.2,0-0.4c0.1,0.1,0.3,0.2,0.4,0.3c0.1,0.1,0.2,0.2,0.3,0.3
				c0-0.2,0.2-0.4,0.3-0.6C61.5,40.1,61.7,40.1,61.8,40L61.8,40L61.8,40z M61,39.7c0-0.2,0.1-0.4,0.2-0.6c0.1-0.2,0.2-0.3,0.3-0.4
				c0,0.2,0,0.4,0.1,0.6c0,0.2,0,0.3-0.2,0.6c-0.1,0.1-0.2,0.2-0.2,0.2c0,0.1,0,0.1-0.1,0.1c0-0.1,0-0.2,0-0.2c0-0.1,0-0.2,0.1-0.2
				c-0.1,0.1-0.1,0.1-0.1,0.2c0,0.1,0.2-0.4,0.1-0.3c-0.1,0-0.3,0.5-0.3,0.5c-0.1,0-0.2,0-0.3-0.1c-0.2-0.1-0.2-0.2-0.2-0.3
				s-0.1-0.3-0.1-0.4c0.1,0.1,0.3,0.2,0.5,0.3C60.9,39.6,61,39.7,61,39.7L61,39.7L61,39.7z M61.1,37.4c0,0.3,0.1,0.4,0.1,0.6
				c0,0.2,0,0.3-0.2,0.5c-0.1,0.1-0.2,0.2-0.2,0.2s0,0.1-0.1,0.1c0-0.1,0-0.2,0-0.2c0-0.1,0-0.2,0.1-0.2c0,0.1-0.1,0.1-0.1,0.2
				c0,0.1-0.1,0.1-0.1,0.2c-0.1,0-0.1,0-0.2,0c-0.1,0-0.1-0.1-0.3-0.2c-0.1-0.1-0.2-0.2-0.2-0.4c0-0.1,0-0.2-0.1-0.4
				c0.1,0.1,0.3,0.2,0.5,0.3c0.1,0.1,0.3,0.2,0.3,0.3c0-0.2,0.1-0.4,0.2-0.6S61,37.4,61.1,37.4L61.1,37.4L61.1,37.4z M60.3,37.3
				c0-0.2,0-0.4,0.1-0.6c0.1-0.2,0.2-0.4,0.2-0.4c0,0.2,0.1,0.4,0.2,0.5c0.1,0.2,0.1,0.3-0.1,0.6c-0.1,0.1-0.2,0.2-0.2,0.2
				c0,0.1,0,0.1,0,0.2c0-0.1,0-0.2-0.1-0.2c0-0.1,0-0.2,0-0.2c0,0.1-0.1,0.1-0.1,0.2c0,0.1-0.1,0.1-0.1,0.2c0,0-0.1,0-0.2,0
				c-0.1,0-0.1,0-0.3-0.1s-0.3-0.2-0.3-0.3c-0.1-0.1-0.1-0.2-0.2-0.4c0.2,0.1,0.3,0.2,0.5,0.2C60.2,37.2,60.3,37.2,60.3,37.3
				L60.3,37.3L60.3,37.3z M60,35c0,0.2,0.1,0.4,0.2,0.6c0.1,0.2,0.1,0.3-0.1,0.6c-0.1,0.1-0.2,0.1-0.2,0.2c0,0.1,0,0.1,0,0.2
				c0-0.1-0.1-0.2-0.1-0.2c0-0.1,0-0.2,0-0.2c0,0.1-0.1,0.1-0.1,0.2c0,0.1-0.1,0.1-0.1,0.2c0,0-0.1,0-0.2,0c-0.1,0-0.2-0.1-0.3-0.1
				c0-0.4-0.1-0.5-0.1-0.7c-0.1-0.1-0.1-0.2-0.2-0.4c0.2,0.1,0.3,0.2,0.5,0.3s0.3,0.2,0.4,0.2c-0.1-0.2,0-0.4,0.1-0.6
				C59.8,35.1,59.9,35,60,35L60,35L60,35z M59.3,34.5c0-0.2,0.2,0.2,0.3,0.1c0.1,0.2,0-0.3,0.1-0.1s0.1,0.3,0,0.6
				c-0.1,0.1-0.1,0.2-0.1,0.2c0,0.1,0,0.1,0,0.2c-0.1-0.1-0.1-0.2-0.1-0.2c0-0.1,0-0.2,0-0.2c0,0.1-0.1,0.1-0.1,0.2
				c0,0.1,0,0.1,0,0.2c-0.1,0-0.1,0-0.2,0c-0.1,0-0.2,0-0.3-0.1c-0.2-0.1-0.3-0.2-0.4-0.3c-0.1-0.1-0.1-0.2-0.3-0.4
				c0.2,0.1,0.4,0.1,0.6,0.2c0.2,0.1,0.3,0.1,0.4,0.2C59.2,34.8,59.3,34.7,59.3,34.5L59.3,34.5L59.3,34.5z M58.4,33.7
				c-0.1-0.2-0.1-0.4-0.1-0.6c0-0.2,0-0.4,0.1-0.5c0.1,0.2,0.2,0.3,0.3,0.5c0.1,0.1,0.1,0.3,0.1,0.6c-0.1,0.2-0.1,0.2-0.1,0.3
				s0,0.1,0,0.2c-0.1-0.1-0.1-0.2-0.1-0.3c-0.1-0.1-0.1-0.2-0.1-0.2c0,0.1,0,0.2,0,0.2v0.2l-0.1,0.1c-0.1,0-0.1,0-0.3,0
				c-0.2-0.1-0.3-0.1-0.4-0.2c-0.1-0.1-0.2-0.2-0.3-0.3c0.2,0,0.3,0,0.5,0.1C58.2,33.6,58.3,33.7,58.4,33.7L58.4,33.7L58.4,33.7z
				 M57.2,32.8c0.2,0,0.3,0,0.4,0c-0.1-0.1-0.1-0.4-0.2-0.6c0-0.2,0-0.4,0.1-0.5c0.1,0.2,0.2,0.3,0.3,0.4c0.1,0.1,0.1,0.2,0.2,0.5
				c-0.1,0.2-0.1,0.2,0,0.3c0,0.1,0,0.1,0,0.2c-0.1-0.1-0.1-0.2-0.1-0.2c0-0.1-0.1-0.2-0.1-0.2c0,0.1,0,0.2,0,0.2
				c0,0.1,0,0.2,0.1,0.2c-0.1,0-0.1,0.1-0.1,0.1c-0.1,0-0.1,0.1-0.3,0.1s-0.3-0.1-0.4-0.2c-0.1-0.1-0.2-0.2-0.3-0.3
				C56.9,32.8,57.1,32.8,57.2,32.8L57.2,32.8L57.2,32.8z M56.2,31.9c0.2,0,0.3,0,0.4,0c-0.1-0.1-0.2-0.4-0.2-0.6
				c-0.1-0.2-0.1-0.4,0-0.5c0.1,0.2,0.3,0.3,0.4,0.4c0.1,0.1,0.2,0.3,0.2,0.5s0,0.2,0,0.3c0,0.1,0.1,0.1,0.1,0.1
				c-0.1,0-0.2-0.1-0.2-0.1c-0.1-0.1-0.1-0.1-0.1-0.2c0,0.1,0,0.1,0,0.2c0,0.1,0,0.2,0.1,0.2l-0.1,0.1c-0.1,0-0.1,0.1-0.3,0.1
				s-0.3-0.1-0.4-0.1c-0.1-0.1-0.2-0.2-0.3-0.2C55.9,31.9,56,31.9,56.2,31.9L56.2,31.9L56.2,31.9z M55.1,30.2
				c0.2,0.2,0.3,0.2,0.5,0.3c0.1,0.1,0.2,0.2,0.3,0.5c0,0.1,0,0.1,0,0.2v0.1c0-0.1-0.1-0.1-0.1-0.2C55.7,31,55.7,31,55.7,31
				c0,0.1,0,0.2,0.1,0.3c0,0.1,0.1,0.1,0.1,0.2c0,0,0,0.1-0.1,0.1c0,0-0.1,0.1-0.3,0.1c-0.3,0-0.4,0-0.5-0.1s-0.2-0.1-0.4-0.2
				c0.2,0,0.3-0.1,0.5-0.1c0.2-0.1,0.3-0.1,0.4-0.1c-0.1-0.1-0.3-0.3-0.4-0.5C55.2,30.5,55.1,30.3,55.1,30.2L55.1,30.2L55.1,30.2z
				 M54.8,31c-0.1,0-0.2,0.1-0.4,0.1S54,31,53.8,30.9c-0.2-0.1-0.3-0.2-0.2-0.3c0,0,0,0,0.1,0c0,0,0,0,0.1,0
				c0.1,0.1,0.2,0.1,0.4,0.1s0.3,0,0.4,0c-0.1,0-0.2,0-0.2,0s-0.1-0.1-0.2-0.1c0.1,0,0.2-0.1,0.3-0.1c0.1-0.1,0.2-0.1,0.3-0.1
				c0.2,0,0.2,0.1,0.3,0.2s0.1,0.2,0.2,0.2C55,30.9,54.9,31,54.8,31L54.8,31L54.8,31z M53.7,30c0.1-0.1,0.2-0.3,0.4-0.2
				c0.2,0,0.4,0,0.5,0.1S54.9,30,55,30c0,0.1-0.5,0.4-0.8,0.5c-0.4,0.1-0.7,0.1-0.8-0.1c0.1,0,0.2,0,0.2,0c0.1,0,0.1,0,0.2-0.1
				c-0.1,0-0.1,0-0.2,0c-0.1,0-0.1,0-0.2,0C53.5,30.1,53.6,30,53.7,30L53.7,30z M52.1,30.2c0.1,0,0.1,0,0.3-0.1
				c0.1,0,0.2-0.1,0.2-0.1c-0.1,0.1-0.1,0.1-0.2,0.2c-0.1,0.1-0.2,0.1-0.3,0.1V30.2L52.1,30.2z M51.1,30.3c0,0,0.1-0.1,0.1-0.2
				c0.2-0.2,0.3-0.3,0.5-0.4s0.3-0.1,0.5-0.2c0,0.1-0.1,0.3-0.3,0.5s-0.3,0.3-0.5,0.4c0.1,0,0.2,0.1,0.3,0.2s0.3,0.2,0.4,0.3
				c-0.2,0-0.3,0-0.4,0c-0.1,0-0.2,0-0.4-0.1c-0.1-0.1-0.2-0.1-0.2-0.2s0-0.1-0.1-0.1C51.1,30.5,51.1,30.4,51.1,30.3
				c0.2,0,0.2,0,0.2-0.1C51.2,30.3,51.2,30.3,51.1,30.3c-0.1,0.1-0.2,0.1-0.2,0.1C51,30.3,51.1,30.3,51.1,30.3L51.1,30.3L51.1,30.3z
				 M49.9,30.5c0-0.1,0.1-0.1,0.1-0.3c0.2-0.2,0.3-0.3,0.5-0.4s0.3-0.1,0.6-0.2c0,0.1-0.1,0.3-0.3,0.5s-0.3,0.3-0.5,0.4
				c0.1,0,0.2,0.1,0.3,0.2s0.3,0.2,0.4,0.3c-0.2,0-0.3,0.1-0.4,0.1c-0.1,0-0.2,0-0.4-0.1c-0.1-0.1-0.2-0.1-0.2-0.2s0-0.1-0.1-0.1
				c0.1-0.1,0.1-0.1,0.2-0.2c0-0.1,0.1-0.1,0.1-0.2C50.1,30.4,50.1,30.4,49.9,30.5c0,0.1-0.1,0.1-0.1,0.1
				C49.8,30.5,49.8,30.5,49.9,30.5L49.9,30.5L49.9,30.5z M48.6,30.9c0-0.1,0.1-0.1,0.1-0.3c0.1-0.3,0.2-0.4,0.4-0.5s0.4-0.1,0.6-0.3
				c0.1,0.1,0,0.3-0.2,0.5s-0.4,0.4-0.6,0.5c0.1,0,0.2,0.1,0.4,0.1c0.1,0.1,0.3,0.2,0.4,0.2c-0.2,0-0.3,0.1-0.4,0.1
				c-0.1,0-0.2,0.1-0.4,0c-0.1,0-0.2-0.1-0.2-0.1c0-0.1,0-0.1-0.1-0.1C48.7,30.9,48.7,30.9,48.6,30.9c0.2-0.2,0.2-0.2,0.2-0.3
				C48.7,30.7,48.7,30.7,48.6,30.9c-0.1,0-0.2,0-0.2,0C48.5,31,48.6,30.9,48.6,30.9L48.6,30.9L48.6,30.9z M47.5,31.6
				c0-0.1,0-0.1,0-0.3c0.1-0.3,0.2-0.4,0.3-0.5s0.3-0.2,0.5-0.3c0,0.1,0,0.3-0.1,0.5s-0.2,0.4-0.3,0.5c0.1,0,0.2,0,0.4,0.1
				s0.3,0.1,0.5,0.1c-0.2,0.1-0.3,0.1-0.4,0.2C48.3,32,48.2,32,48,32s-0.2-0.1-0.3-0.1s-0.1-0.1-0.1-0.1c0.1-0.1,0.1-0.1,0.1-0.2
				s0.1-0.1,0.1-0.2c0,0.1-0.1,0.1-0.1,0.2c-0.1,0.1-0.1,0.1-0.2,0.2C47.4,31.6,47.4,31.6,47.5,31.6L47.5,31.6L47.5,31.6z
				 M46.6,31.9c0-0.3,0.1-0.4,0.2-0.5c0.1-0.1,0.3-0.2,0.4-0.4c0.1,0.1,0,0.3,0,0.5c-0.1,0.2-0.1,0.5-0.2,0.6c0.1-0.1,0.2-0.1,0.4,0
				c0.2,0,0.3,0.1,0.5,0.1c-0.2,0.1-0.2,0.2-0.3,0.2c-0.1,0.1-0.2,0.1-0.4,0.1c-0.1,0-0.2,0-0.3-0.1c-0.1,0-0.1-0.1-0.1-0.1
				c0-0.1,0.1-0.1,0.1-0.2c0-0.1,0-0.1,0-0.2c0,0.1-0.1,0.2-0.1,0.2c-0.1,0.1-0.1,0.1-0.1,0.2c0-0.1,0-0.1,0-0.2
				C46.7,32.2,46.7,32.1,46.6,31.9L46.6,31.9L46.6,31.9z M45.7,32.7c0-0.3,0.1-0.4,0.2-0.5c0.1-0.1,0.2-0.2,0.3-0.4
				c0.1,0.1,0.1,0.3,0.1,0.5s-0.1,0.5-0.2,0.6c0.1-0.1,0.2-0.1,0.4,0c0.2,0,0.3,0,0.5,0c-0.2,0.1-0.2,0.2-0.3,0.3s-0.2,0.1-0.4,0.2
				c-0.2,0-0.2,0-0.3-0.1c-0.1,0-0.1-0.1-0.1-0.1L46,33l0.1-0.2C46,32.9,46,33,46,33c0,0.1-0.1,0.1-0.1,0.1V33
				C45.7,32.9,45.7,32.9,45.7,32.7L45.7,32.7L45.7,32.7z M45,33.2c0.1-0.1,0.2-0.2,0.3-0.5c0.1,0.1,0.1,0.3,0.1,0.5
				s-0.1,0.5-0.1,0.6c0.1-0.1,0.2-0.1,0.4-0.1c0.1,0,0.3,0,0.5,0c-0.1,0.1-0.2,0.2-0.3,0.3s-0.2,0.2-0.4,0.2c-0.1,0-0.2,0-0.2,0
				c-0.1,0-0.1-0.1-0.1-0.1c0-0.1,0-0.2,0-0.2c0-0.1,0-0.2,0-0.2c0,0.1,0,0.2-0.1,0.3c0,0.1-0.1,0.2-0.1,0.2c0-0.1,0-0.1,0.1-0.2
				c0-0.1,0-0.2-0.1-0.3C44.9,33.4,44.9,33.3,45,33.2L45,33.2L45,33.2z M44.1,34.6c0.1-0.2,0.2-0.3,0.3-0.5c0.1,0,0.1,0.2,0.2,0.4
				c0,0.2,0,0.4-0.1,0.6c0.1-0.1,0.2-0.1,0.4-0.2c0.2-0.1,0.4-0.1,0.5-0.2c-0.1,0.1-0.2,0.2-0.3,0.3s-0.2,0.2-0.3,0.3
				c-0.2,0.1-0.2,0.1-0.3,0.1s-0.1,0-0.2,0c0-0.1,0-0.1,0-0.2c0-0.1,0-0.1-0.1-0.2c0,0.1,0,0.1,0,0.2c0,0.1-0.1,0.2-0.1,0.2
				c0-0.1,0-0.1,0-0.1c0-0.1,0-0.1-0.1-0.2C44,34.9,44,34.7,44.1,34.6L44.1,34.6L44.1,34.6z M43.6,36.1c-0.1-0.2-0.1-0.4-0.1-0.5
				c0-0.2,0.1-0.3,0.1-0.6c0.1,0,0.2,0.2,0.2,0.4C44,35.6,44,35.8,44,36c0.1-0.1,0.2-0.2,0.4-0.2c0.2-0.1,0.3-0.2,0.5-0.3
				c-0.1,0.2-0.2,0.3-0.2,0.4c-0.1,0.1-0.1,0.2-0.3,0.3c-0.1,0.1-0.2,0.1-0.3,0.1s-0.1,0-0.1,0c0-0.1,0-0.1-0.1-0.2
				c0-0.1-0.1-0.1-0.1-0.2c0,0.1,0,0.1,0,0.2c0,0.1,0,0.2,0,0.2c0-0.1,0-0.1,0-0.1C43.8,36.3,43.7,36.2,43.6,36.1L43.6,36.1
				L43.6,36.1z M43,36.9c0.1-0.2,0.1-0.3,0.2-0.6c0.1,0,0.2,0.2,0.2,0.4c0.1,0.2,0.1,0.4,0.1,0.6c0.1-0.1,0.2-0.1,0.4-0.2
				c0.2-0.1,0.3-0.1,0.5-0.2c-0.1,0.2-0.2,0.3-0.2,0.4c-0.1,0.1-0.1,0.2-0.3,0.3c-0.1,0.1-0.2,0.1-0.3,0.1s-0.1,0-0.2,0
				c0-0.1,0-0.1,0-0.2c0-0.1-0.1-0.1-0.1-0.2c0,0.1,0,0.1,0,0.2c0,0.1,0,0.2,0,0.2c0-0.1,0-0.1,0-0.1c0-0.1-0.1-0.1-0.2-0.2
				C42.9,37.2,42.9,37.1,43,36.9L43,36.9L43,36.9z M42.8,38.5c-0.2-0.2-0.2-0.4-0.2-0.5c0-0.2,0.1-0.3,0.1-0.6
				c0.1,0,0.2,0.2,0.3,0.4s0.2,0.4,0.2,0.6c0.1-0.1,0.2-0.2,0.3-0.3s0.3-0.2,0.4-0.3c-0.1,0.2-0.1,0.3-0.1,0.4
				c0,0.1-0.1,0.2-0.2,0.3c-0.1,0.1-0.2,0.2-0.2,0.2c-0.1,0-0.1,0.1-0.1,0.1c0-0.1-0.1-0.1-0.1-0.2c0-0.1-0.1-0.2-0.1-0.2
				c0.1,0.1,0.1,0.2,0.1,0.2c0,0.1,0,0.2,0,0.3c0-0.1,0-0.1,0-0.2C42.9,38.6,42.9,38.6,42.8,38.5L42.8,38.5L42.8,38.5z M42.2,39.3
				c0-0.2,0.1-0.3,0.1-0.6c0.1,0,0.2,0.2,0.3,0.4s0.2,0.4,0.2,0.6c0-0.1,0.2-0.2,0.3-0.2c0.2-0.1,0.3-0.2,0.5-0.3
				c-0.1,0.2-0.1,0.3-0.1,0.4c0,0.1-0.1,0.2-0.2,0.3C43.1,40,43,40,42.9,40s-0.1,0-0.1,0c0-0.1-0.1-0.1-0.1-0.2
				c-0.1-0.1-0.1-0.1-0.1-0.2c0,0.1,0.1,0.2,0.1,0.2c0,0.1,0,0.2,0,0.2c0-0.1,0-0.1-0.1-0.1c0-0.1-0.1-0.1-0.2-0.2
				C42.3,39.6,42.2,39.4,42.2,39.3L42.2,39.3z M42.8,41.2c0-0.1-0.1-0.1-0.1-0.2c-0.1-0.1-0.1-0.1-0.2-0.2c0.1,0.1,0.1,0.1,0.1,0.2
				c0,0.1,0.1,0.2,0.1,0.2s0-0.1-0.1-0.1c0-0.1-0.1-0.1-0.2-0.2c-0.2-0.2-0.2-0.3-0.3-0.5c0-0.1,0-0.3-0.1-0.5
				c0.1,0,0.2,0.1,0.4,0.3s0.3,0.4,0.3,0.5c0-0.1,0.1-0.2,0.3-0.3c0.1-0.1,0.2-0.2,0.4-0.3c-0.1,0.2,0,0.3-0.1,0.4
				c0,0.1,0,0.2-0.2,0.4c-0.1,0.1-0.2,0.2-0.2,0.2C42.9,41.1,42.8,41.1,42.8,41.2L42.8,41.2L42.8,41.2z M42.1,43.5
				c0-0.1-0.1-0.3-0.1-0.7c0.1,0,0.2,0.1,0.4,0.2c0.2,0.2,0.3,0.3,0.4,0.5c0-0.1,0.1-0.2,0.2-0.3c0.1-0.1,0.2-0.3,0.3-0.4
				c0,0.2,0,0.3,0,0.4c0,0.1,0,0.3-0.1,0.4c-0.1,0.1-0.1,0.2-0.2,0.2c-0.1,0-0.1,0-0.1,0.1c0-0.1,0-0.1-0.1-0.2
				c0-0.1-0.1-0.1-0.1-0.2c0,0.1,0,0.1,0,0.2c0,0.1-0.1,0.1-0.1,0.2v-0.1c0-0.1-0.1-0.1-0.2-0.1C42.2,43.6,42.1,43.6,42.1,43.5
				L42.1,43.5L42.1,43.5z M42,41.4c0.1,0,0.2,0.1,0.4,0.3s0.3,0.4,0.3,0.5c0-0.1,0.1-0.2,0.2-0.3c0.1-0.1,0.3-0.2,0.4-0.3
				c0,0.2,0,0.3,0,0.4c0,0.1,0,0.2-0.2,0.4c-0.1,0.1-0.2,0.1-0.2,0.2c-0.1,0-0.1,0-0.1,0c0-0.1-0.1-0.1-0.1-0.2
				c-0.1-0.1-0.1-0.1-0.2-0.2c0.1,0.1,0.1,0.1,0.1,0.2c0,0.1,0.1,0.2,0.1,0.3c-0.1-0.1-0.1-0.1-0.1-0.2c-0.1-0.1-0.1-0.1-0.2-0.2
				c-0.2-0.2-0.3-0.3-0.3-0.5C42.1,41.8,42.1,41.7,42,41.4L42,41.4L42,41.4z M42.5,44.5c0.1,0.1,0.3,0.3,0.3,0.4
				c0-0.1,0.1-0.2,0.2-0.4c0.1-0.1,0.2-0.3,0.3-0.5c0,0.2,0,0.3,0,0.4c0,0.1,0,0.3-0.1,0.5c-0.1,0.1-0.1,0.2-0.2,0.2
				c-0.1,0.1-0.1,0.1-0.1,0.1c0-0.1,0-0.1-0.1-0.2c0-0.1-0.1-0.1-0.1-0.1c0.1,0.1,0.1,0.1,0.1,0.2c0,0.1,0,0.2,0,0.3
				c0-0.1-0.1-0.1-0.1-0.1c-0.1,0-0.1-0.1-0.2-0.1c-0.2-0.1-0.3-0.3-0.3-0.4c0-0.1,0-0.3-0.1-0.5C42.2,44.3,42.4,44.4,42.5,44.5
				L42.5,44.5L42.5,44.5z M42.4,45.9c-0.1-0.1-0.1-0.3-0.3-0.5c0.1,0,0.3,0,0.5,0.2c0.2,0.1,0.4,0.2,0.5,0.4c0-0.1,0.1-0.2,0.2-0.4
				c0.1-0.2,0.2-0.3,0.2-0.5c0,0.2,0.1,0.3,0.1,0.4c0,0.1,0,0.2-0.1,0.5c-0.1,0.2-0.1,0.2-0.2,0.3c-0.1,0-0.1,0.1-0.1,0.1
				c0-0.1-0.1-0.1-0.1-0.2c0-0.1-0.1-0.1-0.1-0.1l0.1,0.1c0,0.1,0,0.1,0,0.2L43,46.3c-0.1,0-0.1,0-0.2-0.1
				C42.5,46.2,42.4,46.1,42.4,45.9L42.4,45.9L42.4,45.9z M42.8,47.3c-0.1-0.1-0.1-0.3-0.3-0.5c0.1,0,0.3,0,0.5,0.1s0.4,0.3,0.5,0.4
				c0-0.1,0.1-0.2,0.1-0.4c0.1-0.2,0.2-0.3,0.3-0.5c0,0.2,0.1,0.3,0.1,0.4c0,0.1,0,0.3,0,0.5c-0.1,0.1-0.1,0.2-0.1,0.2
				c0,0.1-0.1,0.1-0.1,0.1c0-0.1-0.1-0.1-0.1-0.1c-0.1-0.1-0.1-0.1-0.1-0.1c0.1,0.1,0.1,0.1,0.1,0.2c0,0.1,0.1,0.2,0.1,0.3
				c-0.1-0.1-0.1-0.1-0.1-0.1c-0.1,0-0.1-0.1-0.3-0.1C43,47.5,42.9,47.4,42.8,47.3L42.8,47.3L42.8,47.3z M43.3,48.4
				c-0.1-0.1-0.2-0.3-0.3-0.4c0.1-0.1,0.3,0,0.5,0.1s0.4,0.2,0.5,0.3c0-0.1,0-0.3,0.1-0.4c0.1-0.2,0.1-0.3,0.2-0.5
				c0.1,0.2,0.1,0.3,0.2,0.4c0.1,0.1,0.1,0.2,0.1,0.4c0,0.1-0.1,0.2-0.1,0.3s-0.1,0.1-0.1,0.1c-0.1-0.1-0.1-0.1-0.2-0.1
				S44,48.5,44,48.5c0.1,0.1,0.2,0.1,0.2,0.2c0.1,0.1,0.1,0.1,0.2,0.2l0,0l0,0l0,0l0,0c-0.1,0-0.1-0.1-0.1-0.1c-0.1,0-0.1-0.1-0.3,0
				C43.5,48.6,43.4,48.5,43.3,48.4L43.3,48.4L43.3,48.4z M43.8,49.5c-0.1-0.1-0.2-0.3-0.3-0.5c0.1,0,0.3,0,0.5,0.1s0.5,0.2,0.6,0.3
				c0-0.1,0-0.2,0.1-0.4s0.1-0.3,0.2-0.5c0,0.2,0.1,0.3,0.1,0.4c0.1,0.1,0.1,0.2,0,0.4c0,0.1-0.1,0.2-0.1,0.3s-0.1,0.1-0.1,0.1
				c-0.1-0.1-0.1-0.1-0.2-0.1c-0.1,0-0.1-0.1-0.2-0.1c0.1,0.1,0.1,0.1,0.2,0.2c0.1,0.1,0.1,0.1,0.2,0.2c-0.1,0-0.1-0.1-0.1-0.1
				c-0.1,0-0.1,0-0.3,0C44.1,49.7,43.9,49.6,43.8,49.5L43.8,49.5L43.8,49.5z M45.4,49.8c0.1,0.1,0.1,0.2,0.1,0.4
				c0,0.1,0,0.2-0.1,0.3c0,0.1-0.1,0.1-0.1,0.1c-0.1-0.1-0.1-0.1-0.2-0.1c-0.1,0-0.1,0-0.2-0.1c0.1,0,0.2,0.1,0.2,0.1
				c0.1,0,0.1,0.1,0.2,0.1c-0.1,0-0.1,0-0.2-0.1c-0.1,0-0.1,0-0.3,0c-0.3,0-0.4-0.1-0.5-0.2c-0.1-0.1-0.2-0.3-0.4-0.4
				c0.1,0,0.3,0,0.5,0.1s0.5,0.2,0.6,0.3c0-0.1,0-0.2,0-0.4s0.1-0.3,0.1-0.5C45.3,49.7,45.4,49.7,45.4,49.8L45.4,49.8L45.4,49.8z
				 M45.8,51.1c0.1-0.1,0.1-0.3,0.1-0.5c0.1,0.2,0.2,0.3,0.2,0.4c0.1,0.1,0.1,0.2,0.1,0.4c0,0.1,0,0.2-0.1,0.3
				c-0.1,0-0.1,0.1-0.1,0.1c-0.1-0.1-0.1-0.1-0.2-0.1c-0.1,0-0.1,0-0.2-0.1c0.1,0,0.2,0.1,0.2,0.1c0.1,0.1,0.1,0.1,0.2,0.2
				c-0.1,0-0.2-0.1-0.3-0.1c-0.1-0.1-0.3-0.1-0.5-0.1c-0.3-0.1-0.3-0.1-0.4-0.2c0-0.1,0-0.2-0.2-0.4c0.1-0.1,0.3,0,0.5,0.1
				s0.5,0.2,0.6,0.3C45.7,51.4,45.8,51.3,45.8,51.1L45.8,51.1L45.8,51.1z M48.8,29.6c0.5-0.1,0.6-0.4,0.6-0.4L48.2,29l1.2-0.3
				l-1.3-0.5c0.1,0,1.2,0.1,1.4,0.1c0,0-0.9-0.6-1.1-0.7c0,0,1,0.3,1.3,0.3l-0.9-1c0.2,0.1,1.1,0.6,1.2,0.6
				c-0.2-0.2-0.8-1.1-0.8-1.1l1.2,0.8c0-0.1-0.5-1.2-0.5-1.3c0.2,0.2,0.7,0.9,0.9,1l-0.3-1.4l0.7,1.2c0-0.1,0-1.1,0-1.4
				c0,0.2,0.4,1.2,0.5,1.3l0.3-1.4c0,0,0.2,1.3,0.2,1.4c0.1-0.1,0.5-1.3,0.5-1.3c0,0.3-0.1,1.4-0.1,1.4l0.8-1.2l-0.3,1.4l1-1
				c-0.1,0.1-0.5,1-0.6,1.3l1.2-0.8l-0.8,1.1c0,0,0,0,0.1,0s1.2-0.5,1.2-0.6c-0.2,0.2-0.8,0.7-1.1,1l1.4-0.3l-1.1,0.7
				c0,0,1.4,0,1.5,0c-0.2,0.1-1.2,0.4-1.3,0.5l1.3,0.3l-1.1,0.2c0,0.1,0.5,0.5,0.6,0.5c0,0-0.6,0-0.7-0.1c-0.1-0.1-0.5-0.1-0.8,0
				c0,0,0-0.2-0.1-0.2c-0.2,0.1-1.1,0.1-1.2,0.1c0,0,0-0.2,0-0.3c-0.3,0.1-0.6,0.1-0.7,0.2c-0.2,0-0.4,0.1-0.5,0.2
				c-0.1,0,0-0.3-0.1-0.3c-0.3,0.1-0.6,0.2-0.8,0.2c-0.2,0.1-0.4,0.1-0.5,0.2c0-0.1-0.1-0.3-0.1-0.3c-0.1,0.1-0.2,0.2-0.5,0.2
				C49.2,29.7,48.7,29.6,48.8,29.6L48.8,29.6L48.8,29.6z M49.1,47.5c-0.1,0.1-0.2,0.2-0.2,0.2c-0.1,0-0.1,0-0.2-0.1
				c-0.1,0-0.1-0.1,0-0.1l0.1-0.1l0.1-0.1c0.1,0,0.2-0.1,0.2-0.1c0.1,0,0.1,0,0.1,0C49.2,47.3,49.2,47.4,49.1,47.5L49.1,47.5
				L49.1,47.5z M49.6,48.2c-0.1,0-0.1,0-0.2,0c-0.1,0-0.1,0-0.1-0.1s0-0.2,0.1-0.2c0.1-0.1,0.1-0.2,0.2-0.2l0.1-0.1h0.1l0.1-0.1
				l0.1-0.1c0.1,0,0.2,0,0.2,0s0,0.1,0.1,0.1c0,0.1-0.1,0.2-0.2,0.3C49.8,48,49.7,48.2,49.6,48.2L49.6,48.2L49.6,48.2z M50.7,48.3
				c-0.2,0.1-0.4,0.2-0.4,0.2c-0.1,0-0.1,0-0.1,0c-0.1,0-0.1,0-0.1-0.1s0-0.1,0-0.1l0.1-0.1c-0.1,0-0.1,0,0-0.1s0.1-0.1,0.2-0.1
				v-0.1l0.1-0.1c0.1-0.1,0.2-0.2,0.3-0.2s0.2,0,0.3,0.2C51,48,50.9,48.1,50.7,48.3L50.7,48.3L50.7,48.3z M51.5,48.6
				c-0.1,0.1-0.2,0.1-0.4,0.2c-0.1-0.1-0.2-0.1-0.2-0.1c0-0.1,0.1-0.2,0.3-0.4c0,0,0.1-0.1,0.2-0.1c0.1,0,0.2,0,0.2,0.2
				C51.6,48.5,51.6,48.5,51.5,48.6L51.5,48.6L51.5,48.6z M57.8,48.2c-0.6-0.1-1.4-0.3-2.3-0.9c0.1-0.1,0.1-0.2,0.2-0.4
				c0-0.2,0-0.4,0-0.5s0-0.1-0.1-0.1c0,0,0,0.1-0.1,0.2c-0.1,0.2-0.2,0.3-0.2,0.4c-0.2,0-0.2,0.1-0.3,0.1c-0.3-0.3-0.4-0.4-0.6-0.5
				c-0.2-0.1-0.4-0.2-0.7-0.4c-0.3-0.1-0.4-0.2-0.5-0.3s-0.2-0.2-0.3-0.3c-0.2,0.1-0.6,0.3-0.8,0.4c-0.3,0.1-0.6,0.1-0.8,0
				s-0.1-0.2,0.1-0.3c0.2-0.1,0.4-0.3,0.5-0.5s0.2-0.3,0.4-0.3c0.2-0.1,0.3-0.1,0.5,0c0.4,0.1,0.7,0.2,1,0.3s0.7,0.3,1.3,0.6
				c0.7,0.1,1.2,0.2,1.9,0.3c0.6,0.1,1.2,0.3,1.9,0.5c0.1,0,0.2,0.1,0.4,0.1c0.1,0,0.3,0,0.3,0.1c-0.1,0.3-0.2,0.5-0.3,0.7
				c-0.1,0.3-0.2,0.5-0.4,0.9C58.8,48.3,58.4,48.3,57.8,48.2L57.8,48.2L57.8,48.2z M54.5,47.5L54.5,47.5c-0.2,0.2-0.3,0.2-0.3,0.2
				c-0.1,0-0.1-0.1-0.2-0.2c-0.3-0.4-0.5-0.5-0.7-0.6s-0.4-0.2-0.4-0.5c-0.1,0.1-0.1,0.1-0.1,0.2c0,0.1,0.1,0.2,0.1,0.2
				c0.2,0.2,0.4,0.4,0.6,0.5c0.2,0.2,0.3,0.3,0.5,0.6c0,0.1-0.1,0.1-0.2,0.2c-0.1,0-0.2,0-0.2-0.1c-0.3-0.3-0.6-0.5-0.8-0.7
				s-0.3-0.3-0.2-0.4c-0.1,0-0.1,0-0.2,0.1c0,0.1-0.1,0.1,0,0.2c0.1,0.2,0.2,0.4,0.4,0.6c0.2,0.2,0.3,0.3,0.4,0.5
				c0,0.2-0.2,0.2-0.4,0.1c-0.2-0.2-0.5-0.4-0.6-0.8l0,0l0,0c-0.1,0.1-0.1,0.2-0.1,0.3s0.1,0.3,0.3,0.5c0.1,0.1,0.1,0.2,0.1,0.3
				s-0.1,0.1-0.3,0.1c0,0,0,0-0.1,0c0,0-0.1,0,0,0l0,0l0,0l0,0H52c0.1-0.4-0.1-0.6-0.2-0.6c-0.2-0.1-0.3,0-0.4,0l0,0
				c0.1-0.2,0-0.3-0.2-0.4c-0.2-0.1-0.4-0.1-0.6,0c0-0.1-0.1-0.2-0.3-0.3s-0.5-0.1-0.8,0c-0.1-0.1-0.2-0.2-0.5-0.2
				c-0.2,0-0.5,0.1-0.8,0.5c-0.5,0.1-1.1,0.3-1.8,0.5c-0.6,0.2-1.3,0.3-1.8,0.1c0,0-0.2-0.4-0.3-0.8c-0.1-0.4-0.3-0.8-0.3-0.8
				c0.6-0.1,1.5-0.1,2.4-0.2c0.9-0.1,1.8-0.3,2.2-0.5c0.3-0.2,0.9-0.4,1.3-0.5c0.5-0.1,0.9-0.1,1,0c0,0.1-0.2,0.3-0.3,0.5
				s-0.2,0.3,0,0.5s0.6,0.3,0.9,0.3c0.3,0,0.7-0.2,0.9-0.3c0.3,0.3,0.7,0.5,1,0.6c0.3,0.2,0.7,0.4,0.8,0.8L54.5,47.5L54.5,47.5z
				 M53.7,39c0.5-0.2,0.7-0.3,0.8-0.3s0.1,0,0.1,0c0,0.1-0.1,0.2-0.1,0.3c-0.1,0.1-0.2,0.2-0.2,0.2c-0.1,0-0.2,0-0.5,0
				c-0.2,0-0.4,0-0.6,0c0.1,0,0.2,0,0.3-0.1C53.6,39.1,53.6,39.1,53.7,39L53.7,39L53.7,39z M51.5,39.2c-0.2,0-0.5,0-0.8,0
				c-0.2,0-0.4,0-0.4,0c-0.1,0-0.3-0.1-0.5-0.2c-0.2-0.1-0.3-0.2-0.3-0.2s0.1,0,0.2,0c0.1,0,0.3-0.1,0.6-0.2c0.3-0.1,0.6,0,0.8,0.2
				C51.3,38.8,51.4,39.1,51.5,39.2L51.5,39.2L51.5,39.2z M50.6,37.9c-0.2,0-0.4,0.1-0.6,0.1c-0.2,0.1-0.3,0.1-0.5,0.1
				c0,0,0-0.2,0.2-0.6c0.1-0.3,0.4-0.8,0.8-1.3c0.2-0.2,0.5-0.4,0.8-0.6c0.3-0.2,0.6-0.3,0.8-0.5V35l0,0c-0.2,0-0.5,0.1-0.8,0.1
				s-0.7-0.1-0.8-0.3c0-0.2,0.1-0.5,0.4-0.6c0.2-0.2,0.6-0.3,1-0.3c0.2,0,0.5,0,0.7,0.1s0.4,0.2,0.6,0.3c0.2,0.2,0.4,0.4,0.5,0.6
				c0.1,0.2,0.2,0.5,0.2,0.7c-0.3,0.1-0.5,0.2-0.6,0.3S53.1,36,53.1,36c0.1,0,0.1,0,0.2,0c0.1,0,0.1,0,0.2,0c0.1,0,0.2,0,0.3,0
				s0.1,0,0.2,0c0,0.1,0,0.1,0,0.2s0,0.1,0,0.2h0.1c0,0,0,0,0,0.1c-0.4,0.2-0.7,0.3-0.9,0.4c-0.2,0.1-0.3,0.2-0.6,0.2
				c0,0-0.1,0-0.2,0c-0.1,0-0.1,0-0.1,0l0,0l0,0c0,0,0.1,0,0.2,0c0.1,0,0.2,0.1,0.3,0.1c0.2,0,0.4-0.1,0.6-0.1
				c0.2-0.1,0.4-0.1,0.6-0.2c0,0.1,0,0.2,0,0.3s0.1,0.1,0.3,0.2l0,0c-0.5,0.3-0.9,0.4-1.1,0.5c-0.2,0.1-0.4,0-0.4,0l-0.4-0.1
				L52,37.7c0.1,0.1,0.3,0.2,0.4,0.2c0.2,0.1,0.3,0.2,0.5,0.2s0.4-0.1,0.7-0.1c0.3-0.1,0.5-0.2,0.7-0.2l0.1,0.2l0.1,0.2
				c-0.3,0-0.6,0.2-1,0.4c-0.3,0.2-0.7,0.3-1.2,0.2c-0.2-0.2-0.5-0.4-0.8-0.6C51.2,38.1,51,37.9,50.6,37.9L50.6,37.9L50.6,37.9z
				 M52.4,42.2h7.8c0,0.1-0.1,0.8-0.1,1.6c-0.1,0.7-0.2,1.6-0.5,2.3c-0.8,0-1.5-0.2-2.3-0.4c-0.7-0.2-1.4-0.4-2-0.4
				c-0.4-0.1-0.8-0.3-1.4-0.6c-0.5-0.2-1-0.4-1.6-0.4L52.4,42.2L52.4,42.2z M43.7,43.5c-0.1-0.7,0-1.2,0-1.2h7.9c0,0,0,2.4,0,2.5
				c-0.2,0-0.5-0.1-0.8-0.1s-0.5,0-0.8,0c-0.7,0.1-1,0.4-1.6,0.6c-0.7,0.2-1.8,0.4-4.3,0.5C43.8,44.9,43.7,44.1,43.7,43.5L43.7,43.5
				L43.7,43.5z M50.8,31.4h2.4C52.1,31.1,51.2,31.2,50.8,31.4C50.8,31.3,50.8,31.4,50.8,31.4L50.8,31.4L50.8,31.4z M47.8,32.7H56
				c0,0-0.1,0-0.1-0.1c0,0,0,0-0.1,0c0-0.1,0-0.1-0.1-0.1c-0.6-0.5-1.3-0.8-1.9-1h-3.7C49.3,31.8,48.5,32.2,47.8,32.7L47.8,32.7
				L47.8,32.7z M50.3,34.2h-4.1c-0.3,0.4-0.6,0.7-0.8,1.1h4.7c-0.1-0.1-0.1-0.1-0.2-0.2C50,34.8,50.1,34.5,50.3,34.2L50.3,34.2
				L50.3,34.2z M51.5,40.8h-7.8c-0.1,0.6-0.1,1-0.1,1h7.9L51.5,40.8L51.5,40.8z M60.1,40.8h-7.7v0.8v0.2h7.8
				C60.2,41.8,60.2,41.4,60.1,40.8L60.1,40.8L60.1,40.8z M59.9,39.5h-5.2c-0.2,0.1-0.5,0.1-0.8,0.1c-0.7,0.1-1.5-0.1-1.5-0.1v1h7.7
				C60.1,40.3,60,39.9,59.9,39.5L59.9,39.5L59.9,39.5z M59.6,38.1h-4.4c0.1,0.3-0.1,0.6-0.2,1c0,0.1-0.1,0.1-0.1,0.2h5
				C59.8,38.9,59.7,38.5,59.6,38.1L59.6,38.1L59.6,38.1z M59.1,36.8h-4.6c0,0,0,0,0,0.1c0.2,0.7,0.5,1,0.6,1.1h4.5
				C59.4,37.6,59.3,37.2,59.1,36.8L59.1,36.8L59.1,36.8z M58.5,35.5h-4.2c0.1,0.4,0.1,0.8,0.2,1.1H59C58.9,36.2,58.7,35.9,58.5,35.5
				L58.5,35.5L58.5,35.5z M57.6,34.2h-3.9c0.3,0.3,0.5,0.7,0.6,1.1h4.2C58.1,34.9,57.9,34.5,57.6,34.2L57.6,34.2L57.6,34.2z
				 M53.4,34h4c-0.4-0.4-0.8-0.8-1.2-1.2h-8.6c-0.4,0.3-0.8,0.7-1.2,1.1h4.1c0.2-0.1,0.3-0.2,0.6-0.3s0.5-0.1,0.8-0.2
				C52.6,33.6,53.1,33.7,53.4,34L53.4,34L53.4,34z M44.8,36.6h4.8c0.2-0.3,0.5-0.7,0.9-1.1c0,0,0,0-0.1,0h-5.1
				C45.2,35.9,45,36.2,44.8,36.6L44.8,36.6L44.8,36.6z M44.3,37.9H49c0.1-0.5,0.3-0.8,0.3-0.8s0.1-0.2,0.2-0.3h-4.8
				C44.6,37.2,44.5,37.6,44.3,37.9L44.3,37.9L44.3,37.9z M50,39.5L50,39.5h-6c-0.1,0.4-0.1,0.8-0.2,1.1h7.8v-1c0,0-0.4,0-1.1,0
				C50.4,39.5,50.2,39.5,50,39.5L50,39.5L50,39.5z M44,39.3h5.6c-0.2-0.1-0.3-0.2-0.4-0.4c-0.1-0.3-0.1-0.5-0.1-0.8h-4.7
				C44.2,38.5,44.1,38.9,44,39.3L44,39.3L44,39.3z M53.7,28.6h-0.2c0-0.1-0.2-0.2-0.3-0.2v0.1c0,0.1,0,0.1-0.1,0.2
				c-0.1,0-0.1,0.1-0.1,0.1h-0.2c-0.1,0-0.1-0.1-0.1-0.1c0-0.1-0.1-0.1-0.1-0.2v-0.1c0,0,0,0,0-0.1l0,0l-0.2,0.2h-0.2l0.3-0.4
				c0.5-0.1,0.8,0,1,0.2C53.7,28.4,53.7,28.6,53.7,28.6L53.7,28.6L53.7,28.6z M53.9,28.1L53.9,28.1c-0.2-0.1-0.4-0.2-0.5-0.2
				c-0.2,0-0.3,0-0.3,0L52.3,28l0.1-0.3h0.3c0.6,0,0.8,0.1,1,0.2C53.8,28,53.9,28.1,53.9,28.1L53.9,28.1L53.9,28.1z M49.9,28.1
				c0,0,0-0.2,0.2-0.3c0.2-0.1,0.5-0.3,1.1-0.2h0.2l0.1,0.3h-0.4c0,0-0.5-0.1-0.7,0C50.3,27.9,50.1,28,49.9,28.1L49.9,28.1
				L49.9,28.1z M51.6,28.5c0,0-0.2,0-0.3,0l-0.1-0.1c0,0,0,0,0,0.1s0,0.1-0.1,0.2c-0.1,0-0.1,0.1-0.1,0.1h-0.2
				c-0.1,0-0.1-0.1-0.1-0.1c0-0.1-0.1-0.2-0.1-0.2l0,0c-0.1,0-0.1,0-0.1,0.1c-0.1,0-0.1,0.1-0.1,0.1h-0.2c0,0,0.1-0.1,0.2-0.3
				c0.2-0.1,0.5-0.2,1-0.2L51.6,28.5L51.6,28.5z M53,54.3c-0.1,0.1-0.3,0.2-0.4,0.2l0,0l0,0c0.1,0,0.2-0.2,0.2-0.5
				c0-0.1,0-0.1-0.1-0.2c0-0.1-0.1-0.1-0.2-0.1c0,0-0.1,0,0-0.1c0.1,0,0.4,0,0.5,0.1C53.4,54,53.2,54.2,53,54.3L53,54.3L53,54.3z
				 M52.3,54.4c-0.1,0.1-0.1,0.2-0.1,0.2l0,0l0,0l0,0l0,0c0,0,0-0.1-0.1-0.1s-0.1,0-0.3,0c-0.3,0-0.3,0.1-0.4,0.1c0,0.1,0,0.1-0.1,0
				c0,0-0.1-0.1-0.1-0.2v-0.1v-0.1c0-0.1,0.1-0.2,0.2-0.3c0.1-0.1,0.3-0.1,0.3-0.1c0.1,0,0.2,0,0.3,0.1s0.2,0.1,0.2,0.2
				C52.4,54.2,52.4,54.3,52.3,54.4L52.3,54.4L52.3,54.4z M52.1,55.2c0,0,0,0.1-0.1,0.3c0,0.1-0.1,0.3-0.2,0.3
				c-0.1,0-0.2-0.2-0.2-0.3s0-0.3,0-0.3v-0.1c0-0.1,0.1-0.1,0.3-0.2C52.1,54.9,52.1,55,52.1,55.2C52.2,55.1,52.1,55.2,52.1,55.2
				L52.1,55.2L52.1,55.2z M53.6,53.6c0.5-0.1,0.9-0.3,1.3-0.5c0.5-0.2,0.9-0.5,1.4-0.9l0,0l0,0c0,0.2-0.1,0.7-0.2,0.8
				c-0.2,0.3-0.7,0.6-1.2,0.8s-1,0.4-1.3,0.5c0,0,0,0,0-0.1s0-0.1,0-0.1c0-0.1,0-0.2,0-0.2C53.6,53.8,53.6,53.8,53.6,53.6
				C53.6,53.7,53.6,53.7,53.6,53.6L53.6,53.6L53.6,53.6z M50.9,53.3c-1.4-0.2-2.5-0.8-3.4-1.6c-1.1-0.9-1.8-2-2.3-2.7
				c-0.1-0.1,0.5-0.3,1.1-0.5s2.1-0.6,2.1-0.6c0,0.1,0.1,0.2,0.2,0.3c0.1,0.1,0.2,0,0.2,0c0.1,0.1,0.1,0.1,0.1,0.2
				c0,0.1,0.1,0.2,0.2,0.3c0.1,0.1,0.2,0.1,0.3,0.1s0.1,0,0.2-0.1l0,0l0,0c-0.1,0.1,0.1,0.2,0.2,0.3c0.2,0.1,0.4,0.1,0.6,0
				c0,0.1,0,0.2,0.1,0.2c0.1,0.1,0.2,0.1,0.2,0.1c0.1,0,0.2,0.1,0.3,0.1s0.3,0,0.4-0.1c0,0,0,1.6,0,2s0.3,0.5,0.3,0.5
				c0.6,0,0.5-0.3,0.6-0.5c0-0.4,0-2,0-2c0.3-0.1,0.4-0.1,0.4-0.1c0.1-0.1,0.1-0.1,0.2-0.1c0.1,0,0.2,0,0.3,0s0.2-0.1,0.3-0.2
				c0.1,0,0.3,0,0.4-0.1c0.1-0.1,0.2-0.1,0.2-0.2c0.1,0,0.3,0,0.4-0.1c0.1-0.1,0.3-0.3,0.4-0.5c0.3,0.1,2.9,1.4,3.4,1.5
				c-0.2,0.3-0.9,1.4-2,2.3c-0.9,0.8-2,1.5-3.4,1.8c-0.1,0-0.1,0-0.2,0c-0.3,0-0.7,0.1-0.8,0.1l0,0l0,0c-0.1,0-0.5-0.1-0.8-0.1
				C51,53.3,51,53.3,50.9,53.3L50.9,53.3L50.9,53.3z M52.9,54.9L52.9,54.9c0,0,0.2-0.1,0.4-0.2C53.2,54.8,53,54.9,52.9,54.9
				L52.9,54.9L52.9,54.9z M52.6,55.3c0.5,0.1,1.6,0.4,2,0.5h0.1c0,0,0.1-0.1,0.3-0.2c0.1-0.1,0.2-0.2,0.2-0.3c0,0-0.3,0-0.8-0.1
				c0,0,0,0-0.1,0C54,55.1,53.4,55,53.1,55c0.4-0.1,1.1-0.3,1.8-0.6c0.8-0.4,1.6-0.8,2-1.1c0.5,0.1,0.8-0.1,1.1-0.3s0.5-0.5,0.9-0.7
				l-0.2-0.1c0.2-0.1,0.3-0.2,0.5-0.4s0.3-0.3,0.5-0.5c0,0-0.2-0.1-0.3-0.1c0.3-0.1,0.4-0.2,0.4-0.3c0.1-0.2,0.1-0.3,0.4-0.5
				c0,0,0,0-0.1-0.1c0,0,0,0-0.1,0c0.2-0.1,0.3-0.3,0.4-0.5c0.1-0.2,0.2-0.4,0.4-0.6c-0.1,0-0.3-0.1-0.3-0.1
				c0.3-0.1,0.5-0.3,0.6-0.5s0.2-0.4,0.4-0.7c0,0-0.2,0-0.3,0c0.2-0.2,0.2-0.3,0.3-0.5s0.1-0.5,0.3-0.7c-0.1,0-0.3,0-0.4,0
				c0.3-0.1,0.4-0.3,0.5-0.6c0.1-0.2,0.2-0.5,0.3-0.8c0,0-0.2-0.1-0.3-0.1C62,45,62,45,62,44.8c-0.1-0.1-0.1-0.3,0.1-0.8
				c-0.1,0-0.3,0-0.4,0c0.2-0.2,0.3-0.5,0.4-0.7c0.1-0.2,0-0.6,0.1-0.8c-0.2,0-0.8,0.4-0.7,0.3c0.4-0.3,0.5-0.5,0.5-0.8
				c0.1-0.3-0.1-0.6,0-1c-0.2,0-0.3,0.1-0.6,0.3c-0.2,0.2-0.2,0.1,0-0.1c0.3-0.2,0.5-0.4,0.5-0.7c0.1-0.3,0.1-0.6,0.2-1
				c-0.1,0-0.3,0.1-0.4,0.1c0.1-0.2-0.1-1-0.1-1.3c-0.2,0-0.4,0.2-0.5,0.4c-0.2,0.2-0.2,0.1,0,0c0.3-0.4,0.3-0.7,0.3-1
				s-0.1-0.6-0.1-0.9c0,0-0.2,0-0.2,0.1c0-0.2-0.3-0.8-0.3-1c-0.2,0-0.6,0.5-0.5,0.3c0.2-0.3,0.2-0.6,0.1-0.8
				c-0.1-0.3-0.2-0.5-0.2-0.9c-0.1,0-0.3,0.1-0.3,0.2c0-0.2-0.1-0.4-0.1-0.6c-0.1-0.2-0.2-0.3-0.3-0.6c-0.1,0-0.3,0.1-0.4,0.2
				C59,34,59,34,59,34.2c0-0.1,0.1-0.4,0.1-0.5c0-0.5-0.1-0.7-0.2-0.9c-0.1-0.2-0.3-0.4-0.5-0.8c-0.1,0.1-0.2,0.4-0.3,0.5
				c-0.1-0.3-0.2-0.5-0.3-0.7s-0.3-0.4-0.4-0.6c-0.1,0.1-0.2,0.3-0.2,0.5c-0.1,0.2-0.1,0.3-0.1,0.5c0-0.1,0,0.1,0,0s0-0.2,0-0.3
				c0-0.5-0.1-0.7-0.3-0.9c-0.1-0.1-0.2-0.2-0.4-0.3h0.1c0,0-0.1-0.1-0.3-0.2c0,0-0.1-0.1-0.2-0.1c-0.4-0.2-0.8-0.5-0.9-0.5l0,0
				c0.1,0-0.1,0,0,0s0.4,0.1,0.5,0c0.1,0,0.2-0.1,0.4-0.1s0.3,0,0.6,0.1c-0.1-0.2-0.2-0.3-0.4-0.3c-0.1-0.1-0.3-0.1-0.5-0.1
				s-0.4-0.1-0.6-0.2L57,29l-1.9-0.3c0,0,0.1,0,0.1-0.1c0.1-0.1,0.2-0.1,0.3-0.1s0.2,0,0.3,0s0.2-0.1,0.3-0.2c0-0.1,0.1-0.1,0.2-0.2
				C56.6,28,56.7,28,57,28c-0.2-0.1-0.4-0.2-0.5-0.2c-0.2,0-0.3,0.1-0.5,0.1C55.9,28,55.8,28,55.7,28s-0.3-0.1-0.5,0l1.5-1l-1.9,0.4
				c0.2-0.2,0.3-0.3,0.5-0.4c0.1-0.1,0.3-0.2,0.4-0.4c0-0.1,0.1-0.2,0.2-0.2c0.1-0.1,0.2-0.2,0.4-0.3c-0.2,0-0.3,0-0.5,0.1
				s-0.3,0.2-0.5,0.4c-0.1,0-0.2,0.1-0.3,0.1s-0.3,0.1-0.4,0.1l1.1-1.5l-1.6,1c0-0.2,0.1-0.3,0.2-0.4c0.1-0.1,0.2-0.2,0.2-0.4
				c0-0.1,0-0.2,0-0.3c0.1-0.2,0.1-0.3,0.3-0.5c-0.2,0.1-0.3,0.2-0.5,0.3c-0.1,0.1-0.2,0.3-0.3,0.6c-0.1,0.1-0.1,0.2-0.3,0.2
				c-0.1,0.1-0.2,0.2-0.3,0.3l0.5-1.8l-1.1,1.6v-0.1c0-0.1,0-0.2,0.1-0.2c0.1-0.2,0.1-0.3,0.1-0.3c0-0.1,0-0.2,0-0.3
				c-0.1-0.1-0.1-0.2-0.1-0.4c0-0.2,0-0.3,0.1-0.5c-0.3,0.2-0.4,0.4-0.4,0.6s0,0.4-0.1,0.6c0,0.1-0.1,0.2-0.1,0.3
				c-0.1,0.1-0.1,0.2-0.1,0.3l-0.3-2l-0.4,1.9c-0.1-0.2-0.1-0.3-0.1-0.4s0-0.3-0.1-0.4c-0.1-0.2-0.2-0.2-0.3-0.3
				C51,24.5,51,24.3,51,24c-0.1,0.1-0.1,0.2-0.1,0.4s0,0.4,0.2,0.7c0,0,0,0.2,0,0.3c0,0.2,0,0.3,0,0.5l-1-1.6l0.4,1.9
				c-0.1,0-0.2-0.1-0.3-0.3c-0.1-0.1-0.2-0.3-0.2-0.4c-0.1-0.1-0.3-0.1-0.4-0.2c-0.1-0.1-0.3-0.2-0.4-0.5c0,0.2,0,0.4,0.1,0.5
				c0.1,0.2,0.2,0.3,0.4,0.5c0.1,0.1,0.1,0.2,0.2,0.4c0.1,0.2,0.1,0.3,0.2,0.4l-1.6-1.1l1.1,1.6c-0.2,0-0.3-0.1-0.5-0.2
				s-0.3-0.3-0.7-0.2c-0.2,0-0.4-0.1-0.5-0.2s-0.2-0.2-0.1-0.1c0.1,0.4,0.3,0.5,0.5,0.6s0.4,0.1,0.5,0.3c0.1,0,0.1,0.1,0.2,0.2
				c0.1,0.1,0.2,0.2,0.2,0.2l-2-0.7l1.6,1c-0.1,0.1-0.3,0-0.5-0.1c-0.2,0-0.4-0.1-0.5,0C47.5,28,47.3,28,47.1,28c-0.1,0-0.2,0-0.2,0
				c0.2,0.2,0.3,0.3,0.5,0.3s0.3,0,0.5,0c0.1,0,0.3,0,0.4,0.1c0.1,0.1,0.3,0.1,0.5,0.2l-2,0.4l1.9,0.3c-0.1,0.1-0.1,0.1-0.2,0.1
				c-0.1,0-0.2,0-0.3,0s-0.2,0.1-0.3,0.1c-0.1,0.1-0.1,0.1-0.3,0.2c-0.1,0.1-0.3,0.1-0.6,0.1c0.2,0.1,0.3,0.2,0.5,0.2
				s0.3-0.1,0.5-0.1c0.1-0.1,0.2-0.1,0.4-0.1c0.1,0,0.2,0,0.4,0.1l0,0l0,0c-0.2,0-1.3,0.7-1.3,0.7c0.2,0-0.1,0.2-0.2,0.2
				c0-0.1,0-0.1-0.1-0.2c0-0.1-0.1-0.1-0.1-0.1c-0.2,0.3-0.3,0.4-0.5,0.5c-0.2,0.2-0.3,0.3-0.4,0.6c0-0.1-0.1-0.2-0.1-0.2
				c0-0.1-0.1-0.1-0.1-0.1c-0.2,0.3-0.3,0.4-0.5,0.6c-0.1,0.2-0.2,0.3-0.3,0.6c0-0.1-0.2-0.3-0.2-0.3c-0.1,0.3-0.3,0.6-0.5,0.8
				c-0.1,0.2-0.2,0.5-0.1,1c0,0.1,0.1,0.5,0.1,0.5c0-0.2-0.1-0.4-0.2-0.5c-0.1-0.2-0.2-0.3-0.3-0.3c-0.1,0.2-0.2,0.4-0.3,0.6
				c-0.1,0.2-0.1,0.4-0.2,0.6c-0.1-0.1-0.2-0.1-0.3-0.1c0,0.3-0.2,0.6-0.3,0.8s-0.1,0.5,0.2,0.9c0.1,0.1-0.3-0.3-0.5-0.3
				c0,0.2-0.3,0.9-0.3,1.1c-0.1,0-0.2-0.1-0.2-0.1c0,0.3,0,0.6-0.1,0.9c-0.1,0.5,0.3,0.8,0.1,0.7c-0.1-0.2-0.2-0.2-0.4-0.2
				c0,0.4,0,0.6-0.1,0.7c-0.1,0.2-0.1,0.4,0.1,0.7c-0.1-0.1-0.4-0.1-0.4-0.1c0.1,0.3,0.1,0.6,0.1,0.8c0.1,0.3,0.2,0.5,0.5,0.7
				c0.2,0.1,0.2,0.3,0,0.1s-0.5-0.3-0.6-0.3c0.1,0.3,0.1,0.6,0.2,0.8c0,0.2,0.1,0.5,0.3,0.7c-0.1-0.1-0.5-0.2-0.6-0.2
				c0.2,0.3,0.2,0.6,0.3,0.8c0.1,0.3,0.2,0.5,0.5,0.8c0.1-0.1-0.3-0.1-0.4-0.1c0.1,0.2,0.2,1,0.3,1.1c-0.1,0-0.2,0.1-0.3,0.1
				c0.2,0.3,0.5,1.1,0.8,1.3c-0.1,0-0.3,0-0.3,0.1c0.1,0.2,0.4,0.9,0.5,1.1l-0.2,0.1c0.2,0.2,0.3,0.4,0.4,0.6
				c0.1,0.2,0.2,0.4,0.5,0.5C43.2,48.9,43,49,43,49c0.2,0.2,0.6,0.8,0.8,0.9c-0.1,0-0.3,0.1-0.3,0.1c0.3,0.2,0.4,0.4,0.5,0.5
				c0.1,0.2,0.3,0.3,0.6,0.4c-0.1,0-0.3,0.1-0.3,0.1c0.3,0.2,0.4,0.4,0.4,0.6c0,0.1,0.1,0.2,0.4,0.3L45,52c0.3,0.2,0.5,0.5,0.8,0.7
				s0.7,0.5,1.4,0.5l0,0c0.3,0.3,1,0.8,1.7,1.1s1.4,0.6,2.1,0.7c-0.3-0.1-0.5-0.3-0.6-0.5c-1.6-0.4-2.5-1.2-2.7-1.4
				c-0.1-0.1-0.2-0.7-0.2-0.9l0,0l0,0c0.5,0.4,0.9,0.7,1.4,1s1,0.5,1.5,0.6c-0.2,0.3,0,0.7,0,0.7c0.1,0.2,0.3,0.4,0.6,0.5h0.1H51
				c-0.3,0.1-1,0.2-1.3,0.3c0,0,0,0-0.1,0c-0.5,0.1-0.8,0.1-0.8,0.1c-0.1,0.1,0.1,0.2,0.2,0.3c0.1,0.1,0.2,0.1,0.3,0.2
				c0,0,0,0,0.1,0c0.4-0.1,1.6-0.4,2-0.5l0,0c-0.2,0.4-0.5,0.6-0.9,0.7c-0.4,0.1-0.8,0.2-1.2,0.3c0,0,0.1,0.1,0.2,0.2
				c0.1,0.1,0.2,0.2,0.2,0.2c0.9-0.2,1.4-0.5,1.6-0.7c0.3-0.2,0.3-0.4,0.3-0.4l0.1,0.2c0,0-0.1,0.2-0.3,0.5S50.7,56.9,50,57v0
				l0.2,0.1c0.3,0,0.6-0.1,0.8-0.3s0.4-0.5,0.6-0.8l0,0c0,0,0.1,0.1,0.2,0.1l0,0c0.1,0,0.1,0,0.2,0c0.1,0,0.2-0.1,0.2-0.1
				c0.2,0.4,0.3,0.6,0.6,0.8c0.2,0.2,0.5,0.3,0.8,0.3c0.1,0,0.2-0.1,0.3-0.1s0.1-0.1,0.1-0.1c-0.5-0.1-0.9-0.3-1.2-0.6
				s-0.5-0.6-0.5-0.6l0,0l0.1-0.2c0,0.1,0.3,0.4,0.6,0.7s0.8,0.5,1.1,0.5c0,0,0.1-0.1,0.1-0.2c0.1-0.1,0.1-0.2,0.1-0.2
				c-0.3,0.1-0.8-0.2-1.2-0.5C52.9,55.6,52.7,55.3,52.6,55.3L52.6,55.3L52.6,55.3L52.6,55.3L52.6,55.3z M51,54.5L51,54.5
				c-0.1,0-0.7-0.4-0.4-0.7c0,0,0,0,0.1,0c0.2-0.2,0.5-0.1,0.5-0.1C50.7,54,50.9,54.5,51,54.5L51,54.5L51,54.5z"/>
		</g>
		<g>
			<path class="st4" d="M134.7,109.5c0,12.9-10.5,23.4-23.4,23.4s-23.4-10.5-23.4-23.4s10.5-23.4,23.4-23.4
				C124.2,86.2,134.7,96.6,134.7,109.5L134.7,109.5z"/>
			<path class="st4" d="M111.3,143.9c-29.8,0-54.1,9.1-54,45.8v28c0,0,9.5,0,17.1,0c1.1-16.2,3.4-32.9,8.1-39l0.1,39h57.7l-0.3-39
				c4.6,6,7.2,22.6,8.6,38.7c9,0,17.1,0.3,17.1,0.3l-0.4-34.9C165.4,153,141.1,143.9,111.3,143.9L111.3,143.9z M111.3,206.8
				c0,0-16.6-13.5-16.6-20c0-4.9,3.9-8.8,8.8-8.8c3.3,0,6.3,1.9,7.8,4.8c1.4-2.7,4.4-4.8,7.8-4.8c4.9,0,8.8,3.9,8.8,8.8
				C127.9,193.7,111.3,206.8,111.3,206.8L111.3,206.8z"/>
		</g>
		<g>
			<path class="st6" d="M383,218L383,218c-3,0-5.6-2-6.3-4.9l-4.2-15.6c-0.1-0.5-0.6-0.9-1.1-1s-1,0.1-1.3,0.6l-8.1,17.7
				c-0.4,0.9-1.2,1.5-2.1,1.6s-1.9-0.3-2.4-1.1s-0.6-1.8-0.2-2.6l8.2-17.9c0-0.1,0.1-0.2,0.1-0.3c1.4-2.3,3.9-3.5,6.6-3.1
				s4.8,2.3,5.4,4.8l4.2,15.6c0.1,0.6,0.7,1.1,1.3,1c0.6,0,1.1-0.4,1.3-1l1.5-5.6c0.7-2.5,2.8-4.4,5.4-4.8c2.6-0.4,5.1,0.8,6.5,3
				l4.4,7.1c0.3,0.4,0.7,0.7,1.2,0.6c0.5,0,0.9-0.3,1.2-0.8c0.8-1.7,2.4-2.9,4.2-3.4c1.8-0.5,3.8-0.2,5.4,0.9l3.1,2.1
				c0.2,0.1,0.5,0.2,0.7,0.2c1.4,0,2.6,1.3,2.5,2.7s-1.3,2.6-2.7,2.5c-1.2,0-2.4-0.4-3.4-1.1l-3.1-2.1c-0.3-0.2-0.7-0.3-1.1-0.2
				s-0.7,0.4-0.9,0.7c-1.1,2.1-3.2,3.5-5.6,3.7c-2.4,0.1-4.6-1.1-5.9-3.1l-4.4-7.1c-0.3-0.5-0.8-0.7-1.4-0.6c-0.5,0.1-1,0.5-1.1,1
				l-1.5,5.6C388.6,216.1,386,218.1,383,218z"/>
			<path class="st6" d="M432.3,216.3h-5.2c-1.4,0-2.6-1.2-2.6-2.6c0-1.4,1.2-2.6,2.6-2.6h5.2c1.4,0,2.6,1.2,2.6,2.6
				C434.9,215.2,433.7,216.3,432.3,216.3z"/>
		</g>
		<rect x="187.2" y="225.3" class="st7" width="94.7" height="32.8"/>
	</g>
</g>
<g id="Layer_2" class="st8">
	<g class="st9">
		<path d="M966.2,0.2L803.5,0.1H687.3L574.6,0c-23.5,0-42.7,19.2-42.7,42.7l-0.1,204.9c0,23.5,19.2,42.7,42.7,42.7l391.6,0.2
			c23.5,0,42.7-19.2,42.7-42.7l0.1-204.9C1008.9,19.4,989.7,0.2,966.2,0.2z M679.3,243.8H566.7v-50.9h112.7v50.9H679.3z"/>
	</g>
	<g class="st9">
		<path d="M434.4,0.2L271.7,0.1H155.5L42.8,0C19.3,0,0.1,19.2,0.1,42.7L0,247.6c0,23.5,19.2,42.7,42.7,42.7l391.6,0.2
			c23.5,0,42.7-19.2,42.7-42.7l0.1-204.9C477.1,19.4,457.9,0.2,434.4,0.2z M298.8,272.8h-114v-50.9h114V272.8z"/>
	</g>
</g>
</svg>
