<?xml version="1.0" encoding="utf-8"?>
<!-- Generator: Adobe Illustrator 21.0.0, SVG Export Plug-In . SVG Version: 6.00 Build 0)  -->
<svg version="1.1" id="Capa_1" xmlns="http://www.w3.org/2000/svg" xmlns:xlink="http://www.w3.org/1999/xlink" x="0px" y="0px"
	 viewBox="0 0 98 46" style="enable-background:new 0 0 98 46;" xml:space="preserve">
<style type="text/css">
	.st0{fill:url(#SVGID_1_);}
</style>
<title>Mesa de trabajo 11</title>
<linearGradient id="SVGID_1_" gradientUnits="userSpaceOnUse" x1="0" y1="25.4058" x2="98" y2="25.4058" gradientTransform="matrix(1 0 0 -1 0 48.3601)">
	<stop  offset="0" style="stop-color:#FFFFFF;stop-opacity:0"/>
	<stop  offset="0" style="stop-color:#FCFEFE;stop-opacity:1.000000e-02"/>
	<stop  offset="2.000000e-02" style="stop-color:#C2E7F1;stop-opacity:0.24"/>
	<stop  offset="5.000000e-02" style="stop-color:#8FD2E6;stop-opacity:0.44"/>
	<stop  offset="8.000000e-02" style="stop-color:#63C1DC;stop-opacity:0.62"/>
	<stop  offset="0.1" style="stop-color:#40B3D4;stop-opacity:0.76"/>
	<stop  offset="0.13" style="stop-color:#24A8CE;stop-opacity:0.86"/>
	<stop  offset="0.17" style="stop-color:#11A0C9;stop-opacity:0.94"/>
	<stop  offset="0.21" style="stop-color:#069BC7;stop-opacity:0.99"/>
	<stop  offset="0.26" style="stop-color:#029AC6"/>
	<stop  offset="0.62" style="stop-color:#853288"/>
	<stop  offset="1" style="stop-color:#F4A47E"/>
</linearGradient>
<path class="st0" d="M93.5,36.6c-5.3-0.5-7-3.1-8.8-5.8c-2.4-3.6-4.8-7.3-15.3-4.3l0,0c-3.5,0.5-5.4,4.9-7.2,9.1
	c-0.4,0.8-0.7,1.6-1.1,2.4c-0.7-1.3-1.3-2.6-1.9-4c-1.5-3.8-3.1-8.5-4.6-13.1s-2.8-8.4-4-11.5c-2-5.2-3.7-8.2-5.6-8.7
	c-0.4-0.1-5.9-1.9-10,0.6c-2.6,1.4-4.7,6.6-7.6,13.7c-1.6,4-3.4,8.4-5.5,12.6c-1.9-2.8-3.7-5.4-5.9-5.4c-1.7,0-3.5,1.8-5.9,4.4
	C7.3,29.5,3.9,33,0,34.4l0.6,1.8C5,34.7,8.6,31,11.4,28c1.8-1.9,3.7-3.8,4.6-3.8c1.3,0,3.2,2.8,4.7,5c0.7,1,1.3,2,2,2.8
	c0.4,0.5,0.8,1,1.3,1.5c0.7,0.8,1.6,1.3,2.7,1.5c0.2,0,0.3,0,0.5,0c4.3,0,7.3-8.7,10.6-18c0.8-2.2,1.7-4.7,2.6-7
	c1.4,3.5,2.8,7.8,4.2,12.4c4.5,14,7.5,22.5,11.3,23v0.1c1.6,0.3,3.2,0.5,4.8,0.5c8,0,10.1-5.2,12-10c0.6-1.7,1.4-3.3,2.4-4.9
	c0.5,0.6,1.1,1.2,1.6,1.9c2.4,3.1,5.1,6.3,9.3,6.7c0.3,0,0.7,0,1,0c2.3,0,4.6-0.4,6.8-1.2L98,37L93.5,36.6z M35.8,16.4
	C33.3,23.4,30,33,27,33c-0.8-0.1-1.5-0.5-2-1.1c-0.4-0.4-0.7-0.8-1-1.2c-0.3-0.4-0.6-0.9-0.9-1.3c2.3-4.6,4.3-9.4,6-13.7
	C31.7,9.5,33.9,4,35.9,3l0,0c1.9-1,4.1-1.3,6.2-0.9L42,2.2c-0.8,1-1.5,2.1-2,3.3C38.4,9,37,12.7,35.8,16.4z M46.2,21.8
	c-1.7-5.4-3.4-10.5-5-14.2c0.2-0.5,0.4-0.9,0.6-1.3c0.3-0.6,0.6-1.3,1-1.9c0.4-0.7,1-1.3,1.7-1.7c1.3,0.7,2.8,3.7,4.2,7.4
	c1.2,3.1,2.5,6.9,3.8,10.8c1.6,4.7,3.2,9.6,4.8,13.5v0.1l0.4,0.9l0.2,0.4l0.2,0.4l0.3,0.7l0.2,0.3l0.3,0.6l0.2,0.4l0.2,0.4l0.3,0.6
	l0.1,0.2L60,40l0,0c-0.6,1.2-1.5,2.3-2.6,3.1c-0.4,0.3-1,0.4-1.5,0.3C53.2,43.2,49.2,30.8,46.2,21.8z M70.8,35.4
	c-1.9,4.7-3.7,9.1-11.3,8.7l0.2-0.2l0,0l0.2-0.2c0.9-0.9,1.6-2,2.2-3.1l0.3-0.5l0,0c0.6-1.1,1.1-2.3,1.6-3.5c1.7-3.9,3.5-8,6.2-8
	c1.3,0,2.5,0.5,3.4,1.5C72.4,31.6,71.5,33.5,70.8,35.4z M86.1,37.7c-3.4-0.3-5.8-3.1-8-5.8c-0.6-0.7-1.2-1.5-1.9-2.1l0,0l-0.5-0.5
	c-0.6-0.6-1.2-1.1-1.9-1.6l-0.1-0.1l-0.1-0.1c6-0.9,7.6,1.4,9.5,4.3c1.4,2.1,2.9,4.4,6.1,5.7C88.2,37.7,87.1,37.8,86.1,37.7z"/>
</svg>
