<?xml version="1.0" encoding="utf-8"?>
<!-- Generator: Adobe Illustrator 21.0.0, SVG Export Plug-In . SVG Version: 6.00 Build 0)  -->
<svg version="1.1" id="Capa_3" xmlns="http://www.w3.org/2000/svg" xmlns:xlink="http://www.w3.org/1999/xlink" x="0px" y="0px"
	 viewBox="0 0 227.4 182.5" style="enable-background:new 0 0 227.4 182.5;" xml:space="preserve">
<style type="text/css">
	.st0{fill:#2CA5DD;}
	.st1{fill:#FFFFFF;}
	.st2{fill:url(#SVGID_1_);}
</style>
<title>Mesa de trabajo 10</title>
<path class="st0" d="M6.4,180.5l-1-2.7H2l-1,2.7H0l3.3-8.4h0.8l3.3,8.4H6.4z M5.1,177l-1-2.6c-0.1-0.3-0.3-0.7-0.4-1.2
	c-0.1,0.4-0.2,0.8-0.4,1.2l-1,2.6H5.1z"/>
<path class="st0" d="M16.2,174.6c0.1,0.8-0.3,1.5-0.9,2c-0.7,0.5-1.6,0.7-2.5,0.7h-1v3.3h-1v-8.4H13C15.1,172.2,16.2,173,16.2,174.6
	z M11.9,176.4h0.9c0.7,0.1,1.3-0.1,1.9-0.4c0.4-0.3,0.6-0.8,0.6-1.3c0-0.5-0.2-0.9-0.5-1.2c-0.5-0.3-1.1-0.4-1.7-0.4h-1.1
	L11.9,176.4z"/>
<path class="st0" d="M25.6,174.6c0.1,0.8-0.3,1.5-0.9,2c-0.7,0.5-1.6,0.7-2.5,0.7h-1v3.3h-1v-8.4h2.2
	C24.6,172.2,25.6,173,25.6,174.6z M21.3,176.4h0.9c0.6,0,1.3-0.1,1.8-0.4c0.4-0.3,0.6-0.8,0.6-1.3c0-0.5-0.2-0.9-0.5-1.2
	c-0.5-0.3-1.1-0.5-1.7-0.4h-1.1L21.3,176.4z"/>
<path class="st0" d="M34.4,178.3c0,0.7-0.3,1.3-0.8,1.7c-0.6,0.4-1.4,0.7-2.2,0.6c-0.8,0-1.6-0.1-2.3-0.4v-0.9
	c0.4,0.1,0.7,0.3,1.1,0.3c0.4,0.1,0.8,0.1,1.2,0.1c0.5,0,1-0.1,1.5-0.4c0.3-0.2,0.5-0.6,0.5-1c0-0.2,0-0.5-0.2-0.7
	c-0.1-0.2-0.3-0.4-0.6-0.5c-0.4-0.2-0.8-0.4-1.2-0.5c-0.6-0.2-1.2-0.5-1.7-1c-0.3-0.4-0.5-0.9-0.5-1.5c0-0.6,0.3-1.2,0.7-1.5
	c0.6-0.4,1.2-0.6,1.9-0.6c0.8,0,1.6,0.1,2.3,0.5l-0.3,0.9c-0.6-0.3-1.3-0.4-2-0.4c-0.4,0-0.9,0.1-1.2,0.3c-0.3,0.2-0.5,0.6-0.4,0.9
	c0,0.2,0,0.5,0.2,0.7c0.1,0.2,0.3,0.4,0.5,0.5c0.4,0.2,0.8,0.4,1.2,0.5c0.7,0.2,1.3,0.5,1.8,1C34.3,177.3,34.4,177.8,34.4,178.3z"/>
<path class="st0" d="M50.4,180.5h-1.1l-4.6-7l0,0c0.1,0.8,0.1,1.6,0.1,2.3v4.8h-0.9v-8.4H45l4.6,7l0,0c0-0.1,0-0.4,0-1s0-1,0-1.2
	v-4.8h0.9L50.4,180.5z"/>
<path class="st0" d="M59.7,180.5H55v-8.4h4.7v0.8H56v2.7h3.5v0.9H56v3.1h3.7V180.5z"/>
<path class="st0" d="M70.2,172.2v5.4c0,0.8-0.3,1.7-0.9,2.3c-0.7,0.6-1.5,0.9-2.4,0.8c-0.9,0.1-1.7-0.2-2.3-0.8
	c-0.6-0.6-0.9-1.4-0.8-2.3v-5.4h1v5.5c0,0.6,0.2,1.2,0.6,1.6c0.5,0.4,1.1,0.6,1.7,0.6c0.6,0,1.2-0.2,1.6-0.6c0.4-0.4,0.6-1,0.6-1.6
	v-5.4L70.2,172.2z"/>
<path class="st0" d="M82,176.3c0,0.9-0.2,1.9-0.7,2.7c-0.4,0.7-1.1,1.2-1.8,1.4l2,2.1h-1.4l-1.6-1.9h-0.3c-1.1,0.1-2.1-0.3-2.8-1.1
	c-0.7-0.9-1.1-2-1-3.2c-0.1-1.1,0.3-2.3,1-3.2c0.7-0.8,1.8-1.2,2.9-1.1c1.1,0,2.1,0.4,2.8,1.2C81.7,174.1,82.1,175.2,82,176.3z
	 M75.3,176.3c-0.1,0.9,0.2,1.8,0.7,2.6c1.2,1.1,3,1.1,4.2,0c0.9-1.6,0.9-3.6,0-5.1c-0.5-0.6-1.3-0.9-2.1-0.9
	c-0.8-0.1-1.6,0.3-2.1,0.9C75.5,174.5,75.3,175.4,75.3,176.3L75.3,176.3z"/>
<path class="st0" d="M92.6,172.2v5.4c0,0.8-0.3,1.7-0.9,2.3c-0.7,0.6-1.5,0.9-2.4,0.8c-0.9,0.1-1.7-0.2-2.3-0.8
	c-0.6-0.6-0.9-1.4-0.8-2.3v-5.4h1v5.5c0,0.6,0.2,1.2,0.6,1.6c0.5,0.4,1.1,0.6,1.7,0.6c0.6,0,1.2-0.2,1.6-0.6c0.4-0.4,0.6-1,0.6-1.6
	v-5.4L92.6,172.2z"/>
<path class="st0" d="M97.1,180.5v-8.4h1v8.4H97.1z"/>
<path class="st0" d="M109.2,180.5h-1.1l-4.6-7l0,0c0.1,0.8,0.1,1.6,0.1,2.3v4.8h-0.9v-8.4h1.1l4.6,7l0,0c0-0.1,0-0.4-0.1-1
	s0-1,0-1.2v-4.8h0.9L109.2,180.5z"/>
<path class="st0" d="M119.1,180.5l-1-2.7h-3.3l-1,2.7h-1l3.3-8.4h0.8l3.3,8.4H119.1z M117.8,177l-1-2.6c-0.1-0.3-0.3-0.7-0.4-1.2
	c-0.1,0.4-0.2,0.8-0.4,1.2l-1,2.6H117.8z"/>
<path class="st0" d="M128.4,178.3c0,0.7-0.3,1.3-0.8,1.7c-0.6,0.4-1.4,0.7-2.2,0.6c-0.8,0-1.6-0.1-2.3-0.4v-0.9
	c0.4,0.1,0.7,0.3,1.1,0.3c0.4,0.1,0.8,0.1,1.2,0.1c0.5,0,1-0.1,1.5-0.4c0.3-0.2,0.5-0.6,0.5-1c0-0.2,0-0.5-0.2-0.7
	c-0.1-0.2-0.3-0.4-0.6-0.5c-0.4-0.2-0.8-0.4-1.2-0.5c-0.6-0.2-1.2-0.5-1.7-1c-0.3-0.4-0.5-0.9-0.5-1.5c0-0.6,0.3-1.2,0.7-1.5
	c0.6-0.4,1.2-0.6,1.9-0.6c0.8,0,1.6,0.1,2.3,0.5l-0.3,0.9c-0.6-0.3-1.3-0.4-2-0.4c-0.4,0-0.9,0.1-1.2,0.3c-0.3,0.2-0.5,0.6-0.4,0.9
	c0,0.2,0,0.5,0.2,0.7c0.1,0.2,0.3,0.4,0.5,0.5c0.4,0.2,0.8,0.4,1.2,0.5c0.7,0.2,1.3,0.5,1.8,1C128.2,177.3,128.4,177.8,128.4,178.3z
	"/>
<path class="st0" d="M144.5,176.3c0.1,1.2-0.3,2.3-1.1,3.2c-0.9,0.8-2.1,1.2-3.2,1.1h-2.3v-8.4h2.6c2.1-0.2,3.9,1.3,4.1,3.4
	C144.5,175.8,144.5,176,144.5,176.3L144.5,176.3z M143.5,176.3c0.1-0.9-0.2-1.8-0.8-2.5c-0.7-0.6-1.5-0.9-2.4-0.8h-1.4v6.7h1.2
	c0.9,0.1,1.9-0.2,2.6-0.9C143.2,178.1,143.5,177.2,143.5,176.3L143.5,176.3z"/>
<path class="st0" d="M153.4,180.5h-4.7v-8.4h4.7v0.8h-3.7v2.7h3.5v0.9h-3.5v3.1h3.7V180.5z"/>
<path class="st0" d="M167.6,178.3c0,0.7-0.3,1.3-0.8,1.7c-0.6,0.4-1.4,0.7-2.2,0.6c-0.8,0-1.6-0.1-2.3-0.4v-0.9
	c0.4,0.1,0.7,0.3,1.1,0.3c0.4,0.1,0.8,0.1,1.2,0.1c0.5,0,1-0.1,1.5-0.4c0.3-0.2,0.5-0.6,0.5-1c0-0.2,0-0.5-0.2-0.7
	c-0.1-0.2-0.3-0.4-0.6-0.5c-0.4-0.2-0.8-0.4-1.3-0.5c-0.6-0.2-1.2-0.5-1.7-1c-0.3-0.4-0.5-0.9-0.5-1.5c0-0.6,0.3-1.2,0.7-1.5
	c0.6-0.4,1.2-0.6,1.9-0.6c0.8,0,1.6,0.1,2.3,0.5l-0.3,0.9c-0.6-0.3-1.3-0.4-2-0.4c-0.4,0-0.9,0.1-1.2,0.3c-0.3,0.2-0.4,0.6-0.4,0.9
	c0,0.2,0,0.5,0.2,0.7c0.1,0.2,0.3,0.4,0.5,0.5c0.4,0.2,0.8,0.4,1.2,0.5c0.7,0.2,1.3,0.5,1.8,1C167.5,177.3,167.7,177.8,167.6,178.3z
	"/>
<path class="st0" d="M177,180.5l-1-2.7h-3.4l-1,2.7h-1l3.3-8.4h0.8l3.3,8.4H177z M175.6,177l-1-2.6c-0.1-0.3-0.3-0.7-0.4-1.2
	c-0.1,0.4-0.2,0.8-0.4,1.2l-1,2.6H175.6z"/>
<path class="st0" d="M181.5,180.5v-8.4h1v7.5h3.7v0.9H181.5z"/>
<path class="st0" d="M196.2,172.2v5.4c0,0.8-0.3,1.7-0.9,2.3c-0.7,0.6-1.5,0.9-2.4,0.8c-0.9,0.1-1.7-0.2-2.3-0.8
	c-0.6-0.6-0.9-1.4-0.8-2.3v-5.4h1v5.5c0,0.6,0.2,1.2,0.6,1.6c0.5,0.4,1.1,0.6,1.7,0.6c0.6,0,1.2-0.2,1.6-0.6c0.4-0.4,0.6-1,0.6-1.6
	v-5.4L196.2,172.2z"/>
<path class="st0" d="M207.4,176.3c0.1,1.2-0.3,2.3-1.1,3.2c-0.9,0.8-2,1.2-3.2,1.1h-2.3v-8.4h2.6c2.1-0.2,3.9,1.3,4.1,3.4
	C207.5,175.8,207.5,176,207.4,176.3L207.4,176.3z M206.4,176.3c0.1-0.9-0.2-1.8-0.8-2.5c-0.7-0.6-1.5-0.9-2.4-0.8h-1.4v6.7h1.2
	c0.9,0.1,1.9-0.2,2.6-0.9C206.2,178.1,206.5,177.2,206.4,176.3L206.4,176.3z"/>
<path class="st1" d="M22,151.8c-0.3,0-0.6-0.1-0.8-0.2c-0.3-0.2-0.5-0.4-0.6-0.7l-3-6.9l-5.1-11.9l-8.2,18.8
	c-0.2,0.5-0.7,0.9-1.3,0.9c-0.4,0-0.7-0.1-1-0.4c-0.3-0.2-0.4-0.5-0.5-0.9c0-0.2,0-0.5,0.1-0.7l9.5-22.3c0.1-0.3,0.3-0.6,0.6-0.7
	c0.2-0.1,0.5-0.2,0.8-0.2c0.6,0,1.2,0.3,1.4,0.9l9.5,22.3c0.1,0.2,0.1,0.4,0.1,0.6c0,0.4-0.2,0.8-0.5,1.1
	C22.7,151.7,22.4,151.8,22,151.8z"/>
<path class="st1" d="M96.1,152.1c-1.9,0-2-1.1-2-1.5c0-0.7,0.5-1.5,2-1.5h9.1c2.4,0.2,4.7-0.8,6.3-2.7c1.5-2.1,2.2-4.6,2.1-7.1
	c0-1.7-0.3-3.4-0.9-5c-0.6-1.3-1.5-2.5-2.7-3.2c-1.1-0.7-2.5-1.1-4.7-1.1h-8.9c-0.4,0-0.7,0-1.1-0.1c-0.6-0.1-1.1-0.7-1.1-1.3
	c0-0.4,0.2-1.5,2.2-1.5h9.3c2.2-0.1,4.3,0.4,6.2,1.6c1.7,1.1,2.9,2.7,3.7,4.5c0.8,1.9,1.2,4,1.2,6.1c0,2.1-0.4,4.3-1.2,6.3
	c-0.7,1.9-2,3.5-3.7,4.7c-1.8,1.2-4,1.9-6.2,1.8L96.1,152.1L96.1,152.1z"/>
<path class="st1" d="M197.4,152.1c-1.7,0-3.3-0.3-4.9-0.9c-1.5-0.7-2.9-1.7-4.1-2.8c-0.3-0.3-0.5-0.7-0.4-1.1c0-0.4,0.2-0.8,0.5-1.1
	c0.3-0.3,0.7-0.5,1.1-0.5c0.4,0,0.9,0.2,1.1,0.5c0.8,0.9,1.9,1.7,3,2.2c1.2,0.5,2.4,0.8,3.7,0.8c1.4,0.1,2.9-0.3,4.1-1.1
	c0.9-0.6,1.5-1.6,1.4-2.7c0-0.8-0.2-1.6-0.7-2.2c-0.5-0.6-1.2-1.1-1.9-1.5c-1.1-0.5-2.3-1-3.4-1.4c-1.3-0.5-2.6-1-3.9-1.6
	c-1-0.5-1.9-1.2-2.6-2.1c-0.8-1.1-1.2-2.4-1.1-3.7c0-1.2,0.4-2.4,1.1-3.4c0.8-1,1.8-1.9,3-2.4c1.4-0.6,2.9-0.9,4.4-0.8
	c1.4,0,2.9,0.3,4.2,0.8c1.3,0.5,2.4,1.2,3.3,2.3c0.3,0.3,0.5,0.7,0.5,1.2c0,0.4-0.2,0.8-0.5,1.1c-0.3,0.3-0.7,0.4-1.1,0.4
	c-0.4,0-0.7-0.2-1-0.5c-0.6-0.7-1.4-1.3-2.3-1.7c-1-0.4-2-0.7-3.1-0.6c-1.4-0.1-2.8,0.3-4.1,1.1c-0.9,0.6-1.5,1.6-1.4,2.7
	c0,0.7,0.2,1.4,0.7,2c0.5,0.6,1.2,1.1,1.9,1.4c1,0.5,2.1,0.9,3.2,1.3c1.4,0.4,2.7,1,4,1.6c1.1,0.5,2,1.3,2.8,2.3
	c0.8,1.2,1.2,2.6,1.2,4c0,1.2-0.4,2.4-1.1,3.3c-0.8,1.1-1.8,1.9-3.1,2.4C200.4,151.8,198.9,152.1,197.4,152.1z"/>
<path class="st1" d="M67.1,152c-0.5,0-0.9-0.2-1.2-0.6l-14.7-19.1v18.3c0,0.4-0.2,0.8-0.5,1c-0.3,0.2-0.6,0.4-1,0.4
	c-0.4,0-0.7-0.1-1-0.4c-0.3-0.3-0.4-0.6-0.4-1v-22.4c0-0.4,0.2-0.8,0.5-1.1c0.3-0.2,0.6-0.4,0.9-0.3c0.4,0,0.8,0.2,1.1,0.5
	l14.9,19.3v-18.3c0-0.4,0.2-0.7,0.4-1c0.3-0.3,0.6-0.4,1-0.4c0.8,0,1.4,0.6,1.4,1.3c0,0,0,0.1,0,0.1v22.3c0,0.4-0.2,0.8-0.5,1.1
	C67.8,151.9,67.4,152,67.1,152z"/>
<path class="st1" d="M143.1,130c-0.8,0.1-1.6-0.5-1.7-1.3c-0.1-0.8,0.5-1.6,1.3-1.7c0.1,0,0.2,0,0.3,0h19.4c0.8-0.1,1.6,0.5,1.7,1.3
	c0.1,0.8-0.5,1.6-1.3,1.7c-0.1,0-0.2,0-0.3,0H143.1z"/>
<path class="st1" d="M143.1,152.1c-0.8-0.1-1.4-0.8-1.3-1.7c0.1-0.7,0.6-1.2,1.3-1.3h19.4c0.8-0.1,1.6,0.5,1.7,1.3
	c0.1,0.8-0.5,1.6-1.3,1.7c-0.1,0-0.2,0-0.3,0H143.1z"/>
<path class="st1" d="M161.8,139v1.2c0,0.5-0.4,0.9-0.9,0.9h-17.2c-0.5,0-0.9-0.4-0.9-0.9V139c0-0.5,0.4-0.9,0.9-0.9h17.2
	C161.4,138.1,161.8,138.5,161.8,139z"/>
<linearGradient id="SVGID_1_" gradientUnits="userSpaceOnUse" x1="7.66" y1="132.7246" x2="227.47" y2="132.7246" gradientTransform="matrix(1 0 0 -1 0 184.3601)">
	<stop  offset="0" style="stop-color:#FFFFFF;stop-opacity:0"/>
	<stop  offset="0" style="stop-color:#F9FDFE;stop-opacity:2.000000e-02"/>
	<stop  offset="3.000000e-02" style="stop-color:#BFE6F1;stop-opacity:0.25"/>
	<stop  offset="5.000000e-02" style="stop-color:#8CD3E7;stop-opacity:0.45"/>
	<stop  offset="8.000000e-02" style="stop-color:#60C2DD;stop-opacity:0.62"/>
	<stop  offset="0.11" style="stop-color:#3DB5D6;stop-opacity:0.76"/>
	<stop  offset="0.14" style="stop-color:#22AAD0;stop-opacity:0.87"/>
	<stop  offset="0.17" style="stop-color:#0FA3CC;stop-opacity:0.94"/>
	<stop  offset="0.21" style="stop-color:#039ECA;stop-opacity:0.99"/>
	<stop  offset="0.26" style="stop-color:#009DC9"/>
	<stop  offset="0.62" style="stop-color:#853188"/>
	<stop  offset="1" style="stop-color:#F4A47E"/>
</linearGradient>
<path class="st2" d="M217.3,82.1c-11.9-1.1-15.7-6.9-19.7-13c-5.3-8-10.8-16.3-34.3-9.6v0.1c-7.8,1.2-12.1,11-16.2,20.5
	c-0.8,1.8-1.6,3.7-2.4,5.4c-1.6-3-3-6-4.3-9.1c-3.5-8.4-7-19-10.4-29.3c-3.4-10.2-6.3-18.8-9-25.8c-4.5-11.7-8.3-18.5-12.4-19.6
	c-0.9-0.3-13.3-4.2-22.5,1.3c-5.9,3.2-10.6,14.8-17.1,30.9c-3.6,8.8-7.6,18.7-12.3,28.3c-4.2-6.3-8.3-12.1-13.3-12.1
	c-3.8,0-7.8,4.1-13.3,9.9c-6.1,6.4-13.7,14.3-22.5,17.4l1.4,4c9.8-3.5,17.8-11.8,24.2-18.5c4-4.2,8.2-8.5,10.2-8.5
	c3,0,7.1,6.3,10.5,11.3c1.5,2.2,2.9,4.4,4.4,6.3c0.9,1.2,1.8,2.3,2.8,3.3c1.9,1.9,3.9,3.1,6,3.2c0.4,0,0.7,0.1,1.1,0.1
	c9.5,0,16.4-19.6,23.7-40.3c1.7-4.9,3.7-10.5,5.7-15.7c3.1,7.8,6.2,17.5,9.5,27.7c10.1,31.3,16.9,50.4,25.2,51.7v0.2
	c3.6,0.7,7.2,1.1,10.9,1.2c18,0,22.7-11.8,27-22.3c1.6-4,3.2-7.8,5.3-10.9c1.2,1.3,2.4,2.8,3.7,4.2c5.4,6.4,11.5,13.6,20.9,14.6
	c0.8,0.1,1.5,0.1,2.3,0.1c5.2-0.1,10.3-1,15.2-2.7l9.6-3.2L217.3,82.1z M88,36.7c-5.5,15.8-13.2,37.4-19.7,37.4
	c-1.5,0-3-0.9-4.4-2.4c-0.9-0.9-1.6-1.9-2.4-2.9c-0.7-0.9-1.3-1.9-2-2.9c5.2-10.3,9.6-21.1,13.4-30.6C78.8,21.3,83.7,9.1,88.2,6.7
	l0.1-0.1c4.4-2.6,10-2.6,14-2l-0.2,0.3c-1.8,2.2-3.4,4.7-4.5,7.3C94.6,18.2,91.6,26.5,88,36.7z M111.4,48.9
	c-3.9-12-7.6-23.4-11.2-31.9c0.4-1.1,0.8-2.1,1.3-3c0.7-1.4,1.4-2.8,2.3-4.2c0.9-1.6,2.2-2.9,3.7-3.8c2.9,1.6,6.2,8.2,9.5,16.6
	c2.7,7,5.5,15.5,8.4,24.3c3.5,10.6,7.1,21.5,10.8,30.3l0.1,0.2c0.3,0.7,0.6,1.4,0.9,2l0.4,0.9l0.4,1c0.2,0.5,0.5,1,0.7,1.6l0.3,0.7
	c0.2,0.5,0.5,1,0.7,1.4l0.4,0.9l0.5,0.9c0.2,0.4,0.5,0.8,0.7,1.3l0.3,0.5c0.3,0.5,0.6,1,0.9,1.4l0.1,0.1c-1.8,3.2-3.7,5.7-5.9,7
	c-1,0.6-2.2,0.8-3.3,0.7C126.9,96.8,117.9,69.1,111.4,48.9L111.4,48.9z M166.4,79.4c-4.2,10.5-8.2,20.5-25.3,19.6
	c0.2-0.2,0.3-0.3,0.5-0.5l0.1-0.1L142,98c1.9-2.1,3.6-4.5,4.9-7l0.6-1.2l-0.1-0.1c1.3-2.5,2.5-5.3,3.7-8c3.9-8.8,7.9-18,13.9-18
	c3.5,0,5.4,1.3,7.6,3.3C169.9,70.7,168.1,75.1,166.4,79.4L166.4,79.4z M200.7,84.6c-7.6-0.8-12.9-7-18.1-13.1
	c-1.4-1.6-2.8-3.3-4.2-4.8l0.1-0.1l-1.1-1c-1.3-1.3-2.7-2.5-4.2-3.5l-0.2-0.2l-0.2-0.2c13.5-2.1,17.1,3.2,21.3,9.7
	c3.1,4.7,6.5,9.9,13.7,12.8C205.4,84.6,203.1,84.7,200.7,84.6L200.7,84.6z"/>
</svg>
