<?xml version="1.0" encoding="utf-8"?>
<!-- Generator: Adobe Illustrator 26.4.1, SVG Export Plug-In . SVG Version: 6.00 Build 0)  -->
<svg version="1.1" id="Capa_1" xmlns="http://www.w3.org/2000/svg" xmlns:xlink="http://www.w3.org/1999/xlink" x="0px" y="0px"
	 viewBox="0 0 509.1 310" style="enable-background:new 0 0 509.1 310;" xml:space="preserve">
<style type="text/css">
	.st0{fill:#8C8C8C;}
	.st1{fill:#CDE6F4;}
	.st2{fill:#124980;}
	.st3{fill:#FFFFFF;}
	.st4{fill-rule:evenodd;clip-rule:evenodd;fill:#124980;}
	.st5{fill:#E81F79;}
	.st6{fill:#74BBE7;}
	.st7{fill:none;stroke:#E81F79;stroke-width:2.5;stroke-miterlimit:10;}
</style>
<g>
	<path class="st0" d="M45.7,2.1l120.3,0.1l123.9,0.1l173.6,0.1c23.9,0,43.4,19.5,43.4,43.4v218.5c0,23.9-19.5,43.4-43.4,43.4
		l-417.9-0.2c-24,0-43.4-19.4-43.4-43.4L2.2,45.6C2.2,21.6,21.8,2.1,45.7,2.1L45.7,2.1 M45.7,0C20.6,0,0.1,20.5,0.1,45.6L0,264.2
		c0,25.1,20.5,45.6,45.6,45.6l417.9,0.2l0,0c25.1,0,45.6-20.5,45.6-45.6l0.1-218.7c0-25.1-20.5-45.6-45.6-45.6L289.9,0.1h-124
		L45.7,0L45.7,0L45.7,0z"/>
</g>
<path class="st1" d="M280.9,9.7l184.3,0.1c15.6,0,31.6,14.9,31.6,30.5l-0.1,227.1c0,15.6-16,30.5-31.6,30.5l-422.2-0.2
	c-15.6,0-30.5-14.9-30.5-30.5l0.1-227.1C12.5,24.5,27.4,9.6,43,9.6L280.9,9.7z"/>
<g>
	<path class="st2" d="M278.2,93.8h-68.7c-1.4,0-2.7,1.2-2.7,2.7c0,1.5,1.2,2.7,2.7,2.7h68.7c1.5,0,2.7-1.2,2.7-2.7
		C280.9,95,279.7,93.8,278.2,93.8L278.2,93.8z"/>
	<path class="st2" d="M289.9,83.2h-80.5c-1.5,0-2.7,1.2-2.7,2.7c0,1.5,1.2,2.7,2.7,2.7h80.5c1.5,0,2.7-1.2,2.7-2.7
		C292.5,84.4,291.3,83.2,289.9,83.2L289.9,83.2z"/>
</g>
<path class="st2" d="M246.2,278.6h-36.7c-1.4,0-2.7,1.2-2.7,2.7c0,1.5,1.2,2.7,2.7,2.7h36.7c1.5,0,2.7-1.2,2.7-2.7
	C248.9,279.8,247.7,278.6,246.2,278.6L246.2,278.6z"/>
<g>
	<path class="st2" d="M189.4,44.8H74.7c-1.2,0-2.1,1-2.1,2.1c0,1.2,1,2.1,2.1,2.1h114.7c1.2,0,2.1-1,2.1-2.1
		C191.5,45.8,190.6,44.8,189.4,44.8L189.4,44.8z"/>
	<path class="st2" d="M168.9,53.5H74.8c-1,0-1.9,0.6-2.1,1.6c-0.4,1.4,0.7,2.8,2.1,2.8h94.1c0.9,0,1.7-0.4,2-1.3
		C171.5,55,170.4,53.5,168.9,53.5L168.9,53.5z"/>
	<path class="st2" d="M181.8,53.5h-3.1c-1.2,0-2.2,0.9-2.3,1.9c-0.1,1.3,0.9,2.3,2.1,2.3h3.1c1.2,0,2.2-0.9,2.3-1.9
		C184.2,54.6,183.1,53.5,181.8,53.5L181.8,53.5z"/>
</g>
<rect x="48.6" y="69.8" class="st3" width="140.9" height="162.7"/>
<g>
	<path class="st2" d="M49.6,280.9l2-2.3c0.5,0.6,1.6,1.2,2.6,1.2c1.9,0,3.5-1.5,3.5-6c0-4.2-1.3-5.3-2.7-5.3c-1.2,0-2.1,0.9-2.1,2.7
		c0,1.8,1,2.5,2.2,2.5c0.9,0,1.8-0.5,2.6-1.8l0.2,2.6c-0.9,1.3-2.5,2-3.5,2c-2.9,0-5-1.6-5-5.1s2.6-5.7,5.5-5.7
		c3.2,0,6.3,2.5,6.3,8.3c0,6.3-3.2,9.1-6.7,9.1C52.3,282.9,50.7,281.9,49.6,280.9z"/>
	<path class="st2" d="M63.5,280.9l2-2.3c0.5,0.6,1.6,1.2,2.6,1.2c1.9,0,3.5-1.5,3.5-6c0-4.2-1.3-5.3-2.7-5.3c-1.2,0-2.1,0.9-2.1,2.7
		c0,1.8,1,2.5,2.2,2.5c0.9,0,1.8-0.5,2.6-1.8l0.2,2.6c-0.9,1.3-2.5,2-3.5,2c-2.9,0-5-1.6-5-5.1s2.6-5.7,5.5-5.7
		c3.2,0,6.3,2.5,6.3,8.3c0,6.3-3.2,9.1-6.7,9.1C66.2,282.9,64.6,281.9,63.5,280.9z"/>
	<path class="st2" d="M77.9,280.4c0-1.4,1-2.5,2.3-2.5c1.4,0,2.3,1.1,2.3,2.5c0,1.4-1,2.5-2.3,2.5C78.9,282.9,77.9,281.8,77.9,280.4
		z"/>
	<path class="st2" d="M85.4,280.9l2-2.3c0.5,0.6,1.6,1.2,2.6,1.2c1.9,0,3.5-1.5,3.5-6c0-4.2-1.3-5.3-2.7-5.3c-1.2,0-2.1,0.9-2.1,2.7
		c0,1.8,1,2.5,2.2,2.5c0.9,0,1.8-0.5,2.6-1.8l0.2,2.6c-0.9,1.3-2.5,2-3.5,2c-2.9,0-5-1.6-5-5.1s2.6-5.7,5.5-5.7
		c3.2,0,6.3,2.5,6.3,8.3c0,6.3-3.2,9.1-6.7,9.1C88,282.9,86.4,281.9,85.4,280.9z"/>
	<path class="st2" d="M99.2,280.9l2-2.3c0.5,0.6,1.6,1.2,2.6,1.2c1.9,0,3.5-1.5,3.5-6c0-4.2-1.3-5.3-2.7-5.3c-1.2,0-2.1,0.9-2.1,2.7
		c0,1.8,1,2.5,2.2,2.5c0.9,0,1.8-0.5,2.6-1.8l0.2,2.6c-0.9,1.3-2.5,2-3.5,2c-2.9,0-5-1.6-5-5.1s2.6-5.7,5.5-5.7
		c3.2,0,6.3,2.5,6.3,8.3c0,6.3-3.2,9.1-6.7,9.1C101.9,282.9,100.3,281.9,99.2,280.9z"/>
	<path class="st2" d="M113.1,280.9l2-2.3c0.5,0.6,1.6,1.2,2.6,1.2c1.9,0,3.5-1.5,3.5-6c0-4.2-1.3-5.3-2.7-5.3
		c-1.2,0-2.1,0.9-2.1,2.7c0,1.8,1,2.5,2.2,2.5c0.9,0,1.8-0.5,2.6-1.8l0.2,2.6c-0.9,1.3-2.5,2-3.5,2c-2.9,0-5-1.6-5-5.1
		s2.6-5.7,5.5-5.7c3.2,0,6.3,2.5,6.3,8.3c0,6.3-3.2,9.1-6.7,9.1C115.8,282.9,114.2,281.9,113.1,280.9z"/>
	<path class="st2" d="M127.5,280.4c0-1.4,1-2.5,2.3-2.5c1.4,0,2.3,1.1,2.3,2.5c0,1.4-1,2.5-2.3,2.5
		C128.5,282.9,127.5,281.8,127.5,280.4z"/>
	<path class="st2" d="M135,280.9l2-2.3c0.5,0.6,1.6,1.2,2.6,1.2c1.9,0,3.5-1.5,3.5-6c0-4.2-1.3-5.3-2.7-5.3c-1.2,0-2.1,0.9-2.1,2.7
		c0,1.8,1,2.5,2.2,2.5c0.9,0,1.8-0.5,2.6-1.8l0.2,2.6c-0.9,1.3-2.5,2-3.5,2c-2.9,0-5-1.6-5-5.1s2.6-5.7,5.5-5.7
		c3.2,0,6.3,2.5,6.3,8.3c0,6.3-3.2,9.1-6.7,9.1C137.7,282.9,136,281.9,135,280.9z"/>
	<path class="st2" d="M148.9,280.9l2-2.3c0.5,0.6,1.6,1.2,2.6,1.2c1.9,0,3.5-1.5,3.5-6c0-4.2-1.3-5.3-2.7-5.3
		c-1.2,0-2.1,0.9-2.1,2.7c0,1.8,1,2.5,2.2,2.5c0.9,0,1.8-0.5,2.6-1.8l0.2,2.6c-0.9,1.3-2.5,2-3.5,2c-2.9,0-5-1.6-5-5.1
		s2.6-5.7,5.5-5.7c3.2,0,6.3,2.5,6.3,8.3c0,6.3-3.2,9.1-6.7,9.1C151.5,282.9,149.9,281.9,148.9,280.9z"/>
	<path class="st2" d="M162.7,280.9l2-2.3c0.5,0.6,1.6,1.2,2.6,1.2c1.9,0,3.5-1.5,3.5-6c0-4.2-1.3-5.3-2.7-5.3
		c-1.2,0-2.1,0.9-2.1,2.7c0,1.8,1,2.5,2.2,2.5c0.9,0,1.8-0.5,2.6-1.8l0.2,2.6c-0.9,1.3-2.5,2-3.5,2c-2.9,0-5-1.6-5-5.1
		s2.6-5.7,5.5-5.7c3.2,0,6.3,2.5,6.3,8.3c0,6.3-3.2,9.1-6.7,9.1C165.4,282.9,163.8,281.9,162.7,280.9z"/>
	<path class="st2" d="M176.6,280.9l2-2.3c0.5,0.6,1.6,1.2,2.6,1.2c1.9,0,3.5-1.5,3.5-6c0-4.2-1.3-5.3-2.7-5.3
		c-1.2,0-2.1,0.9-2.1,2.7c0,1.8,1,2.5,2.2,2.5c0.9,0,1.8-0.5,2.6-1.8l0.2,2.6c-0.9,1.3-2.5,2-3.5,2c-2.9,0-5-1.6-5-5.1
		s2.6-5.7,5.5-5.7c3.2,0,6.3,2.5,6.3,8.3c0,6.3-3.2,9.1-6.7,9.1C179.3,282.9,177.7,281.9,176.6,280.9z"/>
</g>
<g>
	<rect x="336.9" y="250.5" class="st2" width="1.5" height="33.3"/>
	<rect x="339.9" y="250.5" class="st2" width="2.9" height="33.3"/>
	<rect x="330.2" y="250.5" class="st2" width="1.5" height="33.3"/>
	<rect x="333" y="250.5" class="st2" width="2.9" height="33.3"/>
	<rect x="343.7" y="250.5" class="st2" width="2.1" height="33.3"/>
	<rect x="347.8" y="250.5" class="st2" width="1.2" height="33.3"/>
	<rect x="458" y="250.5" class="st2" width="2.9" height="33.3"/>
	<rect x="462.1" y="250.5" class="st2" width="2.9" height="33.3"/>
	<rect x="454.9" y="250.5" class="st2" width="2" height="33.3"/>
	<rect x="451.7" y="250.5" class="st2" width="1.2" height="33.3"/>
	<rect x="447.9" y="250.5" class="st2" width="1.8" height="33.3"/>
	<g>
		<rect x="353.5" y="253.8" class="st2" width="3.3" height="3.3"/>
		<path class="st2" d="M373.6,262.1v1.7 M373.6,250.5v1.7h-1.7v1.7h1.7v6.7"/>
		<rect x="353.5" y="277.1" class="st2" width="3.3" height="3.3"/>
		<rect x="365.3" y="282.1" class="st2" width="1.7" height="1.7"/>
		<rect x="366.9" y="275.4" class="st2" width="1.7" height="1.7"/>
		<rect x="366.9" y="278.7" class="st2" width="1.7" height="1.7"/>
		<rect x="350.2" y="270.4" class="st2" width="1.7" height="1.7"/>
		<rect x="350.2" y="262.1" class="st2" width="1.7" height="1.7"/>
		<polygon class="st2" points="368.6,252.2 368.6,253.8 365.3,253.8 365.3,255.5 370.2,255.5 370.2,253.8 370.2,252.2 		"/>
		<path class="st2" d="M373.6,267.1v-1.7h-1.7v1.7h-3.3v1.7h5v1.7h-5v-1.7h-1.7v1.7h-1.7v-1.7h-1.7v1.7h-1.7v1.7h3.3v1.7h1.7v-1.8
			h3.3v1.7h-1.7v1.7h1.7v3.3h1.7v1.7h1.7v-1.7 M371.9,277.1v-5"/>
		<polygon class="st2" points="371.9,260.5 370.2,260.5 370.2,262.1 368.6,262.1 368.6,263.8 368.6,265.4 370.2,265.4 370.2,263.8 
			371.9,263.8 371.9,262.1 373.6,262.1 373.6,260.5 		"/>
		<rect x="368.6" y="282.1" class="st2" width="3.3" height="1.7"/>
		<rect x="363.6" y="252.2" class="st2" width="1.7" height="1.7"/>
		<rect x="356.8" y="270.4" class="st2" width="1.7" height="1.7"/>
		<path class="st2" d="M360.3,282.1v-6.6h1.7v-3.4h-1.7v1.7h-5v-1.7h-3.3v1.7h-1.7v10h13.3v-1.7H360.3z M358.6,282.1h-6.6v-6.6h6.6
			V282.1z"/>
		<rect x="360.3" y="260.5" class="st2" width="1.7" height="1.7"/>
		<path class="st2" d="M361.9,250.5h-11.6v10h1.7v1.7h1.7v-1.7h1.7v1.7h1.7v-1.7h3.3v-3.4h1.7v-1.7h-1.7v-3.3h3.3v-1.7h-1.8V250.5z
			 M358.6,258.8h-6.6v-6.6h6.6V258.8z"/>
		<rect x="370.2" y="255.5" class="st2" width="1.7" height="1.7"/>
		<rect x="366.9" y="250.5" class="st2" width="1.7" height="1.7"/>
		<path class="st2" d="M370.2,260.5v-1.7h-1.7v-1.7h-1.7v1.7h-3.3v-1.7h-1.7v3.4h1.7v3.3h-4.9v-1.7h-1.7v1.7h-5v1.7h3.3v1.7h-5v1.7
			h5v1.7h1.7v-1.7h1.7v1.7h1.7v-1.7h3.3v-1.7h-1.7v-1.7h3.3v1.7h3.3v-1.7h-1.7v-1.7h-1.7v-3.3L370.2,260.5L370.2,260.5z
			 M360.3,267.1H357v-1.7h3.3V267.1z"/>
		<polygon class="st2" points="365.3,277.1 365.3,275.4 365.3,273.8 363.6,273.8 363.6,275.4 361.9,275.4 361.9,277.1 363.6,277.1 
			363.6,278.7 361.9,278.7 361.9,280.4 365.3,280.4 365.3,278.7 366.9,278.7 366.9,277.1 		"/>
	</g>
	<g>
		<rect x="391.3" y="277.1" class="st2" width="3.3" height="3.3"/>
		<path class="st2" d="M374.7,272.1v-1.7 M374.7,283.7V282h1.7v-1.7h-1.7v-6.7"/>
		<rect x="391.3" y="253.8" class="st2" width="3.3" height="3.3"/>
		<rect x="381.4" y="250.5" class="st2" width="1.7" height="1.7"/>
		<rect x="379.7" y="257.1" class="st2" width="1.7" height="1.7"/>
		<rect x="379.7" y="253.8" class="st2" width="1.7" height="1.7"/>
		<rect x="396.3" y="262.1" class="st2" width="1.7" height="1.7"/>
		<rect x="396.3" y="270.4" class="st2" width="1.7" height="1.7"/>
		<polygon class="st2" points="379.7,282.1 379.7,280.4 383,280.4 383,278.7 378,278.7 378,280.4 378,282.1 		"/>
		<path class="st2" d="M374.7,267.1v1.7h1.7v-1.7h3.3v-1.7h-5v-1.7h5v1.7h1.7v-1.7h1.7v1.7h1.7v-1.7h1.7V262h-3.3v-1.7h-1.7v1.7
			h-3.3v-1.7h1.7v-1.7h-1.7v-3.3h-1.7v-1.7h-1.7v1.7 M376.4,257.1v5"/>
		<polygon class="st2" points="376.4,273.8 378,273.8 378,272.1 379.7,272.1 379.7,270.4 379.7,268.8 378,268.8 378,270.4 
			376.4,270.4 376.4,272.1 374.7,272.1 374.7,273.8 		"/>
		<rect x="376.4" y="250.5" class="st2" width="3.3" height="1.7"/>
		<rect x="383" y="280.4" class="st2" width="1.7" height="1.7"/>
		<rect x="389.7" y="262.1" class="st2" width="1.7" height="1.7"/>
		<path class="st2" d="M388,252.2v6.6h-1.7v3.3h1.7v-1.7h5v1.7h3.3v-1.7h1.7v-10h-13.3v1.7L388,252.2z M389.7,252.2h6.6v6.6h-6.6
			V252.2z"/>
		<rect x="386.3" y="272.1" class="st2" width="1.7" height="1.7"/>
		<path class="st2" d="M386.3,283.7H398v-10h-1.7v-1.6h-1.7v1.7h-1.7v-1.7h-1.7v1.7h-3.3v3.4h-1.6v1.7h1.7v3.3h-3.3v1.7h1.6V283.7z
			 M389.7,275.4h6.6v6.6h-6.6V275.4z"/>
		<rect x="376.4" y="277.1" class="st2" width="1.7" height="1.7"/>
		<rect x="379.7" y="282.1" class="st2" width="1.7" height="1.7"/>
		<path class="st2" d="M378,273.7v1.7h1.7v1.7h1.7v-1.7h3.3v1.7h1.7v-3.4h-1.7v-3.3h5v1.7h1.7v-1.7h5v-1.7h-3.3V267h5v-1.7h-5v-1.7
			h-1.7v1.7h-1.7v-1.7H388v1.7h-3.3v1.7h1.7v1.7h-3.3V267h-3.3v1.7h1.7v1.7h1.7v3.3H378z M388,267.1h3.3v1.7H388V267.1z"/>
		<polygon class="st2" points="383,257.1 383,258.8 383,260.5 384.7,260.5 384.7,258.8 386.3,258.8 386.3,257.1 384.7,257.1 
			384.7,255.5 386.3,255.5 386.3,253.8 383,253.8 383,255.5 381.4,255.5 381.4,257.1 		"/>
	</g>
	<g>
		<rect x="402.4" y="253.8" class="st2" width="3.3" height="3.3"/>
		<path class="st2" d="M422.5,262.1v1.7 M422.5,250.5v1.7h-1.7v1.7h1.7v6.7"/>
		<rect x="402.4" y="277.1" class="st2" width="3.3" height="3.3"/>
		<rect x="414.2" y="282.1" class="st2" width="1.7" height="1.7"/>
		<rect x="415.8" y="275.4" class="st2" width="1.7" height="1.7"/>
		<rect x="415.8" y="278.7" class="st2" width="1.7" height="1.7"/>
		<rect x="399.1" y="270.4" class="st2" width="1.7" height="1.7"/>
		<rect x="399.1" y="262.1" class="st2" width="1.7" height="1.7"/>
		<polygon class="st2" points="417.5,252.2 417.5,253.8 414.2,253.8 414.2,255.5 419.2,255.5 419.2,253.8 419.2,252.2 		"/>
		<path class="st2" d="M422.5,267.1v-1.7h-1.7v1.7h-3.3v1.7h5v1.7h-5v-1.7h-1.7v1.7H414v-1.7h-1.7v1.7h-1.5v1.7h3.3v1.7h1.7v-1.8
			h3.3v1.7h-1.7v1.7h1.7v3.3h1.7v1.7h1.7v-1.7 M420.8,277.1v-5"/>
		<polygon class="st2" points="420.8,260.5 419.2,260.5 419.2,262.1 417.5,262.1 417.5,263.8 417.5,265.4 419.2,265.4 419.2,263.8 
			420.8,263.8 420.8,262.1 422.5,262.1 422.5,260.5 		"/>
		<rect x="417.5" y="282.1" class="st2" width="3.3" height="1.7"/>
		<rect x="412.4" y="252.2" class="st2" width="1.7" height="1.7"/>
		<rect x="405.8" y="270.4" class="st2" width="1.7" height="1.7"/>
		<path class="st2" d="M409.1,282.1v-6.6h1.7v-3.4h-1.7v1.7h-5v-1.7h-3.3v1.7h-1.7v10h13.3v-1.7H409.1z M407.4,282.1h-6.6v-6.6h6.6
			V282.1z"/>
		<rect x="409.1" y="260.5" class="st2" width="1.7" height="1.7"/>
		<path class="st2" d="M410.8,250.5h-11.7v10h1.7v1.7h1.7v-1.7h1.7v1.7h1.7v-1.7h3.3v-3.4h1.7v-1.7h-1.7v-3.3h3.3v-1.7h-1.7V250.5z
			 M407.4,258.8h-6.6v-6.6h6.6V258.8z"/>
		<rect x="419.2" y="255.5" class="st2" width="1.7" height="1.7"/>
		<rect x="415.8" y="250.5" class="st2" width="1.7" height="1.7"/>
		<path class="st2" d="M419.2,260.5v-1.7h-1.7v-1.7h-1.7v1.7h-3.3v-1.7h-1.6v3.4h1.7v3.3h-5v-1.7h-1.7v1.7h-5v1.7h3.3v1.7h-5v1.7h5
			v1.7h1.7v-1.7h1.7v1.7h1.7v-1.7h3.3v-1.7h-1.7v-1.7h3.3v1.7h3.3v-1.7h-1.7v-1.7H414v-3.3L419.2,260.5L419.2,260.5z M409.1,267.1
			h-3.3v-1.7h3.3V267.1z"/>
		<polygon class="st2" points="414.2,277.1 414.2,275.4 414.2,273.8 412.4,273.8 412.4,275.4 410.8,275.4 410.8,277.1 412.4,277.1 
			412.4,278.7 410.8,278.7 410.8,280.4 414.2,280.4 414.2,278.7 415.8,278.7 415.8,277.1 		"/>
	</g>
	<g>
		<rect x="440.3" y="277.1" class="st2" width="3.3" height="3.3"/>
		<path class="st2" d="M423.5,272.1v-1.7 M423.5,283.7V282h1.7v-1.7h-1.7v-6.7"/>
		<rect x="440.3" y="253.8" class="st2" width="3.3" height="3.3"/>
		<rect x="430.3" y="250.5" class="st2" width="1.7" height="1.7"/>
		<rect x="428.6" y="257.1" class="st2" width="1.7" height="1.7"/>
		<rect x="428.6" y="253.8" class="st2" width="1.7" height="1.7"/>
		<rect x="445.2" y="262.1" class="st2" width="1.7" height="1.7"/>
		<rect x="445.2" y="270.4" class="st2" width="1.7" height="1.7"/>
		<polygon class="st2" points="428.6,282.1 428.6,280.4 431.9,280.4 431.9,278.7 427,278.7 427,280.4 427,282.1 		"/>
		<path class="st2" d="M423.5,267.1v1.7h1.7v-1.7h3.3v-1.7h-5v-1.7h5v1.7h1.7v-1.7h1.7v1.7h1.7v-1.7h1.7V262h-3.3v-1.7h-1.7v1.7
			h-3.3v-1.7h1.7v-1.7h-1.7v-3.3h-1.7v-1.7h-1.7v1.7 M425.2,257.1v5"/>
		<polygon class="st2" points="425.2,273.8 427,273.8 427,272.1 428.6,272.1 428.6,270.4 428.6,268.8 427,268.8 427,270.4 
			425.2,270.4 425.2,272.1 423.5,272.1 423.5,273.8 		"/>
		<rect x="425.2" y="250.5" class="st2" width="3.3" height="1.7"/>
		<rect x="431.9" y="280.4" class="st2" width="1.7" height="1.7"/>
		<rect x="438.6" y="262.1" class="st2" width="1.7" height="1.7"/>
		<path class="st2" d="M436.9,252.2v6.6h-1.7v3.3h1.7v-1.7h5v1.7h3.3v-1.7h1.7v-10h-13.3v1.7L436.9,252.2z M438.6,252.2h6.6v6.6
			h-6.6V252.2z"/>
		<rect x="435.3" y="272.1" class="st2" width="1.7" height="1.7"/>
		<path class="st2" d="M435.3,283.7h11.6v-10h-1.7v-1.6h-1.7v1.7h-1.7v-1.7h-1.7v1.7h-3.3v3.4h-1.7v1.7h1.7v3.3h-3.3v1.7h1.8V283.7z
			 M438.6,275.4h6.6v6.6h-6.6V275.4z"/>
		<rect x="425.2" y="277.1" class="st2" width="1.7" height="1.7"/>
		<rect x="428.6" y="282.1" class="st2" width="1.7" height="1.7"/>
		<path class="st2" d="M427,273.7v1.7h1.7v1.7h1.7v-1.7h3.3v1.7h1.7v-3.4h-1.7v-3.3h5v1.7h1.7v-1.7h5v-1.7h-3.3V267h5v-1.7h-5v-1.7
			h-1.7v1.7h-1.8v-1.7h-1.7v1.7h-3.3v1.7h1.7v1.7H432V267h-3.3v1.7h1.7v1.7h1.7v3.3H427z M436.9,267.1h3.3v1.7h-3.3V267.1z"/>
		<polygon class="st2" points="431.9,257.1 431.9,258.8 431.9,260.5 433.6,260.5 433.6,258.8 435.3,258.8 435.3,257.1 433.6,257.1 
			433.6,255.5 435.3,255.5 435.3,253.8 431.9,253.8 431.9,255.5 430.3,255.5 430.3,257.1 		"/>
	</g>
</g>
<g>
	<path class="st2" d="M206.8,74.3l2.6-8.3h2.2l2.6,8.3h-2l-0.5-2H209l-0.5,2H206.8z M209.8,70l-0.2,0.7h1.8l-0.2-0.7
		c-0.1-0.4-0.2-0.9-0.3-1.3s-0.2-1-0.3-1.4l0,0c-0.1,0.4-0.2,0.9-0.3,1.4C210,69.1,209.9,69.6,209.8,70z"/>
	<path class="st2" d="M215,76.6v-8.8h1.5l0.1,0.6l0,0c0.2-0.2,0.5-0.4,0.9-0.5c0.3-0.1,0.6-0.2,1-0.2c0.4,0,0.7,0.1,1.1,0.2
		s0.5,0.3,0.7,0.6c0.2,0.3,0.4,0.6,0.5,1.1c0.1,0.4,0.2,0.9,0.2,1.3c0,0.5-0.1,1.1-0.2,1.5c-0.1,0.4-0.3,0.7-0.6,1.1
		c-0.2,0.3-0.5,0.5-0.9,0.6c-0.3,0.1-0.6,0.2-1,0.2c-0.3,0-0.5-0.1-0.7-0.2c-0.2-0.1-0.5-0.3-0.7-0.5l0.1,1v1.8H215V76.6z
		 M217.9,72.9c0.3,0,0.6-0.1,0.9-0.4c0.2-0.3,0.3-0.7,0.3-1.4c0-1.2-0.3-1.7-1.1-1.7c-0.3,0-0.7,0.2-1.1,0.5v2.6
		c0.2,0.1,0.3,0.2,0.5,0.3C217.7,72.9,217.8,72.9,217.9,72.9z"/>
	<path class="st2" d="M225.3,74.4c-0.4,0-0.9-0.1-1.3-0.2c-0.4-0.1-0.7-0.3-1.1-0.6s-0.5-0.6-0.6-1.1c-0.2-0.4-0.2-0.9-0.2-1.4
		s0.1-1,0.2-1.4c0.1-0.4,0.4-0.7,0.6-1.1c0.3-0.3,0.6-0.5,1-0.6c0.3-0.1,0.7-0.2,1.1-0.2c0.4,0,0.9,0.1,1.2,0.2
		c0.3,0.1,0.6,0.3,0.9,0.6c0.2,0.3,0.4,0.6,0.5,1c0.1,0.3,0.2,0.7,0.2,1.2c0,0.2,0,0.3,0,0.5s0,0.3,0,0.3h-3.8
		c0.1,0.4,0.3,0.9,0.5,1.1c0.2,0.2,0.6,0.3,1.1,0.3s1-0.1,1.4-0.4l0.6,1.2c-0.3,0.2-0.6,0.4-1.1,0.5C226,74.3,225.6,74.4,225.3,74.4
		z M223.8,70.3h2.2c0-0.3-0.1-0.6-0.2-0.9s-0.4-0.3-0.9-0.3c-0.3,0-0.5,0.1-0.7,0.3S223.9,69.9,223.8,70.3z"/>
	<path class="st2" d="M230.7,74.4c-0.3,0-0.6,0-0.9-0.1c-0.2-0.1-0.4-0.2-0.5-0.4s-0.2-0.4-0.3-0.6c-0.1-0.2-0.1-0.5-0.1-0.9v-7h1.9
		v7c0,0.2,0,0.3,0.1,0.4c0.1,0.1,0.1,0.1,0.2,0.1h0.1h0.1l0.2,1.4c-0.1,0-0.2,0.1-0.4,0.1C231.1,74.4,230.9,74.4,230.7,74.4z"/>
	<path class="st2" d="M234.4,74.4c-0.3,0-0.6,0-0.9-0.1c-0.2-0.1-0.4-0.2-0.5-0.4s-0.2-0.4-0.3-0.6c-0.1-0.2-0.1-0.5-0.1-0.9v-7h1.9
		v7c0,0.2,0,0.3,0.1,0.4c0.1,0.1,0.1,0.1,0.2,0.1h0.1h0.1l0.2,1.4c-0.1,0-0.2,0.1-0.4,0.1C234.8,74.4,234.7,74.4,234.4,74.4z"/>
	<path class="st2" d="M237.3,66.9c-0.3,0-0.5-0.1-0.7-0.3c-0.2-0.2-0.3-0.4-0.3-0.7s0.1-0.5,0.3-0.7s0.4-0.3,0.7-0.3
		c0.3,0,0.5,0.1,0.7,0.3s0.3,0.4,0.3,0.7s-0.1,0.5-0.3,0.7C237.9,66.8,237.6,66.9,237.3,66.9z M236.4,74.3v-6.4h1.9v6.4H236.4z"/>
	<path class="st2" d="M242.1,74.4c-0.4,0-0.7-0.1-1.1-0.2c-0.3-0.1-0.6-0.4-0.9-0.6c-0.2-0.2-0.4-0.6-0.5-1.1s-0.2-0.9-0.2-1.4
		s0.1-1,0.2-1.4c0.1-0.4,0.3-0.7,0.6-1.1c0.2-0.3,0.5-0.5,0.9-0.6c0.3-0.1,0.6-0.2,1-0.2s0.6,0.1,0.9,0.2s0.4,0.3,0.6,0.5l-0.1-1
		v-2.1h1.9v9h-1.5l-0.1-0.6l0,0c-0.2,0.2-0.5,0.4-0.7,0.5C242.8,74.3,242.5,74.4,242.1,74.4z M242.7,72.9c0.2,0,0.4,0,0.5-0.1
		c0.1-0.1,0.3-0.2,0.5-0.4v-2.6c-0.2-0.1-0.3-0.2-0.5-0.3c-0.2-0.1-0.3-0.1-0.5-0.1c-0.3,0-0.5,0.1-0.7,0.4
		c-0.2,0.3-0.3,0.7-0.3,1.4c0,0.6,0.1,1.1,0.3,1.4C242,72.7,242.2,72.9,242.7,72.9z"/>
	<path class="st2" d="M249.9,74.4c-0.4,0-0.7-0.1-1.2-0.2c-0.4-0.1-0.7-0.3-1-0.6c-0.3-0.3-0.5-0.6-0.6-1.1
		c-0.1-0.4-0.2-0.9-0.2-1.4s0.1-1,0.2-1.4c0.2-0.4,0.4-0.7,0.6-1.1c0.3-0.3,0.6-0.5,1-0.6c0.4-0.1,0.7-0.2,1.2-0.2
		c0.4,0,0.7,0.1,1.2,0.2c0.3,0.1,0.7,0.3,1,0.6c0.3,0.3,0.5,0.6,0.6,1.1c0.2,0.4,0.2,0.9,0.2,1.4s-0.1,1-0.2,1.4
		c-0.2,0.4-0.4,0.7-0.6,1.1c-0.3,0.3-0.6,0.5-1,0.6C250.8,74.3,250.3,74.4,249.9,74.4z M249.9,72.9c0.4,0,0.6-0.2,0.9-0.5
		c0.2-0.3,0.3-0.7,0.3-1.3c0-0.5-0.1-1-0.3-1.3c-0.2-0.3-0.5-0.5-0.9-0.5c-0.4,0-0.6,0.2-0.9,0.5c-0.2,0.3-0.3,0.7-0.3,1.3
		c0,0.5,0.1,1,0.3,1.3C249.3,72.7,249.6,72.9,249.9,72.9z"/>
</g>
<g>
	<path class="st2" d="M49.3,257.9v-8.3h2.3c0.6,0,1.2,0.1,1.7,0.2c0.5,0.1,1,0.4,1.3,0.7s0.6,0.7,0.9,1.3c0.2,0.5,0.3,1.2,0.3,1.8
		c0,0.7-0.1,1.4-0.3,1.9c-0.2,0.5-0.4,1-0.9,1.3c-0.4,0.3-0.7,0.6-1.3,0.7c-0.5,0.2-1.1,0.2-1.7,0.2h-2.3V257.9z M51.1,256.4h0.3
		c0.3,0,0.6,0,1-0.1s0.5-0.2,0.7-0.4c0.2-0.2,0.3-0.5,0.5-0.9c0.2-0.3,0.2-0.7,0.2-1.3c0-0.5-0.1-1-0.2-1.3
		c-0.1-0.3-0.3-0.6-0.5-0.9c-0.2-0.2-0.4-0.3-0.7-0.4s-0.6-0.1-1-0.1h-0.3V256.4z"/>
	<path class="st2" d="M60,258.1c-0.4,0-0.7-0.1-1.2-0.2s-0.7-0.3-1-0.6c-0.2-0.3-0.5-0.6-0.6-1.1c-0.2-0.4-0.2-0.9-0.2-1.4
		c0-0.5,0.1-1,0.2-1.4c0.1-0.4,0.4-0.7,0.6-1.1c0.3-0.3,0.6-0.5,1-0.6c0.4-0.1,0.7-0.2,1.2-0.2c0.4,0,0.7,0.1,1.2,0.2
		c0.3,0.1,0.7,0.3,1,0.6c0.3,0.3,0.5,0.6,0.6,1.1c0.1,0.4,0.2,0.9,0.2,1.4c0,0.5-0.1,1-0.2,1.4c-0.2,0.4-0.4,0.7-0.6,1.1
		c-0.3,0.3-0.6,0.5-1,0.6C60.7,258,60.4,258.1,60,258.1z M60,256.5c0.4,0,0.6-0.2,0.9-0.5c0.2-0.3,0.3-0.7,0.3-1.3
		c0-0.5-0.1-1-0.3-1.3c-0.2-0.3-0.5-0.5-0.9-0.5c-0.4,0-0.6,0.2-0.9,0.5c-0.2,0.3-0.3,0.7-0.3,1.3c0,0.5,0.1,1,0.3,1.3
		C59.3,256.4,59.5,256.5,60,256.5z"/>
	<path class="st2" d="M67.1,258.1c-0.4,0-0.9-0.1-1.3-0.2c-0.4-0.1-0.7-0.3-1-0.6c-0.3-0.3-0.5-0.6-0.6-1.1
		c-0.2-0.4-0.2-0.9-0.2-1.4c0-0.5,0.1-1,0.3-1.4c0.2-0.4,0.4-0.7,0.7-1.1c0.3-0.3,0.6-0.5,1.1-0.6c0.4-0.1,0.9-0.2,1.3-0.2
		c0.4,0,0.7,0.1,1.1,0.2c0.3,0.1,0.5,0.3,0.9,0.5l-0.9,1.2c-0.3-0.2-0.5-0.3-0.9-0.3c-0.4,0-0.9,0.2-1.1,0.5s-0.4,0.7-0.4,1.3
		c0,0.5,0.1,1,0.4,1.3c0.3,0.3,0.6,0.5,1.1,0.5c0.2,0,0.4,0,0.6-0.1c0.2-0.1,0.4-0.2,0.5-0.3l0.7,1.3c-0.3,0.3-0.6,0.4-1.1,0.5
		C67.9,258,67.4,258.1,67.1,258.1z"/>
	<path class="st2" d="M72.2,258.1c-0.6,0-1.2-0.2-1.5-0.6c-0.3-0.4-0.4-1.1-0.4-1.9v-3.9h1.9v3.7c0,0.4,0.1,0.7,0.2,1
		c0.1,0.2,0.3,0.2,0.6,0.2c0.2,0,0.4-0.1,0.6-0.2c0.2-0.1,0.3-0.3,0.5-0.5v-4.2h1.9v6.4h-1.5l-0.1-0.9l0,0c-0.3,0.3-0.5,0.5-0.9,0.7
		C73.1,258,72.7,258.1,72.2,258.1z"/>
	<path class="st2" d="M77.6,257.9v-6.4h1.5l0.1,0.9l0,0c0.2-0.2,0.5-0.5,0.9-0.6c0.3-0.2,0.6-0.3,1.1-0.3s0.9,0.1,1.1,0.3
		c0.2,0.2,0.5,0.4,0.6,0.7c0.3-0.3,0.5-0.5,0.9-0.7s0.6-0.3,1.1-0.3c0.6,0,1.2,0.2,1.5,0.6c0.3,0.4,0.5,1.1,0.5,1.9v3.9h-1.9v-3.7
		c0-0.4-0.1-0.7-0.2-1c-0.1-0.2-0.3-0.2-0.6-0.2c-0.3,0-0.6,0.2-1.1,0.6v4.3H81v-3.7c0-0.4-0.1-0.7-0.2-1c-0.1-0.2-0.3-0.2-0.6-0.2
		c-0.3,0-0.6,0.2-1.1,0.6v4.3L77.6,257.9L77.6,257.9z"/>
	<path class="st2" d="M91.5,258.1c-0.4,0-0.9-0.1-1.3-0.2s-0.7-0.3-1.1-0.6c-0.3-0.3-0.5-0.6-0.6-1.1c-0.2-0.4-0.2-0.9-0.2-1.4
		c0-0.5,0.1-1,0.2-1.4c0.2-0.4,0.4-0.7,0.6-1.1c0.3-0.3,0.6-0.5,1-0.6c0.3-0.1,0.7-0.2,1.1-0.2c0.4,0,0.9,0.1,1.2,0.2
		c0.3,0.1,0.6,0.3,0.9,0.6c0.2,0.3,0.4,0.6,0.5,1c0.1,0.3,0.2,0.7,0.2,1.2c0,0.2,0,0.3,0,0.5c0,0.1,0,0.3,0,0.3h-3.8
		c0.1,0.4,0.3,0.9,0.5,1.1c0.2,0.2,0.6,0.3,1.1,0.3s1-0.1,1.4-0.4l0.6,1.2c-0.3,0.2-0.6,0.4-1.1,0.5C92.2,258,91.8,258.1,91.5,258.1
		z M90.1,254.1h2.2c0-0.3-0.1-0.6-0.2-0.9c-0.1-0.2-0.4-0.3-0.9-0.3c-0.3,0-0.5,0.1-0.7,0.3C90.3,253.3,90.1,253.7,90.1,254.1z"/>
	<path class="st2" d="M95.2,257.9v-6.4h1.5l0.1,0.9l0,0c0.3-0.2,0.5-0.5,0.9-0.6c0.3-0.2,0.7-0.3,1.2-0.3c0.6,0,1.2,0.2,1.5,0.6
		c0.3,0.4,0.4,1.1,0.4,1.9v3.9h-1.9v-3.7c0-0.4-0.1-0.7-0.2-1S98.3,253,98,253c-0.2,0-0.4,0-0.6,0.2c-0.2,0.1-0.3,0.2-0.5,0.4v4.3
		H95.2z"/>
	<path class="st2" d="M105,258.1c-0.4,0-0.7-0.1-1-0.2c-0.3-0.1-0.5-0.3-0.6-0.5c-0.2-0.2-0.3-0.4-0.4-0.7c-0.1-0.3-0.1-0.6-0.1-1
		v-2.6H102v-1.4l1-0.1l0.2-1.7h1.6v1.7h1.5v1.5h-1.5v2.6c0,0.3,0.1,0.6,0.2,0.7c0.1,0.1,0.3,0.2,0.6,0.2c0.1,0,0.2,0,0.3,0
		c0.1,0,0.2-0.1,0.3-0.1l0.3,1.4c-0.2,0-0.3,0.1-0.6,0.1S105.3,258.1,105,258.1z"/>
	<path class="st2" d="M109.9,258.1c-0.4,0-0.7-0.1-1.2-0.2c-0.4-0.1-0.7-0.3-1-0.6c-0.3-0.3-0.5-0.6-0.6-1.1
		c-0.2-0.4-0.2-0.9-0.2-1.4c0-0.5,0.1-1,0.2-1.4c0.1-0.4,0.4-0.7,0.6-1.1c0.3-0.3,0.6-0.5,1-0.6c0.4-0.1,0.7-0.2,1.2-0.2
		c0.4,0,0.7,0.1,1.2,0.2c0.4,0.1,0.7,0.3,1,0.6c0.3,0.3,0.5,0.6,0.6,1.1c0.2,0.4,0.2,0.9,0.2,1.4c0,0.5-0.1,1-0.2,1.4
		c-0.2,0.4-0.4,0.7-0.6,1.1c-0.3,0.3-0.6,0.5-1,0.6S110.3,258.1,109.9,258.1z M109.9,256.5c0.4,0,0.6-0.2,0.9-0.5
		c0.2-0.3,0.3-0.7,0.3-1.3c0-0.5-0.1-1-0.3-1.3c-0.2-0.3-0.5-0.5-0.9-0.5c-0.4,0-0.6,0.2-0.9,0.5c-0.2,0.3-0.3,0.7-0.3,1.3
		c0,0.5,0.1,1,0.3,1.3C109.3,256.4,109.6,256.5,109.9,256.5z"/>
</g>
<g>
	<path class="st2" d="M278.2,142.2h-68.7c-1.4,0-2.7,1.2-2.7,2.7s1.2,2.7,2.7,2.7h68.7c1.5,0,2.7-1.2,2.7-2.7
		C280.9,143.4,279.7,142.2,278.2,142.2L278.2,142.2z"/>
	<path class="st2" d="M289.9,131.7h-80.5c-1.5,0-2.7,1.2-2.7,2.7s1.2,2.7,2.7,2.7h80.5c1.5,0,2.7-1.2,2.7-2.7
		C292.5,132.9,291.3,131.7,289.9,131.7L289.9,131.7z"/>
</g>
<g>
	<path class="st2" d="M207.9,122.6v-8.3h1.9l2.1,4.2l0.9,1.8l0,0c0-0.4-0.1-1-0.1-1.5c-0.1-0.5-0.1-1.1-0.1-1.6v-3h1.8v8.3h-1.9
		l-2.1-4.2l-0.9-1.8l0,0c0,0.4,0.1,1,0.1,1.5c0,0.5,0.1,1.1,0.1,1.5v3h-1.8V122.6z"/>
	<path class="st2" d="M219,122.8c-0.4,0-0.7-0.1-1.2-0.2c-0.4-0.1-0.7-0.3-1-0.6c-0.3-0.3-0.5-0.6-0.6-1.1c-0.1-0.4-0.2-0.9-0.2-1.4
		s0.1-1,0.2-1.4c0.2-0.4,0.4-0.7,0.6-1.1c0.3-0.3,0.6-0.5,1-0.6c0.4-0.1,0.7-0.2,1.2-0.2c0.4,0,0.7,0.1,1.2,0.2
		c0.3,0.1,0.7,0.3,1,0.6c0.3,0.3,0.5,0.6,0.6,1.1c0.2,0.4,0.2,0.9,0.2,1.4s-0.1,1-0.2,1.4s-0.4,0.7-0.6,1.1c-0.3,0.3-0.6,0.5-1,0.6
		C219.7,122.7,219.4,122.8,219,122.8z M219,121.3c0.4,0,0.6-0.2,0.9-0.5c0.2-0.3,0.3-0.7,0.3-1.3s-0.1-1-0.3-1.3
		c-0.2-0.3-0.5-0.5-0.9-0.5c-0.4,0-0.6,0.2-0.9,0.5c-0.2,0.3-0.3,0.7-0.3,1.3s0.1,1,0.3,1.3C218.2,121.1,218.5,121.3,219,121.3z"/>
	<path class="st2" d="M223.3,122.6v-6.4h1.5l0.1,0.9l0,0c0.2-0.2,0.5-0.5,0.9-0.6c0.3-0.2,0.6-0.3,1.1-0.3s0.9,0.1,1.1,0.3
		s0.5,0.4,0.6,0.7c0.3-0.3,0.5-0.5,0.9-0.7c0.3-0.2,0.6-0.3,1.1-0.3c0.6,0,1.2,0.2,1.5,0.6c0.3,0.4,0.5,1.1,0.5,1.9v3.9h-1.9v-3.7
		c0-0.4-0.1-0.7-0.2-1c-0.1-0.2-0.3-0.2-0.6-0.2c-0.3,0-0.6,0.2-1.1,0.6v4.3h-1.9v-3.7c0-0.4-0.1-0.7-0.2-1
		c-0.1-0.2-0.3-0.2-0.6-0.2c-0.3,0-0.6,0.2-1.1,0.6v4.3H223.3z"/>
	<path class="st2" d="M237.6,122.8c-0.3,0-0.5-0.1-0.9-0.2s-0.5-0.3-0.9-0.6l0,0l-0.1,0.6h-1.5v-9h1.9v2.2v1
		c0.2-0.2,0.5-0.4,0.9-0.5c0.3-0.1,0.5-0.2,0.9-0.2c0.4,0,0.7,0.1,1.1,0.2s0.5,0.3,0.7,0.6c0.2,0.3,0.4,0.6,0.5,1
		c0.1,0.4,0.2,0.9,0.2,1.3c0,0.5-0.1,1.1-0.2,1.5c-0.1,0.4-0.3,0.7-0.6,1.1c-0.2,0.3-0.5,0.5-0.9,0.6
		C238.3,122.7,238,122.8,237.6,122.8z M237.2,121.2c0.3,0,0.6-0.1,0.9-0.4c0.2-0.3,0.3-0.7,0.3-1.4c0-1.2-0.3-1.7-1.1-1.7
		c-0.4,0-0.7,0.2-1.1,0.5v2.6c0.2,0.1,0.3,0.2,0.5,0.3C236.9,121.2,237,121.2,237.2,121.2z"/>
	<path class="st2" d="M241.7,122.6v-6.4h1.5l0.1,1.1l0,0c0.2-0.4,0.5-0.7,0.9-1c0.3-0.2,0.6-0.3,1-0.3c0.2,0,0.3,0,0.4,0
		c0.1,0,0.2,0,0.3,0.1l-0.3,1.6c-0.1,0-0.2-0.1-0.3-0.1s-0.2,0-0.3,0c-0.2,0-0.5,0.1-0.7,0.2c-0.2,0.2-0.4,0.4-0.6,1v3.7h-1.8V122.6
		z"/>
	<path class="st2" d="M249.5,122.8c-0.4,0-0.9-0.1-1.3-0.2c-0.4-0.1-0.7-0.3-1.1-0.6c-0.3-0.3-0.5-0.6-0.6-1.1
		c-0.2-0.4-0.2-0.9-0.2-1.4s0.1-1,0.2-1.4c0.1-0.4,0.4-0.7,0.6-1.1c0.3-0.3,0.6-0.5,1-0.6c0.3-0.1,0.7-0.2,1.1-0.2
		c0.4,0,0.9,0.1,1.2,0.2s0.6,0.3,0.9,0.6c0.2,0.3,0.4,0.6,0.5,1c0.1,0.3,0.2,0.7,0.2,1.2c0,0.2,0,0.3,0,0.5c0,0.1,0,0.3,0,0.3h-3.8
		c0.1,0.4,0.3,0.9,0.5,1.1c0.2,0.2,0.6,0.3,1.1,0.3c0.4,0,1-0.1,1.4-0.4l0.6,1.2c-0.3,0.2-0.6,0.4-1.1,0.5
		C250.2,122.7,249.8,122.8,249.5,122.8z M248.1,118.8h2.2c0-0.3-0.1-0.6-0.2-0.9c-0.1-0.2-0.4-0.3-0.9-0.3c-0.3,0-0.5,0.1-0.7,0.3
		C248.3,118.1,248.1,118.3,248.1,118.8z"/>
</g>
<path class="st2" d="M289.9,181h-80.5c-1.5,0-2.7,1.2-2.7,2.7s1.2,2.7,2.7,2.7h80.5c1.5,0,2.7-1.2,2.7-2.7
	C292.5,182.2,291.3,181,289.9,181L289.9,181z"/>
<g>
	<path class="st2" d="M210.4,172.1c-0.5,0-1.1-0.1-1.6-0.3c-0.5-0.2-1.1-0.5-1.5-0.9l1.1-1.3c0.3,0.2,0.6,0.4,1,0.6
		c0.3,0.2,0.7,0.2,1.1,0.2c0.4,0,0.6-0.1,0.9-0.2c0.2-0.1,0.3-0.3,0.3-0.6c0-0.1,0-0.2-0.1-0.3s-0.1-0.2-0.2-0.2
		c-0.1,0-0.2-0.1-0.4-0.2c-0.1-0.1-0.3-0.1-0.5-0.2l-1.1-0.4c-0.2-0.1-0.4-0.2-0.6-0.3c-0.2-0.1-0.4-0.3-0.5-0.5s-0.3-0.4-0.4-0.6
		c-0.1-0.2-0.1-0.5-0.1-0.9s0.1-0.6,0.2-1c0.1-0.3,0.3-0.5,0.6-0.7c0.2-0.2,0.5-0.4,1-0.5c0.3-0.1,0.7-0.2,1.2-0.2
		c0.5,0,1,0.1,1.5,0.3c0.4,0.2,0.9,0.4,1.3,0.9l-1,1.2c-0.3-0.2-0.5-0.4-0.9-0.5c-0.3-0.1-0.5-0.2-1-0.2c-0.3,0-0.5,0.1-0.7,0.2
		s-0.3,0.3-0.3,0.5c0,0.1,0,0.2,0.1,0.3s0.1,0.2,0.3,0.2c0.1,0.1,0.2,0.1,0.4,0.2c0.1,0.1,0.3,0.1,0.5,0.2l1.1,0.4
		c0.5,0.2,1,0.5,1.2,0.9c0.3,0.3,0.4,0.9,0.4,1.4c0,0.3-0.1,0.6-0.2,1c-0.1,0.3-0.3,0.5-0.6,0.9c-0.3,0.2-0.6,0.4-1,0.5
		C211.4,172,210.9,172.1,210.4,172.1z"/>
	<path class="st2" d="M217.7,172.1c-0.4,0-0.9-0.1-1.3-0.2c-0.4-0.1-0.7-0.3-1.1-0.6s-0.5-0.6-0.6-1.1c-0.2-0.4-0.2-0.9-0.2-1.4
		c0-0.5,0.1-1,0.2-1.4s0.4-0.7,0.6-1.1c0.3-0.3,0.6-0.5,1-0.6c0.3-0.1,0.7-0.2,1.1-0.2c0.4,0,0.9,0.1,1.2,0.2
		c0.3,0.1,0.6,0.3,0.9,0.6c0.2,0.3,0.4,0.6,0.5,1c0.1,0.3,0.2,0.7,0.2,1.2c0,0.2,0,0.3,0,0.5c0,0.1,0,0.3,0,0.3h-3.8
		c0.1,0.4,0.3,0.9,0.5,1.1c0.2,0.2,0.6,0.3,1.1,0.3c0.4,0,1-0.1,1.4-0.4l0.6,1.2c-0.3,0.2-0.6,0.4-1.1,0.5
		C218.4,172,218,172.1,217.7,172.1z M216.3,168.1h2.2c0-0.3-0.1-0.6-0.2-0.9s-0.4-0.3-0.9-0.3c-0.3,0-0.5,0.1-0.7,0.3
		S216.3,167.6,216.3,168.1z"/>
	<path class="st2" d="M220.6,171.9l1.9-3.3l-1.8-3.1h2l0.5,1.1c0.1,0.2,0.2,0.3,0.2,0.5s0.2,0.3,0.3,0.5l0,0
		c0.1-0.2,0.1-0.3,0.2-0.5c0.1-0.2,0.1-0.3,0.2-0.5l0.4-1.1h1.9l-1.8,3.3l1.9,3.1h-2l-0.6-1.1c-0.1-0.2-0.2-0.3-0.3-0.5
		c-0.1-0.2-0.2-0.3-0.3-0.5l0,0c-0.1,0.2-0.1,0.3-0.2,0.5c-0.1,0.2-0.2,0.3-0.2,0.5l-0.5,1.1H220.6z"/>
	<path class="st2" d="M230.3,172.1c-0.4,0-0.7-0.1-1.2-0.2c-0.4-0.1-0.7-0.3-1-0.6s-0.5-0.6-0.6-1.1c-0.2-0.4-0.2-0.9-0.2-1.4
		c0-0.5,0.1-1,0.2-1.4c0.2-0.4,0.4-0.7,0.6-1.1c0.3-0.3,0.6-0.5,1-0.6c0.4-0.1,0.7-0.2,1.2-0.2c0.4,0,0.7,0.1,1.2,0.2
		c0.3,0.1,0.7,0.3,1,0.6c0.3,0.3,0.5,0.6,0.6,1.1c0.2,0.4,0.2,0.9,0.2,1.4c0,0.5-0.1,1-0.2,1.4c-0.2,0.4-0.4,0.7-0.6,1.1
		c-0.3,0.3-0.6,0.5-1,0.6C231,172,230.6,172.1,230.3,172.1z M230.3,170.5c0.4,0,0.6-0.2,0.9-0.5c0.2-0.3,0.3-0.7,0.3-1.3
		c0-0.5-0.1-1-0.3-1.3c-0.2-0.3-0.5-0.5-0.9-0.5c-0.4,0-0.6,0.2-0.9,0.5s-0.3,0.7-0.3,1.3c0,0.5,0.1,1,0.3,1.3
		C229.5,170.4,229.9,170.5,230.3,170.5z"/>
</g>
<path class="st2" d="M435.6,181H308.7c-1.5,0-2.7,1.2-2.7,2.7s1.2,2.7,2.7,2.7h126.9c1.5,0,2.7-1.2,2.7-2.7
	C438.3,182.2,437.1,181,435.6,181L435.6,181z"/>
<g>
	<path class="st2" d="M307.1,171.9v-8.3h1.9l2.1,4.2l0.9,1.8l0,0c0-0.4-0.1-1-0.1-1.5c-0.1-0.5-0.1-1.1-0.1-1.6v-3h1.8v8.3h-1.9
		l-2.1-4.2l-0.9-1.8l0,0c0,0.4,0.1,1,0.1,1.5s0.1,1.1,0.1,1.5v3h-1.8V171.9z"/>
	<path class="st2" d="M317,172.1c-0.3,0-0.5,0-0.7-0.1s-0.4-0.2-0.6-0.4c-0.2-0.2-0.3-0.4-0.4-0.6c-0.1-0.2-0.1-0.5-0.1-0.7
		c0-0.6,0.3-1.2,0.9-1.6c0.5-0.4,1.5-0.6,2.8-0.7c0-0.3-0.1-0.5-0.2-0.6c-0.1-0.2-0.4-0.2-0.7-0.2c-0.3,0-0.5,0-0.9,0.1
		s-0.5,0.2-0.9,0.4l-0.6-1.3c0.4-0.2,0.9-0.4,1.3-0.6s1-0.2,1.4-0.2c0.9,0,1.5,0.2,1.9,0.7c0.4,0.4,0.6,1.2,0.6,2.1v3.6h-1.6
		l-0.1-0.6l0,0c-0.3,0.2-0.5,0.4-0.9,0.5C317.8,172,317.5,172.1,317,172.1z M317.7,170.6c0.2,0,0.4,0,0.5-0.1s0.3-0.2,0.5-0.4V169
		c-0.6,0.1-1.2,0.2-1.4,0.4c-0.2,0.2-0.4,0.4-0.4,0.6c0,0.2,0.1,0.3,0.2,0.4C317.3,170.6,317.5,170.6,317.7,170.6z"/>
	<path class="st2" d="M324.9,172.1c-0.4,0-0.9-0.1-1.3-0.2c-0.4-0.1-0.7-0.3-1-0.6c-0.3-0.3-0.5-0.6-0.6-1.1
		c-0.2-0.4-0.2-0.9-0.2-1.4c0-0.5,0.1-1,0.3-1.4c0.2-0.4,0.4-0.7,0.7-1.1c0.3-0.3,0.6-0.5,1.1-0.6s0.9-0.2,1.3-0.2
		c0.4,0,0.7,0.1,1.1,0.2c0.3,0.1,0.5,0.3,0.9,0.5l-0.9,1.2c-0.3-0.2-0.5-0.3-0.9-0.3c-0.4,0-0.9,0.2-1.1,0.5
		c-0.2,0.3-0.4,0.7-0.4,1.3c0,0.5,0.1,1,0.4,1.3c0.3,0.3,0.6,0.5,1.1,0.5c0.2,0,0.4,0,0.6-0.1c0.2-0.1,0.4-0.2,0.5-0.3l0.7,1.3
		c-0.3,0.3-0.6,0.4-1.1,0.5C325.7,172,325.4,172.1,324.9,172.1z"/>
	<path class="st2" d="M329.1,164.7c-0.3,0-0.5-0.1-0.7-0.3c-0.2-0.2-0.3-0.4-0.3-0.7s0.1-0.5,0.3-0.7c0.2-0.2,0.4-0.3,0.7-0.3
		c0.3,0,0.6,0.1,0.7,0.3c0.1,0.2,0.3,0.4,0.3,0.7s-0.1,0.5-0.3,0.7C329.6,164.6,329.4,164.7,329.1,164.7z M328.1,171.9v-6.4h1.9v6.4
		H328.1z"/>
	<path class="st2" d="M334.4,172.1c-0.4,0-0.7-0.1-1.2-0.2c-0.4-0.1-0.7-0.3-1-0.6c-0.3-0.3-0.5-0.6-0.6-1.1
		c-0.2-0.4-0.2-0.9-0.2-1.4c0-0.5,0.1-1,0.2-1.4c0.2-0.4,0.4-0.7,0.6-1.1c0.3-0.3,0.6-0.5,1-0.6c0.4-0.1,0.7-0.2,1.2-0.2
		s0.7,0.1,1.2,0.2c0.3,0.1,0.7,0.3,1,0.6c0.3,0.3,0.5,0.6,0.6,1.1c0.2,0.4,0.2,0.9,0.2,1.4c0,0.5-0.1,1-0.2,1.4
		c-0.2,0.4-0.4,0.7-0.6,1.1c-0.3,0.3-0.6,0.5-1,0.6C335.3,172,334.9,172.1,334.4,172.1z M334.4,170.5c0.4,0,0.6-0.2,0.9-0.5
		c0.2-0.3,0.3-0.7,0.3-1.3c0-0.5-0.1-1-0.3-1.3s-0.5-0.5-0.9-0.5c-0.4,0-0.6,0.2-0.9,0.5c-0.2,0.3-0.3,0.7-0.3,1.3
		c0,0.5,0.1,1,0.3,1.3C333.8,170.4,334,170.5,334.4,170.5z"/>
	<path class="st2" d="M338.8,171.9v-6.4h1.5l0.1,0.9l0,0c0.3-0.2,0.5-0.5,0.9-0.6c0.3-0.2,0.7-0.3,1.2-0.3c0.6,0,1.2,0.2,1.5,0.6
		c0.3,0.4,0.4,1.1,0.4,1.9v3.9h-1.9v-3.7c0-0.4-0.1-0.7-0.2-1s-0.3-0.2-0.6-0.2c-0.2,0-0.4,0.1-0.6,0.2s-0.3,0.2-0.5,0.4v4.3H338.8z
		"/>
	<path class="st2" d="M347.8,172.1c-0.3,0-0.5,0-0.7-0.1s-0.4-0.2-0.6-0.4c-0.2-0.2-0.3-0.4-0.4-0.6c-0.1-0.2-0.1-0.5-0.1-0.7
		c0-0.6,0.3-1.2,0.9-1.6s1.5-0.6,2.8-0.7c0-0.3-0.1-0.5-0.2-0.6c-0.1-0.2-0.4-0.2-0.7-0.2c-0.3,0-0.5,0-0.9,0.1
		c-0.3,0.1-0.5,0.2-0.9,0.4l-0.6-1.3c0.4-0.2,0.9-0.4,1.3-0.6s1-0.2,1.4-0.2c0.9,0,1.5,0.2,1.9,0.7c0.4,0.5,0.6,1.2,0.6,2.1v3.6
		h-1.5l-0.1-0.6l0,0c-0.3,0.2-0.5,0.4-0.9,0.5C348.4,172,348.1,172.1,347.8,172.1z M348.4,170.6c0.2,0,0.4,0,0.5-0.1
		s0.3-0.2,0.5-0.4V169c-0.6,0.1-1.2,0.2-1.4,0.4c-0.2,0.2-0.4,0.4-0.4,0.6c0,0.2,0.1,0.3,0.2,0.4C348,170.6,348.2,170.6,348.4,170.6
		z"/>
	<path class="st2" d="M354.6,172.1c-0.3,0-0.6,0-0.9-0.1c-0.2-0.1-0.4-0.2-0.5-0.4c-0.1-0.2-0.2-0.4-0.3-0.6
		c-0.1-0.2-0.1-0.5-0.1-0.9v-7h1.9v7c0,0.2,0,0.3,0.1,0.4c0.1,0.1,0.1,0.1,0.2,0.1h0.1h0.1l0.2,1.4c-0.1,0-0.2,0.1-0.4,0.1
		C355,172.1,354.8,172.1,354.6,172.1z"/>
	<path class="st2" d="M357.5,164.7c-0.3,0-0.5-0.1-0.7-0.3c-0.2-0.2-0.3-0.4-0.3-0.7s0.1-0.5,0.3-0.7c0.2-0.2,0.4-0.3,0.7-0.3
		c0.3,0,0.5,0.1,0.7,0.3c0.2,0.2,0.3,0.4,0.3,0.7s-0.1,0.5-0.3,0.7C358.1,164.6,357.8,164.7,357.5,164.7z M356.5,171.9v-6.4h1.9v6.4
		H356.5z"/>
	<path class="st2" d="M362.4,172.1c-0.4,0-0.7-0.1-1.1-0.2c-0.3-0.1-0.6-0.4-0.9-0.6c-0.2-0.3-0.4-0.6-0.5-1.1
		c-0.1-0.4-0.2-0.9-0.2-1.4c0-0.5,0.1-1,0.2-1.4c0.1-0.4,0.3-0.7,0.6-1.1c0.2-0.3,0.5-0.5,0.9-0.6s0.6-0.2,1-0.2s0.6,0.1,0.9,0.2
		c0.2,0.1,0.4,0.3,0.6,0.5l-0.1-1v-2.1h1.9v9h-1.5l-0.1-0.6l0,0c-0.2,0.2-0.5,0.4-0.7,0.5C362.9,172,362.7,172.1,362.4,172.1z
		 M362.8,170.5c0.2,0,0.4,0,0.5-0.1c0.1-0.1,0.3-0.2,0.5-0.4v-2.6c-0.2-0.1-0.3-0.2-0.5-0.3s-0.3-0.1-0.5-0.1
		c-0.3,0-0.5,0.1-0.7,0.4c-0.2,0.3-0.3,0.7-0.3,1.4c0,0.6,0.1,1.1,0.3,1.4C362.2,170.4,362.5,170.5,362.8,170.5z"/>
	<path class="st2" d="M369,172.1c-0.3,0-0.5,0-0.7-0.1s-0.4-0.2-0.6-0.4c-0.2-0.2-0.3-0.4-0.4-0.6c-0.1-0.2-0.1-0.5-0.1-0.7
		c0-0.6,0.3-1.2,0.9-1.6c0.5-0.4,1.5-0.6,2.8-0.7c0-0.3-0.1-0.5-0.2-0.6c-0.1-0.2-0.4-0.2-0.7-0.2c-0.3,0-0.5,0-0.9,0.1
		s-0.5,0.2-0.9,0.4l-0.6-1.3c0.4-0.2,0.9-0.4,1.3-0.6s1-0.2,1.4-0.2c0.9,0,1.5,0.2,1.9,0.7c0.4,0.5,0.6,1.2,0.6,2.1v3.6h-1.5
		l-0.1-0.6l0,0c-0.3,0.2-0.5,0.4-0.9,0.5C369.8,172,369.4,172.1,369,172.1z M369.7,170.6c0.2,0,0.4,0,0.5-0.1s0.3-0.2,0.5-0.4V169
		c-0.6,0.1-1.2,0.2-1.4,0.4c-0.2,0.2-0.4,0.4-0.4,0.6c0,0.2,0.1,0.3,0.2,0.4C369.2,170.6,369.4,170.6,369.7,170.6z"/>
	<path class="st2" d="M376.5,172.1c-0.4,0-0.7-0.1-1.1-0.2c-0.3-0.1-0.6-0.4-0.9-0.6c-0.2-0.3-0.4-0.6-0.5-1.1
		c-0.1-0.4-0.2-0.9-0.2-1.4c0-0.5,0.1-1,0.2-1.4c0.1-0.4,0.3-0.7,0.6-1.1c0.2-0.3,0.5-0.5,0.9-0.6c0.3-0.1,0.6-0.2,1-0.2
		s0.6,0.1,0.9,0.2c0.2,0.1,0.4,0.3,0.6,0.5l-0.1-1v-2.1h1.9v9h-1.5l-0.1-0.6l0,0c-0.2,0.2-0.5,0.4-0.7,0.5
		C377,172,376.8,172.1,376.5,172.1z M376.9,170.5c0.2,0,0.4,0,0.5-0.1c0.1-0.1,0.3-0.2,0.5-0.4v-2.6c-0.2-0.1-0.3-0.2-0.5-0.3
		s-0.3-0.1-0.5-0.1c-0.3,0-0.5,0.1-0.7,0.4c-0.2,0.3-0.3,0.7-0.3,1.4c0,0.6,0.1,1.1,0.3,1.4C376.3,170.4,376.6,170.5,376.9,170.5z"
		/>
</g>
<g>
	<path class="st2" d="M289.9,226.3h-80.5c-1.5,0-2.7,1.2-2.7,2.7s1.2,2.7,2.7,2.7h80.5c1.5,0,2.7-1.2,2.7-2.7
		C292.5,227.5,291.3,226.3,289.9,226.3L289.9,226.3z"/>
</g>
<g>
	<path class="st2" d="M209.4,217.3l-2.6-8.3h2l1,3.8c0.1,0.4,0.2,0.9,0.3,1.4c0.1,0.4,0.2,0.9,0.3,1.4l0,0c0.1-0.4,0.2-1,0.3-1.4
		c0.1-0.4,0.2-0.9,0.3-1.4l1-3.8h1.9l-2.6,8.3H209.4z"/>
	<path class="st2" d="M217.5,217.4c-0.4,0-0.9-0.1-1.3-0.2c-0.4-0.1-0.7-0.3-1.1-0.6c-0.3-0.3-0.5-0.6-0.6-1.1
		c-0.2-0.4-0.2-0.9-0.2-1.4c0-0.5,0.1-1,0.2-1.4c0.2-0.4,0.4-0.7,0.6-1.1c0.3-0.3,0.6-0.5,1-0.6s0.7-0.2,1.1-0.2
		c0.4,0,0.9,0.1,1.2,0.2c0.3,0.1,0.6,0.3,0.9,0.6s0.4,0.6,0.5,1c0.1,0.3,0.2,0.7,0.2,1.2c0,0.2,0,0.3,0,0.5c0,0.1,0,0.3,0,0.3h-3.8
		c0.1,0.4,0.3,0.9,0.5,1.1s0.6,0.3,1.1,0.3c0.4,0,1-0.1,1.4-0.4l0.6,1.2c-0.3,0.2-0.6,0.4-1.1,0.5
		C218.2,217.4,217.8,217.4,217.5,217.4z M216,213.4h2.2c0-0.3-0.1-0.6-0.2-0.9c-0.1-0.2-0.4-0.3-0.9-0.3c-0.3,0-0.5,0.1-0.7,0.3
		C216.2,212.7,216.1,213,216,213.4z"/>
	<path class="st2" d="M221.2,217.3v-6.4h1.5l0.1,0.9l0,0c0.3-0.2,0.5-0.5,0.9-0.6c0.3-0.2,0.7-0.3,1.2-0.3c0.6,0,1.2,0.2,1.5,0.6
		c0.3,0.4,0.4,1.1,0.4,1.9v3.9h-1.9v-3.7c0-0.4-0.1-0.7-0.2-1c-0.1-0.2-0.3-0.2-0.6-0.2c-0.2,0-0.4,0.1-0.6,0.2
		c-0.2,0.1-0.3,0.2-0.5,0.4v4.3H221.2z"/>
	<path class="st2" d="M231.4,217.4c-0.4,0-0.9-0.1-1.3-0.2c-0.4-0.1-0.7-0.3-1-0.6c-0.3-0.3-0.5-0.6-0.6-1.1
		c-0.2-0.4-0.2-0.9-0.2-1.4c0-0.5,0.1-1,0.3-1.4c0.2-0.4,0.4-0.7,0.7-1.1s0.6-0.5,1.1-0.6c0.4-0.1,0.9-0.2,1.3-0.2s0.7,0.1,1.1,0.2
		c0.3,0.1,0.5,0.3,0.9,0.5l-0.9,1.2c-0.3-0.2-0.5-0.3-0.9-0.3c-0.4,0-0.9,0.2-1.1,0.5s-0.4,0.7-0.4,1.3c0,0.5,0.1,1,0.4,1.3
		c0.3,0.3,0.6,0.5,1.1,0.5c0.2,0,0.4,0,0.6-0.1s0.4-0.2,0.5-0.3l0.7,1.3c-0.3,0.3-0.6,0.4-1.1,0.5
		C232,217.4,231.7,217.4,231.4,217.4z"/>
	<path class="st2" d="M235.5,210c-0.3,0-0.5-0.1-0.7-0.3c-0.2-0.2-0.3-0.4-0.3-0.7c0-0.3,0.1-0.5,0.3-0.7c0.2-0.2,0.4-0.3,0.7-0.3
		s0.5,0.1,0.7,0.3c0.2,0.2,0.3,0.4,0.3,0.7c0,0.3-0.1,0.5-0.3,0.7C236,209.9,235.8,210,235.5,210z M234.6,217.3v-6.4h1.9v6.4H234.6z
		"/>
	<path class="st2" d="M238.1,217.3v-6.4h1.5l0.1,0.9l0,0c0.2-0.2,0.5-0.5,0.9-0.6s0.6-0.3,1.1-0.3s0.9,0.1,1.1,0.3s0.5,0.4,0.6,0.7
		c0.3-0.3,0.5-0.5,0.9-0.7s0.6-0.3,1.1-0.3c0.6,0,1.2,0.2,1.5,0.6c0.3,0.4,0.5,1.1,0.5,1.9v3.9h-1.9v-3.7c0-0.4-0.1-0.7-0.2-1
		c-0.1-0.2-0.3-0.2-0.6-0.2s-0.6,0.2-1.1,0.6v4.3h-1.9v-3.7c0-0.4-0.1-0.7-0.2-1c-0.1-0.2-0.3-0.2-0.6-0.2s-0.6,0.2-1.1,0.6v4.3
		L238.1,217.3L238.1,217.3z"/>
	<path class="st2" d="M250,210c-0.3,0-0.5-0.1-0.7-0.3s-0.3-0.4-0.3-0.7c0-0.3,0.1-0.5,0.3-0.7s0.4-0.3,0.7-0.3
		c0.3,0,0.5,0.1,0.7,0.3c0.2,0.2,0.3,0.4,0.3,0.7c0,0.3-0.1,0.5-0.3,0.7C250.6,209.9,250.3,210,250,210z M249.1,217.3v-6.4h1.9v6.4
		H249.1z"/>
	<path class="st2" d="M255.5,217.4c-0.4,0-0.9-0.1-1.3-0.2s-0.7-0.3-1.1-0.6c-0.3-0.3-0.5-0.6-0.6-1.1c-0.2-0.4-0.2-0.9-0.2-1.4
		c0-0.5,0.1-1,0.2-1.4c0.2-0.4,0.4-0.7,0.6-1.1c0.3-0.3,0.6-0.5,1-0.6c0.3-0.1,0.7-0.2,1.1-0.2c0.4,0,0.9,0.1,1.2,0.2
		c0.3,0.1,0.6,0.3,0.9,0.6c0.2,0.3,0.4,0.6,0.5,1c0.1,0.3,0.2,0.7,0.2,1.2c0,0.2,0,0.3,0,0.5c0,0.1,0,0.3,0,0.3H254
		c0.1,0.4,0.3,0.9,0.5,1.1c0.2,0.2,0.6,0.3,1.1,0.3s1-0.1,1.4-0.4l0.6,1.2c-0.3,0.2-0.6,0.4-1.1,0.5S255.8,217.4,255.5,217.4z
		 M254,213.4h2.2c0-0.3-0.1-0.6-0.2-0.9c-0.1-0.2-0.4-0.3-0.9-0.3c-0.3,0-0.5,0.1-0.7,0.3C254.2,212.7,254.1,213,254,213.4z"/>
	<path class="st2" d="M259.2,217.3v-6.4h1.5l0.1,0.9l0,0c0.3-0.2,0.5-0.5,0.9-0.6c0.3-0.2,0.7-0.3,1.2-0.3c0.6,0,1.2,0.2,1.5,0.6
		c0.3,0.4,0.4,1.1,0.4,1.9v3.9h-1.9v-3.7c0-0.4-0.1-0.7-0.2-1c-0.1-0.2-0.3-0.2-0.6-0.2c-0.2,0-0.4,0.1-0.6,0.2
		c-0.2,0.1-0.3,0.2-0.5,0.4v4.3H259.2z"/>
	<path class="st2" d="M269,217.4c-0.4,0-0.7-0.1-1-0.2c-0.3-0.1-0.5-0.3-0.6-0.5s-0.3-0.4-0.4-0.7s-0.1-0.6-0.1-1v-2.6H266V211
		l1-0.1l0.2-1.7h1.6v1.7h1.5v1.5h-1.5v2.6c0,0.3,0.1,0.6,0.2,0.7c0.1,0.1,0.3,0.2,0.6,0.2c0.1,0,0.2,0,0.3,0s0.2-0.1,0.3-0.1
		l0.3,1.4c-0.2,0-0.3,0.1-0.6,0.1C269.6,217.4,269.2,217.4,269,217.4z"/>
	<path class="st2" d="M273.9,217.4c-0.4,0-0.7-0.1-1.2-0.2c-0.4-0.1-0.7-0.3-1-0.6c-0.3-0.3-0.5-0.6-0.6-1.1
		c-0.2-0.4-0.2-0.9-0.2-1.4c0-0.5,0.1-1,0.2-1.4c0.2-0.4,0.4-0.7,0.6-1.1c0.3-0.3,0.6-0.5,1-0.6c0.4-0.1,0.7-0.2,1.2-0.2
		c0.4,0,0.7,0.1,1.2,0.2c0.3,0.1,0.7,0.3,1,0.6c0.3,0.3,0.5,0.6,0.6,1.1c0.2,0.4,0.2,0.9,0.2,1.4c0,0.5-0.1,1-0.2,1.4
		c-0.2,0.4-0.4,0.7-0.6,1.1c-0.3,0.3-0.6,0.5-1,0.6S274.4,217.4,273.9,217.4z M273.9,215.9c0.4,0,0.6-0.2,0.9-0.5
		c0.2-0.3,0.3-0.7,0.3-1.3c0-0.5-0.1-1-0.3-1.3c-0.2-0.3-0.5-0.5-0.9-0.5c-0.4,0-0.6,0.2-0.9,0.5c-0.2,0.3-0.3,0.7-0.3,1.3
		c0,0.5,0.1,1,0.3,1.3C273.3,215.7,273.5,215.9,273.9,215.9z"/>
</g>
<g>
	<path class="st2" d="M209.5,255.3v-6.7h-2.2v-1.6h6.5v1.6h-2.2v6.7H209.5z"/>
	<path class="st2" d="M214.3,255.3v-6.4h1.5l0.1,1.1l0,0c0.2-0.4,0.5-0.7,0.9-1s0.6-0.3,1-0.3c0.2,0,0.3,0,0.4,0
		c0.1,0,0.2,0,0.3,0.1l-0.3,1.6c-0.1,0-0.2-0.1-0.3-0.1s-0.2,0-0.3,0c-0.2,0-0.5,0.1-0.7,0.2c-0.2,0.2-0.4,0.4-0.6,1v3.7h-1.8V255.3
		z"/>
	<path class="st2" d="M220.7,255.5c-0.3,0-0.5,0-0.7-0.1c-0.2-0.1-0.4-0.2-0.6-0.4s-0.3-0.4-0.4-0.6c-0.1-0.2-0.1-0.5-0.1-0.7
		c0-0.6,0.3-1.2,0.9-1.6c0.5-0.4,1.5-0.6,2.8-0.7c0-0.3-0.1-0.5-0.2-0.6c-0.1-0.2-0.4-0.2-0.7-0.2c-0.3,0-0.5,0-0.9,0.1
		s-0.5,0.2-0.9,0.4l-0.6-1.3c0.4-0.2,0.9-0.4,1.3-0.6c0.4-0.1,1-0.2,1.4-0.2c0.9,0,1.5,0.2,1.9,0.7c0.4,0.4,0.6,1.2,0.6,2.1v3.6
		h-1.5l-0.1-0.6l0,0c-0.3,0.2-0.5,0.4-0.9,0.5C221.3,255.4,221,255.5,220.7,255.5z M221.3,254c0.2,0,0.4,0,0.5-0.1s0.3-0.2,0.5-0.4
		v-1.1c-0.6,0.1-1.2,0.2-1.4,0.4c-0.2,0.2-0.4,0.4-0.4,0.6c0,0.2,0.1,0.3,0.2,0.4S221.1,254,221.3,254z M221.9,248l-1-1l1.9-2.3
		l1.3,1.3L221.9,248z"/>
	<path class="st2" d="M225.8,255.3v-6.4h1.5l0.1,0.9l0,0c0.2-0.2,0.5-0.5,0.9-0.6c0.3-0.2,0.6-0.3,1.1-0.3s0.9,0.1,1.1,0.3
		s0.5,0.4,0.6,0.7c0.3-0.3,0.5-0.5,0.9-0.7s0.6-0.3,1.1-0.3c0.6,0,1.2,0.2,1.5,0.6c0.3,0.4,0.5,1.1,0.5,1.9v3.9h-1.9v-3.7
		c0-0.4-0.1-0.7-0.2-1s-0.3-0.2-0.6-0.2c-0.3,0-0.6,0.2-1.1,0.6v4.3h-1.9v-3.7c0-0.4-0.1-0.7-0.2-1c-0.1-0.2-0.3-0.2-0.6-0.2
		c-0.3,0-0.6,0.2-1.1,0.6v4.3L225.8,255.3L225.8,255.3z"/>
	<path class="st2" d="M237.6,248c-0.3,0-0.5-0.1-0.7-0.3s-0.3-0.4-0.3-0.7c0-0.3,0.1-0.5,0.3-0.7c0.2-0.2,0.4-0.3,0.7-0.3
		s0.5,0.1,0.7,0.3c0.2,0.2,0.3,0.4,0.3,0.7c0,0.3-0.1,0.5-0.3,0.7C238.3,247.9,238,248,237.6,248z M236.8,255.3v-6.4h1.9v6.4H236.8z
		"/>
	<path class="st2" d="M242.8,255.5c-0.4,0-0.7-0.1-1-0.2c-0.3-0.1-0.5-0.3-0.6-0.5c-0.1-0.2-0.3-0.4-0.4-0.7c-0.1-0.3-0.1-0.6-0.1-1
		v-2.6h-0.9v-1.4l1-0.1l0.2-1.7h1.6v1.7h1.5v1.5h-1.5v2.6c0,0.3,0.1,0.6,0.2,0.7c0.1,0.1,0.3,0.2,0.6,0.2c0.1,0,0.2,0,0.3,0
		s0.2-0.1,0.3-0.1l0.3,1.4c-0.2,0-0.3,0.1-0.6,0.1C243.3,255.4,243.1,255.5,242.8,255.5z"/>
	<path class="st2" d="M247.8,255.5c-0.4,0-0.9-0.1-1.3-0.2s-0.7-0.3-1.1-0.6c-0.3-0.3-0.5-0.6-0.6-1.1c-0.2-0.4-0.2-0.9-0.2-1.4
		c0-0.5,0.1-1,0.2-1.4c0.2-0.4,0.4-0.7,0.6-1.1c0.3-0.3,0.6-0.5,1-0.6c0.3-0.1,0.7-0.2,1.1-0.2c0.4,0,0.9,0.1,1.2,0.2
		c0.3,0.1,0.6,0.3,0.9,0.6c0.2,0.3,0.4,0.6,0.5,1s0.2,0.7,0.2,1.2c0,0.2,0,0.3,0,0.5c0,0.1,0,0.3,0,0.3h-3.8
		c0.1,0.4,0.3,0.9,0.5,1.1s0.6,0.3,1.1,0.3c0.4,0,1-0.1,1.4-0.4l0.6,1.2c-0.3,0.2-0.6,0.4-1.1,0.5
		C248.5,255.5,248.2,255.5,247.8,255.5z M246.4,251.4h2.2c0-0.3-0.1-0.6-0.2-0.9c-0.1-0.2-0.4-0.3-0.9-0.3c-0.3,0-0.5,0.1-0.7,0.3
		C246.6,250.7,246.5,251,246.4,251.4z"/>
	<path class="st2" d="M254.3,255.3v-8.3h1.9l2.1,4.2l0.9,1.8l0,0c0-0.4-0.1-1-0.1-1.5c-0.1-0.5-0.1-1.1-0.1-1.6v-3h1.8v8.3h-1.9
		l-2.1-4.2l-0.9-1.8l0,0c0,0.4,0.1,1,0.1,1.5c0.1,0.5,0.1,1.1,0.1,1.5v3h-1.8V255.3z"/>
	<path class="st2" d="M264.2,250.6c-0.3,0-0.5,0-0.7-0.1c-0.2-0.1-0.4-0.2-0.6-0.4c-0.2-0.2-0.3-0.4-0.4-0.6c-0.1-0.3-0.2-0.5-0.2-1
		c0-0.4,0.1-0.6,0.2-1s0.3-0.5,0.4-0.7c0.2-0.2,0.4-0.3,0.6-0.4s0.5-0.1,0.7-0.1c0.3,0,0.5,0,0.7,0.1c0.2,0.1,0.4,0.2,0.6,0.4
		s0.3,0.4,0.4,0.7c0.1,0.3,0.2,0.5,0.2,1c0,0.4-0.1,0.6-0.2,1c-0.1,0.3-0.3,0.5-0.4,0.6c-0.1,0.1-0.4,0.3-0.6,0.4
		S264.5,250.6,264.2,250.6z M264.2,249.5c0.2,0,0.4-0.1,0.5-0.3s0.2-0.5,0.2-0.9c0-0.3-0.1-0.6-0.2-0.9s-0.3-0.3-0.5-0.3
		c-0.2,0-0.4,0.1-0.5,0.3s-0.2,0.5-0.2,0.9c0,0.3,0.1,0.6,0.2,0.9C263.8,249.4,264,249.5,264.2,249.5z"/>
	<path class="st2" d="M269.3,257.3l2.6-11.1h1.3l-2.6,11.1H269.3z"/>
	<path class="st2" d="M280.4,255.5c-0.5,0-1.1-0.1-1.5-0.3c-0.4-0.2-0.9-0.5-1.2-0.9c-0.3-0.4-0.6-0.9-0.7-1.4
		c-0.2-0.5-0.3-1.2-0.3-1.8c0-0.6,0.1-1.3,0.3-1.8c0.2-0.5,0.4-1,0.7-1.4c0.3-0.3,0.7-0.6,1.2-0.9c0.4-0.2,1-0.3,1.5-0.3
		s1.1,0.1,1.5,0.3c0.4,0.2,0.9,0.4,1.2,0.9c0.3,0.3,0.6,0.9,0.7,1.4c0.2,0.5,0.3,1.2,0.3,1.8c0,0.6-0.1,1.3-0.3,1.8
		c-0.2,0.5-0.4,1-0.7,1.4c-0.3,0.4-0.7,0.6-1.2,0.9C281.5,255.4,281.1,255.5,280.4,255.5z M280.4,253.8c0.5,0,1.1-0.2,1.4-0.7
		c0.3-0.5,0.5-1.2,0.5-2c0-0.9-0.2-1.5-0.5-1.9c-0.3-0.4-0.7-0.7-1.4-0.7c-0.5,0-1.1,0.2-1.4,0.7c-0.3,0.4-0.5,1.2-0.5,1.9
		c0,0.9,0.2,1.5,0.5,2C279.5,253.5,279.9,253.8,280.4,253.8z"/>
	<path class="st2" d="M286,255.3v-4.9h-0.9V249l0.9-0.1v-0.2c0-0.3,0-0.6,0.1-1c0.1-0.3,0.2-0.5,0.4-0.7c0.2-0.2,0.4-0.4,0.7-0.5
		s0.6-0.2,1.1-0.2c0.2,0,0.5,0,0.7,0.1s0.4,0.1,0.5,0.1l-0.3,1.4c-0.2-0.1-0.4-0.1-0.6-0.1s-0.4,0.1-0.5,0.2
		c-0.1,0.1-0.2,0.3-0.2,0.7v0.4h1.2v1.5h-1.2v4.9H286V255.3z"/>
	<path class="st2" d="M290.4,255.5c-0.3,0-0.6-0.1-0.9-0.3s-0.3-0.5-0.3-0.9s0.1-0.6,0.3-0.9c0.2-0.2,0.5-0.3,0.9-0.3
		s0.6,0.1,0.9,0.3c0.2,0.2,0.3,0.5,0.3,0.9s-0.1,0.6-0.3,0.9C290.9,255.4,290.7,255.5,290.4,255.5z"/>
	<path class="st2" d="M208.8,270.8c-0.3,0-0.6-0.1-0.9-0.3c-0.2-0.2-0.3-0.5-0.3-0.9c0-0.3,0.1-0.6,0.3-0.9c0.2-0.2,0.5-0.3,0.9-0.3
		c0.3,0,0.6,0.1,0.9,0.3c0.2,0.2,0.3,0.5,0.3,0.9c0,0.3-0.1,0.6-0.3,0.9C209.5,270.7,209.2,270.8,208.8,270.8z"/>
</g>
<g>
	<path class="st2" d="M209.8,270.1c-0.7,0-1.4-0.3-1.8-1c-0.4-0.6-0.6-1.6-0.6-2.9s0.2-2.2,0.6-2.9c0.4-0.6,1-1,1.8-1
		c0.7,0,1.4,0.3,1.8,1c0.4,0.6,0.6,1.6,0.6,2.9s-0.2,2.2-0.6,2.9C211.2,269.8,210.5,270.1,209.8,270.1z M209.8,269.3
		c0.2,0,0.4-0.1,0.6-0.2c0.2-0.1,0.3-0.3,0.4-0.5c0.1-0.2,0.2-0.5,0.3-1c0.1-0.4,0.1-0.9,0.1-1.4c0-0.5,0-1.1-0.1-1.4
		c-0.1-0.4-0.2-0.7-0.3-1s-0.3-0.4-0.4-0.5s-0.4-0.2-0.6-0.2c-0.2,0-0.4,0.1-0.6,0.2c-0.2,0.1-0.3,0.3-0.4,0.5
		c-0.1,0.2-0.2,0.5-0.3,1c-0.1,0.4-0.1,0.9-0.1,1.4c0,1.1,0.1,1.9,0.4,2.3C209,269,209.4,269.3,209.8,269.3z"/>
	<path class="st2" d="M215.7,270.1c-0.7,0-1.4-0.3-1.8-1c-0.4-0.6-0.6-1.6-0.6-2.9s0.2-2.2,0.6-2.9c0.4-0.6,1-1,1.8-1
		c0.7,0,1.4,0.3,1.8,1c0.4,0.6,0.6,1.6,0.6,2.9s-0.2,2.2-0.6,2.9C217.1,269.8,216.4,270.1,215.7,270.1z M215.7,269.3
		c0.2,0,0.4-0.1,0.6-0.2c0.2-0.1,0.3-0.3,0.4-0.5c0.1-0.2,0.2-0.5,0.3-1c0.1-0.4,0.1-0.9,0.1-1.4c0-0.5,0-1.1-0.1-1.4
		c-0.1-0.4-0.2-0.7-0.3-1s-0.3-0.4-0.4-0.5c-0.1-0.1-0.4-0.2-0.6-0.2c-0.2,0-0.4,0.1-0.6,0.2c-0.2,0.1-0.3,0.3-0.4,0.5
		c-0.1,0.2-0.2,0.5-0.3,1c-0.1,0.4-0.1,0.9-0.1,1.4c0,1.1,0.1,1.9,0.4,2.3C214.9,269,215.2,269.3,215.7,269.3z"/>
	<path class="st2" d="M219.5,270v-0.7h1.7v-5.5h-1.4V263c0.3-0.1,0.6-0.1,0.9-0.2s0.5-0.2,0.6-0.3h0.7v6.7h1.6v0.7H219.5z"/>
	<path class="st2" d="M225.3,270v-0.7h1.7v-5.5h-1.4V263c0.3-0.1,0.6-0.1,0.9-0.2c0.2-0.1,0.5-0.2,0.6-0.3h0.7v6.7h1.6v0.7H225.3z"
		/>
	<path class="st2" d="M230.7,270v-0.5c0.5-0.5,1.1-1.1,1.5-1.5c0.4-0.4,0.9-0.9,1.1-1.3c0.3-0.4,0.5-0.7,0.6-1.1
		c0.1-0.3,0.2-0.6,0.2-1c0-0.4-0.1-0.7-0.3-1.1c-0.2-0.3-0.6-0.4-1.1-0.4c-0.3,0-0.6,0.1-0.9,0.2c-0.2,0.2-0.5,0.4-0.7,0.6l-0.5-0.5
		c0.3-0.3,0.6-0.6,1-0.9c0.3-0.2,0.7-0.3,1.3-0.3c0.7,0,1.3,0.2,1.6,0.6s0.6,1,0.6,1.6c0,0.3-0.1,0.7-0.2,1.1s-0.3,0.7-0.6,1.1
		c-0.3,0.4-0.6,0.7-1,1.2c-0.3,0.4-0.7,0.9-1.3,1.3c0.2,0,0.4,0,0.6,0c0.2,0,0.4,0,0.6,0h2.1v0.9L230.7,270L230.7,270z"/>
	<path class="st2" d="M236.5,270v-0.5c0.5-0.5,1.1-1.1,1.5-1.5s0.9-0.9,1.1-1.3s0.5-0.7,0.6-1.1c0.1-0.3,0.2-0.6,0.2-1
		c0-0.4-0.1-0.7-0.3-1.1c-0.2-0.3-0.6-0.4-1.1-0.4c-0.3,0-0.6,0.1-0.9,0.2c-0.2,0.1-0.5,0.4-0.7,0.6l-0.5-0.5c0.3-0.3,0.6-0.6,1-0.9
		c0.3-0.2,0.7-0.3,1.3-0.3c0.7,0,1.3,0.2,1.6,0.6s0.6,1,0.6,1.6c0,0.3-0.1,0.7-0.2,1.1c-0.1,0.3-0.3,0.7-0.6,1.1
		c-0.3,0.4-0.6,0.7-1,1.2c-0.3,0.4-0.7,0.9-1.2,1.3c0.2,0,0.4,0,0.6,0c0.2,0,0.4,0,0.6,0h2.1v0.9L236.5,270L236.5,270z"/>
	<path class="st2" d="M244.7,270.1c-0.3,0-0.5,0-0.9-0.1c-0.2-0.1-0.4-0.1-0.6-0.2c-0.2-0.1-0.4-0.2-0.5-0.3s-0.3-0.2-0.4-0.4
		l0.5-0.6c0.2,0.2,0.5,0.4,0.7,0.6c0.3,0.2,0.6,0.3,1.2,0.3c0.4,0,0.9-0.1,1.1-0.3c0.3-0.2,0.4-0.5,0.4-1c0-0.2,0-0.4-0.1-0.6
		c-0.1-0.2-0.2-0.3-0.4-0.4s-0.4-0.2-0.7-0.3c-0.3-0.1-0.6-0.1-1.2-0.1v-0.9c0.4,0,0.7,0,1-0.1c0.2-0.1,0.5-0.2,0.6-0.3
		c0.2-0.1,0.3-0.3,0.3-0.4c0.1-0.2,0.1-0.3,0.1-0.5c0-0.3-0.1-0.6-0.3-0.9c-0.2-0.2-0.5-0.3-1-0.3c-0.3,0-0.6,0.1-0.9,0.2
		c-0.2,0.1-0.5,0.3-0.7,0.5l-0.5-0.6c0.3-0.3,0.6-0.5,1-0.6c0.3-0.1,0.7-0.2,1.2-0.2c0.3,0,0.6,0,0.9,0.1c0.3,0.1,0.5,0.2,0.7,0.3
		c0.2,0.2,0.3,0.3,0.4,0.6c0.1,0.3,0.2,0.5,0.2,0.9c0,0.4-0.1,0.9-0.4,1.1c-0.2,0.3-0.5,0.5-1,0.6l0,0c0.2,0.1,0.4,0.1,0.6,0.2
		c0.2,0.1,0.3,0.2,0.5,0.4c0.1,0.2,0.2,0.3,0.3,0.5c0.1,0.2,0.1,0.4,0.1,0.7c0,0.3-0.1,0.6-0.2,0.9c-0.1,0.3-0.3,0.5-0.5,0.6
		c-0.2,0.2-0.5,0.3-0.7,0.4C245.3,270.1,245,270.1,244.7,270.1z"/>
	<path class="st2" d="M250.5,270.1c-0.3,0-0.5,0-0.9-0.1c-0.2-0.1-0.4-0.1-0.6-0.2c-0.2-0.1-0.4-0.2-0.5-0.3
		c-0.1-0.1-0.3-0.2-0.4-0.4l0.5-0.6c0.2,0.2,0.5,0.4,0.7,0.6c0.3,0.2,0.6,0.3,1.2,0.3c0.4,0,0.9-0.1,1.1-0.3c0.3-0.2,0.4-0.5,0.4-1
		c0-0.2,0-0.4-0.1-0.6c-0.1-0.2-0.2-0.3-0.4-0.4s-0.4-0.2-0.7-0.3c-0.3-0.1-0.6-0.1-1.2-0.1v-0.9c0.4,0,0.7,0,1-0.1s0.5-0.2,0.6-0.3
		c0.2-0.1,0.3-0.3,0.3-0.4c0.1-0.2,0.1-0.3,0.1-0.5c0-0.3-0.1-0.6-0.3-0.9c-0.2-0.2-0.5-0.3-1-0.3c-0.3,0-0.6,0.1-0.9,0.2
		s-0.5,0.3-0.7,0.5l-0.5-0.6c0.3-0.3,0.6-0.5,1-0.6s0.7-0.2,1.2-0.2c0.3,0,0.6,0,0.9,0.1c0.3,0.1,0.5,0.2,0.7,0.3
		c0.2,0.2,0.3,0.3,0.4,0.6c0.1,0.3,0.2,0.5,0.2,0.9c0,0.4-0.1,0.9-0.4,1.1c-0.2,0.3-0.5,0.5-1,0.6l0,0c0.2,0.1,0.4,0.1,0.6,0.2
		c0.2,0.1,0.3,0.2,0.5,0.4c0.1,0.2,0.2,0.3,0.3,0.5c0.1,0.2,0.1,0.4,0.1,0.7c0,0.3-0.1,0.6-0.2,0.9c-0.1,0.3-0.3,0.5-0.5,0.6
		c-0.2,0.2-0.5,0.3-0.7,0.4C251.2,270.1,250.9,270.1,250.5,270.1z"/>
	<path class="st2" d="M257.2,270v-2.1h-3.4v-0.6l3.2-4.8h1.1v4.7h1.1v0.7H258v2h-0.9V270z M254.8,267.1h2.3V265c0-0.2,0-0.4,0-0.7
		c0-0.3,0-0.5,0-0.7l0,0c-0.1,0.2-0.2,0.3-0.3,0.5s-0.2,0.3-0.3,0.5L254.8,267.1z"/>
	<path class="st2" d="M262.9,270v-2.1h-3.4v-0.6l3.2-4.8h1.1v4.7h1.1v0.7h-1.1v2h-0.9V270z M260.6,267.1h2.3V265c0-0.2,0-0.4,0-0.7
		c0-0.3,0-0.5,0-0.7l0,0c-0.1,0.2-0.2,0.3-0.3,0.5c-0.1,0.2-0.2,0.3-0.3,0.5L260.6,267.1z"/>
	<path class="st2" d="M268,270.1c-0.3,0-0.5,0-0.9-0.1c-0.2-0.1-0.4-0.1-0.6-0.2c-0.2-0.1-0.4-0.2-0.5-0.3c-0.2-0.1-0.3-0.2-0.4-0.4
		l0.4-0.6c0.2,0.2,0.4,0.4,0.7,0.6c0.3,0.2,0.6,0.2,1.1,0.2c0.2,0,0.4,0,0.6-0.1c0.2-0.1,0.3-0.2,0.5-0.3c0.1-0.1,0.2-0.3,0.3-0.5
		c0.1-0.2,0.1-0.4,0.1-0.7c0-0.5-0.1-1-0.4-1.2s-0.6-0.4-1.2-0.4c-0.2,0-0.4,0-0.6,0.1s-0.4,0.2-0.6,0.3l-0.5-0.3l0.2-3.6h3.7v0.9
		H267l-0.2,2.2c0.2-0.1,0.3-0.2,0.5-0.2c0.2-0.1,0.4-0.1,0.6-0.1c0.3,0,0.6,0,0.9,0.1c0.3,0.1,0.5,0.2,0.7,0.4
		c0.2,0.2,0.4,0.4,0.5,0.7c0.1,0.3,0.2,0.6,0.2,1.1s-0.1,0.7-0.2,1.1c-0.1,0.3-0.3,0.5-0.5,0.7c-0.2,0.2-0.5,0.4-0.9,0.5
		C268.6,270.1,268.3,270.1,268,270.1z"/>
</g>
<g>
	<path class="st2" d="M73.4,38.1v-6.9h2.5c0.3,0,0.7,0,1.1,0.1c0.3,0.1,0.6,0.2,0.9,0.3c0.2,0.2,0.4,0.4,0.5,0.6
		c0.1,0.3,0.2,0.6,0.2,1.1c0,0.5-0.1,1-0.3,1.3s-0.5,0.5-0.9,0.7l1.6,2.8h-1.7l-1.5-2.6h-0.9V38h-1.5V38.1z M74.9,34.4h0.9
		c0.4,0,0.7-0.1,1-0.2c0.2-0.2,0.3-0.4,0.3-0.7c0-0.3-0.1-0.5-0.3-0.7c-0.2-0.2-0.5-0.2-1-0.2h-0.9V34.4z"/>
	<path class="st2" d="M79.9,38.1v-6.9h4.3v1.3h-2.8v1.4h2.3v1.4h-2.3v1.6h2.9v1.3H79.9z"/>
	<path class="st2" d="M85.7,38.1v-6.9H88c0.4,0,0.7,0,1.1,0.1c0.3,0.1,0.6,0.2,0.9,0.3c0.2,0.2,0.4,0.4,0.5,0.6
		c0.1,0.3,0.2,0.6,0.2,1.1c0,0.4-0.1,0.7-0.2,1.1s-0.3,0.5-0.5,0.7c-0.2,0.2-0.5,0.3-0.9,0.4c-0.3,0.1-0.6,0.1-1.1,0.1h-0.9V38h-1.5
		V38.1z M87.2,34.5h0.7c0.9,0,1.3-0.3,1.3-1.1c0-0.3-0.1-0.6-0.3-0.7c-0.2-0.1-0.5-0.2-1-0.2h-0.7C87.2,32.4,87.2,34.5,87.2,34.5z"
		/>
	<path class="st2" d="M94.7,38.2c-0.9,0-1.6-0.2-2-0.7c-0.4-0.5-0.7-1.4-0.7-2.6v-3.7h1.6V35c0,0.6,0.1,1.2,0.3,1.4
		c0.2,0.2,0.5,0.4,0.9,0.4c0.4,0,0.6-0.1,0.9-0.4c0.2-0.3,0.3-0.7,0.3-1.4v-3.8h1.5v3.7c0,1.2-0.2,2-0.6,2.6
		C96.3,37.9,95.6,38.2,94.7,38.2z M94.5,30.8l-0.7-0.7l1.8-1.5l0.9,1L94.5,30.8z"/>
	<path class="st2" d="M99,38.1v-6.9h2.3c0.3,0,0.6,0,1,0.1c0.3,0,0.5,0.1,0.9,0.3c0.3,0.2,0.4,0.3,0.5,0.5c0.1,0.2,0.2,0.5,0.2,0.9
		c0,0.1,0,0.3-0.1,0.4c0,0.1-0.1,0.3-0.2,0.4c-0.1,0.1-0.1,0.2-0.2,0.3c-0.1,0.1-0.2,0.2-0.4,0.2l0,0c0.2,0,0.3,0.1,0.5,0.2
		c0.2,0.1,0.3,0.2,0.4,0.3c0.1,0.1,0.2,0.3,0.2,0.4s0.1,0.4,0.1,0.6c0,0.3-0.1,0.6-0.2,1c-0.1,0.2-0.3,0.4-0.5,0.6
		c-0.2,0.2-0.5,0.3-0.9,0.3c-0.3,0-0.6,0.1-1.1,0.1H99V38.1z M100.5,33.9h0.7c0.4,0,0.6-0.1,0.9-0.2c0.2-0.1,0.2-0.3,0.2-0.6
		s-0.1-0.4-0.2-0.5c-0.2-0.1-0.4-0.2-0.9-0.2h-0.7V33.9z M100.5,36.8h0.9c0.9,0,1.3-0.3,1.3-1c0-0.3-0.1-0.5-0.3-0.6
		c-0.2-0.1-0.5-0.2-1-0.2h-0.9C100.5,35,100.5,36.8,100.5,36.8z"/>
	<path class="st2" d="M105.4,38.1v-6.9h1.6v5.5h2.8V38h-4.4V38.1z"/>
	<path class="st2" d="M110.9,38.1v-6.9h1.6v6.9H110.9z"/>
	<path class="st2" d="M117,38.2c-0.4,0-0.9-0.1-1.3-0.2c-0.4-0.1-0.7-0.4-1.1-0.6c-0.3-0.3-0.5-0.6-0.6-1.1c-0.2-0.4-0.2-1-0.2-1.5
		c0-0.5,0.1-1.1,0.2-1.5c0.2-0.4,0.4-0.9,0.7-1.2c0.3-0.3,0.6-0.5,1.1-0.7c0.4-0.2,0.9-0.2,1.3-0.2c0.4,0,0.9,0.1,1.2,0.3
		c0.3,0.2,0.6,0.4,0.9,0.6l-0.9,1c-0.2-0.2-0.3-0.3-0.5-0.4s-0.4-0.1-0.6-0.1s-0.4,0-0.6,0.1s-0.4,0.2-0.5,0.4s-0.3,0.4-0.3,0.7
		c-0.1,0.3-0.1,0.5-0.1,1c0,0.7,0.1,1.3,0.4,1.6c0.3,0.4,0.7,0.5,1.2,0.5c0.3,0,0.5-0.1,0.7-0.2c0.2-0.1,0.4-0.3,0.5-0.4l0.9,1
		C118.6,37.9,117.8,38.2,117,38.2z"/>
	<path class="st2" d="M119.3,38.1l2.1-6.9h1.9l2.1,6.9h-1.7l-0.4-1.6h-2.1l-0.4,1.6H119.3z M121.8,34.6l-0.1,0.6h1.5l-0.1-0.6
		c-0.1-0.3-0.2-0.7-0.3-1.1c-0.1-0.4-0.2-0.7-0.3-1.1l0,0c-0.1,0.3-0.2,0.7-0.2,1.2C122,33.8,121.9,34.3,121.8,34.6z"/>
	<path class="st2" d="M127.5,38.1l2.1-6.9h1.9l2.1,6.9h-1.6l-0.4-1.6h-2.1l-0.4,1.6H127.5z M130,34.6l-0.2,0.6h1.5l-0.1-0.6
		c-0.1-0.3-0.2-0.7-0.3-1.1c-0.1-0.4-0.2-0.7-0.3-1.1l0,0c-0.1,0.3-0.2,0.7-0.2,1.2C130.2,33.8,130.1,34.3,130,34.6z"/>
	<path class="st2" d="M134.4,38.1v-6.9h2.5c0.3,0,0.7,0,1.1,0.1c0.3,0.1,0.6,0.2,0.9,0.3c0.2,0.2,0.4,0.4,0.5,0.6
		c0.1,0.3,0.2,0.6,0.2,1.1c0,0.5-0.1,1-0.3,1.3s-0.5,0.5-0.9,0.7l1.6,2.8h-1.7l-1.3-2.5h-0.9v2.5H134.4z M136,34.4h0.9
		c0.4,0,0.7-0.1,1-0.2c0.2-0.2,0.3-0.4,0.3-0.7c0-0.3-0.1-0.5-0.3-0.7c-0.2-0.2-0.5-0.2-1-0.2H136C136,32.4,136,34.4,136,34.4z"/>
	<path class="st2" d="M144,38.2c-0.4,0-1-0.1-1.3-0.2c-0.4-0.1-0.7-0.4-1.1-0.6c-0.3-0.3-0.5-0.6-0.7-1.1c-0.2-0.4-0.2-1-0.2-1.5
		c0-0.5,0.1-1.1,0.2-1.5c0.2-0.4,0.4-0.9,0.7-1.2c0.3-0.3,0.6-0.5,1.1-0.7c0.4-0.2,0.9-0.2,1.3-0.2c0.5,0,1,0.1,1.3,0.3
		s0.6,0.4,0.9,0.6l-0.9,1c-0.2-0.1-0.3-0.3-0.5-0.4s-0.4-0.1-0.7-0.1s-0.5,0-0.7,0.1c-0.2,0.1-0.4,0.2-0.5,0.4
		c-0.2,0.2-0.3,0.4-0.4,0.7c-0.1,0.3-0.1,0.5-0.1,1c0,0.7,0.2,1.3,0.5,1.6c0.3,0.4,0.9,0.5,1.5,0.5c0.1,0,0.3,0,0.4,0
		c0.1,0,0.2-0.1,0.3-0.1v-1.2h-1.2v-1.5h2.6v3.2c-0.2,0.2-0.5,0.4-1,0.6C144.8,38.1,144.4,38.2,144,38.2z"/>
	<path class="st2" d="M147.6,38.1v-6.9h4.3v1.3h-2.8v1.4h2.3v1.4h-2.3v1.6h2.9v1.3H147.6z"/>
	<path class="st2" d="M153.5,38.1v-6.9h1.6l1.8,3.4l0.6,1.5l0,0c0-0.3-0.1-0.7-0.1-1.2s-0.1-0.9-0.1-1.3v-2.5h1.5v6.9h-1.6l-1.8-3.4
		l-0.6-1.6l0,0c0,0.4,0.1,0.7,0.1,1.2c0,0.4,0.1,0.9,0.1,1.3V38h-1.5V38.1z"/>
	<path class="st2" d="M161.8,38.1v-5.5h-1.9v-1.3h5.3v1.3h-1.9v5.5H161.8z"/>
	<path class="st2" d="M166.3,38.1v-6.9h1.6v6.9H166.3z"/>
	<path class="st2" d="M169.5,38.1v-6.9h1.6l1.8,3.4l0.6,1.5l0,0c0-0.3-0.1-0.7-0.1-1.2s-0.1-0.9-0.1-1.3v-2.5h1.5v6.9h-1.6l-1.8-3.4
		l-0.6-1.5l0,0c0,0.4,0.1,0.7,0.1,1.2c0,0.4,0.1,0.9,0.1,1.3v2.5C171,38.1,169.5,38.1,169.5,38.1z"/>
	<path class="st2" d="M175.6,38.1l2.1-6.9h1.9l2.1,6.9h-1.6l-0.4-1.6h-2.1l-0.4,1.6H175.6z M178.1,34.6l-0.2,0.6h1.5l-0.1-0.6
		c-0.1-0.3-0.2-0.7-0.3-1.1c-0.1-0.4-0.2-0.7-0.3-1.1l0,0c-0.1,0.3-0.2,0.7-0.2,1.2C178.3,33.8,178.2,34.3,178.1,34.6z"/>
	<path class="st2" d="M184.3,36v-1.1h2.6V36H184.3z"/>
	<path class="st2" d="M190.3,38.1v-6.9h1.7l1.1,3.1c0.1,0.2,0.1,0.4,0.2,0.6c0.1,0.2,0.1,0.4,0.2,0.6l0,0c0.1-0.2,0.1-0.4,0.2-0.6
		c0.1-0.2,0.1-0.4,0.2-0.6l1.1-3.1h1.7v6.9h-1.4v-2.6c0-0.2,0-0.3,0-0.5s0-0.4,0-0.6c0-0.2,0-0.4,0.1-0.6c0-0.2,0-0.4,0.1-0.5l0,0
		l-0.5,1.6l-1,2.7h-0.9l-1-2.7l-0.5-1.6l0,0c0,0.2,0,0.3,0.1,0.5c0,0.2,0,0.4,0.1,0.6c0,0.2,0,0.4,0,0.6c0,0.2,0,0.4,0,0.5v2.6
		C191.9,38.1,190.3,38.1,190.3,38.1z"/>
	<path class="st2" d="M198.4,38.1v-6.9h4.3v1.3h-2.8v1.4h2.3v1.4h-2.3v1.6h2.9v1.3H198.4z"/>
	<path class="st2" d="M204.1,38.1v-6.9h2.5c0.3,0,0.7,0,1.1,0.1c0.3,0.1,0.6,0.2,0.9,0.3c0.2,0.2,0.4,0.4,0.5,0.6
		c0.1,0.3,0.2,0.6,0.2,1.1c0,0.5-0.1,1-0.3,1.3c-0.2,0.3-0.5,0.5-0.9,0.7l1.6,2.8H208l-1.3-2.5h-0.9v2.5H204.1z M205.7,34.4h0.9
		c0.4,0,0.7-0.1,1-0.2c0.2-0.2,0.3-0.4,0.3-0.7c0-0.3-0.1-0.5-0.3-0.7c-0.2-0.2-0.5-0.2-1-0.2h-0.9V34.4z"/>
	<path class="st2" d="M213.5,38.2c-0.4,0-0.9-0.1-1.3-0.2c-0.4-0.1-0.7-0.4-1.1-0.6c-0.3-0.3-0.5-0.6-0.6-1.1
		c-0.2-0.4-0.2-1-0.2-1.5c0-0.5,0.1-1.1,0.2-1.5c0.2-0.4,0.4-0.9,0.7-1.2c0.3-0.3,0.6-0.5,1.1-0.7c0.4-0.2,0.9-0.2,1.3-0.2
		c0.4,0,0.9,0.1,1.2,0.3c0.3,0.2,0.6,0.4,0.9,0.6l-0.9,1c-0.2-0.2-0.3-0.3-0.5-0.4s-0.4-0.1-0.6-0.1s-0.4,0-0.6,0.1
		c-0.2,0.1-0.4,0.2-0.5,0.4c-0.1,0.2-0.3,0.4-0.3,0.7c-0.1,0.3-0.1,0.5-0.1,1c0,0.7,0.1,1.3,0.4,1.6c0.3,0.4,0.7,0.5,1.2,0.5
		c0.3,0,0.5-0.1,0.7-0.2c0.2-0.1,0.4-0.3,0.5-0.4l0.9,1C215.1,37.9,214.4,38.2,213.5,38.2z"/>
	<path class="st2" d="M219.2,38.2c-0.4,0-0.9-0.1-1.3-0.2c-0.4-0.2-0.7-0.4-1-0.7c-0.3-0.3-0.5-0.6-0.6-1.2c-0.1-0.4-0.2-1-0.2-1.5
		c0-0.5,0.1-1.1,0.2-1.5c0.1-0.4,0.3-0.9,0.6-1.1c0.3-0.3,0.6-0.5,1-0.6c0.4-0.1,0.9-0.2,1.3-0.2s0.9,0.1,1.3,0.2
		c0.4,0.1,0.7,0.4,1,0.6c0.3,0.3,0.5,0.6,0.6,1.1s0.2,1,0.2,1.5c0,0.5-0.1,1.1-0.2,1.5c-0.1,0.4-0.3,0.9-0.6,1.2
		c-0.3,0.3-0.6,0.5-1,0.7C220,38.1,219.6,38.2,219.2,38.2z M219.2,36.8c0.4,0,0.9-0.2,1.1-0.6c0.3-0.4,0.4-1,0.4-1.6
		s-0.1-1.3-0.4-1.6c-0.3-0.4-0.6-0.5-1.1-0.5s-0.9,0.2-1.1,0.5c-0.3,0.4-0.4,1-0.4,1.6c0,0.7,0.1,1.3,0.4,1.6
		C218.3,36.6,218.7,36.8,219.2,36.8z"/>
	<path class="st2" d="M225.7,38.2c-0.4,0-0.9-0.1-1.4-0.2c-0.4-0.2-0.9-0.4-1.2-0.7l0.9-1.1c0.2,0.2,0.5,0.4,0.9,0.5
		c0.3,0.1,0.6,0.2,0.9,0.2c0.3,0,0.5-0.1,0.7-0.2c0.2-0.1,0.2-0.3,0.2-0.5c0-0.1,0-0.2-0.1-0.3c-0.1-0.1-0.1-0.1-0.2-0.2
		c-0.1-0.1-0.2-0.1-0.3-0.2c-0.1-0.1-0.2-0.1-0.4-0.2l-0.9-0.4c-0.2-0.1-0.3-0.2-0.5-0.3c-0.2-0.1-0.3-0.2-0.4-0.4
		c-0.1-0.1-0.2-0.3-0.3-0.5c-0.1-0.2-0.1-0.4-0.1-0.6c0-0.3,0.1-0.5,0.2-0.7c0.1-0.2,0.3-0.4,0.5-0.6c0.2-0.2,0.4-0.3,0.7-0.4
		c0.3-0.1,0.6-0.1,1-0.1c0.4,0,0.7,0.1,1.2,0.2c0.4,0.1,0.7,0.4,1.1,0.6l-0.7,1c-0.2-0.2-0.4-0.3-0.6-0.4c-0.2-0.1-0.4-0.1-0.7-0.1
		c-0.3,0-0.5,0.1-0.6,0.2s-0.2,0.2-0.2,0.4c0,0.1,0,0.2,0.1,0.3c0,0.1,0.1,0.1,0.2,0.2c0.1,0.1,0.2,0.1,0.3,0.2
		c0.1,0.1,0.2,0.1,0.4,0.2l0.9,0.3c0.4,0.2,0.7,0.4,1,0.7s0.3,0.6,0.3,1.2c0,0.3-0.1,0.5-0.2,0.9c-0.1,0.2-0.3,0.5-0.5,0.6
		c-0.2,0.1-0.5,0.3-0.9,0.4C226.3,38.1,226.1,38.2,225.7,38.2z"/>
	<path class="st2" d="M232.2,38.2c-0.9,0-1.6-0.2-2-0.7c-0.4-0.5-0.7-1.4-0.7-2.6v-3.7h1.6V35c0,0.6,0.1,1.2,0.3,1.4
		c0.2,0.2,0.5,0.4,0.9,0.4c0.3,0,0.6-0.1,0.9-0.4s0.3-0.7,0.3-1.4v-3.8h1.5v3.7c0,1.2-0.2,2-0.6,2.6
		C233.7,37.9,233.1,38.2,232.2,38.2z"/>
	<path class="st2" d="M236.5,38.1v-6.9h2.5c0.3,0,0.7,0,1.1,0.1c0.3,0.1,0.6,0.2,0.9,0.3c0.2,0.2,0.4,0.4,0.5,0.6
		c0.1,0.3,0.2,0.6,0.2,1.1c0,0.5-0.1,1-0.3,1.3c-0.2,0.3-0.5,0.5-0.9,0.7l1.6,2.8h-1.7l-1.3-2.5h-0.9v2.5H236.5z M238.1,34.4h0.9
		c0.4,0,0.7-0.1,1-0.2c0.2-0.2,0.3-0.4,0.3-0.7c0-0.3-0.1-0.5-0.3-0.7c-0.2-0.2-0.5-0.2-1-0.2h-0.9V34.4z"/>
</g>
<g>
	<path class="st4" d="M55.9,31.9c0.2-0.2,0.3-0.2,0.5-0.2s0.3,0,0.6-0.1c0,0.1-0.2,0.3-0.4,0.4s-0.3,0.2-0.5,0.2
		c0.1,0,0.2,0.1,0.2,0.2c0.1,0.1,0.3,0.3,0.4,0.5c-0.2-0.1-0.3-0.1-0.4-0.1c-0.1,0-0.2,0-0.4-0.2c-0.2-0.1-0.2-0.2-0.2-0.3
		c0-0.1,0-0.1-0.2-0.2c0.1-0.1,0.1-0.1,0.1-0.1C55.8,32.1,55.8,32,55.9,31.9L55.9,31.9L55.9,31.9z M49.7,55.4c0-0.2,0-0.3,0-0.5
		c0.1,0.1,0.2,0.2,0.3,0.3c0.1,0.1,0.2,0.2,0.2,0.4c0,0.1,0,0.3,0,0.3c0,0.1,0,0.2,0.1,0.3c0-0.1-0.1-0.1-0.1-0.1
		c-0.1,0-0.1-0.1-0.2-0.1c0.1,0,0.1,0.1,0.2,0.2c0.1,0.1,0.1,0.1,0.1,0.2c-0.1,0-0.1-0.1-0.2-0.1c-0.1-0.1-0.2-0.1-0.3,0
		c-0.3,0-0.5-0.1-0.7-0.3c-0.2-0.1-0.3-0.3-0.6-0.4c0.1-0.1,0.3,0,0.5,0c0.2,0.1,0.5,0.1,0.6,0.2C49.7,55.7,49.7,55.6,49.7,55.4
		L49.7,55.4L49.7,55.4z M61.6,56.1c-0.1,0.1-0.3,0.2-0.6,0.2c-0.1-0.1-0.2,0-0.3,0c-0.1,0.1-0.2,0.1-0.2,0.2c0-0.1,0.1-0.1,0.2-0.2
		c0.1-0.1,0.1-0.1,0.2-0.2c-0.1,0-0.1,0.1-0.2,0.1c-0.1,0-0.1,0.1-0.2,0.1c0-0.1,0-0.1,0-0.2s0-0.2,0-0.3c0-0.2,0.1-0.3,0.2-0.4
		c0.1-0.1,0.2-0.2,0.3-0.3c0,0.2,0,0.3,0,0.5c0,0.2,0,0.3-0.1,0.4c0.1-0.1,0.4-0.2,0.7-0.2c0.2-0.1,0.5-0.1,0.5,0
		C61.9,55.8,61.7,56,61.6,56.1L61.6,56.1L61.6,56.1z M62.5,55.2c-0.1,0.1-0.3,0.2-0.6,0.3c-0.2,0-0.2,0-0.3,0c-0.1,0-0.1,0-0.2,0.1
		c0.1-0.1,0.1-0.1,0.2-0.2c0.1-0.1,0.1-0.1,0.2-0.1c-0.1,0-0.1,0-0.2,0.1c-0.1,0-0.2,0.1-0.2,0.1l-0.1-0.1c0-0.1-0.1-0.1-0.1-0.3
		c0-0.2,0-0.3,0.1-0.4c0.1-0.1,0.2-0.2,0.2-0.4c0,0.2,0.1,0.3,0.1,0.5c0,0.2,0.1,0.3,0,0.4c0.1-0.1,0.4-0.2,0.6-0.3
		c0.2-0.1,0.4-0.1,0.5-0.1C62.7,54.9,62.6,55.1,62.5,55.2L62.5,55.2L62.5,55.2z M63.3,54.1c-0.1,0.1-0.3,0.2-0.5,0.3
		c-0.2,0-0.3,0-0.3,0c-0.1,0-0.1,0.1-0.2,0.1c0.1-0.1,0.1-0.2,0-0.2c-0.1-0.1-0.1-0.1-0.1-0.3c0-0.2,0-0.3,0.1-0.4
		c0.1-0.1,0.2-0.2,0.2-0.3c0,0.2,0.1,0.4,0.1,0.6c0,0.1,0,0.2,0,0.3c0.1-0.1,0.3-0.2,0.5-0.3c0.3-0.1,0.5-0.1,0.6-0.1
		C63.5,53.8,63.4,54,63.3,54.1L63.3,54.1L63.3,54.1z M64,52.9c-0.1,0.2-0.2,0.3-0.5,0.3c-0.2,0-0.2,0-0.3,0s-0.1,0.1-0.1,0.1
		c0.1-0.1,0.1-0.1,0.2-0.2c0.1-0.1,0.1-0.1,0.2-0.1c-0.1,0-0.1,0-0.2,0.1c-0.1,0-0.1,0.1-0.2,0.1c0-0.1-0.1-0.1-0.1-0.1
		c0-0.1-0.1-0.1-0.1-0.3c0-0.2,0-0.3,0-0.4c0.1-0.1,0.1-0.2,0.2-0.4c0.1,0.2,0.1,0.3,0.2,0.5c0.1,0.2,0.1,0.3,0.1,0.4
		c0.1-0.1,0.3-0.3,0.5-0.3c0.2-0.1,0.4-0.2,0.5-0.1C64.1,52.6,64,52.8,64,52.9L64,52.9L64,52.9z M64.6,51.8
		c-0.1,0.1-0.2,0.2-0.5,0.3c-0.2,0-0.2,0-0.3,0c-0.1,0-0.1,0.1-0.1,0.1c0.1-0.1,0.1-0.1,0.2-0.2c0.1-0.1,0.1-0.1,0.2-0.1
		c-0.1,0-0.2,0-0.2,0.1c-0.1,0-0.1,0.1-0.2,0.1L63.5,52c-0.1-0.1-0.1-0.1-0.1-0.3c0-0.2,0-0.3,0.1-0.4c0.1-0.1,0.1-0.2,0.2-0.4
		c0,0.2,0.1,0.3,0.2,0.5c0.1,0.2,0.1,0.3,0.1,0.4c0.1-0.1,0.3-0.3,0.5-0.3c0.2-0.1,0.4-0.1,0.5-0.1C64.8,51.4,64.7,51.5,64.6,51.8
		L64.6,51.8L64.6,51.8z M65.1,50.6c-0.1,0.2-0.2,0.3-0.4,0.4c-0.1,0-0.2,0-0.3,0.1c-0.1,0-0.1,0.1-0.1,0.1c0-0.1,0.1-0.1,0.1-0.2
		c0.1-0.1,0.1-0.1,0.2-0.2c-0.1,0-0.1,0.1-0.2,0.1C64.2,51,64.2,51,64.1,51L64,50.9c0,0-0.1-0.1-0.1-0.3c-0.1-0.2-0.1-0.3,0-0.5
		c0-0.1,0.1-0.2,0.1-0.4c0.1,0.2,0.2,0.3,0.2,0.5c0.1,0.2,0.1,0.3,0.1,0.4c0.1-0.2,0.3-0.3,0.5-0.4c0.2-0.1,0.3-0.2,0.4-0.2
		C65.2,50.2,65.1,50.4,65.1,50.6L65.1,50.6L65.1,50.6z M65.5,49.1c-0.1,0.2-0.1,0.3-0.4,0.4c-0.2,0-0.2,0.1-0.3,0.1
		s-0.1,0.1-0.1,0.1c0-0.1,0.1-0.2,0.1-0.2c0.1-0.1,0.1-0.1,0.2-0.2c-0.1,0-0.1,0.1-0.2,0.1c-0.1,0.1-0.1,0.1-0.2,0.1l-0.1-0.1
		c0-0.1-0.1-0.1-0.1-0.3c-0.1-0.2-0.1-0.3-0.1-0.5c0-0.1,0.1-0.2,0.1-0.4c0.1,0.2,0.2,0.3,0.3,0.5s0.1,0.3,0.1,0.4
		c0.1-0.2,0.2-0.3,0.4-0.5c0.2-0.1,0.3-0.2,0.4-0.2C65.6,48.8,65.6,49,65.5,49.1L65.5,49.1L65.5,49.1z M65.8,47.3
		c-0.1,0.2-0.1,0.4-0.1,0.6c0,0.2-0.1,0.3-0.3,0.5c-0.2,0-0.2,0.1-0.2,0.1c-0.1,0-0.1,0.1-0.1,0.1c0-0.1,0.1-0.2,0.1-0.2
		c0.1-0.1,0.1-0.2,0.1-0.2c-0.1,0-0.1,0.1-0.2,0.1S65,48.4,65,48.6c0-0.1-0.1-0.1-0.1-0.1c-0.1,0-0.1-0.1-0.2-0.2
		c-0.1-0.2-0.1-0.3-0.1-0.5c0-0.1,0-0.3,0-0.5c0.1,0.2,0.2,0.3,0.3,0.5c0.1,0.1,0.2,0.3,0.2,0.4c0.1-0.2,0.2-0.4,0.3-0.5
		C65.6,47.4,65.7,47.3,65.8,47.3L65.8,47.3L65.8,47.3z M65.8,46.2c-0.1,0.2-0.1,0.3-0.3,0.5c-0.2,0.1-0.2,0.1-0.3,0.2
		s-0.1,0.1-0.1,0.1c0-0.1,0.1-0.2,0.1-0.2c0.1-0.1,0.1-0.2,0.2-0.2c-0.1,0.1-0.1,0.1-0.2,0.2c-0.1,0-0.1,0.1-0.2,0.1
		c0,0-0.1,0-0.1-0.1c-0.1,0-0.1-0.1-0.2-0.2c-0.1-0.2-0.1-0.3-0.1-0.4c0-0.1,0-0.3,0-0.4c0.1,0.1,0.2,0.3,0.3,0.4
		c0.1,0.1,0.2,0.2,0.2,0.3c0.1-0.2,0.2-0.4,0.4-0.6c0.2-0.2,0.3-0.3,0.4-0.3C65.9,45.9,65.9,46.1,65.8,46.2L65.8,46.2L65.8,46.2z
		 M65.3,45.1c0.1-0.2,0.2-0.4,0.3-0.6s0.3-0.3,0.4-0.3c-0.1,0.2-0.1,0.4-0.1,0.6c0,0.2-0.1,0.3-0.3,0.6c-0.1,0.1-0.2,0.1-0.2,0.2
		c0,0.1-0.1,0.1-0.1,0.1c0-0.1,0-0.2,0.1-0.2c0-0.1,0.1-0.2,0.1-0.2c-0.1,0.1-0.1,0.1-0.2,0.2c-0.1,0.1-0.1,0.1-0.1,0.2h-0.1
		c-0.1,0-0.1-0.1-0.2-0.2c-0.1-0.1-0.1-0.3-0.2-0.4c0-0.1,0-0.3,0-0.5c0.1,0.1,0.2,0.2,0.4,0.3C65.1,44.9,65.2,45,65.3,45.1
		L65.3,45.1L65.3,45.1z M65.9,42.7c-0.1,0.2-0.1,0.3-0.1,0.5c0,0.2-0.1,0.3-0.3,0.5c-0.1,0.1-0.2,0.1-0.2,0.2c0,0.1-0.1,0.1-0.1,0.1
		c0-0.1,0-0.2,0.1-0.2c0-0.1,0.1-0.2,0.1-0.2c-0.1,0.1-0.1,0.1-0.1,0.2c-0.1,0.1-0.1,0.1-0.1,0.2c0,0-0.1,0-0.1-0.1
		c-0.1,0-0.1-0.1-0.2-0.2c-0.1-0.2-0.1-0.3-0.2-0.4c0-0.1,0-0.2,0-0.4c0.1,0.1,0.3,0.2,0.4,0.3c0.1,0.1,0.2,0.2,0.3,0.3
		c0-0.2,0.2-0.4,0.3-0.6C65.6,42.8,65.8,42.8,65.9,42.7L65.9,42.7L65.9,42.7z M65.1,42.4c0-0.2,0.1-0.4,0.2-0.6s0.2-0.3,0.3-0.4
		c0,0.2,0,0.4,0.1,0.6c0,0.2,0,0.3-0.2,0.6c-0.1,0.1-0.2,0.2-0.2,0.2c0,0.1,0,0.1-0.1,0.1c0-0.1,0-0.2,0-0.2c0-0.1,0-0.2,0.1-0.2
		c-0.1,0.1-0.1,0.1-0.1,0.2c0,0.1,0.2-0.4,0.1-0.3c-0.1,0-0.3,0.5-0.3,0.5c-0.1,0-0.2,0-0.3-0.1c-0.2-0.1-0.2-0.2-0.2-0.3
		s-0.1-0.3-0.1-0.4c0.1,0.1,0.3,0.2,0.5,0.3C65,42.3,65.1,42.4,65.1,42.4L65.1,42.4L65.1,42.4z M65.2,39.9c0,0.3,0.1,0.4,0.1,0.6
		c0,0.2,0,0.3-0.2,0.5c-0.1,0.1-0.2,0.2-0.2,0.2s0,0.1-0.1,0.1c0-0.1,0-0.2,0-0.2c0-0.1,0-0.2,0.1-0.2c0,0.1-0.1,0.1-0.1,0.2
		c0,0.1-0.1,0.1-0.1,0.2c-0.1,0-0.1,0-0.2,0c-0.1,0-0.1-0.1-0.3-0.2c-0.1-0.1-0.2-0.2-0.2-0.4c0-0.1,0-0.2-0.1-0.4
		c0.1,0.1,0.3,0.2,0.5,0.3c0.1,0.1,0.3,0.2,0.3,0.3c0-0.2,0.1-0.4,0.2-0.6C65,40.1,65.1,39.9,65.2,39.9L65.2,39.9L65.2,39.9z
		 M64.3,39.8c0-0.2,0-0.4,0.1-0.6c0.1-0.2,0.2-0.4,0.2-0.4c0,0.2,0.1,0.4,0.2,0.5c0.1,0.2,0.1,0.3-0.1,0.6c-0.1,0.1-0.2,0.2-0.2,0.2
		c0,0.1,0,0.1,0,0.2c0-0.1,0-0.2-0.1-0.2c0-0.1,0-0.2,0-0.2c0,0.1-0.1,0.1-0.1,0.2s-0.1,0.1-0.1,0.2c0,0-0.1,0-0.2,0
		c-0.1,0-0.1,0-0.3-0.1c-0.2-0.1-0.3-0.2-0.3-0.3c-0.1-0.1-0.1-0.2-0.2-0.4c0.2,0.1,0.3,0.2,0.5,0.2C64.2,39.7,64.3,39.7,64.3,39.8
		L64.3,39.8L64.3,39.8z M64,37.3c0,0.2,0.1,0.4,0.2,0.6c0.1,0.2,0.1,0.3-0.1,0.6c-0.1,0.1-0.2,0.1-0.2,0.2c0,0.1,0,0.1,0,0.2
		c0-0.1-0.1-0.2-0.1-0.2c0-0.1,0-0.2,0-0.2c0,0.1-0.1,0.1-0.1,0.2c0,0.1-0.1,0.1-0.1,0.2c0,0-0.1,0-0.2,0S63.2,39,63.1,39
		c0-0.4-0.1-0.5-0.1-0.7c-0.1-0.1-0.1-0.2-0.2-0.4c0.2,0.1,0.3,0.2,0.5,0.3c0.2,0.1,0.3,0.2,0.4,0.2c-0.1-0.2,0-0.4,0.1-0.6
		C63.8,37.5,63.9,37.3,64,37.3L64,37.3L64,37.3z M63.3,36.8c0-0.2,0.2,0.2,0.3,0.1c0.1,0.2,0-0.3,0.1-0.1c0.1,0.2,0.1,0.3,0,0.6
		c-0.1,0.1-0.1,0.2-0.1,0.2c0,0.1,0,0.1,0,0.2c-0.1-0.1-0.1-0.2-0.1-0.2c0-0.1,0-0.2,0-0.2c0,0.1-0.1,0.1-0.1,0.2s0,0.1,0,0.2
		c-0.1,0-0.1,0-0.2,0c-0.1,0-0.2,0-0.3-0.1c-0.2-0.1-0.3-0.2-0.4-0.3c-0.1-0.1-0.1-0.2-0.3-0.4c0.2,0.1,0.4,0.1,0.6,0.2
		c0.2,0.1,0.3,0.1,0.4,0.2C63.2,37.1,63.3,37,63.3,36.8L63.3,36.8L63.3,36.8z M62.3,36c-0.1-0.2-0.1-0.4-0.1-0.6
		c0-0.2,0-0.4,0.1-0.5c0.1,0.2,0.2,0.3,0.3,0.5c0.1,0.1,0.1,0.3,0.1,0.6c-0.1,0.2-0.1,0.2-0.1,0.3s0,0.1,0,0.2
		c-0.1-0.1-0.1-0.2-0.1-0.3c-0.1-0.1-0.1-0.2-0.1-0.2c0,0.1,0,0.2,0,0.2v0.2l-0.1,0.1c-0.1,0-0.1,0-0.3,0c-0.2-0.1-0.3-0.1-0.4-0.2
		c-0.1-0.1-0.2-0.2-0.3-0.3c0.2,0,0.3,0,0.5,0.1C62.1,35.9,62.2,36,62.3,36L62.3,36L62.3,36z M61,35c0.2,0,0.3,0,0.4,0
		c-0.1-0.1-0.1-0.4-0.2-0.6c0-0.2,0-0.4,0.1-0.5c0.1,0.2,0.2,0.3,0.3,0.4s0.1,0.2,0.2,0.5c-0.1,0.2-0.1,0.2,0,0.3c0,0.1,0,0.1,0,0.2
		c-0.1-0.1-0.1-0.2-0.1-0.2c0-0.1-0.1-0.2-0.1-0.2c0,0.1,0,0.2,0,0.2c0,0.1,0,0.2,0.1,0.2c-0.1,0-0.1,0.1-0.1,0.1
		c-0.1,0-0.1,0.1-0.3,0.1s-0.3-0.1-0.4-0.2c-0.1-0.1-0.2-0.2-0.3-0.3C60.7,35,60.9,35,61,35L61,35L61,35z M60,34c0.2,0,0.3,0,0.4,0
		c-0.1-0.1-0.2-0.4-0.2-0.6c-0.1-0.2-0.1-0.4,0-0.5c0.1,0.2,0.3,0.3,0.4,0.4s0.2,0.3,0.2,0.5c0,0.2,0,0.2,0,0.3
		c0,0.1,0.1,0.1,0.1,0.1c-0.1,0-0.2-0.1-0.2-0.1c-0.1-0.1-0.1-0.1-0.1-0.2c0,0.1,0,0.1,0,0.2c0,0.1,0,0.2,0.1,0.2l-0.1,0.1
		c-0.1,0-0.1,0.1-0.3,0.1c-0.2,0-0.3-0.1-0.4-0.1c-0.1-0.1-0.2-0.2-0.3-0.2C59.7,34,59.8,34,60,34L60,34L60,34z M58.8,32.2
		c0.2,0.2,0.3,0.2,0.5,0.3c0.1,0.1,0.2,0.2,0.3,0.5c0,0.1,0,0.1,0,0.2v0.1c0-0.1-0.1-0.1-0.1-0.2c-0.1-0.1-0.1-0.1-0.1-0.1
		c0,0.1,0,0.2,0.1,0.3c0,0.1,0.1,0.1,0.1,0.2c0,0,0,0.1-0.1,0.1c0,0-0.1,0.1-0.3,0.1c-0.3,0-0.4,0-0.5-0.1c-0.1-0.1-0.2-0.1-0.4-0.2
		c0.2,0,0.3-0.1,0.5-0.1c0.2-0.1,0.3-0.1,0.4-0.1c-0.1-0.1-0.3-0.3-0.4-0.5C58.9,32.5,58.8,32.3,58.8,32.2L58.8,32.2L58.8,32.2z
		 M58.5,33.1c-0.1,0-0.2,0.1-0.4,0.1c-0.2,0-0.4-0.1-0.6-0.2c-0.2-0.1-0.3-0.2-0.2-0.3c0,0,0,0,0.1,0c0,0,0,0,0.1,0
		c0.1,0.1,0.2,0.1,0.4,0.1c0.2,0,0.3,0,0.4,0c-0.1,0-0.2,0-0.2,0s-0.1-0.1-0.2-0.1c0.1,0,0.2-0.1,0.3-0.1c0.1-0.1,0.2-0.1,0.3-0.1
		c0.2,0,0.2,0.1,0.3,0.2c0.1,0.1,0.1,0.2,0.2,0.2C58.7,33,58.6,33.1,58.5,33.1L58.5,33.1L58.5,33.1z M57.3,32
		c0.1-0.1,0.2-0.3,0.4-0.2c0.2,0,0.4,0,0.5,0.1c0.1,0.1,0.3,0.1,0.4,0.1c0,0.1-0.5,0.4-0.9,0.5c-0.4,0.1-0.7,0.1-0.9-0.1
		c0.1,0,0.2,0,0.2,0c0.1,0,0.1,0,0.2-0.1c-0.1,0-0.1,0-0.2,0c-0.1,0-0.1,0-0.2,0C57.1,32.1,57.2,32,57.3,32L57.3,32z M55.6,32.2
		c0.1,0,0.1,0,0.3-0.1c0.1,0,0.2-0.1,0.2-0.1c-0.1,0.1-0.1,0.1-0.2,0.2c-0.1,0.1-0.2,0.1-0.3,0.1V32.2L55.6,32.2z M54.5,32.3
		c0,0,0.1-0.1,0.1-0.2c0.2-0.2,0.3-0.3,0.5-0.4c0.2-0.1,0.3-0.1,0.5-0.2c0,0.1-0.1,0.3-0.3,0.5c-0.2,0.2-0.3,0.3-0.5,0.4
		c0.1,0,0.2,0.1,0.3,0.2c0.1,0.1,0.3,0.2,0.4,0.3c-0.2,0-0.3,0-0.4,0c-0.1,0-0.2,0-0.4-0.1c-0.1-0.1-0.2-0.1-0.2-0.2s0-0.1-0.1-0.1
		c0.1,0,0.1-0.1,0.2-0.1c0.1-0.1,0.1-0.1,0.1-0.2C54.6,32.3,54.6,32.3,54.5,32.3c-0.1,0.1-0.2,0.1-0.2,0.1
		C54.4,32.3,54.5,32.3,54.5,32.3L54.5,32.3L54.5,32.3z M53.2,32.5c0-0.1,0.1-0.1,0.1-0.3c0.2-0.2,0.3-0.3,0.5-0.4
		c0.2-0.1,0.3-0.1,0.6-0.2c0,0.1-0.1,0.3-0.3,0.5c-0.2,0.2-0.3,0.3-0.5,0.4c0.1,0,0.2,0.1,0.3,0.2c0.1,0.1,0.3,0.2,0.4,0.3
		c-0.2,0-0.3,0.1-0.4,0.1s-0.2,0-0.4-0.1c-0.1-0.1-0.2-0.1-0.2-0.2s0-0.1-0.1-0.1c0.1-0.1,0.1-0.1,0.2-0.2c0-0.1,0.1-0.1,0.1-0.2
		c-0.1,0.1-0.1,0.1-0.2,0.2c-0.1,0.1-0.2,0.1-0.2,0.1C53.1,32.5,53.1,32.5,53.2,32.5L53.2,32.5L53.2,32.5z M51.9,33
		c0-0.1,0.1-0.1,0.1-0.3c0.1-0.3,0.2-0.4,0.4-0.5s0.4-0.1,0.6-0.3c0.1,0.1,0,0.3-0.2,0.5c-0.2,0.2-0.4,0.4-0.6,0.5
		c0.1,0,0.2,0.1,0.4,0.1c0.1,0.1,0.3,0.2,0.4,0.2c-0.2,0-0.3,0.1-0.4,0.1c-0.1,0-0.2,0.1-0.4,0c-0.1,0-0.2-0.1-0.2-0.1
		c0-0.1,0-0.1-0.1-0.1C52,33,52,33,52,32.9c0.1-0.1,0.1-0.1,0.1-0.2c-0.1,0.1-0.1,0.1-0.2,0.2C51.8,33,51.6,33,51.6,33
		C51.8,33.1,51.9,33,51.9,33L51.9,33L51.9,33z M50.7,33.7c0-0.1,0-0.1,0-0.3c0.1-0.3,0.2-0.4,0.3-0.5c0.1-0.1,0.3-0.2,0.5-0.3
		c0,0.1,0,0.3-0.1,0.5c-0.1,0.2-0.2,0.4-0.3,0.5c0.1,0,0.2,0,0.4,0.1c0.2,0.1,0.3,0.1,0.5,0.1c-0.2,0.1-0.3,0.1-0.4,0.2
		c-0.1,0.1-0.2,0.1-0.4,0.1C51,34.1,51,34,50.9,34c-0.1,0-0.1-0.1-0.1-0.1c0.1-0.1,0.1-0.1,0.1-0.2s0.1-0.1,0.1-0.2
		c0,0.1-0.1,0.1-0.1,0.2c-0.1,0.1-0.1,0.1-0.2,0.2C50.6,33.7,50.6,33.7,50.7,33.7L50.7,33.7L50.7,33.7z M49.7,34
		c0-0.3,0.1-0.4,0.2-0.5c0.1-0.1,0.3-0.2,0.4-0.4c0.1,0.1,0,0.3,0,0.5c-0.1,0.2-0.1,0.5-0.2,0.6c0.1-0.1,0.2-0.1,0.4,0
		c0.2,0,0.3,0.1,0.5,0.1c-0.2,0.1-0.2,0.2-0.3,0.2c-0.1,0.1-0.2,0.1-0.4,0.1c-0.1,0-0.2,0-0.3-0.1c-0.1,0-0.1-0.1-0.1-0.1
		c0-0.1,0.1-0.1,0.1-0.2c0-0.1,0-0.1,0-0.2c0,0.1-0.1,0.2-0.1,0.2c-0.1,0.1-0.1,0.1-0.1,0.2c0-0.1,0-0.1,0-0.2
		C49.8,34.4,49.8,34.3,49.7,34L49.7,34L49.7,34z M48.8,34.9c0-0.3,0.1-0.4,0.2-0.5c0.1-0.1,0.2-0.2,0.3-0.4c0.1,0.1,0.1,0.3,0.1,0.5
		c0,0.2-0.1,0.5-0.2,0.6c0.1-0.1,0.2-0.1,0.4,0c0.2,0,0.3,0,0.5,0c-0.2,0.1-0.2,0.2-0.3,0.3c-0.1,0.1-0.2,0.1-0.4,0.2
		c-0.2,0-0.2,0-0.3-0.1c-0.1,0-0.1-0.1-0.1-0.1l0.1-0.2l0.1-0.2c-0.1,0.1-0.1,0.2-0.1,0.2c0,0.1-0.1,0.1-0.1,0.1v-0.1
		C48.8,35.1,48.8,35.1,48.8,34.9L48.8,34.9L48.8,34.9z M48,35.4c0.1-0.1,0.2-0.2,0.3-0.5c0.1,0.1,0.1,0.3,0.1,0.5
		c0,0.2-0.1,0.5-0.1,0.6c0.1-0.1,0.2-0.1,0.4-0.1c0.1,0,0.3,0,0.5,0c-0.1,0.1-0.2,0.2-0.3,0.3s-0.2,0.2-0.4,0.2c-0.1,0-0.2,0-0.2,0
		c-0.1,0-0.1-0.1-0.1-0.1c0-0.1,0-0.2,0-0.2c0-0.1,0-0.2,0-0.2c0,0.1,0,0.2-0.1,0.3c0,0.1-0.1,0.2-0.1,0.2c0-0.1,0-0.1,0.1-0.2
		c0-0.1,0-0.2-0.1-0.3C47.9,35.6,47.9,35.5,48,35.4L48,35.4L48,35.4z M47.1,36.9c0.1-0.2,0.2-0.3,0.3-0.5c0.1,0,0.1,0.2,0.2,0.4
		c0,0.2,0,0.4-0.1,0.6c0.1-0.1,0.2-0.1,0.4-0.2c0.2-0.1,0.4-0.1,0.5-0.2c-0.1,0.1-0.2,0.2-0.3,0.3c-0.1,0.1-0.2,0.2-0.3,0.3
		c-0.2,0.1-0.2,0.1-0.3,0.1c-0.1,0-0.1,0-0.2,0c0-0.1,0-0.1,0-0.2s0-0.1-0.1-0.2c0,0.1,0,0.1,0,0.2c0,0.1-0.1,0.2-0.1,0.2
		c0-0.1,0-0.1,0-0.1c0-0.1,0-0.1-0.1-0.2C47,37.2,47,37,47.1,36.9L47.1,36.9L47.1,36.9z M46.5,38.5c-0.1-0.2-0.1-0.4-0.1-0.5
		c0-0.2,0.1-0.3,0.1-0.6c0.1,0,0.2,0.2,0.2,0.4C47,38,47,38.2,47,38.4c0.1-0.1,0.2-0.2,0.4-0.2c0.2-0.1,0.3-0.2,0.5-0.3
		c-0.1,0.2-0.2,0.3-0.2,0.4c-0.1,0.1-0.1,0.2-0.3,0.3c-0.1,0.1-0.2,0.1-0.3,0.1c-0.1,0-0.1,0-0.1,0c0-0.1,0-0.1-0.1-0.2
		c0-0.1-0.1-0.1-0.1-0.2c0,0.1,0,0.1,0,0.2c0,0.1,0,0.2,0,0.2c0-0.1,0-0.1,0-0.1C46.7,38.7,46.6,38.6,46.5,38.5L46.5,38.5L46.5,38.5
		z M45.9,39.4c0.1-0.2,0.1-0.3,0.2-0.6c0.1,0,0.2,0.2,0.2,0.4c0.1,0.2,0.1,0.4,0.1,0.6c0.1-0.1,0.2-0.1,0.4-0.2
		c0.2-0.1,0.3-0.1,0.5-0.2c-0.1,0.2-0.2,0.3-0.2,0.4c-0.1,0.1-0.1,0.2-0.3,0.3c-0.1,0.1-0.2,0.1-0.3,0.1s-0.1,0-0.2,0
		c0-0.1,0-0.1,0-0.2c0-0.1-0.1-0.1-0.1-0.2c0,0.1,0,0.1,0,0.2c0,0.1,0,0.2,0,0.2c0-0.1,0-0.1,0-0.1c0-0.1-0.1-0.1-0.2-0.2
		C45.8,39.7,45.8,39.6,45.9,39.4L45.9,39.4L45.9,39.4z M45.7,41.1c-0.2-0.2-0.2-0.4-0.2-0.5c0-0.2,0.1-0.3,0.1-0.6
		c0.1,0,0.2,0.2,0.3,0.4c0.1,0.2,0.2,0.4,0.2,0.6c0.1-0.1,0.2-0.2,0.3-0.3c0.1-0.1,0.3-0.2,0.4-0.3c-0.1,0.2-0.1,0.3-0.1,0.4
		c0,0.1-0.1,0.2-0.2,0.3c-0.1,0.1-0.2,0.2-0.2,0.2c-0.1,0-0.1,0.1-0.1,0.1c0-0.1-0.1-0.1-0.1-0.2c0-0.1-0.1-0.2-0.1-0.2
		c0.1,0.1,0.1,0.2,0.1,0.2c0,0.1,0,0.2,0,0.3c0-0.1,0-0.1,0-0.2C45.8,41.2,45.8,41.2,45.7,41.1L45.7,41.1L45.7,41.1z M45,41.9
		c0-0.2,0.1-0.3,0.1-0.6c0.1,0,0.2,0.2,0.3,0.4c0.1,0.2,0.2,0.4,0.2,0.6c0-0.1,0.2-0.2,0.3-0.2c0.2-0.1,0.3-0.2,0.5-0.3
		c-0.1,0.2-0.1,0.3-0.1,0.4c0,0.1-0.1,0.2-0.2,0.3c-0.2,0.1-0.3,0.1-0.4,0.1c-0.1,0-0.1,0-0.1,0c0-0.1-0.1-0.1-0.1-0.2
		c-0.1-0.1-0.1-0.1-0.1-0.2c0,0.1,0.1,0.2,0.1,0.2c0,0.1,0,0.2,0,0.2c0-0.1,0-0.1-0.1-0.1c0-0.1-0.1-0.1-0.2-0.2
		C45.1,42.3,45,42,45,41.9L45,41.9z M45.7,44c0-0.1-0.1-0.1-0.1-0.2c-0.1-0.1-0.1-0.1-0.2-0.2c0.1,0.1,0.1,0.1,0.1,0.2
		c0,0.1,0.1,0.2,0.1,0.2s0-0.1-0.1-0.1c0-0.1-0.1-0.1-0.2-0.2c-0.2-0.2-0.2-0.3-0.3-0.5c0-0.1,0-0.3-0.1-0.5c0.1,0,0.2,0.1,0.4,0.3
		c0.2,0.2,0.3,0.4,0.3,0.5c0-0.1,0.1-0.2,0.3-0.3c0.1-0.1,0.2-0.2,0.4-0.3c-0.1,0.2,0,0.3-0.1,0.4c0,0.1,0,0.2-0.2,0.4
		c-0.1,0.1-0.2,0.2-0.2,0.2C45.8,43.9,45.7,43.9,45.7,44L45.7,44L45.7,44z M44.9,46.4c0-0.1-0.1-0.3-0.1-0.7c0.1,0,0.2,0.1,0.4,0.2
		c0.2,0.2,0.3,0.3,0.4,0.5c0-0.1,0.1-0.2,0.2-0.3c0.1-0.1,0.2-0.3,0.3-0.4c0,0.2,0,0.3,0,0.4s0,0.3-0.1,0.4
		c-0.1,0.1-0.1,0.2-0.2,0.2c-0.1,0-0.1,0-0.1,0.1c0-0.1,0-0.1-0.1-0.2c0-0.1-0.1-0.1-0.1-0.2c0,0.1,0,0.1,0,0.2
		c0,0.1-0.1,0.1-0.1,0.2v-0.1c0-0.1-0.1-0.1-0.2-0.1C45,46.5,44.9,46.5,44.9,46.4L44.9,46.4L44.9,46.4z M44.8,44.2
		c0.1,0,0.2,0.1,0.4,0.3c0.2,0.2,0.3,0.4,0.3,0.5c0-0.1,0.1-0.2,0.2-0.3c0.1-0.1,0.3-0.2,0.4-0.3c0,0.2,0,0.3,0,0.4s0,0.2-0.2,0.4
		c-0.1,0.1-0.2,0.1-0.2,0.2c-0.1,0-0.1,0-0.1,0c0-0.1-0.1-0.1-0.1-0.2c-0.1-0.1-0.1-0.1-0.2-0.2c0.1,0.1,0.1,0.1,0.1,0.2
		c0,0.1,0.1,0.2,0.1,0.3c-0.1-0.1-0.1-0.1-0.1-0.2c-0.1-0.1-0.1-0.1-0.2-0.2c-0.2-0.2-0.3-0.3-0.3-0.5
		C44.9,44.6,44.9,44.5,44.8,44.2L44.8,44.2L44.8,44.2z M45.4,47.5c0.1,0.1,0.3,0.3,0.3,0.4c0-0.1,0.1-0.2,0.2-0.4
		c0.1-0.1,0.2-0.3,0.3-0.5c0,0.2,0,0.3,0,0.4c0,0.1,0,0.3-0.1,0.5C46,48,46,48.1,45.9,48.1c-0.1,0.1-0.1,0.1-0.1,0.1
		c0-0.1,0-0.1-0.1-0.2c0-0.1-0.1-0.1-0.1-0.1c0.1,0.1,0.1,0.1,0.1,0.2c0,0.1,0,0.2,0,0.3c0-0.1-0.1-0.1-0.1-0.1
		c-0.1,0-0.1-0.1-0.2-0.1c-0.2-0.1-0.3-0.3-0.3-0.4s0-0.3-0.1-0.5C45,47.3,45.2,47.4,45.4,47.5L45.4,47.5L45.4,47.5z M45.2,49
		c-0.1-0.1-0.1-0.3-0.3-0.5c0.1,0,0.3,0,0.5,0.2c0.2,0.1,0.4,0.2,0.5,0.4c0-0.1,0.1-0.2,0.2-0.4c0.1-0.2,0.2-0.3,0.2-0.5
		c0,0.2,0.1,0.3,0.1,0.4s0,0.2-0.1,0.5c-0.1,0.2-0.1,0.2-0.2,0.3c-0.1,0-0.1,0.1-0.1,0.1c0-0.1-0.1-0.1-0.1-0.2
		c0-0.1-0.1-0.1-0.1-0.1l0.1,0.1c0,0.1,0,0.1,0,0.2l-0.1-0.1c-0.1,0-0.1,0-0.2-0.1C45.4,49.3,45.2,49.2,45.2,49L45.2,49L45.2,49z
		 M45.7,50.5c-0.1-0.1-0.1-0.3-0.3-0.5c0.1,0,0.3,0,0.5,0.1c0.2,0.1,0.4,0.3,0.5,0.4c0-0.1,0.1-0.2,0.1-0.4c0.1-0.2,0.2-0.3,0.3-0.5
		c0,0.2,0.1,0.3,0.1,0.4c0,0.1,0,0.3,0,0.5c-0.1,0.1-0.1,0.2-0.1,0.2c0,0.1-0.1,0.1-0.1,0.1c0-0.1-0.1-0.1-0.1-0.1
		c-0.1-0.1-0.1-0.1-0.1-0.1c0.1,0.1,0.1,0.1,0.1,0.2c0,0.1,0.1,0.2,0.1,0.3C46.6,51,46.6,51,46.6,51c-0.1,0-0.1-0.1-0.3-0.1
		C45.9,50.7,45.8,50.6,45.7,50.5L45.7,50.5L45.7,50.5z M46.2,51.6c-0.1-0.1-0.2-0.3-0.3-0.4c0.1-0.1,0.3,0,0.5,0.1
		c0.2,0.1,0.4,0.2,0.5,0.3c0-0.1,0-0.3,0.1-0.4c0.1-0.2,0.1-0.3,0.2-0.5c0.1,0.2,0.1,0.3,0.2,0.4c0.1,0.1,0.1,0.2,0.1,0.4
		c0,0.1-0.1,0.2-0.1,0.3c0,0.1-0.1,0.1-0.1,0.1c-0.1-0.1-0.1-0.1-0.2-0.1c-0.1,0-0.2-0.1-0.2-0.1c0.1,0.1,0.2,0.1,0.2,0.2
		c0.1,0.1,0.1,0.1,0.2,0.2l0,0l0,0l0,0l0,0c-0.1,0-0.1-0.1-0.1-0.1c-0.1,0-0.1-0.1-0.3,0C46.4,51.9,46.3,51.8,46.2,51.6L46.2,51.6
		L46.2,51.6z M46.7,52.8c-0.1-0.1-0.2-0.3-0.3-0.5c0.1,0,0.3,0,0.5,0.1c0.2,0.1,0.5,0.2,0.6,0.3c0-0.1,0-0.2,0.1-0.4
		s0.1-0.3,0.2-0.5c0,0.2,0.1,0.3,0.1,0.4c0.1,0.1,0.1,0.2,0,0.4c0,0.1-0.1,0.2-0.1,0.3c0,0.1-0.1,0.1-0.1,0.1
		c-0.1-0.1-0.1-0.1-0.2-0.1c-0.1,0-0.1-0.1-0.2-0.1c0.1,0.1,0.1,0.1,0.2,0.2c0.1,0.1,0.1,0.1,0.2,0.2c-0.1,0-0.1-0.1-0.1-0.1
		c-0.1,0-0.1,0-0.3,0C47.1,53,46.8,52.9,46.7,52.8L46.7,52.8L46.7,52.8z M48.4,53.1c0.1,0.1,0.1,0.2,0.1,0.4c0,0.1,0,0.2-0.1,0.3
		c0,0.1-0.1,0.1-0.1,0.1c-0.1-0.1-0.1-0.1-0.2-0.1s-0.1,0-0.2-0.1c0.1,0,0.2,0.1,0.2,0.1c0.1,0,0.1,0.1,0.2,0.1
		c-0.1,0-0.1,0-0.2-0.1c-0.1,0-0.1,0-0.3,0c-0.3,0-0.4-0.1-0.5-0.2c-0.1-0.1-0.2-0.3-0.4-0.4c0.1,0,0.3,0,0.5,0.1
		c0.2,0.1,0.5,0.2,0.6,0.3c0-0.1,0-0.2,0-0.4s0.1-0.3,0.1-0.5C48.3,53,48.4,53,48.4,53.1L48.4,53.1L48.4,53.1z M48.9,54.5
		C49,54.4,49,54.2,49,54c0.1,0.2,0.2,0.3,0.2,0.4c0.1,0.1,0.1,0.2,0.1,0.4c0,0.1,0,0.2-0.1,0.3c-0.1,0-0.1,0.1-0.1,0.1
		c-0.1-0.1-0.1-0.1-0.2-0.1c-0.1,0-0.1,0-0.2-0.1c0.1,0,0.2,0.1,0.2,0.1c0.1,0.1,0.1,0.1,0.2,0.2c-0.1,0-0.2-0.1-0.3-0.1
		c-0.1-0.1-0.3-0.1-0.5-0.1c-0.3-0.1-0.3-0.1-0.4-0.2c0-0.1,0-0.2-0.2-0.4c0.1-0.1,0.3,0,0.5,0.1c0.2,0.1,0.5,0.2,0.6,0.3
		C48.8,54.9,48.9,54.7,48.9,54.5L48.9,54.5L48.9,54.5z M52.1,31.6c0.5-0.1,0.6-0.4,0.6-0.4l-1.3-0.2l1.3-0.3l-1.4-0.5
		c0.1,0,1.3,0.1,1.5,0.1c0,0-1-0.6-1.2-0.7c0,0,1.1,0.3,1.4,0.3l-1-1.1c0.2,0.1,1.2,0.6,1.3,0.6c-0.2-0.2-0.9-1.2-0.9-1.2l1.3,0.9
		c0-0.1-0.5-1.3-0.5-1.4c0.2,0.2,0.7,1,1,1.1l-0.3-1.5l0.7,1.3c0-0.1,0-1.2,0-1.5c0,0.2,0.4,1.3,0.5,1.4l0.3-1.5
		c0,0,0.2,1.4,0.2,1.5c0.1-0.1,0.5-1.4,0.5-1.4c0,0.3-0.1,1.5-0.1,1.5l0.9-1.3l-0.3,1.5l1.1-1.1c-0.1,0.1-0.5,1.1-0.6,1.4l1.3-0.9
		l-0.9,1.2c0,0,0,0,0.1,0c0.1,0,1.3-0.5,1.3-0.6c-0.2,0.2-0.9,0.7-1.2,1.1l1.5-0.3l-1.2,0.7c0,0,1.5,0,1.6,0
		c-0.2,0.1-1.3,0.4-1.4,0.5l1.4,0.3l-1.2,0.2c0,0.1,0.5,0.5,0.6,0.5c0,0-0.6,0-0.7-0.1c-0.1-0.1-0.5-0.1-0.9,0c0,0,0-0.2-0.1-0.2
		c-0.2,0.1-1.2,0.1-1.3,0.1c0,0,0-0.2,0-0.3c-0.3,0.1-0.6,0.1-0.7,0.2c-0.2,0-0.4,0.1-0.5,0.2c-0.1,0,0-0.3-0.1-0.3
		c-0.3,0.1-0.6,0.2-0.9,0.2c-0.2,0.1-0.4,0.1-0.5,0.2c0-0.1-0.1-0.3-0.1-0.3c-0.1,0.1-0.2,0.2-0.5,0.2C52.5,31.7,52,31.6,52.1,31.6
		L52.1,31.6L52.1,31.6z M52.4,50.7c-0.1,0.1-0.2,0.2-0.2,0.2c-0.1,0-0.1,0-0.2-0.1c-0.1,0-0.1-0.1,0-0.1l0.1-0.1l0.1-0.1
		c0.1,0,0.2-0.1,0.2-0.1c0.1,0,0.1,0,0.1,0C52.5,50.5,52.5,50.6,52.4,50.7L52.4,50.7L52.4,50.7z M52.9,51.4c-0.1,0-0.1,0-0.2,0
		c-0.1,0-0.1,0-0.1-0.1c0-0.1,0-0.2,0.1-0.2c0.1-0.1,0.1-0.2,0.2-0.2l0.1-0.1h0.1l0.1-0.1l0.1-0.1c0.1,0,0.2,0,0.2,0s0,0.1,0.1,0.1
		c0,0.1-0.1,0.2-0.2,0.3C53.1,51.2,53,51.4,52.9,51.4L52.9,51.4L52.9,51.4z M54.1,51.5c-0.2,0.1-0.4,0.2-0.4,0.2c-0.1,0-0.1,0-0.1,0
		c-0.1,0-0.1,0-0.1-0.1c0-0.1,0-0.1,0-0.1l0.1-0.1c-0.1,0-0.1,0,0-0.1c0.1-0.1,0.1-0.1,0.2-0.1v-0.1l0.1-0.1
		c0.1-0.1,0.2-0.2,0.3-0.2s0.2,0,0.3,0.2C54.4,51.2,54.3,51.3,54.1,51.5L54.1,51.5L54.1,51.5z M55,51.9c-0.1,0.1-0.2,0.1-0.4,0.2
		C54.4,52,54.3,52,54.3,52c0-0.1,0.1-0.2,0.3-0.4c0,0,0.1-0.1,0.2-0.1c0.1,0,0.2,0,0.2,0.2C55.1,51.8,55.1,51.8,55,51.9L55,51.9
		L55,51.9z M61.7,51.4c-0.6-0.1-1.5-0.3-2.5-1c0.1-0.1,0.1-0.2,0.2-0.4c0-0.2,0-0.4,0-0.5c0-0.1,0-0.1-0.1-0.1c0,0,0,0.1-0.1,0.2
		C59.1,49.8,59,49.9,59,50c-0.2,0-0.2,0.1-0.3,0.1c-0.3-0.3-0.4-0.4-0.6-0.5c-0.2-0.1-0.4-0.2-0.7-0.4c-0.3-0.1-0.4-0.2-0.5-0.3
		c-0.1-0.1-0.2-0.2-0.3-0.3c-0.2,0.1-0.6,0.3-0.9,0.4c-0.3,0.1-0.6,0.1-0.9,0c-0.2-0.1-0.1-0.2,0.1-0.3c0.2-0.1,0.4-0.3,0.5-0.5
		c0.1-0.2,0.2-0.3,0.4-0.3c0.2-0.1,0.3-0.1,0.5,0c0.4,0.1,0.7,0.2,1.1,0.3c0.3,0.1,0.7,0.3,1.4,0.6c0.7,0.1,1.3,0.2,2,0.3
		c0.6,0.1,1.3,0.3,2,0.5c0.1,0,0.2,0.1,0.4,0.1c0.1,0,0.3,0,0.3,0.1c-0.1,0.3-0.2,0.5-0.3,0.7c-0.1,0.3-0.2,0.5-0.4,1
		C62.7,51.5,62.3,51.5,61.7,51.4L61.7,51.4L61.7,51.4z M58.2,50.7l-0.1,0.1c-0.1,0.1-0.2,0.1-0.2,0.1c-0.1,0-0.1-0.1-0.2-0.2
		c-0.3-0.4-0.5-0.5-0.7-0.6c-0.2-0.1-0.4-0.2-0.4-0.5c-0.1,0.1-0.1,0.1-0.1,0.2s0.1,0.2,0.1,0.2c0.2,0.2,0.4,0.4,0.6,0.5
		c0.2,0.2,0.3,0.3,0.5,0.6c0,0.1-0.1,0.1-0.2,0.2c-0.1,0-0.2,0-0.2-0.1c-0.3-0.3-0.6-0.5-0.9-0.7S56,50.2,56.1,50
		c-0.1,0-0.1,0-0.2,0.1c0,0.1-0.1,0.1,0,0.2c0.1,0.2,0.2,0.4,0.4,0.6c0.2,0.2,0.3,0.3,0.4,0.5c0,0.2-0.2,0.2-0.4,0.1
		c-0.2-0.2-0.5-0.4-0.6-0.9l0,0l0,0c-0.1,0.1-0.1,0.2-0.1,0.3s0.1,0.3,0.3,0.5C56,51.8,56,51.9,56,52c0,0.1-0.1,0.1-0.3,0.1
		c0,0,0,0-0.1,0c0,0-0.1,0,0,0l0,0l0,0l0,0h-0.1c0.1-0.4-0.1-0.6-0.2-0.6c-0.2-0.1-0.3,0-0.4,0l0,0c0.1-0.2,0-0.3-0.2-0.4
		c-0.2-0.1-0.4-0.1-0.6,0c0-0.1-0.1-0.2-0.3-0.3c-0.2-0.1-0.5-0.1-0.9,0c-0.1-0.1-0.2-0.2-0.5-0.2c-0.2,0-0.5,0.1-0.9,0.5
		c-0.5,0.1-1.2,0.3-1.9,0.5c-0.6,0.2-1.4,0.3-1.9,0.1c0,0-0.2-0.4-0.3-0.9c-0.1-0.4-0.3-0.9-0.3-0.9c0.6-0.1,1.6-0.1,2.6-0.2
		c1-0.1,1.9-0.3,2.3-0.5c0.3-0.2,1-0.4,1.4-0.5c0.5-0.1,1-0.1,1.1,0c0,0.1-0.2,0.3-0.3,0.5c-0.1,0.2-0.2,0.3,0,0.5
		c0.2,0.2,0.6,0.3,1,0.3c0.3,0,0.7-0.2,1-0.3c0.3,0.3,0.7,0.5,1.1,0.6c0.3,0.2,0.7,0.4,0.9,0.9L58.2,50.7L58.2,50.7z M57.3,41.6
		c0.5-0.2,0.7-0.3,0.9-0.3c0.1,0,0.1,0,0.1,0c0,0.1-0.1,0.2-0.1,0.3c-0.1,0.1-0.2,0.2-0.2,0.2c-0.1,0-0.2,0-0.5,0
		c-0.2,0-0.4,0-0.6,0c0.1,0,0.2,0,0.3-0.1C57.2,41.7,57.2,41.7,57.3,41.6L57.3,41.6L57.3,41.6z M55,41.8c-0.2,0-0.5,0-0.9,0
		c-0.2,0-0.4,0-0.4,0c-0.1,0-0.3-0.1-0.5-0.2c-0.2-0.1-0.3-0.2-0.3-0.2s0.1,0,0.2,0c0.1,0,0.3-0.1,0.6-0.2c0.3-0.1,0.6,0,0.9,0.2
		C54.7,41.4,54.9,41.7,55,41.8L55,41.8L55,41.8z M54,40.4c-0.2,0-0.4,0.1-0.6,0.1c-0.2,0.1-0.3,0.1-0.5,0.1c0,0,0-0.2,0.2-0.6
		c0.1-0.3,0.4-0.9,0.9-1.4c0.2-0.2,0.5-0.4,0.9-0.6s0.6-0.3,0.9-0.5v-0.1l0,0c-0.2,0-0.5,0.1-0.9,0.1s-0.7-0.1-0.9-0.3
		c0-0.2,0.1-0.5,0.4-0.6c0.2-0.2,0.6-0.3,1.1-0.3c0.2,0,0.5,0,0.7,0.1s0.4,0.2,0.6,0.3c0.2,0.2,0.4,0.4,0.5,0.6
		c0.1,0.2,0.2,0.5,0.2,0.7c-0.3,0.1-0.5,0.2-0.6,0.3c-0.1,0.1-0.2,0.1-0.2,0.1c0.1,0,0.1,0,0.2,0s0.1,0,0.2,0c0.1,0,0.2,0,0.3,0
		c0.1,0,0.1,0,0.2,0c0,0.1,0,0.1,0,0.2c0,0.1,0,0.1,0,0.2h0.1c0,0,0,0,0,0.1c-0.4,0.2-0.7,0.3-1,0.4c-0.2,0.1-0.3,0.2-0.6,0.2
		c0,0-0.1,0-0.2,0s-0.1,0-0.1,0l0,0l0,0c0,0,0.1,0,0.2,0s0.2,0.1,0.3,0.1c0.2,0,0.4-0.1,0.6-0.1c0.2-0.1,0.4-0.1,0.6-0.2
		c0,0.1,0,0.2,0,0.3s0.1,0.1,0.3,0.2l0,0c-0.5,0.3-1,0.4-1.2,0.5c-0.2,0.1-0.4,0-0.4,0l-0.4-0.1l-0.4-0.1c0.1,0.1,0.3,0.2,0.4,0.2
		c0.2,0.1,0.3,0.2,0.5,0.2s0.4-0.1,0.7-0.1c0.3-0.1,0.5-0.2,0.7-0.2l0.1,0.2l0.1,0.2c-0.3,0-0.6,0.2-1.1,0.4
		c-0.3,0.2-0.7,0.3-1.3,0.2c-0.2-0.2-0.5-0.4-0.9-0.6C54.6,40.7,54.4,40.4,54,40.4L54,40.4L54,40.4z M55.9,45h8.3
		c0,0.1-0.1,0.9-0.1,1.7c-0.1,0.7-0.2,1.7-0.5,2.5c-0.9,0-1.6-0.2-2.5-0.4c-0.7-0.2-1.5-0.4-2.1-0.4c-0.4-0.1-0.9-0.3-1.5-0.6
		c-0.5-0.2-1.1-0.4-1.7-0.4L55.9,45L55.9,45z M46.6,46.4c-0.1-0.7,0-1.3,0-1.3h8.4c0,0,0,2.6,0,2.7c-0.2,0-0.5-0.1-0.9-0.1
		s-0.5,0-0.9,0c-0.7,0.1-1.1,0.4-1.7,0.6c-0.7,0.2-1.9,0.4-4.6,0.5C46.7,47.9,46.6,47.1,46.6,46.4L46.6,46.4L46.6,46.4z M54.2,33.5
		h2.6C55.6,33.2,54.6,33.3,54.2,33.5C54.2,33.4,54.2,33.5,54.2,33.5L54.2,33.5L54.2,33.5z M51,34.9h8.8c0,0-0.1,0-0.1-0.1
		c0,0,0,0-0.1,0c0-0.1,0-0.1-0.1-0.1c-0.6-0.5-1.4-0.9-2-1.1h-3.9C52.6,33.9,51.8,34.4,51,34.9L51,34.9L51,34.9z M53.7,36.5h-4.4
		c-0.3,0.4-0.6,0.7-0.9,1.2h5c-0.1-0.1-0.1-0.1-0.2-0.2C53.4,37.1,53.5,36.8,53.7,36.5L53.7,36.5L53.7,36.5z M55,43.5h-8.3
		c-0.1,0.6-0.1,1.1-0.1,1.1H55L55,43.5L55,43.5z M64.1,43.5h-8.2v0.9v0.2h8.3C64.2,44.6,64.2,44.2,64.1,43.5L64.1,43.5L64.1,43.5z
		 M63.9,42.2h-5.5c-0.2,0.1-0.5,0.1-0.9,0.1c-0.7,0.1-1.6-0.1-1.6-0.1v1.1h8.2C64.1,43,64,42.6,63.9,42.2L63.9,42.2L63.9,42.2z
		 M63.6,40.7h-4.7c0.1,0.3-0.1,0.6-0.2,1.1c0,0.1-0.1,0.1-0.1,0.2h5.3C63.8,41.5,63.7,41.1,63.6,40.7L63.6,40.7L63.6,40.7z
		 M63.1,39.3h-4.9c0,0,0,0,0,0.1c0.2,0.7,0.5,1.1,0.6,1.2h4.8C63.4,40.1,63.3,39.7,63.1,39.3L63.1,39.3L63.1,39.3z M62.4,37.9h-4.5
		c0.1,0.4,0.1,0.9,0.2,1.2H63C62.9,38.6,62.6,38.3,62.4,37.9L62.4,37.9L62.4,37.9z M61.5,36.5h-4.2c0.3,0.3,0.5,0.7,0.6,1.2h4.5
		C62,37.2,61.8,36.8,61.5,36.5L61.5,36.5L61.5,36.5z M57,36.3h4.3c-0.4-0.4-0.9-0.9-1.3-1.3h-9.2c-0.4,0.3-0.9,0.7-1.3,1.2h4.4
		c0.2-0.1,0.3-0.2,0.6-0.3c0.3-0.1,0.5-0.1,0.9-0.2C56.1,35.9,56.7,36,57,36.3L57,36.3L57,36.3z M47.8,39.1h5.1
		c0.2-0.3,0.5-0.7,1-1.2c0,0,0,0-0.1,0h-5.4C48.2,38.3,48,38.6,47.8,39.1L47.8,39.1L47.8,39.1z M47.3,40.4h5
		c0.1-0.5,0.3-0.9,0.3-0.9s0.1-0.2,0.2-0.3h-5.1C47.6,39.7,47.5,40.1,47.3,40.4L47.3,40.4L47.3,40.4z M53.4,42.2L53.4,42.2H47
		c-0.1,0.4-0.1,0.9-0.2,1.2h8.3v-1.1c0,0-0.4,0-1.2,0C53.8,42.2,53.6,42.2,53.4,42.2L53.4,42.2L53.4,42.2z M47,41.9h6
		c-0.2-0.1-0.3-0.2-0.4-0.4c-0.1-0.3-0.1-0.5-0.1-0.9h-5C47.2,41.1,47.1,41.5,47,41.9L47,41.9L47,41.9z M57.3,30.5h-0.2
		c0-0.1-0.2-0.2-0.3-0.2v0.1c0,0.1,0,0.1-0.1,0.2c-0.1,0-0.1,0.1-0.1,0.1h-0.2c-0.1,0-0.1-0.1-0.1-0.1c0-0.1-0.1-0.1-0.1-0.2v-0.1
		c0,0,0,0,0-0.1l0,0l-0.2,0.2h-0.2L56,30c0.5-0.1,0.9,0,1.1,0.2C57.3,30.3,57.3,30.5,57.3,30.5L57.3,30.5L57.3,30.5z M57.5,30h-0.1
		c-0.1-0.1-0.3-0.2-0.4-0.2c-0.2,0-0.3,0-0.3,0l-0.9,0.1l0.1-0.3h0.3c0.6,0,0.9,0.1,1.1,0.2C57.4,29.9,57.5,30,57.5,30L57.5,30
		L57.5,30z M53.2,30c0,0,0-0.2,0.2-0.3c0.2-0.1,0.5-0.3,1.2-0.2h0.2l0.1,0.3h-0.4c0,0-0.5-0.1-0.7,0c-0.1,0-0.3,0.1-0.4,0.2H53.2
		L53.2,30z M55.1,30.4c0,0-0.2,0-0.3,0l-0.1-0.1c0,0,0,0,0,0.1c0,0.1,0,0.1-0.1,0.2c-0.1,0-0.1,0.1-0.1,0.1h-0.2
		c-0.1,0-0.1-0.1-0.1-0.1c0-0.1-0.1-0.2-0.1-0.2l0,0c-0.1,0-0.1,0-0.1,0.1c-0.1,0-0.1,0.1-0.1,0.1h-0.2c0,0,0.1-0.1,0.2-0.3
		c0.2-0.1,0.5-0.2,1.1-0.2L55.1,30.4L55.1,30.4z M56.6,57.9c-0.1,0.1-0.3,0.2-0.4,0.2l0,0l0,0c0.1,0,0.2-0.2,0.2-0.5
		c0-0.1,0-0.1-0.1-0.2c0-0.1-0.1-0.1-0.2-0.1c0,0-0.1,0,0-0.1c0.1,0,0.4,0,0.5,0.1C57,57.6,56.8,57.8,56.6,57.9L56.6,57.9L56.6,57.9
		z M55.8,58.1c-0.1,0.1-0.1,0.2-0.1,0.2l0,0l0,0l0,0l0,0c0,0,0-0.1-0.1-0.1c-0.1,0-0.1,0-0.3,0c-0.3,0-0.3,0.1-0.4,0.1
		c0,0.1,0,0.1-0.1,0c0,0-0.1-0.1-0.1-0.2v-0.1v-0.1c0-0.1,0.1-0.2,0.2-0.3c0.1-0.1,0.3-0.1,0.3-0.1c0.1,0,0.2,0,0.3,0.1
		c0.1,0.1,0.2,0.1,0.2,0.2C55.9,57.8,55.9,57.9,55.8,58.1L55.8,58.1L55.8,58.1z M55.6,58.9c0,0,0,0.1-0.1,0.3c0,0.1-0.1,0.3-0.2,0.3
		s-0.2-0.2-0.2-0.3c0-0.1,0-0.3,0-0.3v-0.1c0-0.1,0.1-0.1,0.3-0.2c0.2,0,0.2,0.1,0.3,0.2C55.7,58.8,55.6,58.9,55.6,58.9L55.6,58.9
		L55.6,58.9z M57.2,57.2c0.5-0.1,1-0.3,1.4-0.5c0.5-0.2,1-0.5,1.5-1l0,0l0,0c0,0.2-0.1,0.7-0.2,0.9c-0.2,0.3-0.7,0.6-1.3,0.9
		c-0.5,0.2-1.1,0.4-1.4,0.5c0,0,0,0,0-0.1c0-0.1,0-0.1,0-0.1c0-0.1,0-0.2,0-0.2c0-0.1,0-0.1,0-0.2C57.2,57.3,57.2,57.3,57.2,57.2
		L57.2,57.2L57.2,57.2z M54.3,56.9c-1.5-0.2-2.7-0.9-3.6-1.7c-1.2-1-1.9-2.1-2.5-2.9c-0.1-0.1,0.5-0.3,1.2-0.5
		c0.6-0.2,2.2-0.6,2.2-0.6c0,0.1,0.1,0.2,0.2,0.3c0.1,0.1,0.2,0,0.2,0c0.1,0.1,0.1,0.1,0.1,0.2s0.1,0.2,0.2,0.3
		c0.1,0.1,0.2,0.1,0.3,0.1c0.1,0,0.1,0,0.2-0.1l0,0l0,0c-0.1,0.1,0.1,0.2,0.2,0.3c0.2,0.1,0.4,0.1,0.6,0c0,0.1,0,0.2,0.1,0.2
		c0.1,0.1,0.2,0.1,0.2,0.1c0.1,0,0.2,0.1,0.3,0.1c0.1,0,0.3,0,0.4-0.1c0,0,0,1.7,0,2.1c0,0.4,0.3,0.5,0.3,0.5c0.6,0,0.5-0.3,0.6-0.5
		c0-0.4,0-2.1,0-2.1c0.3-0.1,0.4-0.1,0.4-0.1c0.1-0.1,0.1-0.1,0.2-0.1c0.1,0,0.2,0,0.3,0c0.1,0,0.2-0.1,0.3-0.2c0.1,0,0.3,0,0.4-0.1
		s0.2-0.1,0.2-0.2c0.1,0,0.3,0,0.4-0.1s0.3-0.3,0.4-0.5c0.3,0.1,3.1,1.5,3.6,1.6c-0.2,0.3-1,1.5-2.1,2.5c-1,0.9-2.1,1.6-3.6,1.9
		c-0.1,0-0.1,0-0.2,0c-0.3,0-0.7,0.1-0.9,0.1l0,0l0,0c-0.1,0-0.5-0.1-0.9-0.1C54.4,56.9,54.4,56.9,54.3,56.9L54.3,56.9L54.3,56.9z
		 M56.5,58.6L56.5,58.6c0,0,0.2-0.1,0.4-0.2C56.8,58.5,56.6,58.6,56.5,58.6L56.5,58.6L56.5,58.6z M56.1,59c0.5,0.1,1.7,0.4,2.1,0.5
		h0.1c0,0,0.1-0.1,0.3-0.2c0.1-0.1,0.2-0.2,0.2-0.3c0,0-0.3,0-0.9-0.1c0,0,0,0-0.1,0c-0.3-0.1-1-0.2-1.3-0.2
		c0.4-0.1,1.2-0.3,1.9-0.6c0.9-0.4,1.7-0.9,2.1-1.2c0.5,0.1,0.9-0.1,1.2-0.3c0.3-0.2,0.5-0.5,1-0.7l-0.2-0.1
		c0.2-0.1,0.3-0.2,0.5-0.4c0.2-0.2,0.3-0.3,0.5-0.5c0,0-0.2-0.1-0.3-0.1c0.3-0.1,0.4-0.2,0.4-0.3c0.1-0.2,0.1-0.3,0.4-0.5
		c0,0,0,0-0.1-0.1c0,0,0,0-0.1,0c0.2-0.1,0.3-0.3,0.4-0.5c0.1-0.2,0.2-0.4,0.4-0.6c-0.1,0-0.3-0.1-0.3-0.1c0.3-0.1,0.5-0.3,0.6-0.5
		c0.1-0.2,0.2-0.4,0.4-0.7c0,0-0.2,0-0.3,0c0.2-0.2,0.2-0.3,0.3-0.5s0.1-0.5,0.3-0.7c-0.1,0-0.3,0-0.4,0c0.3-0.1,0.4-0.3,0.5-0.6
		c0.1-0.2,0.2-0.5,0.3-0.9c0,0-0.2-0.1-0.3-0.1c0.1-0.2,0.1-0.2,0.1-0.4c-0.1-0.1-0.1-0.3,0.1-0.9c-0.1,0-0.3,0-0.4,0
		c0.2-0.2,0.3-0.5,0.4-0.7s0-0.6,0.1-0.9c-0.2,0-0.9,0.4-0.7,0.3c0.4-0.3,0.5-0.5,0.5-0.9c0.1-0.3-0.1-0.6,0-1.1
		c-0.2,0-0.3,0.1-0.6,0.3c-0.2,0.2-0.2,0.1,0-0.1c0.3-0.2,0.5-0.4,0.5-0.7c0.1-0.3,0.1-0.6,0.2-1.1c-0.1,0-0.3,0.1-0.4,0.1
		c0.1-0.2-0.1-1.1-0.1-1.4c-0.2,0-0.4,0.2-0.5,0.4c-0.2,0.2-0.2,0.1,0,0c0.3-0.4,0.3-0.7,0.3-1.1s-0.1-0.6-0.1-1c0,0-0.2,0-0.2,0.1
		c0-0.2-0.3-0.9-0.3-1.1c-0.2,0-0.6,0.5-0.5,0.3c0.2-0.3,0.2-0.6,0.1-0.9c-0.1-0.3-0.2-0.5-0.2-1c-0.1,0-0.3,0.1-0.3,0.2
		c0-0.2-0.1-0.4-0.1-0.6c-0.1-0.2-0.2-0.3-0.3-0.6c-0.1,0-0.3,0.1-0.4,0.2C63,36.3,63,36.3,63,36.5c0-0.1,0.1-0.4,0.1-0.5
		c0-0.5-0.1-0.7-0.2-1c-0.1-0.2-0.3-0.4-0.5-0.9c-0.1,0.1-0.2,0.4-0.3,0.5c-0.1-0.3-0.2-0.5-0.3-0.7c-0.1-0.2-0.3-0.4-0.4-0.6
		c-0.1,0.1-0.2,0.3-0.2,0.5c-0.1,0.2-0.1,0.3-0.1,0.5c0-0.1,0,0.1,0,0s0-0.2,0-0.3c0-0.5-0.1-0.7-0.3-1c-0.1-0.1-0.2-0.2-0.4-0.3
		h0.1c0,0-0.1-0.1-0.3-0.2c0,0-0.1-0.1-0.2-0.1c-0.4-0.2-0.9-0.5-1-0.5l0,0c0.1,0-0.1,0,0,0c0.1,0,0.4,0.1,0.5,0
		c0.1,0,0.2-0.1,0.4-0.1s0.3,0,0.6,0.1c-0.1-0.2-0.2-0.3-0.4-0.3c-0.1-0.1-0.3-0.1-0.5-0.1s-0.4-0.1-0.6-0.2l2-0.3l-2-0.3
		c0,0,0.1,0,0.1-0.1c0.1-0.1,0.2-0.1,0.3-0.1c0.1,0,0.2,0,0.3,0c0.1,0,0.2-0.1,0.3-0.2c0-0.1,0.1-0.1,0.2-0.2
		c0.3-0.1,0.4-0.1,0.7-0.1c-0.2-0.1-0.4-0.2-0.5-0.2c-0.2,0-0.3,0.1-0.5,0.1c-0.1,0.1-0.2,0.1-0.3,0.1c-0.1,0-0.3-0.1-0.5,0l1.6-1.1
		l-2,0.4c0.2-0.2,0.3-0.3,0.5-0.4c0.1-0.1,0.3-0.2,0.4-0.4c0-0.1,0.1-0.2,0.2-0.2c0.1-0.1,0.2-0.2,0.4-0.3c-0.2,0-0.3,0-0.5,0.1
		c-0.2,0.1-0.3,0.2-0.5,0.4c-0.1,0-0.2,0.1-0.3,0.1c-0.1,0-0.3,0.1-0.4,0.1l1.2-1.6l-1.7,1.1c0-0.2,0.1-0.3,0.2-0.4
		c0.1-0.1,0.2-0.2,0.2-0.4c0-0.1,0-0.2,0-0.3c0.1-0.2,0.1-0.3,0.3-0.5c-0.2,0.1-0.3,0.2-0.5,0.3c-0.1,0.1-0.2,0.3-0.3,0.6
		c-0.1,0.1-0.1,0.2-0.3,0.2c-0.1,0.1-0.2,0.2-0.3,0.3l0.5-1.9l-1.2,1.7v-0.1c0-0.1,0-0.2,0.1-0.2c0.1-0.2,0.1-0.3,0.1-0.3
		c0-0.1,0-0.2,0-0.3c-0.1-0.1-0.1-0.2-0.1-0.4c0-0.2,0-0.3,0.1-0.5c-0.3,0.2-0.4,0.4-0.4,0.6s0,0.4-0.1,0.6c0,0.1-0.1,0.2-0.1,0.3
		c-0.1,0.1-0.1,0.2-0.1,0.3l-0.3-2.1l-0.4,2C55,27.3,55,27.2,55,27.1s0-0.3-0.1-0.4c-0.1-0.2-0.2-0.2-0.3-0.3
		c-0.1-0.2-0.1-0.4-0.1-0.7c-0.1,0.1-0.1,0.2-0.1,0.4c0,0.2,0,0.4,0.2,0.7c0,0,0,0.2,0,0.3c0,0.2,0,0.3,0,0.5l-1.1-1.7l0.4,2
		c-0.1,0-0.2-0.1-0.3-0.3c-0.1-0.1-0.2-0.3-0.2-0.4c-0.1-0.1-0.3-0.1-0.4-0.2c-0.1-0.1-0.3-0.2-0.4-0.5c0,0.2,0,0.4,0.1,0.5
		c0.1,0.2,0.2,0.3,0.4,0.5c0.1,0.1,0.1,0.2,0.2,0.4c0.1,0.2,0.1,0.3,0.2,0.4l-1.7-1.2l1.2,1.7c-0.2,0-0.3-0.1-0.5-0.2
		c-0.2-0.1-0.3-0.3-0.7-0.2c-0.2,0-0.4-0.1-0.5-0.2c-0.1-0.1-0.2-0.2-0.1-0.1c0.1,0.4,0.3,0.5,0.5,0.6c0.2,0.1,0.4,0.1,0.5,0.3
		c0.1,0,0.1,0.1,0.2,0.2c0.1,0.1,0.2,0.2,0.2,0.2l-2.1-0.7l1.7,1.1c-0.1,0.1-0.3,0-0.5-0.1c-0.2,0-0.4-0.1-0.5,0
		c-0.3,0.1-0.5,0.1-0.7,0.1c-0.1,0-0.2,0-0.2,0c0.2,0.2,0.3,0.3,0.5,0.3c0.2,0,0.3,0,0.5,0c0.1,0,0.3,0,0.4,0.1
		c0.1,0.1,0.3,0.1,0.5,0.2l-2.1,0.4l2,0.3c-0.1,0.1-0.1,0.1-0.2,0.1c-0.1,0-0.2,0-0.3,0s-0.2,0.1-0.3,0.1c-0.1,0.1-0.1,0.1-0.3,0.2
		c-0.1,0.1-0.3,0.1-0.6,0.1c0.2,0.1,0.3,0.2,0.5,0.2c0.2,0,0.3-0.1,0.5-0.1c0.1-0.1,0.2-0.1,0.4-0.1c0.1,0,0.2,0,0.4,0.1l0,0l0,0
		c-0.2,0-1.4,0.7-1.4,0.7c0.2,0-0.1,0.2-0.2,0.2c0-0.1,0-0.1-0.1-0.2c0-0.1-0.1-0.1-0.1-0.1c-0.2,0.3-0.3,0.4-0.5,0.5
		c-0.2,0.2-0.3,0.3-0.4,0.6c0-0.1-0.1-0.2-0.1-0.2c0-0.1-0.1-0.1-0.1-0.1c-0.2,0.3-0.3,0.4-0.5,0.6c-0.1,0.2-0.2,0.3-0.3,0.6
		c0-0.1-0.2-0.3-0.2-0.3c-0.1,0.3-0.3,0.6-0.5,0.9c-0.1,0.2-0.2,0.5-0.1,1.1c0,0.1,0.1,0.5,0.1,0.5c0-0.2-0.1-0.4-0.2-0.5
		C47.2,36.1,47.1,36,47,36c-0.1,0.2-0.2,0.4-0.3,0.6c-0.1,0.2-0.1,0.4-0.2,0.6c-0.1-0.1-0.2-0.1-0.3-0.1c0,0.3-0.2,0.6-0.3,0.9
		c-0.1,0.2-0.1,0.5,0.2,1c0.1,0.1-0.3-0.3-0.5-0.3c0,0.2-0.3,1-0.3,1.2c-0.1,0-0.2-0.1-0.2-0.1c0,0.3,0,0.6-0.1,1
		c-0.1,0.5,0.3,0.9,0.1,0.7c-0.1-0.2-0.2-0.2-0.4-0.2c0,0.4,0,0.6-0.1,0.7c-0.1,0.2-0.1,0.4,0.1,0.7c-0.1-0.1-0.4-0.1-0.4-0.1
		c0.1,0.3,0.1,0.6,0.1,0.9c0.1,0.3,0.2,0.5,0.5,0.7c0.2,0.1,0.2,0.3,0,0.1S44.2,44,44.1,44c0.1,0.3,0.1,0.6,0.2,0.9
		c0,0.2,0.1,0.5,0.3,0.7c-0.1-0.1-0.5-0.2-0.6-0.2c0.2,0.3,0.2,0.6,0.3,0.9c0.1,0.3,0.2,0.5,0.5,0.9c0.1-0.1-0.3-0.1-0.4-0.1
		c0.1,0.2,0.2,1.1,0.3,1.2c-0.1,0-0.2,0.1-0.3,0.1c0.2,0.3,0.5,1.2,0.9,1.4c-0.1,0-0.3,0-0.3,0.1c0.1,0.2,0.4,1,0.5,1.2L45.2,51
		c0.2,0.2,0.3,0.4,0.4,0.6c0.1,0.2,0.2,0.4,0.5,0.5c-0.1,0-0.3,0.1-0.3,0.1c0.2,0.2,0.6,0.9,0.9,1c-0.1,0-0.3,0.1-0.3,0.1
		c0.3,0.2,0.4,0.4,0.5,0.5c0.1,0.2,0.3,0.3,0.6,0.4c-0.1,0-0.3,0.1-0.3,0.1c0.3,0.2,0.4,0.4,0.4,0.6c0,0.1,0.1,0.2,0.4,0.3L48,55.5
		c0.3,0.2,0.5,0.5,0.9,0.7c0.3,0.2,0.7,0.5,1.5,0.5l0,0c0.3,0.3,1.1,0.9,1.8,1.2c0.7,0.3,1.5,0.6,2.2,0.7c-0.3-0.1-0.5-0.3-0.6-0.5
		c-1.7-0.4-2.7-1.3-2.9-1.5c-0.1-0.1-0.2-0.7-0.2-1l0,0l0,0c0.5,0.4,1,0.7,1.5,1.1c0.5,0.3,1.1,0.5,1.6,0.6c-0.2,0.3,0,0.7,0,0.7
		c0.1,0.2,0.3,0.4,0.6,0.5h0.1h-0.1c-0.3,0.1-1.1,0.2-1.4,0.3c0,0,0,0-0.1,0c-0.5,0.1-0.9,0.1-0.9,0.1c-0.1,0.1,0.1,0.2,0.2,0.3
		c0.1,0.1,0.2,0.1,0.3,0.2c0,0,0,0,0.1,0c0.4-0.1,1.7-0.4,2.1-0.5l0,0c-0.2,0.4-0.5,0.6-1,0.7s-0.9,0.2-1.3,0.3c0,0,0.1,0.1,0.2,0.2
		c0.1,0.1,0.2,0.2,0.2,0.2c1-0.2,1.5-0.5,1.7-0.7c0.3-0.2,0.3-0.4,0.3-0.4l0.1,0.2c0,0-0.1,0.2-0.3,0.5s-0.7,0.5-1.5,0.6v0l0.2,0.1
		c0.3,0,0.6-0.1,0.9-0.3c0.2-0.2,0.4-0.5,0.6-0.9l0,0c0,0,0.1,0.1,0.2,0.1l0,0c0.1,0,0.1,0,0.2,0c0.1,0,0.2-0.1,0.2-0.1
		c0.2,0.4,0.3,0.6,0.6,0.9c0.2,0.2,0.5,0.3,0.9,0.3c0.1,0,0.2-0.1,0.3-0.1c0.1,0,0.1-0.1,0.1-0.1c-0.5-0.1-1-0.3-1.3-0.6
		s-0.5-0.6-0.5-0.6l0,0l0.1-0.2c0,0.1,0.3,0.4,0.6,0.7c0.3,0.3,0.9,0.5,1.2,0.5c0,0,0.1-0.1,0.1-0.2c0.1-0.1,0.1-0.2,0.1-0.2
		c-0.3,0.1-0.9-0.2-1.3-0.5C56.5,59.3,56.2,59,56.1,59L56.1,59L56.1,59L56.1,59L56.1,59z M54.4,58.2L54.4,58.2
		c-0.1,0-0.7-0.4-0.4-0.7c0,0,0,0,0.1,0c0.2-0.2,0.5-0.1,0.5-0.1C54.1,57.6,54.3,58.2,54.4,58.2L54.4,58.2L54.4,58.2z"/>
</g>
<g>
	<path class="st5" d="M143.7,116.9c0,13.8-11.2,25-25,25s-25-11.2-25-25c0-13.8,11.2-25,25-25C132.5,92,143.7,103.1,143.7,116.9
		L143.7,116.9z"/>
	<path class="st5" d="M118.8,153.6c-31.8,0-57.7,9.7-57.6,48.9v29.9c0,0,10.1,0,18.2,0c1.2-17.3,3.6-35.1,8.6-41.6l0.1,41.6h61.6
		l-0.3-41.6c4.9,6.4,7.7,24.1,9.2,41.3c9.6,0,18.2,0.3,18.2,0.3l-0.4-37.2C176.5,163.3,150.6,153.6,118.8,153.6L118.8,153.6z
		 M118.8,220.7c0,0-17.7-14.4-17.7-21.3c0-5.2,4.2-9.4,9.4-9.4c3.5,0,6.7,2,8.3,5.1c1.5-2.9,4.7-5.1,8.3-5.1c5.2,0,9.4,4.2,9.4,9.4
		C136.5,206.7,118.8,220.7,118.8,220.7L118.8,220.7z"/>
</g>
<g>
	<path class="st6" d="M408.7,232.6L408.7,232.6c-3.2,0-6-2.1-6.7-5.2l-4.5-16.6c-0.1-0.5-0.6-1-1.2-1.1s-1.1,0.1-1.4,0.6l-8.6,18.9
		c-0.4,1-1.3,1.6-2.2,1.7s-2-0.3-2.6-1.2c-0.5-0.9-0.6-1.9-0.2-2.8l8.8-19.1c0-0.1,0.1-0.2,0.1-0.3c1.5-2.5,4.2-3.7,7-3.3
		c2.9,0.4,5.1,2.5,5.8,5.1l4.5,16.6c0.1,0.6,0.7,1.2,1.4,1.1c0.6,0,1.2-0.4,1.4-1.1l1.6-6c0.7-2.7,3-4.7,5.8-5.1
		c2.8-0.4,5.4,0.9,6.9,3.2l4.7,7.6c0.3,0.4,0.7,0.7,1.3,0.6c0.5,0,1-0.3,1.3-0.9c0.9-1.8,2.6-3.1,4.5-3.6c1.9-0.5,4.1-0.2,5.8,1
		l3.3,2.2c0.2,0.1,0.5,0.2,0.7,0.2c1.5,0,2.8,1.4,2.7,2.9s-1.4,2.8-2.9,2.7c-1.3,0-2.6-0.4-3.6-1.2l-3.3-2.2
		c-0.3-0.2-0.7-0.3-1.2-0.2c-0.4,0.1-0.7,0.4-1,0.7c-1.2,2.2-3.4,3.7-6,3.9c-2.6,0.1-4.9-1.2-6.3-3.3l-4.7-7.6
		c-0.3-0.5-0.9-0.7-1.5-0.6c-0.5,0.1-1.1,0.5-1.2,1.1l-1.6,6C414.7,230.6,411.9,232.7,408.7,232.6z"/>
	<path class="st6" d="M461.3,230.8h-5.5c-1.5,0-2.8-1.3-2.8-2.8c0-1.5,1.3-2.8,2.8-2.8h5.5c1.5,0,2.8,1.3,2.8,2.8
		C464.1,229.6,462.8,230.8,461.3,230.8z"/>
</g>
<rect x="323.7" y="244.8" class="st7" width="148.7" height="42.8"/>
</svg>
