<?xml version="1.0" encoding="utf-8"?>
<!-- Generator: Adobe Illustrator 21.0.0, SVG Export Plug-In . SVG Version: 6.00 Build 0)  -->
<svg version="1.1" id="Capa_1" xmlns="http://www.w3.org/2000/svg" xmlns:xlink="http://www.w3.org/1999/xlink" x="0px" y="0px"
	 viewBox="0 0 24 24" style="enable-background:new 0 0 24 24;" xml:space="preserve">
<style type="text/css">
	.st0{fill:#FFFFFF;}
</style>
<path class="st0" d="M18,18.5c0.8,0,1.5-0.7,1.5-1.5s-0.7-1.5-1.5-1.5s-1.5,0.7-1.5,1.5S17.2,18.5,18,18.5 M19.5,9.5H17V12h4.5
	L19.5,9.5 M6,18.5c0.8,0,1.5-0.7,1.5-1.5S6.8,15.5,6,15.5S4.5,16.2,4.5,17S5.2,18.5,6,18.5 M20,8l3,4v5h-2c0,1.7-1.3,3-3,3
	s-3-1.3-3-3H9c0,1.7-1.3,3-3,3s-3-1.3-3-3H1V6c0-1.1,0.9-2,2-2h14v4H20 M8,6v3H5v2h3v3h2v-3h3V9h-3V6H8z"/>
</svg>
