<?xml version="1.0" encoding="utf-8"?>
<!-- Generator: Adobe Illustrator 21.0.0, SVG Export Plug-In . SVG Version: 6.00 Build 0)  -->
<svg version="1.1" id="Layer_1" xmlns="http://www.w3.org/2000/svg" xmlns:xlink="http://www.w3.org/1999/xlink" x="0px" y="0px"
	 viewBox="0 0 512 512" style="enable-background:new 0 0 512 512;" xml:space="preserve">
<style type="text/css">
	.st0{fill:#FFFFFF;}
</style>
<g>
	<g>
		<g>
			<path class="st0" d="M302.5,419c-4.2-2.1-9.3-0.3-11.4,3.9c-1.3,2.6-1.1,5.6,0.2,8c-1.5,2.5-1.6,5.6-0.2,8.3
				c1.5,2.9,4.5,4.5,7.5,4.5c1.3,0,2.7-0.3,4-1c7.2-3.8,8.2-9.1,8.2-11.8C310.8,425.2,306.5,421,302.5,419z"/>
			<path class="st0" d="M286.2,158.3c3.2,2.6,3.9,4.2,3.9,3.9c0,3.3-3.6,8.5-6.3,11.3l-11.2,12.4c-3.1,3.5-2.9,8.9,0.6,12
				c1.6,1.5,3.7,2.2,5.7,2.2c2.3,0,4.7-1,6.3-2.8l10.9-12.1c1.1-1.1,11-11.4,11-23.1c0-5.9-3.3-11.5-10.2-17.1c-3.7-3-9-2.4-12,1.2
				C282,149.9,282.6,155.3,286.2,158.3z"/>
			<path class="st0" d="M208.1,367.5c-9.3-9.9-20.3-25.5-20.3-43.3c0-10.6,4-21.7,11.8-32.8c2.7-3.9,1.8-9.2-2.1-11.9
				c-3.9-2.7-9.2-1.8-11.9,2.1c-9.9,14.1-14.9,28.4-14.9,42.6c0,23.4,13.6,42.8,25,54.9c1.7,1.8,4,2.7,6.2,2.7
				c2.1,0,4.2-0.8,5.8-2.3C211.1,376.4,211.3,371,208.1,367.5z"/>
			<path class="st0" d="M116.8,196.7c-25.3,8.5-39.9,6.9-50.1-5.4L58.4,178l36.2-3c4.7-0.4,8.2-4.5,7.8-9.2
				c-0.4-4.7-4.5-8.2-9.2-7.8l-44.9,3.7l-11.9-19l59-10.6c4.6-0.8,7.7-5.3,6.9-9.9c-0.8-4.6-5.2-7.7-9.9-6.9l-65.7,11.9l-2.1-3.4
				c-5.5-9.8-7.4-13.6-7.4-21.4c0-3.1,4.5-6.8,10.6-8.8l187.2-34c4.6-0.8,7.7-5.3,6.9-9.9s-5.3-7.7-9.9-6.9L24.1,76.9
				c-0.3,0.1-0.6,0.1-0.9,0.2C9.1,81.4,0,91.3,0,102.4c0,12.1,3.5,18.9,9.8,30.1l42.7,68.3c0.2,0.3,0.4,0.6,0.6,0.8
				c10.6,13.2,23.8,17.5,37.1,17.5c10.9,0,22-2.9,31.9-6.2c4.5-1.5,6.9-6.3,5.4-10.8C126.1,197.6,121.3,195.2,116.8,196.7z"/>
			<path class="st0" d="M328.1,77.7c-6.3-3.2-16.8-5.4-28.9-6.3c-4.6-0.3-8.8,3.2-9.1,7.9c-0.3,4.7,3.2,8.8,7.9,9.1
				c10.7,0.7,19,2.8,22.4,4.5c14.1,7,37.9,29.5,37.9,69.2c0,38-40.6,71-41,71.3c-3.7,3-4.3,8.3-1.3,12c1.7,2.1,4.2,3.2,6.7,3.2
				c1.9,0,3.8-0.6,5.3-1.9c1.9-1.5,47.4-38.4,47.4-84.7C375.5,114.2,345.7,86.5,328.1,77.7z"/>
			<path class="st0" d="M488.9,77.2c-0.3-0.1-0.6-0.2-0.9-0.2L300.2,42.8c-4.7-0.8-9.1,2.2-9.9,6.9c-0.8,4.6,2.2,9.1,6.9,9.9
				l187.2,34c6,1.9,10.6,5.7,10.6,8.8c0,7.8-1.9,11.6-7.2,21.1l-2.3,3.7l-65.7-11.9c-4.7-0.9-9.1,2.2-9.9,6.9
				c-0.8,4.6,2.2,9.1,6.9,9.9l59,10.6l-11.9,19l-44.9-3.7c-4.7-0.4-8.8,3.1-9.2,7.8c-0.4,4.7,3.1,8.8,7.8,9.2l36.2,3l-8.3,13.3
				c-10.2,12.3-24.7,13.9-50.1,5.4c-4.5-1.5-9.3,0.9-10.8,5.4c-1.5,4.5,0.9,9.3,5.4,10.8c9.9,3.3,21,6.2,31.9,6.2
				c13.4,0,26.5-4.3,37.1-17.5c0.2-0.3,0.4-0.5,0.6-0.8l42.9-68.6c6.2-10.9,9.6-17.7,9.6-29.8C512,91.3,502.9,81.4,488.9,77.2z"/>
			<path class="st0" d="M235,310c-4.4-1.8-9.3,0.3-11.1,4.7c-1.3,3.3-2,6.5-2,9.6c0,4.8,1.6,9.9,4.9,15.1c1.6,2.6,4.4,4.1,7.3,4.1
				c1.5,0,3.1-0.4,4.5-1.3c4-2.5,5.3-7.7,2.8-11.8c-2-3.3-2.3-5.3-2.3-6.1c0-0.9,0.3-1.9,0.8-3.2C241.5,316.7,239.4,311.8,235,310z"
				/>
			<path class="st0" d="M230.7,119.5c4.7,0,8.5-3.8,8.5-8.5s-3.8-8.5-8.5-8.5h-0.1c-4.7,0-8.5,3.8-8.5,8.5S225.9,119.5,230.7,119.5z
				"/>
			<path class="st0" d="M264.5,209.8v-69.2c9.3-5.4,17.1-13.9,17.1-29.6c0-12.9-6.1-23.1-17.1-30V49.6c9.9-3.5,17.1-12.9,17.1-24
				C281.6,11.5,270.1,0,256,0s-25.6,11.5-25.6,25.6c0,11.1,7.2,20.5,17.1,24V74c-7.5-1.9-16.1-2.9-25.7-2.9c-15,0-29.8,2.6-37.9,6.6
				c-17.6,8.8-47.4,36.5-47.4,84.4c0,46.2,44,82,45.9,83.5l65.1,52v61.1l-23.1,27.8c-0.8,0.8-19.6,19.9-19.6,48.7
				c0,30.9,21.5,41.6,38.9,50.3l1.7,0.8c0.7,0.4,1.4,0.7,2.1,1.1v16.1c0,4.7,3.8,8.5,8.5,8.5c4.7,0,8.5-3.8,8.5-8.5v-8.3
				c5.8,2.2,11.4,3.7,16.5,3.7c8.5,0,13.3-4,15.9-7.4c10.4-13.7-1.2-29.9-10.2-37.6l-26.3-19.7l52.2-52.3c1.2-1,28.6-24.5,28.6-57.7
				c0-37.2-26.9-64.6-28.1-65.8L264.5,209.8z M256,17.1c4.7,0,8.5,3.8,8.5,8.5s-3.8,8.5-8.5,8.5c-4.7,0-8.5-3.8-8.5-8.5
				C247.5,20.9,251.3,17.1,256,17.1z M301.2,369.4l-59.7,59.7c-1.7,1.7-2.7,4.2-2.5,6.6c0.2,2.5,1.4,4.7,3.4,6.2l33.7,25.2
				c3.1,2.7,9.8,10.7,7.3,14c-0.2,0.2-0.5,0.6-2.3,0.6c-6.5,0-18-5.7-28.1-10.8l-1.7-0.8c-18.2-9.1-29.4-15.7-29.4-35
				c0-21.6,14.4-36.5,15.1-37.2l42.1-50.6c1.1-1.1,11-11.4,11-23.1s-9.9-22-11-23.1c-0.2-0.2-0.5-0.4-0.7-0.6l-85.3-68.3
				c-0.4-0.3-39.5-32.2-39.5-70.1c0-39.6,23.9-62.1,37.9-69.2c4.8-2.4,16.7-4.8,30.2-4.8c10,0,42.8,1.6,42.8,22.8
				c0,11.9-6.6,15.3-23,20.7c-5,1.7-10.2,3.4-15,5.8c-5.1,2.6-21.8,11.9-21.8,24.7c0,11.7,9.9,22,11,23.1l33.8,33.8
				c0.3,0.3,0.6,0.6,0.9,0.9l50.7,50.7c0.2,0.2,23.1,23.5,23.1,53.7C324.3,349.5,301.9,368.8,301.2,369.4z M264.5,338.3v-27l2.8,2.2
				c2.4,2.6,5.8,7.5,5.8,10.7c0,3.3-3.6,8.6-6.6,11.6L264.5,338.3z M247.5,147.7v45.1l-19.5-19.5c-2.4-2.5-6.1-7.7-6.1-10.7
				c0.7-2.1,6.8-7,12.4-9.8c3.7-1.9,8.1-3.3,12.7-4.9C247.1,147.8,247.3,147.7,247.5,147.7z"/>
		</g>
	</g>
</g>
</svg>
