<?xml version="1.0" encoding="utf-8"?>
<!-- Generator: Adobe Illustrator 25.3.1, SVG Export Plug-In . SVG Version: 6.00 Build 0)  -->
<svg version="1.1" id="Capa_1" xmlns="http://www.w3.org/2000/svg" xmlns:xlink="http://www.w3.org/1999/xlink" x="0px" y="0px"
	 viewBox="0 0 21.8 31.2" style="enable-background:new 0 0 21.8 31.2;" xml:space="preserve">
<style type="text/css">
	.st0{fill:#34ADA8;}
	.st1{fill:#FFFFFF;}
	.st2{fill:#E65B5F;}
</style>
<g>
	<path class="st0" d="M10.9,0c2,0,3.8,0.5,5.5,1.5c1.7,1,3,2.3,4,3.9s1.5,3.5,1.5,5.5c0,3.4-1.8,7.8-5.4,13.2c-1.9,2.7-3.7,5-5.5,7
		l-1.7-2c-1.4-1.7-2.6-3.4-3.8-5c-1.6-2.4-2.8-4.6-3.7-6.6C0.6,15,0,12.8,0,10.8s0.5-3.8,1.5-5.4s2.3-3,3.9-4S8.9,0,10.9,0z"/>
	<path class="st1" d="M10.9,18.9c2.2,0,4-0.8,5.5-2.3c1.5-1.5,2.3-3.4,2.3-5.6S18,6.9,16.5,5.3S13.1,3,10.9,3s-4,0.8-5.5,2.3
		s-2.3,3.4-2.3,5.6s0.8,4.1,2.3,5.6C6.9,18.1,8.7,18.9,10.9,18.9z"/>
	<polygon class="st2" points="16.4,9.4 12.4,9.4 12.4,5.4 9.4,5.4 9.4,9.4 5.4,9.4 5.4,12.4 9.4,12.4 9.4,16.4 12.4,16.4 12.4,12.4 
		16.4,12.4 	"/>
</g>
</svg>
