<?xml version="1.0" encoding="utf-8"?>
<!-- Generator: Adobe Illustrator 25.3.1, SVG Export Plug-In . SVG Version: 6.00 Build 0)  -->
<svg version="1.1" id="Capa_1" xmlns="http://www.w3.org/2000/svg" xmlns:xlink="http://www.w3.org/1999/xlink" x="0px" y="0px"
	 viewBox="0 0 69.05 51.88" style="enable-background:new 0 0 69.05 51.88;" xml:space="preserve">
<style type="text/css">
	.st0{fill:#EDEDED;}
	.st1{fill:#3283A2;}
	.st2{fill:none;stroke:#3283A2;stroke-width:1.6035;stroke-miterlimit:10;}
	.st3{fill:#32B9EC;}
	.st4{fill:#247B9C;}
</style>
<g>
	<g>
		<path class="st0" d="M60.33,22.85H8.73c-4.8,0-8.73-3.93-8.73-8.73l0-5.4C0,3.93,3.93,0,8.73,0l51.6,0c4.8,0,8.73,3.93,8.73,8.73
			v5.4C69.05,18.93,65.13,22.85,60.33,22.85z"/>
		<g>
			<g>
				<path class="st1" d="M16.28,5.94v8.03c0,0.7,0.02,1.45,0.06,1.91H14.8l-0.08-1.08h-0.03c-0.41,0.76-1.23,1.23-2.21,1.23
					c-1.63,0-2.92-1.39-2.92-3.49c-0.01-2.29,1.42-3.64,3.06-3.64c0.93,0,1.61,0.38,1.91,0.89h0.03V5.94H16.28z M14.56,11.9
					c0-0.14-0.01-0.31-0.04-0.45c-0.15-0.66-0.71-1.21-1.48-1.21c-1.11,0-1.73,0.98-1.73,2.24c0,1.25,0.62,2.17,1.71,2.17
					c0.7,0,1.31-0.48,1.49-1.23c0.04-0.15,0.05-0.32,0.05-0.5V11.9z"/>
				<path class="st1" d="M19.35,12.95c0.05,1.24,1,1.78,2.11,1.78c0.79,0,1.36-0.12,1.88-0.32l0.26,1.19
					c-0.58,0.25-1.39,0.43-2.38,0.43c-2.21,0-3.51-1.37-3.51-3.46c0-1.88,1.14-3.66,3.33-3.66c2.22,0,2.94,1.82,2.94,3.32
					c0,0.32-0.03,0.58-0.06,0.72H19.35z M22.34,11.75c0.01-0.63-0.27-1.66-1.42-1.66c-1.06,0-1.5,0.96-1.58,1.66H22.34z"/>
				<path class="st1" d="M27.33,7.11v1.95h1.64v1.28h-1.64v3.01c0,0.83,0.22,1.26,0.88,1.26c0.29,0,0.52-0.03,0.67-0.08l0.03,1.31
					c-0.26,0.1-0.71,0.18-1.25,0.18c-0.63,0-1.16-0.22-1.48-0.56c-0.37-0.39-0.54-1.02-0.54-1.91v-3.21h-0.97V9.06h0.97V7.52
					L27.33,7.11z"/>
				<path class="st1" d="M31.48,12.95c0.05,1.24,1,1.78,2.11,1.78c0.79,0,1.36-0.12,1.88-0.32l0.26,1.19
					c-0.58,0.25-1.39,0.43-2.38,0.43c-2.21,0-3.51-1.37-3.51-3.46c0-1.88,1.14-3.66,3.33-3.66c2.22,0,2.94,1.82,2.94,3.32
					c0,0.32-0.03,0.58-0.06,0.72H31.48z M34.48,11.75c0.01-0.63-0.27-1.66-1.42-1.66c-1.06,0-1.5,0.96-1.58,1.66H34.48z"/>
				<path class="st1" d="M42.5,15.68c-0.36,0.17-1.07,0.35-1.92,0.35c-2.14,0-3.52-1.37-3.52-3.49c0-2.04,1.4-3.63,3.79-3.63
					c0.64,0,1.27,0.14,1.67,0.31l-0.31,1.3c-0.28-0.14-0.69-0.27-1.3-0.27c-1.32,0-2.09,0.96-2.09,2.21c0,1.4,0.92,2.2,2.09,2.2
					c0.59,0,1.02-0.13,1.35-0.27L42.5,15.68z"/>
				<path class="st1" d="M45.75,7.11v1.95h1.64v1.28h-1.64v3.01c0,0.83,0.22,1.26,0.88,1.26c0.29,0,0.52-0.03,0.67-0.08l0.04,1.31
					c-0.26,0.1-0.71,0.18-1.25,0.18c-0.63,0-1.16-0.22-1.48-0.56c-0.37-0.39-0.54-1.02-0.54-1.91v-3.21h-0.97V9.06h0.97V7.52
					L45.75,7.11z"/>
				<path class="st1" d="M52.53,15.88l-0.12-0.76h-0.04c-0.41,0.54-1.13,0.91-2.01,0.91c-1.38,0-2.15-0.99-2.15-2.03
					c0-1.72,1.53-2.59,4.04-2.58v-0.11c0-0.45-0.18-1.19-1.38-1.19c-0.67,0-1.37,0.22-1.83,0.51L48.7,9.51
					c0.51-0.31,1.4-0.6,2.47-0.6c2.19,0,2.81,1.38,2.81,2.88v2.46c0,0.62,0.03,1.22,0.11,1.64H52.53z M52.3,12.54
					c-1.22-0.02-2.38,0.24-2.38,1.28c0,0.67,0.44,0.98,0.98,0.98c0.69,0,1.18-0.44,1.35-0.94c0.04-0.12,0.05-0.26,0.05-0.38V12.54z"
					/>
				<path class="st1" d="M55.8,11.26c0-0.91-0.02-1.58-0.06-2.19h1.49l0.06,1.3h0.05c0.34-0.96,1.13-1.45,1.87-1.45
					c0.17,0,0.27,0.01,0.4,0.04v1.62c-0.15-0.03-0.3-0.05-0.5-0.05c-0.82,0-1.39,0.52-1.55,1.3c-0.03,0.15-0.04,0.33-0.04,0.52v3.54
					H55.8V11.26z"/>
			</g>
		</g>
		<line class="st2" x1="48.79" y1="18.21" x2="59.67" y2="18.21"/>
	</g>
	<g>
		<path class="st3" d="M34.53,20.69c2,0,3.83,0.49,5.49,1.46c1.66,0.98,2.98,2.29,3.95,3.95c0.98,1.66,1.46,3.49,1.46,5.49
			c0,3.42-1.81,7.83-5.42,13.25c-1.85,2.68-3.68,5.03-5.49,7.03l-1.68-1.98c-1.37-1.71-2.64-3.39-3.81-5.05
			c-1.56-2.39-2.81-4.59-3.73-6.59c-1.12-2.54-1.68-4.78-1.68-6.74s0.49-3.76,1.46-5.42c0.98-1.66,2.29-2.98,3.95-3.95
			C30.7,21.18,32.53,20.69,34.53,20.69z M34.53,39.55c2.17,0,4.02-0.77,5.55-2.32c1.53-1.54,2.29-3.41,2.29-5.6s-0.76-4.06-2.29-5.6
			c-1.53-1.54-3.38-2.32-5.55-2.32s-4.02,0.77-5.55,2.32c-1.53,1.54-2.29,3.41-2.29,5.6s0.76,4.06,2.29,5.6
			C30.51,38.78,32.36,39.55,34.53,39.55z"/>
		<polygon class="st4" points="40.03,30.05 36.03,30.05 36.03,26.05 33.03,26.05 33.03,30.05 29.03,30.05 29.03,33.05 33.03,33.05 
			33.03,37.05 36.03,37.05 36.03,33.05 40.03,33.05 		"/>
	</g>
</g>
</svg>
