<?xml version="1.0" encoding="utf-8"?>
<!-- Generator: Adobe Illustrator 25.3.1, SVG Export Plug-In . SVG Version: 6.00 Build 0)  -->
<svg version="1.1" id="Capa_1" xmlns="http://www.w3.org/2000/svg" xmlns:xlink="http://www.w3.org/1999/xlink" x="0px" y="0px"
	 viewBox="0 0 21.82 31.19" style="enable-background:new 0 0 21.82 31.19;" xml:space="preserve">
<style type="text/css">
	.st0{fill:#FFFFFF;}
	.st1{fill:#DD4665;}
	.st2{fill:#898989;}
</style>
<g>
	<g>
		<path class="st0" d="M16.53,5.34C15,3.8,13.15,3.03,10.98,3.03S6.96,3.8,5.43,5.34c-1.53,1.54-2.29,3.41-2.29,5.6
			s0.76,4.06,2.29,5.6c1.53,1.54,3.38,2.32,5.55,2.32s4.02-0.77,5.55-2.32c1.53-1.54,2.29-3.41,2.29-5.6S18.06,6.89,16.53,5.34z"/>
		<path class="st1" d="M16.4,1.46C14.74,0.49,12.91,0,10.91,0S7.08,0.49,5.42,1.46C3.76,2.44,2.44,3.76,1.46,5.42
			C0.49,7.08,0,8.88,0,10.83c0,1.95,0.56,4.2,1.68,6.74c0.93,2,2.17,4.2,3.73,6.59c1.17,1.66,2.44,3.34,3.81,5.05l1.68,1.98
			c1.81-2,3.64-4.34,5.49-7.03c3.61-5.42,5.42-9.83,5.42-13.25c0-2-0.49-3.83-1.46-5.49S18.06,2.44,16.4,1.46z M10.98,18.86
			c-4.37,0-7.92-3.54-7.92-7.92s3.54-7.92,7.92-7.92c4.37,0,7.92,3.54,7.92,7.92S15.36,18.86,10.98,18.86z"/>
	</g>
	<path class="st2" d="M11.52,10.53c1.26-0.28,2.2-1.4,2.2-2.74c0-1.55-1.26-2.82-2.82-2.82S8.09,6.23,8.09,7.79
		c0,1.34,0.94,2.46,2.2,2.74c-2.35,0.6-6.33,4.16-4.93,5.57c1.53,1.54,3.38,2.32,5.55,2.32s4.02-0.77,5.55-2.32
		C17.86,14.69,13.87,11.13,11.52,10.53z"/>
</g>
</svg>
