<?xml version="1.0" encoding="utf-8"?>
<!-- Generator: Adobe Illustrator 25.3.1, SVG Export Plug-In . SVG Version: 6.00 Build 0)  -->
<svg version="1.1" id="Capa_1" xmlns="http://www.w3.org/2000/svg" xmlns:xlink="http://www.w3.org/1999/xlink" x="0px" y="0px"
	 viewBox="0 0 69.05 51.41" style="enable-background:new 0 0 69.05 51.41;" xml:space="preserve">
<style type="text/css">
	.st0{fill:#EDEDED;}
	.st1{fill:#3283A2;}
	.st2{fill:#32B9EC;}
	.st3{fill:#FFFFFF;}
</style>
<g>
	<g>
		<path class="st0" d="M60.33,22.85H8.73c-4.8,0-8.73-3.93-8.73-8.73l0-5.4C0,3.93,3.93,0,8.73,0l51.6,0c4.8,0,8.73,3.93,8.73,8.73
			v5.4C69.05,18.93,65.13,22.85,60.33,22.85z"/>
		<g>
			<g>
				<g>
					<path class="st1" d="M5.11,9.11l0.95,2.96c0.17,0.51,0.29,0.98,0.4,1.46H6.5c0.11-0.48,0.24-0.94,0.4-1.46l0.92-2.96h1.55
						l-2.23,5.84H5.69L3.52,9.11H5.11z"/>
					<path class="st1" d="M13.56,14.95l-0.1-0.65h-0.04c-0.35,0.46-0.96,0.78-1.72,0.78c-1.18,0-1.84-0.85-1.84-1.74
						c0-1.47,1.31-2.22,3.46-2.21v-0.1c0-0.38-0.15-1.02-1.19-1.02c-0.57,0-1.17,0.18-1.57,0.44L10.28,9.5
						c0.44-0.27,1.2-0.52,2.12-0.52c1.87,0,2.41,1.18,2.41,2.46v2.1c0,0.53,0.03,1.05,0.09,1.41H13.56z M13.37,12.09
						c-1.04-0.01-2.04,0.21-2.04,1.09c0,0.57,0.38,0.84,0.84,0.84c0.59,0,1.01-0.38,1.16-0.81c0.03-0.1,0.04-0.22,0.04-0.32V12.09z"
						/>
					<path class="st1" d="M20.66,14.77c-0.31,0.14-0.92,0.3-1.65,0.3c-1.83,0-3.01-1.17-3.01-2.99c0-1.75,1.19-3.11,3.25-3.11
						c0.55,0,1.09,0.12,1.43,0.27l-0.26,1.11c-0.24-0.12-0.59-0.23-1.12-0.23c-1.13,0-1.79,0.82-1.79,1.89
						c0,1.2,0.79,1.88,1.79,1.88c0.51,0,0.87-0.11,1.16-0.23L20.66,14.77z"/>
					<path class="st1" d="M26.99,13.2c0,0.69,0.02,1.27,0.05,1.75h-1.29l-0.07-0.88h-0.03c-0.25,0.41-0.82,1.01-1.87,1.01
						c-1.06,0-2.03-0.64-2.03-2.55V9.11h1.48v3.18c0,0.97,0.31,1.59,1.09,1.59c0.59,0,0.97-0.41,1.13-0.79
						c0.05-0.13,0.08-0.29,0.08-0.46V9.11h1.48V13.2z"/>
					<path class="st1" d="M28.59,10.85c0-0.67-0.02-1.23-0.05-1.74h1.29l0.07,0.88h0.03c0.26-0.45,0.89-1.01,1.86-1.01
						c1.02,0,2.08,0.66,2.08,2.5v3.47H32.4v-3.29c0-0.84-0.31-1.48-1.11-1.48c-0.59,0-0.99,0.42-1.15,0.87
						c-0.05,0.12-0.07,0.3-0.07,0.47v3.44h-1.48V10.85z"/>
					<path class="st1" d="M38.74,14.95l-0.1-0.65H38.6c-0.35,0.46-0.96,0.78-1.72,0.78c-1.18,0-1.84-0.85-1.84-1.74
						c0-1.47,1.31-2.22,3.46-2.21v-0.1c0-0.38-0.15-1.02-1.19-1.02c-0.57,0-1.17,0.18-1.57,0.44L35.46,9.5
						c0.44-0.27,1.2-0.52,2.12-0.52c1.87,0,2.41,1.18,2.41,2.46v2.1c0,0.53,0.03,1.05,0.09,1.41H38.74z M38.54,12.09
						c-1.04-0.01-2.04,0.21-2.04,1.09c0,0.57,0.38,0.84,0.84,0.84c0.59,0,1.01-0.38,1.16-0.81c0.03-0.1,0.04-0.22,0.04-0.32V12.09z"
						/>
					<path class="st1" d="M43.24,7.44v1.67h1.4v1.1h-1.4v2.58c0,0.71,0.19,1.08,0.75,1.08c0.25,0,0.44-0.03,0.57-0.06l0.03,1.12
						c-0.22,0.08-0.61,0.15-1.07,0.15c-0.54,0-0.99-0.19-1.27-0.48c-0.32-0.33-0.46-0.87-0.46-1.64v-2.75h-0.83v-1.1h0.83V7.79
						L43.24,7.44z"/>
					<path class="st1" d="M51.31,11.97c0,2.15-1.51,3.11-3,3.11c-1.65,0-2.92-1.14-2.92-3.01c0-1.92,1.26-3.09,3.02-3.09
						C50.15,8.98,51.31,10.2,51.31,11.97z M46.91,12.04c0,1.12,0.56,1.97,1.45,1.97c0.85,0,1.43-0.82,1.43-1.99
						c0-0.92-0.41-1.97-1.43-1.97C47.33,10.05,46.91,11.06,46.91,12.04z"/>
					<path class="st1" d="M52.53,10.99c0-0.78-0.02-1.36-0.05-1.88h1.28l0.05,1.11h0.04c0.29-0.82,0.97-1.24,1.6-1.24
						c0.14,0,0.23,0.01,0.35,0.03v1.39c-0.13-0.03-0.25-0.04-0.43-0.04c-0.7,0-1.19,0.45-1.32,1.12c-0.03,0.13-0.04,0.29-0.04,0.44
						v3.03h-1.48V10.99z"/>
					<path class="st1" d="M58.37,7.48c0,0.44-0.32,0.8-0.84,0.8c-0.49,0-0.81-0.36-0.81-0.8c0-0.45,0.33-0.8,0.83-0.8
						C58.04,6.68,58.36,7.02,58.37,7.48z M56.8,14.95V9.11h1.48v5.84H56.8z"/>
					<path class="st1" d="M65.42,11.97c0,2.15-1.51,3.11-3,3.11c-1.65,0-2.92-1.14-2.92-3.01c0-1.92,1.26-3.09,3.02-3.09
						C64.26,8.98,65.42,10.2,65.42,11.97z M61.02,12.04c0,1.12,0.56,1.97,1.45,1.97c0.85,0,1.43-0.82,1.43-1.99
						c0-0.92-0.41-1.97-1.42-1.97C61.44,10.05,61.02,11.06,61.02,12.04z"/>
				</g>
			</g>
		</g>
	</g>
	<g>
		<path class="st2" d="M34.74,20.23c2,0,3.83,0.49,5.49,1.46c1.66,0.98,2.98,2.29,3.95,3.95c0.98,1.66,1.46,3.49,1.46,5.49
			c0,3.42-1.81,7.83-5.42,13.25c-1.85,2.68-3.68,5.03-5.49,7.03l-1.68-1.98c-1.37-1.71-2.64-3.39-3.81-5.05
			c-1.56-2.39-2.81-4.59-3.73-6.59c-1.12-2.54-1.68-4.78-1.68-6.74c0-1.95,0.49-3.76,1.46-5.42c0.98-1.66,2.29-2.98,3.95-3.95
			C30.91,20.71,32.74,20.23,34.74,20.23z"/>
	</g>
	<path class="st3" d="M42.02,25.38c-0.14-0.14-0.36-0.14-0.5,0l-2.1,2.1l-0.25-0.25c-0.28-0.28-0.66-0.44-1.06-0.44
		c-0.4,0-0.78,0.16-1.06,0.44l-6.96,6.97l-0.42-0.42c-0.1-0.1-0.24-0.16-0.38-0.16c-0.15,0-0.28,0.06-0.38,0.16l-0.01,0.01
		c-0.21,0.21-0.21,0.56,0,0.77l0.81,0.81l-1.15,1.15l-0.03-0.03c-0.1-0.1-0.24-0.16-0.39-0.16c-0.15,0-0.28,0.06-0.39,0.16
		l-0.01,0.01c-0.21,0.21-0.21,0.56,0,0.78l2.44,2.44c0.1,0.1,0.24,0.16,0.39,0.16c0.15,0,0.28-0.06,0.39-0.16l0.01-0.01
		c0.21-0.21,0.21-0.56,0-0.78l-0.03-0.03l1.15-1.15l0.81,0.81c0.1,0.1,0.24,0.16,0.38,0.16c0.15,0,0.28-0.06,0.39-0.16l0.01-0.01
		c0.21-0.21,0.21-0.56,0-0.77l-0.43-0.43l6.96-6.97c0.59-0.59,0.59-1.54,0-2.12l-0.28-0.28l2.1-2.1
		C42.16,25.73,42.16,25.51,42.02,25.38z M39.71,29.88l-3.64,3.64l-0.37-0.37l3.05-3.05c0.14-0.14,0.14-0.36,0-0.5
		c-0.01-0.01-0.02-0.02-0.03-0.03c-0.01-0.01-0.02-0.02-0.03-0.03l-0.71-0.71c-0.14-0.14-0.36-0.14-0.5,0
		c-0.14,0.14-0.14,0.36,0,0.5l0.52,0.52l-0.35,0.35l-0.52-0.52c-0.14-0.14-0.36-0.14-0.5,0c-0.14,0.14-0.14,0.36,0,0.5l0.52,0.52
		l-0.35,0.35l-0.52-0.52c-0.14-0.14-0.36-0.14-0.5,0c-0.14,0.14-0.14,0.36,0,0.5l0.52,0.52l-0.35,0.35l-0.52-0.52
		c-0.14-0.14-0.36-0.14-0.5,0c-0.14,0.14-0.14,0.36,0,0.5l0.52,0.52l-0.28,0.28l-1.3-1.3l3.64-3.64c0.15-0.15,0.35-0.24,0.57-0.24
		c0.21,0,0.41,0.08,0.57,0.23l1.02,1.02C40.02,29.06,40.02,29.57,39.71,29.88z"/>
</g>
</svg>
