<?xml version="1.0" encoding="utf-8"?>
<!-- Generator: Adobe Illustrator 21.0.0, SVG Export Plug-In . SVG Version: 6.00 Build 0)  -->
<svg version="1.1" id="Capa_1" xmlns="http://www.w3.org/2000/svg" xmlns:xlink="http://www.w3.org/1999/xlink" x="0px" y="0px"
	 width="60px" height="60px" viewBox="0 0 60 60" style="enable-background:new 0 0 60 60;" xml:space="preserve">
<style type="text/css">
	.st0{fill:#FFFFFF;}
</style>
<title>andes-profesiona-circulo</title>
<g>
	<path class="st0" d="M38.3,20.4c0,4.6-3.7,8.3-8.3,8.3s-8.3-3.7-8.3-8.3s3.7-8.3,8.3-8.3h0C34.6,12.1,38.3,15.8,38.3,20.4
		C38.3,20.4,38.3,20.4,38.3,20.4z"/>
	<path class="st0" d="M11.2,52.5V41.8c0-5.7,4.7-10.4,10.4-10.4c0,0,0,0,0,0h0.1l0.4,4.6c0.1,0.6,0.6,1.1,1.2,1.3l2.6,0.5l-0.6,1.9
		c-0.1,0.4-0.1,0.8,0.1,1.1l3.4,6.7c0.3,0.5,0.8,0.7,1.3,0.7c0.5,0,1-0.3,1.2-0.7l3.4-6.7c0.2-0.3,0.2-0.7,0.1-1.1l-0.6-1.9l2.6-0.5
		c0.6-0.1,1.1-0.7,1.2-1.3l0.4-4.6h0.1c5.7,0,10.3,4.6,10.3,10.3c0,0,0,0.1,0,0.1v10.6C36.8,61.9,20,59.6,11.2,52.5z M43.6,48.8
		c0.8,0,1.4-0.6,1.5-1.4c0-0.8-0.6-1.4-1.4-1.4c0,0-0.1,0-0.1,0h-2.2v-2.1c0-0.8-0.6-1.4-1.4-1.5c-0.8,0-1.4,0.6-1.4,1.4
		c0,0,0,0.1,0,0.1V46h-2.1c-0.8,0-1.4,0.6-1.5,1.4c0,0.8,0.6,1.4,1.4,1.4c0,0,0.1,0,0.1,0h2.1V51c0,0.8,0.6,1.4,1.4,1.5
		c0.8,0,1.4-0.6,1.4-1.4c0,0,0-0.1,0-0.1v-2.2H43.6z"/>
	<path class="st0" d="M31.9,35.4l3.2-0.6l0.2-3.3H24.6l0.2,3.3l3.2,0.6c0.4,0.1,0.7,0.3,0.9,0.7c0.2,0.4,0.3,0.8,0.2,1.2l-1,2.9
		l1.9,3.6l1.9-3.7l-1-2.9C30.7,36.4,31.1,35.6,31.9,35.4c0-0.1,0.1-0.1,0.1-0.1L31.9,35.4z"/>
</g>
<path class="st0" d="M30,60C13.4,60,0,46.6,0,30S13.4,0,30,0s30,13.4,30,30S46.6,60,30,60z M30,1.6C14.3,1.6,1.6,14.3,1.6,30
	S14.3,58.4,30,58.4S58.4,45.7,58.4,30C58.3,14.3,45.7,1.7,30,1.6z"/>
</svg>
