<?xml version="1.0" encoding="utf-8"?>
<!-- Generator: Adobe Illustrator 22.0.1, SVG Export Plug-In . SVG Version: 6.00 Build 0)  -->
<svg version="1.1" id="Capa_1" xmlns="http://www.w3.org/2000/svg" xmlns:xlink="http://www.w3.org/1999/xlink" x="0px" y="0px"
	 width="60px" height="60px" viewBox="0 0 60 60" enable-background="new 0 0 60 60" xml:space="preserve">
<g>
	<path fill="#F29100" d="M50.2,25.4c-0.4,0-0.8,0.4-0.8,0.8c0,0.4,0.4,0.8,0.8,0.8c0.4,0,0.8-0.4,0.8-0.8
		C51,25.8,50.7,25.4,50.2,25.4z"/>
	<circle fill="#F29100" cx="10.6" cy="31.7" r="0.8"/>
	<path fill="#F29100" d="M33.2,25.5c-1.7,0-3.1,1.8-3.1,4.1s1.4,4.1,3.1,4.1c1.7,0,3.1-1.8,3.1-4.1C36.3,27.4,34.9,25.5,33.2,25.5z"
		/>
	<path fill="#F29100" d="M58.9,17.4c-0.4-0.4-1-0.6-1.5-0.6c-0.3,0-0.7,0.1-1,0.2l-12.7,6.2L31.8,9.5C31.3,9,30.7,8.7,30,8.7
		c-0.7,0-1.3,0.3-1.8,0.8L16.4,23.2L3.7,17c-0.3-0.2-0.7-0.2-1-0.2c-0.5,0-1.1,0.2-1.5,0.6c-0.7,0.6-1,1.6-0.7,2.4l8.8,29
		c0.3,1,1.2,1.6,2.2,1.6h37.1c1,0,1.9-0.7,2.2-1.6l8.8-29C59.9,18.9,59.6,18,58.9,17.4z M29.3,16.2L29.3,16.2c1.1,0,2,0.9,2,2
		s-0.9,2-2,2c-1.1,0-2-0.9-2-2S28.2,16.2,29.3,16.2z M21.1,27.2L21.1,27.2c1,0,1.8,0.8,1.8,1.8c0,1-0.8,1.8-1.8,1.8
		c-1,0-1.8-0.8-1.8-1.8C19.3,28,20.1,27.2,21.1,27.2z M10.6,34.4c-1.4,0-2.6-1.2-2.6-2.6c0-1.4,1.2-2.6,2.6-2.6
		c1.4,0,2.6,1.2,2.6,2.6C13.2,33.2,12,34.4,10.6,34.4z M17.2,45.3c-0.8,0-1.4-0.6-1.4-1.4c0-0.8,0.6-1.4,1.4-1.4h0
		c0.8,0,1.4,0.6,1.4,1.4C18.6,44.7,18,45.3,17.2,45.3z M23.8,43.2c-0.1,0.4-0.5,0.7-1,0.7c-0.1,0-0.2,0-0.3-0.1
		c-0.5-0.2-0.8-0.8-0.6-1.3c0,0,0.5-1.6-0.5-2.6c-0.4-0.4-0.7-0.4-1.4-0.4c-0.8,0-1.9,0-2.9-1c-1.9-1.9-1-4.6-1-4.7
		c0.2-0.5,0.8-0.8,1.3-0.6c0.5,0.2,0.8,0.8,0.6,1.3c0,0-0.5,1.6,0.5,2.6c0.4,0.4,0.7,0.4,1.4,0.4c0.8,0,1.9,0,2.9,1
		C24.7,40.4,23.8,43.1,23.8,43.2z M30.1,41.4c-0.6,0-1-0.5-1-1s0.5-1,1-1h0c0.6,0,1,0.5,1,1S30.6,41.4,30.1,41.4z M37.2,45.9
		c-1.1,0-2-0.9-2-2c0-1.1,0.9-2,2-2c1.1,0,2,0.9,2,2C39.2,45,38.3,45.9,37.2,45.9z M39.4,30.7h-1.1c-0.1,0.8-0.3,1.5-0.7,2.1L39,34
		c0.4,0.4,0.5,1,0.1,1.4c-0.2,0.2-0.5,0.4-0.8,0.4c-0.2,0-0.5-0.1-0.7-0.2l-1.3-1.1c-0.6,0.6-1.3,1-2.1,1.2v1.1c0,0.6-0.5,1-1,1
		c-0.6,0-1-0.5-1-1l0,0v-1.1c-0.8-0.2-1.5-0.6-2.1-1.2l-1.3,1.1c-0.2,0.2-0.4,0.2-0.7,0.2c-0.3,0-0.6-0.1-0.8-0.4
		C27,35,27,34.3,27.4,34l1.4-1.2c-0.3-0.6-0.5-1.4-0.7-2.1h-1.1c-0.6,0-1-0.5-1-1s0.5-1,1-1h1.1c0.1-0.8,0.3-1.5,0.7-2.1l-1.4-1.2
		c-0.4-0.4-0.5-1-0.1-1.4c0.4-0.4,1-0.5,1.4-0.1l1.3,1.1c0.6-0.6,1.3-1,2.1-1.2v-1.1c0-0.6,0.5-1,1-1c0.6,0,1,0.5,1,1v1.1
		c0.8,0.2,1.5,0.6,2.1,1.2l1.3-1.1c0.4-0.4,1.1-0.3,1.4,0.1c0.4,0.4,0.3,1.1-0.1,1.4l-1.4,1.2c0.3,0.6,0.5,1.4,0.7,2.1h1.1
		c0.6,0,1,0.5,1,1S39.9,30.7,39.4,30.7z M51.8,32.8c-0.2,0.5-0.8,0.8-1.3,0.6c0,0-1.6-0.5-2.6,0.5c-0.4,0.4-0.4,0.7-0.4,1.4
		c0,0.8,0,1.9-1,2.9c-1,1-2.1,1.2-3.1,1.2c-0.9,0-1.5-0.2-1.6-0.2c-0.5-0.2-0.8-0.8-0.6-1.3c0.2-0.5,0.8-0.8,1.3-0.6
		c0,0,1.6,0.5,2.6-0.5c0.4-0.4,0.4-0.7,0.4-1.4c0-0.8,0-1.9,1-2.9c1.9-1.9,4.6-1,4.7-1C51.7,31.7,52,32.3,51.8,32.8z M50.2,28.2
		c-1.1,0-2-0.9-2-2c0-1.1,0.9-2,2-2c1.1,0,2,0.9,2,2C52.3,27.3,51.3,28.2,50.2,28.2z"/>
</g>
<title>andes-paciente-circulo</title>
</svg>
