<?xml version="1.0" encoding="utf-8"?>
<!-- Generator: Adobe Illustrator 22.0.1, SVG Export Plug-In . SVG Version: 6.00 Build 0)  -->
<svg version="1.1" id="Capa_1" xmlns="http://www.w3.org/2000/svg" xmlns:xlink="http://www.w3.org/1999/xlink" x="0px" y="0px"
	 width="60px" height="60px" viewBox="0 0 60 60" enable-background="new 0 0 60 60" xml:space="preserve">
<title>andes-paciente-circulo</title>
<path fill="#F29100" d="M59.1,27.9c-1-0.8-2.5-0.3-3.8-0.1c-2.9,0.6-6-0.5-7.9-2.7c-0.2-0.2-0.4-0.5-0.4-0.8c0-0.2,0.2-0.5,0.4-0.6
	c0.8-0.8,2-1,3.1-1.4c1.1-0.4,2.2-1.2,2.2-2.4c0-1-0.9-1.9-1.9-1.8c-1.1,0.1-1.8,1.1-2.5,1.8c-0.8,0.7-2.1,1.2-2.8,0.4
	c-0.2-0.2-0.3-0.5-0.3-0.8c-0.3-1.6,0.3-3.4,1.5-4.6c1-1,2.5-1.5,3.5-2.6c1-1,1.4-3,0.1-3.8c-0.7-0.5-1.7-0.2-2.4,0.2
	c-0.7,0.5-1.3,1.2-1.9,1.8c-1.6,1.6-3.6,2.6-5.8,3c-1.3,0.2-2.9-0.1-3.1-1.4c-0.1-1,0.8-1.8,1.5-2.4C39.3,9,40,7.8,39.4,7.1
	c-0.3-0.3-0.7-0.5-1.1-0.5c-1.3-0.2-2.7,0.9-2.8,2.2c-0.1,0.8,0.1,2-0.7,2.3c-0.7,0.3-1.4-0.4-1.8-1c-1.1-1.8-1.7-4-1.5-6.1
	c0-0.6,0.1-1.2,0-1.7c-0.2-1-1.3-1.8-2.3-1.8s-2,0.9-2.2,2c-0.1,0.8,0.2,1.5,0.4,2.3c0.5,1.5,0.6,3.2,0.1,4.7
	c-0.4,1.3-2.1,3.3-3.7,3c-2.2-0.4-1.2-3-2.1-4.3c-0.6-0.9-2-1-2.8-0.3c-0.8,0.7-0.9,2-0.3,2.9c0.7,1,2.1,1.7,1.9,2.8
	c0,0.1-3.1-0.1-3.5-0.1c-1.1-0.2-2.4-0.6-3-1.6c-0.5-0.7-0.6-1.6-1.1-2.3c-0.5-0.8-1.5-1.2-2.5-1.1c-0.9,0-1.9,0.4-2.6,1
	c-1.1,0.9-1.9,2.4-1.2,3.6c0.7,1.2,2.3,1.4,3.6,1.9c2.3,0.8,3.1,2.3,3.2,4.6c0.1,1-0.2,2.2-1.2,2.4c-0.4,0.1-1.9-0.1-2.2-0.4
	c-0.1-0.1-0.2-0.2-0.3-0.4c-0.4-0.7-1.2-1.1-1.9-1.2c-0.8,0-1.6,0.4-2,1c-0.2,0.2-0.3,0.5-0.3,0.7c-0.1,0.7,0.3,1.4,0.8,1.9
	c0.6,0.4,1.3,0.6,2,0.8c0.7,0.1,1.4,0.2,2.1,0.5c0.2,0.1,0.3,0.2,0.5,0.3c1.1,1.2-1.9,2.4-2.6,2.6c-1.4,0.5-3,0.7-4.5,0.4
	C3.1,28,2.6,27.9,2.1,28c-0.7,0.2-1.2,0.8-1.5,1.5c-0.3,0.8-0.4,1.8,0.1,2.5c1.1,1.5,3.5,0.2,5.3,0.5c0.8,0.1,1.5,0.5,2.1,0.9
	c0.8,0.5,5.2,2.4,2.9,3.6c-1.5,0.8-4.1-0.1-4.4,2.4c-0.1,0.8,0.4,1.7,1.1,2.1c0.7,0.4,1.7,0.3,2.4-0.2c0.2-0.2,0.4-0.4,0.6-0.6
	c0.5-0.6,1.7-1.7,2.5-1c0.5,0.5,0.2,1.8,0.1,2.4c-0.3,1.9-1.5,3.8-3.2,4.7c-0.7,0.3-1.5,0.6-1.7,1.3c-0.1,0.3-0.1,0.7-0.1,1.1
	c0.3,1.7,2.5,3,3.8,1.9c0.6-0.5,0.9-1.3,1.3-2c1.5-2.3,4.9-2.4,7.7-2.2c0.8,1.4-1.1,3-1,4.6c0,1,0.8,1.8,1.8,1.9
	c0.9,0.1,1.9-0.5,2.2-1.4c0.3-1-0.2-2.2,0.4-3c1.1,0.8,2.3,1.8,2.7,3.1c0.5,1.7-0.5,3.6,0.1,5.3c0.6,1.8,3.2,2.6,4.8,1.4
	c0.4-0.3,0.7-0.7,0.7-1.1c0.1-0.5-0.1-0.9-0.3-1.4c-0.7-2-0.6-4.2,0.3-6c0.5-1,1.4-2,2.5-1.7c1.1,0.4,1.2,2,1.7,3.1
	c0.7,1.4,2.7,2,4,1.1c1.3-0.9,1.4-3.1,0.1-4c-0.4-0.3-1-0.5-1.3-0.9c-0.4-0.4-0.4-1.2,0.1-1.4c0.1,0,0.3,0,0.4,0
	c1.5,0.1,2.7,1.2,3.8,2.2c1.1,1,2.1,2.2,3.5,2.7c1.4,0.5,3.3,0.1,3.8-1.3c0.4-1.1-0.1-2.3-0.8-3.2c-0.8-0.9-1.8-1.5-2.6-2.3
	c-1.4-1.3-2.2-3.1-2.4-5c0-0.5,0-1,0.3-1.3c0.6-0.6,1.6,0.1,2.3,0.6c1,0.7,2.2,1.1,3.3,0.7c1.1-0.4,1.9-1.8,1.3-2.8
	c-1-1.6-4-0.7-5-2.3c-0.1-0.2-0.1-0.3-0.1-0.5c0.1-0.3,0.4-0.4,0.6-0.6c1.4-0.6,2.9-1,4.4-1c1.7,0,3.5,0.3,5-0.4
	C59.4,31.3,60.4,28.9,59.1,27.9z M25.2,31.7c-3,0-5.5-2.5-5.5-5.5c0-3,2.5-5.5,5.5-5.5c3,0,5.5,2.5,5.5,5.5
	C30.7,29.2,28.3,31.7,25.2,31.7z M34.8,37.1c-0.3,1.8-2,3.1-3.9,2.8c-1.8-0.3-3.1-2-2.8-3.9c0.3-1.8,2-3.1,3.9-2.8
	C33.8,33.6,35.1,35.3,34.8,37.1z M39.1,28.4c-0.3,1.6-1.7,2.6-3.3,2.4c-1.6-0.3-2.6-1.7-2.4-3.3c0.3-1.6,1.7-2.6,3.3-2.4
	C38.2,25.4,39.3,26.8,39.1,28.4z"/>
</svg>
