<?xml version="1.0" encoding="utf-8"?>
<!-- Generator: Adobe Illustrator 21.0.0, SVG Export Plug-In . SVG Version: 6.00 Build 0)  -->
<svg version="1.1" id="Capa_1" xmlns="http://www.w3.org/2000/svg" xmlns:xlink="http://www.w3.org/1999/xlink" x="0px" y="0px"
	 width="60px" height="60px" viewBox="0 0 60 60" style="enable-background:new 0 0 60 60;" xml:space="preserve">
<style type="text/css">
	.st0{opacity:0.2;}
	.st1{fill:#FFFFFF;}
</style>
<title>andes-profesiona-circulo</title>
<g class="st0">
	<path class="st1" d="M38.3,20.4c0,4.6-3.7,8.3-8.3,8.3s-8.3-3.7-8.3-8.3s3.7-8.3,8.3-8.3h0C34.6,12.1,38.3,15.8,38.3,20.4
		C38.3,20.4,38.3,20.4,38.3,20.4z"/>
	<path class="st1" d="M11.2,52.5V41.8c0-5.7,4.7-10.4,10.4-10.4c0,0,0,0,0,0h0.1l0.4,4.6c0.1,0.6,0.6,1.1,1.2,1.3l2.6,0.5l-0.6,1.9
		c-0.1,0.4-0.1,0.8,0.1,1.1l3.4,6.7c0.3,0.5,0.8,0.7,1.3,0.7c0.5,0,1-0.3,1.2-0.7l3.4-6.7c0.2-0.3,0.2-0.7,0.1-1.1l-0.6-1.9l2.6-0.5
		c0.6-0.1,1.1-0.7,1.2-1.3l0.4-4.6h0.1c5.7,0,10.3,4.6,10.3,10.3c0,0,0,0.1,0,0.1v10.6C36.8,61.9,20,59.6,11.2,52.5z M43.6,48.8
		c0.8,0,1.4-0.6,1.5-1.4c0-0.8-0.6-1.4-1.4-1.4c0,0-0.1,0-0.1,0h-2.2v-2.1c0-0.8-0.6-1.4-1.4-1.5c-0.8,0-1.4,0.6-1.4,1.4
		c0,0,0,0.1,0,0.1V46h-2.1c-0.8,0-1.4,0.6-1.5,1.4c0,0.8,0.6,1.4,1.4,1.4c0,0,0.1,0,0.1,0h2.1V51c0,0.8,0.6,1.4,1.4,1.5
		c0.8,0,1.4-0.6,1.4-1.4c0,0,0-0.1,0-0.1v-2.2H43.6z"/>
	<path class="st1" d="M31.9,35.4l3.2-0.6l0.2-3.3H24.6l0.2,3.3l3.2,0.6c0.4,0.1,0.7,0.3,0.9,0.7c0.2,0.4,0.3,0.8,0.2,1.2l-1,2.9
		l1.9,3.6l1.9-3.7l-1-2.9C30.7,36.4,31.1,35.6,31.9,35.4c0-0.1,0.1-0.1,0.1-0.1L31.9,35.4z"/>
</g>
<path class="st1" d="M30,60C13.4,60,0,46.6,0,30S13.4,0,30,0s30,13.4,30,30S46.6,60,30,60z M30,1.6C14.3,1.6,1.6,14.3,1.6,30
	S14.3,58.4,30,58.4S58.4,45.7,58.4,30C58.3,14.3,45.7,1.7,30,1.6z"/>
<g>
	<path class="st1" d="M13.8,22.2h0.9v5h-0.9V22.2z"/>
	<path class="st1" d="M16,22.2h0.9l1.6,2.8l0.5,1.1h0c0-0.5-0.1-1.2-0.1-1.7v-2.2h0.8v5h-0.9l-1.6-2.8l-0.5-1.1h0
		c0,0.5,0.1,1.1,0.1,1.7v2.2H16V22.2z"/>
	<path class="st1" d="M23.1,22.1c0.7,0,1.2,0.3,1.5,0.6l-0.5,0.6c-0.3-0.2-0.5-0.4-1-0.4c-0.9,0-1.5,0.7-1.5,1.8
		c0,1.1,0.5,1.8,1.5,1.8c0.3,0,0.6-0.1,0.7-0.2v-1.1h-0.9v-0.7h1.7v2.2c-0.3,0.3-0.9,0.6-1.6,0.6c-1.3,0-2.3-0.9-2.3-2.6
		C20.7,23.1,21.8,22.1,23.1,22.1z"/>
	<path class="st1" d="M28.5,27.2l-1.1-2h-0.8v2h-0.9v-5h1.7c1,0,1.8,0.4,1.8,1.5c0,0.8-0.4,1.2-1,1.4l1.2,2.1H28.5z M26.7,24.6h0.7
		c0.7,0,1.1-0.3,1.1-0.9c0-0.6-0.4-0.8-1.1-0.8h-0.7V24.6z"/>
	<path class="st1" d="M30.3,22.2h3V23h-2.1v1.3H33V25h-1.8v1.5h2.2v0.8h-3.1V22.2z"/>
	<path class="st1" d="M34.6,26c0.4,0.3,0.8,0.6,1.3,0.6c0.6,0,0.9-0.3,0.9-0.6c0-0.4-0.3-0.5-0.8-0.7l-0.7-0.3c-0.5-0.2-1-0.6-1-1.3
		c0-0.8,0.7-1.4,1.7-1.4c0.6,0,1.2,0.2,1.6,0.6l-0.5,0.6c-0.3-0.3-0.7-0.4-1.1-0.4c-0.5,0-0.8,0.2-0.8,0.6c0,0.4,0.4,0.5,0.8,0.7
		l0.7,0.3c0.6,0.3,1,0.6,1,1.4c0,0.8-0.7,1.5-1.8,1.5c-0.7,0-1.3-0.3-1.8-0.7L34.6,26z"/>
	<path class="st1" d="M40.9,25.9h-1.7l-0.4,1.4h-0.9l1.6-5h1l1.6,5h-0.9L40.9,25.9z M40.7,25.2l-0.2-0.6c-0.2-0.5-0.3-1.1-0.5-1.7h0
		c-0.1,0.6-0.3,1.1-0.4,1.7l-0.2,0.6H40.7z"/>
	<path class="st1" d="M45.6,27.2l-1.1-2h-0.8v2h-0.9v-5h1.7c1,0,1.8,0.4,1.8,1.5c0,0.8-0.4,1.2-1,1.4l1.2,2.1H45.6z M43.7,24.6h0.7
		c0.7,0,1.1-0.3,1.1-0.9c0-0.6-0.4-0.8-1.1-0.8h-0.7V24.6z"/>
	<path class="st1" d="M14.1,31.4h3v0.8H15v1.3h1.8v0.8H15v1.5h2.2v0.8h-3.1V31.4z"/>
	<path class="st1" d="M18.2,31.4h0.9l1.6,2.8l0.5,1.1h0c0-0.5-0.1-1.2-0.1-1.7v-2.2H22v5h-0.9l-1.6-2.8L19,32.5h0
		c0,0.5,0.1,1.1,0.1,1.7v2.2h-0.8V31.4z"/>
	<path class="st1" d="M27.1,35.1h-1.7l-0.4,1.4h-0.9l1.6-5h1l1.6,5h-0.9L27.1,35.1z M26.9,34.4l-0.2-0.6c-0.2-0.5-0.3-1.1-0.5-1.7h0
		c-0.1,0.6-0.3,1.1-0.4,1.7l-0.2,0.6H26.9z"/>
	<path class="st1" d="M29.1,31.4H30l1.6,2.8l0.5,1.1h0c0-0.5-0.1-1.2-0.1-1.7v-2.2h0.8v5h-0.9l-1.6-2.8l-0.5-1.1h0
		c0,0.5,0.1,1.1,0.1,1.7v2.2h-0.8V31.4z"/>
	<path class="st1" d="M34.1,31.4h1.3c1.5,0,2.4,0.8,2.4,2.5c0,1.7-0.9,2.5-2.4,2.5h-1.4V31.4z M35.4,35.7c1,0,1.6-0.6,1.6-1.8
		c0-1.2-0.6-1.8-1.6-1.8H35v3.6H35.4z"/>
	<path class="st1" d="M38.9,31.4h3v0.8h-2.1v1.3h1.8v0.8h-1.8v1.5H42v0.8h-3.1V31.4z"/>
	<path class="st1" d="M43.1,35.2c0.4,0.3,0.8,0.6,1.3,0.6c0.6,0,0.9-0.3,0.9-0.6c0-0.4-0.3-0.5-0.8-0.7l-0.7-0.3
		c-0.5-0.2-1-0.6-1-1.3c0-0.8,0.7-1.4,1.7-1.4c0.6,0,1.2,0.2,1.6,0.6l-0.5,0.6c-0.3-0.3-0.7-0.4-1.1-0.4c-0.5,0-0.8,0.2-0.8,0.6
		c0,0.4,0.4,0.5,0.8,0.7l0.7,0.3c0.6,0.3,1,0.6,1,1.4c0,0.8-0.7,1.5-1.8,1.5c-0.7,0-1.3-0.3-1.8-0.7L43.1,35.2z"/>
</g>
</svg>
