<?xml version="1.0" encoding="utf-8"?>
<!-- Generator: Adobe Illustrator 22.0.1, SVG Export Plug-In . SVG Version: 6.00 Build 0)  -->
<svg version="1.1" id="Capa_1" xmlns="http://www.w3.org/2000/svg" xmlns:xlink="http://www.w3.org/1999/xlink" x="0px" y="0px"
	 width="60px" height="60px" viewBox="0 0 60 60" enable-background="new 0 0 60 60" xml:space="preserve">
<title>andes-paciente-circulo</title>
<g>
	<path fill="#FFFFFF" d="M30,0C13.4,0,0,13.4,0,30s13.4,30,30,30s30-13.4,30-30S46.6,0,30,0z M24.3,34.2c0-1.7,1.4-3.1,3.1-3.1
		c1.2,0,2.2,0.7,2.7,1.6c0.5-0.9,1.5-1.6,2.7-1.6c1.7,0,3.1,1.4,3.1,3.1c0,2.4-5.7,6.9-5.7,6.9S24.3,36.5,24.3,34.2z M28,58.3
		l1.2-5.6l1.9,0l1.9,5.5c-1,0.1-2,0.2-3.1,0.2C29.3,58.4,28.7,58.4,28,58.3z M40.4,56.4c-0.6-4-1.9-11.8-1.9-11.8l-0.1-8l7.1,8
		c0.6,0.7,1.5,1,2.4,1c0.8,0,1.6-0.3,2.2-0.9c1.3-1.2,1.4-3.3,0.2-4.6L39,27.8c-1.9-1.9-4.7-3.1-8.7-3.1c-4.1,0-7,1-9.1,3L9.8,40.2
		c-1.2,1.3-1.2,3.4,0.2,4.6c0.6,0.6,1.4,0.9,2.2,0.9c0.9,0,1.7-0.3,2.4-1l7.1-8V46c0,0-0.6,7.7-0.7,10.9C9.7,53.2,1.6,42.6,1.6,30
		C1.6,14.3,14.3,1.6,30,1.6C45.7,1.7,58.3,14.3,58.4,30C58.4,42,50.9,52.3,40.4,56.4z"/>
	<path fill="#FFFFFF" d="M30,7.8c-4.2,0-7.6,3.4-7.6,7.6c0,4.2,3.4,7.6,7.6,7.6c4.2,0,7.6-3.4,7.6-7.6C37.6,11.3,34.2,7.8,30,7.8z"
		/>
</g>
</svg>
