<?xml version="1.0" encoding="utf-8"?>
<!-- Generator: Adobe Illustrator 26.3.1, SVG Export Plug-In . SVG Version: 6.00 Build 0)  -->
<svg version="1.1" id="Capa_1" xmlns="http://www.w3.org/2000/svg" xmlns:xlink="http://www.w3.org/1999/xlink" x="0px" y="0px"
	 viewBox="0 0 50 34" style="enable-background:new 0 0 50 34;" xml:space="preserve">
<style type="text/css">
	.st0{fill:#FFFFFF;}
</style>
<path class="st0" d="M37.3,17.5c3.4,0,6.2-2.8,6.2-6.2S40.8,5,37.3,5s-6.2,2.8-6.2,6.2S33.9,17.5,37.3,17.5z M18.6,15
	c4.2,0,7.5-3.3,7.5-7.5S22.7,0,18.6,0s-7.5,3.3-7.5,7.5S14.4,15,18.6,15z M36.3,22.5c-4.6,0-13.8,2.3-13.8,6.9V34H50v-4.7
	C50,24.8,40.8,22.5,36.3,22.5z M18,20c-5.8,0-18,2.9-18,8.8V34h17.5v-4.7c0-2.1,1.1-5.8,6.2-8.7C21.5,20.2,19.7,20,18,20z"/>
</svg>
