<?xml version="1.0" encoding="utf-8"?>
<!-- Generator: Adobe Illustrator 21.0.0, SVG Export Plug-In . SVG Version: 6.00 Build 0)  -->
<svg version="1.1" id="Capa_1" xmlns="http://www.w3.org/2000/svg" xmlns:xlink="http://www.w3.org/1999/xlink" x="0px" y="0px"
	 width="60px" height="60px" viewBox="0 0 60 60" style="enable-background:new 0 0 60 60;" xml:space="preserve">
<style type="text/css">
	.st0{fill:#FFFFFF;}
</style>
<title>andes-paciente-circulo</title>
<path class="st0" d="M30,60C13.4,60,0,46.6,0,30S13.4,0,30,0s30,13.4,30,30S46.6,60,30,60z M30,1.6C14.3,1.6,1.6,14.3,1.6,30
	S14.3,58.4,30,58.4S58.4,45.7,58.4,30C58.3,14.3,45.7,1.7,30,1.6z"/>
<g>
	<path class="st0" d="M38.2,20.3c0,4.5-3.7,8.2-8.2,8.2s-8.2-3.7-8.2-8.2s3.7-8.2,8.2-8.2l0,0C34.5,12.1,38.2,15.8,38.2,20.3z"/>
	<path class="st0" d="M30,30.6c-10.5,0-19,3.2-19,13.7v7.4c2.2,2.5,3.2,2.9,6,4c0.3-5.3,1.1-10.6,2.9-12.9v14
		c6.5,2.7,13.8,2.7,20.2-0.1v-14c1.7,2.2,2.5,7.8,2.8,12.9c2.1-1.2,4.2-2.5,6.1-4v-7.4C49,33.8,40.5,30.6,30,30.6z M30,52.7
		c0,0-5.8-4.7-5.8-7c0-1.7,1.4-3.1,3.1-3.1c1.1,0,2.1,0.6,2.7,1.6c0.6-1,1.6-1.6,2.7-1.6c1.7,0,3.1,1.4,3.1,3.1
		C35.8,48,30,52.7,30,52.7z"/>
</g>
</svg>
