<?xml version="1.0" encoding="utf-8"?>
<!-- Generator: Adobe Illustrator 21.0.0, SVG Export Plug-In . SVG Version: 6.00 Build 0)  -->
<svg version="1.1" xmlns="http://www.w3.org/2000/svg" xmlns:xlink="http://www.w3.org/1999/xlink" x="0px" y="0px" width="44.8px"
	 height="44.8px" viewBox="0 0 44.8 44.8" enable-background="new 0 0 44.8 44.8" xml:space="preserve">
<g id="bg">
</g>
<g id="text">
</g>
<g id="interaction">
	<path fill="#FFFFFF" d="M29.7,29L26,19v-6h1.1v-1.3h-9.5v1.3h1.1v6L15.1,29c-0.3,0.9-0.2,2,0.4,2.8c0.6,0.8,1.5,1.3,2.5,1.3h8.9
		c1,0,1.9-0.5,2.5-1.3C29.9,30.9,30.1,29.9,29.7,29z M24.7,13.1v6.2l1.1,3H19l1.1-3v-1.7h1.7v-1.3h-1.7v-1h1.7v-1.3h-1.7v-0.7H24.7z
		"/>
</g>
</svg>
