<?xml version="1.0" encoding="utf-8"?>
<!-- Generator: Adobe Illustrator 21.0.0, SVG Export Plug-In . SVG Version: 6.00 Build 0)  -->
<svg version="1.1" xmlns="http://www.w3.org/2000/svg" xmlns:xlink="http://www.w3.org/1999/xlink" x="0px" y="0px" width="44.8px"
	 height="44.8px" viewBox="0 0 44.8 44.8" enable-background="new 0 0 44.8 44.8" xml:space="preserve">
<g id="bg">
</g>
<g id="text">
</g>
<g id="interaction">
	<g>
		<g>
			<path fill="#FFFFFF" d="M27.7,12.8c0,2.9-2.4,5.3-5.3,5.3s-5.3-2.4-5.3-5.3s2.4-5.3,5.3-5.3S27.7,9.9,27.7,12.8L27.7,12.8z
				 M27.7,12.8"/>
			<path fill="#FFFFFF" d="M22.4,20.6c-6.8,0-12.3,2.1-12.3,8.9c0,0,0,9.5,0,10.2c1.7,1.3,3.7,2.1,3.7,2.1c0-4.2,0.3-10.9,2-13.1
				v13.7c0,0,2.3,1.2,6.5,1.2s6.5-1.2,6.5-1.2V28.5c1.7,2.2,2,9,2,13.1c0,0,2.5-1.2,3.7-2.2c0-0.5,0-10,0-10
				C34.7,22.7,29.2,20.6,22.4,20.6L22.4,20.6z M22.4,34.9c0,0-3.8-3.1-3.8-4.6c0-1.1,0.9-2,2-2c0.8,0,1.4,0.4,1.8,1.1
				c0.3-0.6,1-1.1,1.8-1.1c1.1,0,2,0.9,2,2C26.1,31.9,22.4,34.9,22.4,34.9L22.4,34.9z M22.4,34.9"/>
		</g>
	</g>
</g>
</svg>
