<?xml version="1.0" encoding="utf-8"?>
<!-- Generator: Adobe Illustrator 21.0.0, SVG Export Plug-In . SVG Version: 6.00 Build 0)  -->
<svg version="1.1" id="Capa_1" xmlns="http://www.w3.org/2000/svg" xmlns:xlink="http://www.w3.org/1999/xlink" x="0px" y="0px"
	 width="47.7px" height="22.4px" viewBox="0 0 47.7 22.4" enable-background="new 0 0 47.7 22.4" xml:space="preserve">
<path fill="#FFFFFF" d="M45.5,17.8c-2.6-0.2-3.4-1.5-4.3-2.8c-1.1-1.7-2.3-3.5-7.4-2.1l0,0c-1.7,0.2-2.6,2.4-3.5,4.4
	c-0.2,0.4-0.3,0.8-0.5,1.2c-0.3-0.6-0.6-1.2-0.9-2c-0.8-1.8-1.5-4.1-2.3-6.4c-0.7-2.2-1.4-4.1-2-5.6c-1-2.5-1.8-4-2.7-4.3
	C21.7,0.3,19-0.6,17,0.6c-1.3,0.7-2.3,3.2-3.7,6.7c-0.8,1.9-1.6,4.1-2.7,6.1c-0.9-1.4-1.8-2.6-2.9-2.6c-0.8,0-1.7,0.9-2.9,2.1
	c-1.3,1.4-3,3.1-4.9,3.8l0.3,0.9c2.1-0.8,3.9-2.6,5.2-4c0.9-0.9,1.8-1.9,2.2-1.9c0.6,0,1.5,1.4,2.3,2.5c0.3,0.5,0.6,1,1,1.4
	c0.2,0.3,0.4,0.5,0.6,0.7c0.4,0.4,0.8,0.7,1.3,0.7c0.1,0,0.2,0,0.2,0c2.1,0,3.6-4.2,5.1-8.7c0.4-1.1,0.8-2.3,1.2-3.4
	c0.7,1.7,1.3,3.8,2.1,6c2.2,6.8,3.7,10.9,5.5,11.2l0,0c0.9,0.2,1.7,0.3,2.4,0.3c3.9,0,4.9-2.6,5.9-4.8c0.4-0.9,0.7-1.7,1.2-2.4
	c0.3,0.3,0.5,0.6,0.8,0.9c1.2,1.4,2.5,3,4.5,3.2c0,0,0.2,0,0.5,0c0.6,0,1.8-0.1,3.3-0.6l2.1-0.7L45.5,17.8z M17.4,8
	c-1.2,3.4-2.9,8.1-4.3,8.1c-0.3,0-0.6-0.2-1-0.5c-0.2-0.2-0.3-0.4-0.5-0.6c-0.1-0.2-0.3-0.4-0.4-0.6c1.1-2.2,2.1-4.6,2.9-6.6
	c1.2-3.1,2.3-5.7,3.3-6.2c0,0,0,0,0,0c1-0.6,2.2-0.6,3-0.4c0,0,0,0,0,0.1c-0.3,0.4-0.7,0.9-1,1.6C18.9,3.9,18.2,5.7,17.4,8z
	 M22.5,10.6c-0.8-2.6-1.6-5.1-2.4-6.9c0.1-0.2,0.2-0.4,0.3-0.6c0.2-0.3,0.3-0.7,0.5-0.9c0.3-0.4,0.5-0.7,0.8-0.8
	c0.6,0.4,1.3,1.8,2.1,3.6c0.6,1.5,1.2,3.4,1.8,5.3c0.8,2.3,1.5,4.7,2.3,6.6c0,0,0,0,0,0c0.1,0.1,0.1,0.3,0.2,0.4
	c0,0.1,0.1,0.1,0.1,0.2c0,0.1,0.1,0.1,0.1,0.2c0.1,0.1,0.1,0.2,0.2,0.3c0,0.1,0,0.1,0.1,0.2c0.1,0.1,0.1,0.2,0.2,0.3
	c0,0.1,0.1,0.1,0.1,0.2c0,0.1,0.1,0.1,0.1,0.2c0,0.1,0.1,0.2,0.1,0.3c0,0,0,0.1,0.1,0.1c0.1,0.1,0.1,0.2,0.2,0.3c0,0,0,0,0,0
	c-0.4,0.7-0.8,1.2-1.3,1.5c-0.2,0.1-0.5,0.2-0.7,0.2C25.9,21,23.9,15,22.5,10.6z M34.4,17.2c-0.9,2.3-1.8,4.5-5.5,4.2
	c0,0,0.1-0.1,0.1-0.1c0,0,0,0,0,0c0,0,0.1-0.1,0.1-0.1c0.5-0.5,0.9-1.2,1.1-1.5l0.1-0.3l0,0c0.3-0.6,0.5-1.1,0.8-1.7
	c0.8-1.9,1.7-3.9,3-3.9c0.8,0,1.2,0.3,1.7,0.7C35.2,15.3,34.8,16.3,34.4,17.2z M41.9,18.3c-1.7-0.2-2.8-1.5-3.9-2.8
	c-0.3-0.4-0.6-0.7-0.9-1l0,0l-0.2-0.2c-0.3-0.3-0.6-0.6-0.9-0.8c0,0,0,0-0.1,0c0,0,0,0,0,0c2.9-0.5,3.7,0.7,4.6,2.1
	c0.7,1,1.4,2.1,3,2.8C42.5,18.4,41.9,18.3,41.9,18.3z"/>
</svg>
