<svg id="Capa_1" data-name="Capa 1" xmlns="http://www.w3.org/2000/svg" viewBox="0 0 62 53"><title>defensa civil</title><path d="M62,53.1H0L31-.1ZM31.18,20.18A15.16,15.16,0,1,0,46.33,35.34,15.16,15.16,0,0,0,31.18,20.18Z"/><path d="M18.76,29.45H24.5a6.86,6.86,0,0,1,2.74.46A4.46,4.46,0,0,1,29,31.23a5.46,5.46,0,0,1,1,2,9.3,9.3,0,0,1,.31,2.42,8.42,8.42,0,0,1-.46,3.1,5.16,5.16,0,0,1-1.26,1.85,4.13,4.13,0,0,1-1.74,1,8.94,8.94,0,0,1-2.3.34H18.76Zm3.86,2.83V39.1h.95a4,4,0,0,0,1.72-.27,1.82,1.82,0,0,0,.8-.94,5.89,5.89,0,0,0,.29-2.17A4.21,4.21,0,0,0,25.73,33a2.74,2.74,0,0,0-2.15-.73Z"/><path d="M40.59,36.83l3.38,1a6.24,6.24,0,0,1-1.07,2.38,4.65,4.65,0,0,1-1.82,1.44,6.8,6.8,0,0,1-2.76.49A8,8,0,0,1,35,41.56a5.28,5.28,0,0,1-2.23-2.08,7.06,7.06,0,0,1-.94-3.81,6.48,6.48,0,0,1,1.65-4.76,6.27,6.27,0,0,1,4.66-1.66,6.33,6.33,0,0,1,3.71,1,5.61,5.61,0,0,1,2,2.93l-3.41.76a2.91,2.91,0,0,0-.37-.83,2.22,2.22,0,0,0-.79-.68,2.43,2.43,0,0,0-3.06.82,4.47,4.47,0,0,0-.53,2.46,4.67,4.67,0,0,0,.63,2.85,2.49,2.49,0,0,0,3.45.15A3.85,3.85,0,0,0,40.59,36.83Z"/></svg>