<?xml version="1.0" encoding="iso-8859-1"?>
<!-- Generator: Adobe Illustrator 18.0.0, SVG Export Plug-In . SVG Version: 6.00 Build 0)  -->
<!DOCTYPE svg PUBLIC "-//W3C//DTD SVG 1.1//EN" "http://www.w3.org/Graphics/SVG/1.1/DTD/svg11.dtd">
<svg version="1.1" id="Capa_1" xmlns="http://www.w3.org/2000/svg" xmlns:xlink="http://www.w3.org/1999/xlink" x="0px" y="0px"
	 viewBox="0 0 450 450" style="enable-background:new 0 0 450 450;" xml:space="preserve">
<g>

		<rect x="366.75" y="175.815" style="stroke:#000000;stroke-width:0;stroke-linecap:round;stroke-linejoin:round;" width="22" height="24.166"/>

		<rect x="396.75" y="175.815" style="stroke:#000000;stroke-width:0;stroke-linecap:round;stroke-linejoin:round;" width="22" height="24.166"/>
	<path style="stroke:#000000;stroke-width:0;stroke-linecap:round;stroke-linejoin:round;" d="M326.941,149.231v-21.232H213.882
		v21.232v1.5v103.385L450,253.085V149.231H326.941z M439.083,175.815H426.75v24.166h12.333v8H226.417v-8h12.333v-24.166h-12.333v-8
		h212.667V175.815z"/>

		<rect x="276.75" y="175.815" style="stroke:#000000;stroke-width:0;stroke-linecap:round;stroke-linejoin:round;" width="22" height="24.166"/>

		<rect x="336.75" y="175.815" style="stroke:#000000;stroke-width:0;stroke-linecap:round;stroke-linejoin:round;" width="22" height="24.166"/>

		<rect x="306.75" y="175.815" style="stroke:#000000;stroke-width:0;stroke-linecap:round;stroke-linejoin:round;" width="22" height="24.166"/>

		<rect x="246.75" y="175.815" style="stroke:#000000;stroke-width:0;stroke-linecap:round;stroke-linejoin:round;" width="22" height="24.166"/>
	<path style="stroke:#000000;stroke-width:0;stroke-linecap:round;stroke-linejoin:round;" d="M4.99,211.102v15.13h32.57v14.145
		l-32.57,6.831v7.822L200,254.177V127.999H40.071L4.99,211.102z M139.88,149.231H178v48h-38.12V149.231z M120.223,149.231v48
		l-80.446,10l21.694-58H120.223z"/>
	<path style="stroke:#000000;stroke-width:0;stroke-linecap:round;stroke-linejoin:round;" d="M75.746,121.065h24.675
		c3.173,0,5.746-2.572,5.746-5.746v-11.971c0-3.174-2.573-5.746-5.746-5.746H75.746c-3.173,0-5.746,2.572-5.746,5.746v11.971
		C70,118.493,72.573,121.065,75.746,121.065z"/>
	<path style="stroke:#000000;stroke-width:0;stroke-linecap:round;stroke-linejoin:round;" d="M4.99,276.231H0v33.268h4.99h31.305
		c1.684,23.936,21.682,42.898,46.038,42.898c24.356,0,44.354-18.962,46.038-42.898H200v-39.821L4.99,270.529V276.231z
		 M82.333,283.064c12.774,0,23.167,10.393,23.167,23.167s-10.393,23.167-23.167,23.167s-23.167-10.393-23.167-23.167
		S69.559,283.064,82.333,283.064z"/>

		<rect x="335.75" y="127.999" style="stroke:#000000;stroke-width:0;stroke-linecap:round;stroke-linejoin:round;" width="113.059" height="11.366"/>
	<path style="stroke:#000000;stroke-width:0;stroke-linecap:round;stroke-linejoin:round;" d="M386.75,260.064
		c-10.177,0-19.591,3.317-27.23,8.917l-145.637,0.637v39.882h126.83c1.684,23.936,21.682,42.898,46.038,42.898
		c24.356,0,44.354-18.962,46.038-42.898H450v-40.913l-36.352,0.158C406.068,263.289,396.781,260.064,386.75,260.064z
		 M386.75,329.397c-12.774,0-23.167-10.393-23.167-23.167s10.393-23.167,23.167-23.167s23.167,10.393,23.167,23.167
		S399.524,329.397,386.75,329.397z"/>
</g>
</svg>
