<?xml version="1.0" encoding="iso-8859-1"?>
<!-- Generator: Adobe Illustrator 19.0.0, SVG Export Plug-In . SVG Version: 6.00 Build 0)  -->
<svg xmlns="http://www.w3.org/2000/svg" xmlns:xlink="http://www.w3.org/1999/xlink" version="1.1" id="Capa_1" x="0px" y="0px" viewBox="0 0 496 496" style="enable-background:new 0 0 496 496;" xml:space="preserve" width="512px" height="512px">
<g>
	<g>
		<g>
			<path d="M240,303.996c0-1.792-0.232-3.52-0.6-5.192l25.752-16.096c4.096,3.264,9.216,5.288,14.848,5.288     c13.232,0,24-10.768,24-24c0-10.416-6.712-19.216-16-22.528v-34.944c9.288-3.312,16-12.112,16-22.528c0-13.232-10.768-24-24-24     c-5.632,0-10.744,2.032-14.84,5.288l-25.76-16.096c0.368-1.672,0.6-3.4,0.6-5.184c0-10.416-6.712-19.216-16-22.528V86.532     c9.288-3.312,16-12.112,16-22.528c0-1.784-0.232-3.52-0.6-5.192l25.752-16.096c4.104,3.264,9.216,5.296,14.848,5.296     c5.632,0,10.744-2.032,14.848-5.288L320.6,58.82c-0.368,1.672-0.6,3.408-0.6,5.192c0,13.232,10.768,24,24,24s24-10.768,24-24     s-10.768-24-24-24c-5.632,0-10.744,2.032-14.84,5.288L303.4,29.204c0.368-1.68,0.6-3.408,0.6-5.192c0-13.232-10.768-24-24-24     s-24,10.768-24,24c0,1.784,0.232,3.512,0.6,5.192L230.84,45.3c-4.096-3.256-9.208-5.288-14.84-5.288s-10.744,2.032-14.84,5.288     L175.4,29.204c0.368-1.68,0.6-3.408,0.6-5.192c0-13.232-10.768-24-24-24s-24,10.768-24,24c0,1.784,0.232,3.512,0.6,5.192     L102.84,45.3c-4.096-3.256-9.208-5.288-14.84-5.288c-13.232,0-24,10.768-24,24c0,10.416,6.712,19.216,16,22.528v34.944     c-9.288,3.304-16,12.104-16,22.52c0,1.784,0.232,3.512,0.6,5.192l-25.76,16.096c-4.096-3.256-9.208-5.288-14.84-5.288     c-13.232,0-24,10.768-24,24c0,10.416,6.712,19.216,16,22.528v34.944c-9.288,3.312-16,12.112-16,22.528c0,13.232,10.768,24,24,24     c5.632,0,10.752-2.032,14.848-5.288L64.6,298.812c-0.368,1.664-0.6,3.392-0.6,5.184c0,10.416,6.712,19.216,16,22.528v34.944     c-9.288,3.304-16,12.104-16,22.52c0,13.232,10.768,24,24,24c5.632,0,10.752-2.032,14.848-5.288l25.752,16.096     c-0.368,1.672-0.6,3.4-0.6,5.192c0,13.232,10.768,24,24,24s24-10.768,24-24c0-1.792-0.232-3.52-0.6-5.192l25.752-16.096     c4.096,3.256,9.216,5.288,14.848,5.288c13.232,0,24-10.768,24-24c0-10.416-6.712-19.216-16-22.528v-34.944     C233.288,323.212,240,314.412,240,303.996z M344,56.012c4.408,0,8,3.592,8,8c0,4.408-3.592,8-8,8c-4.408,0-8-3.592-8-8     C336,59.604,339.592,56.012,344,56.012z M280,16.012c4.408,0,8,3.592,8,8c0,4.408-3.592,8-8,8c-4.408,0-8-3.592-8-8     C272,19.604,275.592,16.012,280,16.012z M280,271.996c-4.408,0-8-3.584-8-8c0-4.416,3.592-8,8-8c4.408,0,8,3.584,8,8     C288,268.412,284.408,271.996,280,271.996z M280,176.004c4.408,0,8,3.592,8,8s-3.592,8-8,8c-4.408,0-8-3.592-8-8     S275.592,176.004,280,176.004z M230.848,162.708l25.752,16.096c-0.368,1.68-0.6,3.416-0.6,5.2c0,10.416,6.712,19.216,16,22.528     v34.944c-9.288,3.312-16,12.112-16,22.528c0,1.784,0.232,3.52,0.6,5.192l-25.752,16.096c-4.096-3.256-9.216-5.288-14.848-5.288     s-10.744,2.032-14.848,5.288L175.4,269.196c0.368-1.68,0.6-3.416,0.6-5.2c0-10.416-6.712-19.216-16-22.528v-34.944     c9.288-3.312,16-12.112,16-22.528c0-1.784-0.232-3.52-0.6-5.192l25.752-16.096c4.096,3.256,9.216,5.288,14.848,5.288     S226.744,165.964,230.848,162.708z M152,192.004c-4.408,0-8-3.592-8-8s3.592-8,8-8s8,3.592,8,8S156.408,192.004,152,192.004z      M160,263.996c0,4.416-3.592,8-8,8s-8-3.584-8-8s3.592-8,8-8S160,259.58,160,263.996z M208,144.004c0-4.408,3.592-8,8-8     s8,3.592,8,8s-3.592,8-8,8S208,148.412,208,144.004z M216,56.012c4.408,0,8,3.592,8,8c0,4.408-3.592,8-8,8s-8-3.592-8-8     C208,59.604,211.592,56.012,216,56.012z M152,16.012c4.408,0,8,3.592,8,8c0,4.408-3.592,8-8,8s-8-3.592-8-8     C144,19.604,147.592,16.012,152,16.012z M112,64.012c0-1.784-0.232-3.52-0.6-5.192l25.752-16.096     c4.104,3.256,9.216,5.288,14.848,5.288s10.744-2.032,14.848-5.288L192.6,58.82c-0.368,1.672-0.6,3.408-0.6,5.192     c0,10.416,6.712,19.216,16,22.528v34.944c-9.288,3.312-16,12.112-16,22.528c0,1.784,0.232,3.512,0.6,5.192L166.84,165.3     c-4.096-3.256-9.216-5.288-14.84-5.288c-5.624,0-10.744,2.032-14.84,5.288l-25.76-16.096c0.368-1.688,0.6-3.416,0.6-5.2     c0-10.416-6.712-19.216-16-22.528V86.532C105.288,83.228,112,74.428,112,64.012z M88,56.012c4.408,0,8,3.592,8,8     c0,4.408-3.592,8-8,8s-8-3.592-8-8C80,59.604,83.592,56.012,88,56.012z M88,136.004c4.408,0,8,3.592,8,8s-3.592,8-8,8     s-8-3.592-8-8S83.592,136.004,88,136.004z M24,176.004c4.408,0,8,3.592,8,8s-3.592,8-8,8s-8-3.592-8-8S19.592,176.004,24,176.004     z M24,271.996c-4.408,0-8-3.584-8-8s3.592-8,8-8s8,3.584,8,8C32,268.412,28.408,271.996,24,271.996z M73.152,285.292     L47.4,269.188c0.368-1.672,0.6-3.408,0.6-5.192c0-10.416-6.712-19.216-16-22.528v-34.944c9.288-3.312,16-12.112,16-22.528     c0-1.784-0.232-3.52-0.6-5.192l25.752-16.096c4.096,3.256,9.216,5.288,14.848,5.288s10.744-2.032,14.848-5.288l25.752,16.096     c-0.368,1.68-0.6,3.416-0.6,5.2c0,10.416,6.712,19.216,16,22.528v34.944c-9.288,3.312-16,12.112-16,22.528     c0,1.784,0.232,3.52,0.6,5.192l-25.752,16.096c-4.096-3.256-9.216-5.288-14.848-5.288     C82.368,280.004,77.256,282.036,73.152,285.292z M96,303.996c0,4.416-3.592,8-8,8s-8-3.584-8-8c0-4.416,3.592-8,8-8     S96,299.58,96,303.996z M88,391.988c-4.408,0-8-3.584-8-8c0-4.416,3.592-8,8-8s8,3.584,8,8C96,388.404,92.408,391.988,88,391.988     z M152,431.988c-4.408,0-8-3.584-8-8c0-4.416,3.592-8,8-8s8,3.584,8,8C160,428.404,156.408,431.988,152,431.988z M192,383.988     c0,1.784,0.232,3.52,0.6,5.192l-25.752,16.096c-4.104-3.256-9.216-5.288-14.848-5.288s-10.744,2.032-14.848,5.288L111.4,389.18     c0.368-1.672,0.6-3.408,0.6-5.192c0-10.416-6.712-19.216-16-22.528v-34.944c9.288-3.312,16-12.112,16-22.528     c0-1.792-0.232-3.52-0.6-5.192l25.752-16.096c4.096,3.264,9.216,5.288,14.848,5.288c5.632,0,10.752-2.032,14.848-5.288     l25.752,16.096c-0.368,1.68-0.6,3.408-0.6,5.2c0,10.416,6.712,19.216,16,22.528v34.944C198.712,364.772,192,373.572,192,383.988z      M216,391.988c-4.408,0-8-3.584-8-8c0-4.416,3.592-8,8-8s8,3.584,8,8C224,388.404,220.408,391.988,216,391.988z M216,311.996     c-4.408,0-8-3.584-8-8c0-4.416,3.592-8,8-8s8,3.584,8,8C224,308.412,220.408,311.996,216,311.996z" fill="#FFFFFF"/>
			<path d="M491.792,446.348l-52.816-95.072l-13.984,7.768l52.816,95.08c1.432,2.576,2.192,5.496,2.192,8.448     c0,9.6-7.816,17.416-17.416,17.416H289.416c-9.6,0-17.416-7.816-17.416-17.416c0-2.952,0.76-5.872,2.192-8.464L352,314.06     v-74.072h32v32c0,13.232,10.768,24,24,24c2.808,0,5.496-0.488,8-1.368v17.368c0,13.232,10.768,24,24,24s24-10.768,24-24v-128     c0-22.056-17.944-40-40-40c-6.536,0-12.992,1.672-18.784,4.816c-7.472-8.144-17.92-12.816-29.216-12.816     c-22.056,0-40,17.944-40,40c0,5.696,1.232,11.088,3.392,16H320v48h16v69.928L260.208,446.34     c-2.752,4.952-4.208,10.568-4.208,16.232c0,18.424,14.992,33.416,33.416,33.416h173.168c18.424,0,33.416-14.992,33.416-33.416     C496,456.908,494.544,451.292,491.792,446.348z M336,207.988h16v-0.208c6.704,5.08,14.96,8.208,24,8.208v-16     c-13.232,0-24-10.768-24-24s10.768-24,24-24c8.448,0,16.128,4.408,20.528,11.8l4.84,8.12l7.208-6.112     c3.112-2.656,8.328-5.808,15.424-5.808c13.232,0,24,10.768,24,24v128c0,4.416-3.592,8-8,8c-4.408,0-8-3.584-8-8v-40v-32h-16v32     c0,4.416-3.592,8-8,8c-4.408,0-8-3.584-8-8v-64h-16v16h-48V207.988z" fill="#FFFFFF"/>
			<rect x="368" y="167.988" width="16" height="16" fill="#FFFFFF"/>
			<rect x="416" y="207.988" width="16" height="16" fill="#FFFFFF"/>
			
				<rect x="299.99" y="447.049" transform="matrix(-0.8944 -0.4472 0.4472 -0.8944 379.5396 1001.5818)" width="16" height="17.887" fill="#FFFFFF"/>
			
				<rect x="331.986" y="347.298" transform="matrix(0.8944 0.4472 -0.4472 0.8944 211.2068 -110.6594)" width="16" height="89.437" fill="#FFFFFF"/>
		</g>
	</g>
</g>
<g>
</g>
<g>
</g>
<g>
</g>
<g>
</g>
<g>
</g>
<g>
</g>
<g>
</g>
<g>
</g>
<g>
</g>
<g>
</g>
<g>
</g>
<g>
</g>
<g>
</g>
<g>
</g>
<g>
</g>
</svg>
