<?xml version="1.0" encoding="utf-8"?>
<!-- Generator: Adobe Illustrator 21.0.0, SVG Export Plug-In . SVG Version: 6.00 Build 0)  -->
<svg version="1.1" id="Capa_1" xmlns="http://www.w3.org/2000/svg" xmlns:xlink="http://www.w3.org/1999/xlink" x="0px" y="0px"
	 viewBox="0 0 24 24" style="enable-background:new 0 0 24 24;" xml:space="preserve">
<style type="text/css">
	.st0{fill:#FFFFFF;}
</style>
<path class="st0" d="M12.5,2C9,2,5.9,3.9,4.3,6.8L2,4.5V11h6.5L5.8,8.2C7,5.7,9.5,4,12.5,4c4.1,0,7.5,3.4,7.5,7.5S16.6,19,12.5,19
	c-3.3,0-6-2.1-7.1-5H3.3c1.1,4,4.8,7,9.2,7c5.2,0,9.5-4.3,9.5-9.5S17.7,2,12.5,2z M16.3,10.4h-2.6V7.9h-2.1v2.5H9.1v2.2h2.5v2.5h2.1
	v-2.5h2.6V10.4z"/>
</svg>
