<!--?xml version="1.0" standalone="no"?-->

<svg xmlns="http://www.w3.org/2000/svg" width="300.000000pt" height="253.000000pt" viewBox="0 0 300.000000 253.000000" preserveAspectRatio="xMidYMid meet">
<g transform="translate(0.000000,253.000000) scale(0.100000,-0.100000)" fill="#2C2C2C" stroke="none">
<path style="position: relative;" class="node" id="node1" d="M787 2383 c-4 -3 -7 -46 -7 -93 0 -66 4 -91 15 -100 9 -7 13 -15 11
-18 -12 -11 17 -42 40 -42 l25 0 -3 -127 -3 -128 -320 -5 -320 -5 -3 -70 c-3
-63 1 -83 29 -137 5 -10 9 -305 9 -657 l0 -638 31 -7 c17 -3 155 -6 305 -6
l274 0 0 -30 0 -30 623 2 622 3 3 27 3 28 298 0 c218 0 300 3 309 12 9 9 12
166 12 645 0 348 4 641 9 651 28 54 32 74 29 137 l-3 70 -327 3 -328 2 0 129
0 129 30 6 c23 4 30 11 30 29 0 13 5 28 10 33 7 7 10 47 8 100 l-3 89 -701 3
c-385 1 -704 -1 -707 -5z m1373 -93 l0 -60 -665 0 -665 0 0 60 0 60 665 0 665
0 0 -60z m-30 -110 c0 -14 -1266 -14 -1275 0 -4 7 210 10 634 10 421 0 641 -3
641 -10z m-55 -950 l0 -895 -87 -3 -88 -3 0 190 c0 104 -3 196 -6 205 -5 13
-26 16 -130 16 l-123 0 -3 88 -3 87 -142 3 c-111 2 -143 0 -144 -10 0 -7 -2
-47 -2 -88 l-2 -75 -120 -5 -120 -5 -3 -203 -2 -202 -95 0 -95 0 0 900 0 900
583 -2 582 -3 0 -895z m-1207 558 l3 -38 -305 0 -306 0 0 33 c0 19 3 37 7 40
4 4 140 6 302 5 l296 -3 3 -37z m1872 2 l0 -40 -310 0 -310 0 0 40 0 40 310 0
310 0 0 -40z m-2017 -97 c-78 -2 -208 -2 -290 0 -81 1 -17 3 142 3 160 0 226
-2 148 -3z m1850 0 c-78 -2 -208 -2 -290 0 -81 1 -17 3 142 3 160 0 226 -2
148 -3z m-1705 -670 l3 -623 -286 0 -285 0 0 625 0 625 283 -2 282 -3 3 -622z
m1830 0 l2 -623 -290 0 -290 0 0 625 0 625 288 -2 287 -3 3 -622z m-1093 -268
l0 -125 -112 0 -113 0 0 125 0 125 113 0 112 0 0 -125z m-259 -101 c1 -23 4
-47 8 -53 4 -6 33 -11 67 -11 l60 0 -3 -127 -3 -128 -162 -3 -163 -2 0 185 0
186 97 -3 97 -3 2 -41z m504 -139 l0 -185 -170 0 -170 0 0 130 0 130 49 0 c75
0 81 5 81 61 l0 49 105 0 105 0 0 -185z"></path>
<path style="position: relative;" class="node" id="node2" d="M1044 2056 c-10 -25 1 -119 14 -124 8 -2 12 7 12 27 0 26 4 31 25 31
20 0 25 -5 25 -24 0 -25 16 -43 27 -32 11 11 8 126 -4 130 -15 6 -23 -3 -23
-26 0 -13 -7 -18 -25 -18 -20 0 -25 5 -25 25 0 27 -17 34 -26 11z"></path>
<path style="position: relative;" class="node" id="node3" d="M1190 2050 c-41 -41 -12 -120 43 -120 35 0 57 21 63 61 5 29 2 41
-15 58 -26 26 -65 27 -91 1z m70 -30 c12 -23 -2 -60 -23 -60 -32 0 -48 45 -25
68 18 18 36 15 48 -8z"></path>
<path style="position: relative;" class="node" id="node4" d="M1326 2051 c-22 -24 -11 -51 25 -58 16 -3 32 -9 34 -14 10 -15 -17
-21 -41 -8 -27 14 -39 8 -31 -15 8 -21 54 -31 83 -17 38 17 28 51 -21 76 -29
14 -35 20 -22 23 10 2 24 -2 32 -8 23 -19 39 -1 19 21 -22 24 -56 24 -78 0z"></path>
<path style="position: relative;" class="node" id="node5" d="M1440 1999 c0 -52 3 -70 13 -67 6 3 13 13 15 24 2 13 15 24 35 30 64
19 41 84 -30 84 l-33 0 0 -71z m63 26 c1 -5 -6 -11 -15 -13 -11 -2 -18 3 -18
13 0 17 30 18 33 0z"></path>
<path style="position: relative;" class="node" id="node6" d="M1560 2000 c0 -53 3 -71 13 -67 8 2 12 25 12 67 0 42 -4 65 -12 68
-10 3 -13 -15 -13 -68z"></path>
<path style="position: relative;" class="node" id="node7" d="M1600 2056 c0 -9 7 -16 14 -16 11 0 16 -15 18 -52 4 -74 28 -77 28
-4 0 50 2 56 21 56 42 0 12 25 -34 28 -37 2 -47 0 -47 -12z"></path>
<path style="position: relative;" class="node" id="node8" d="M1753 2058 c-16 -20 -46 -119 -38 -126 4 -4 12 1 19 11 16 21 49 22
66 2 36 -43 36 1 0 83 -20 44 -31 51 -47 30z m27 -59 c0 -5 -4 -9 -10 -9 -5 0
-10 7 -10 16 0 8 5 12 10 9 6 -3 10 -10 10 -16z"></path>
<path style="position: relative;" class="node" id="node9" d="M1844 2057 c-3 -8 -4 -39 -2 -68 l3 -54 49 -3 c36 -2 47 0 44 10 -3
7 -16 14 -31 16 -24 3 -26 8 -29 54 -3 50 -22 75 -34 45z"></path>
<path style="position: relative;" class="node" id="node10" d="M1028 1736 c-2 -40 -1 -86 2 -101 3 -15 3 -67 -1 -114 -3 -47 -3 -91
-1 -98 2 -8 33 -13 85 -16 l82 -3 -82 -2 c-77 -2 -83 -4 -88 -25 -4 -13 -3
-102 2 -198 l8 -174 70 -3 c117 -5 115 -7 115 98 0 49 -5 92 -10 95 -13 8 -2
27 13 22 6 -2 11 -43 11 -108 l1 -104 90 0 90 0 1 105 c1 58 3 137 4 175 3
122 7 113 -52 118 l-53 3 52 2 53 2 -3 198 -2 197 -90 0 -90 0 -2 -197 -3
-197 33 -4 32 -4 -32 -1 c-27 -2 -33 -6 -33 -24 0 -12 -3 -19 -6 -15 -3 3 -5
55 -5 116 1 69 -2 112 -9 116 -8 5 -8 11 0 20 6 8 10 48 8 102 l-3 88 -92 3
-91 3 -4 -75z m162 -26 l0 -70 -65 0 -65 0 0 70 0 70 65 0 65 0 0 -70z m200 0
l0 -70 -65 0 -65 0 0 70 0 70 65 0 65 0 0 -70z m-200 -200 l0 -70 -65 0 -65 0
0 70 0 70 65 0 65 0 0 -70z m198 -1 l3 -67 -48 -4 c-81 -7 -83 -5 -83 74 l0
69 63 -3 62 -3 3 -66z m-204 -161 c3 -13 6 -44 6 -70 l0 -46 -67 1 -68 2 -3
68 -3 67 64 0 c59 0 65 -2 71 -22z m206 -46 l0 -68 -65 0 -65 1 0 68 0 67 65
0 65 0 0 -68z m-163 -34 c-2 -18 -4 -6 -4 27 0 33 2 48 4 33 2 -15 2 -42 0
-60z m-37 -168 l0 -70 -65 0 -65 0 0 70 0 70 65 0 65 0 0 -70z m200 0 l0 -70
-65 0 -65 0 0 70 0 70 65 0 65 0 0 -70z"></path>
<path style="position: relative;" class="node" id="node11" d="M1303 1300 c0 -25 2 -35 4 -22 2 12 2 32 0 45 -2 12 -4 2 -4 -23z"></path>
<path style="position: relative;" class="node" id="node12" d="M1569 1803 c-5 -58 -4 -172 2 -184 5 -9 6 -19 2 -23 -5 -5 -7 -103
-4 -171 1 -13 16 -15 94 -13 l92 3 3 83 c2 47 -2 89 -7 96 -7 9 -7 16 0 23 5
5 9 48 7 99 l-3 89 -92 3 c-51 1 -93 -1 -94 -5z m161 -93 l0 -70 -65 0 -65 0
0 70 0 70 65 0 65 0 0 -70z m-2 -202 l3 -68 -65 0 -64 0 -4 66 c-1 36 -1 68 2
70 2 3 31 4 65 2 l60 -3 3 -67z"></path>
<path style="position: relative;" class="node" id="node13" d="M1777 1804 c-3 -4 -7 -94 -7 -200 0 -174 2 -193 18 -197 16 -4 16 -5
0 -6 -17 -1 -18 -17 -15 -198 l2 -198 90 0 90 0 1 105 c1 58 3 139 4 180 1 41
1 83 1 92 -1 14 -13 18 -68 21 l-68 3 67 2 68 2 -3 198 -2 197 -85 3 c-47 1
-89 0 -93 -4z m153 -94 l0 -70 -65 0 -65 0 0 70 0 70 65 0 65 0 0 -70z m-2
-202 l3 -68 -50 0 c-27 0 -56 -3 -65 -6 -14 -5 -16 5 -16 70 l0 77 63 -3 62
-3 3 -67z m0 -208 l3 -71 -65 3 -66 3 0 68 0 67 63 0 62 0 3 -70z m2 -200 l0
-70 -65 0 -65 0 0 70 0 70 65 0 65 0 0 -70z"></path>
<path style="position: relative;" class="node" id="node14" d="M1566 1363 c-7 -45 0 -339 9 -353 7 -11 144 -14 169 -4 13 5 16 23
16 94 0 51 -4 92 -10 95 -8 5 -8 11 0 20 6 8 10 47 8 97 l-3 83 -92 3 -91 3
-6 -38z m158 -12 c3 -9 4 -38 3 -66 l-2 -50 -62 -2 -61 -2 -4 52 c-6 76 -2 85
41 89 53 4 80 -2 85 -21z m6 -251 l0 -71 -66 3 -66 3 0 63 c1 34 1 64 1 67 1
3 30 5 66 5 l65 0 0 -70z"></path>
<path style="position: relative;" class="node" id="node15" d="M393 1483 c-9 -3 -13 -33 -13 -99 l0 -94 95 0 95 0 0 94 c0 76 -3 95
-16 100 -18 7 -143 7 -161 -1z m147 -93 l0 -70 -65 0 -65 0 0 70 0 70 65 0 65
0 0 -70z"></path>
<path style="position: relative;" class="node" id="node16" d="M592 1478 c-8 -8 -12 -45 -12 -100 l0 -87 78 -4 77 -3 -77 -2 -78 -2
3 -197 2 -198 90 0 90 0 2 105 c7 307 4 483 -9 491 -20 13 -152 11 -166 -3z
m147 -88 l-2 -70 -66 0 -66 0 3 70 4 70 64 0 65 0 -2 -70z m0 -210 l1 -70 -65
0 -65 0 0 70 0 70 64 0 63 0 2 -70z m1 -200 l0 -70 -65 0 -65 0 0 70 0 70 65
0 65 0 0 -70z"></path>
<path style="position: relative;" class="node" id="node17" d="M380 1080 l0 -201 93 3 92 3 2 198 3 197 -95 0 -95 0 0 -200z m160
100 l0 -70 -65 0 -65 0 0 70 0 70 65 0 65 0 0 -70z m0 -200 l0 -70 -65 0 -65
0 0 70 0 70 65 0 65 0 0 -70z"></path>
<path style="position: relative;" class="node" id="node18" d="M380 775 l0 -96 93 3 92 3 3 93 3 92 -96 0 -95 0 0 -95z m160 5 l0
-70 -65 0 -65 0 0 70 0 70 65 0 65 0 0 -70z"></path>
<path style="position: relative;" class="node" id="node19" d="M582 778 l3 -93 90 0 90 0 3 93 3 92 -96 0 -96 0 3 -92z m158 2 l0
-70 -65 0 -65 0 0 70 0 70 65 0 65 0 0 -70z"></path>
<path style="position: relative;" class="node" id="node20" d="M2240 1480 c-15 -9 -16 -79 -7 -490 l2 -105 90 0 90 0 2 197 3 197
-63 4 -62 3 63 2 62 2 0 88 c0 55 -4 92 -12 100 -14 14 -146 16 -168 2z m152
-89 l3 -69 -50 -4 c-83 -6 -85 -5 -85 73 l0 69 64 0 64 0 4 -69z m-2 -211 l0
-70 -65 0 -65 0 0 70 0 70 65 0 65 0 0 -70z m0 -200 l0 -70 -65 0 -65 0 0 70
0 70 65 0 65 0 0 -70z"></path>
<path style="position: relative;" class="node" id="node21" d="M2443 1483 c-9 -3 -13 -33 -13 -99 l0 -94 95 0 95 0 0 94 c0 76 -3
95 -16 100 -18 7 -143 7 -161 -1z m147 -93 l0 -70 -65 0 -65 0 0 70 0 70 65 0
65 0 0 -70z"></path>
<path style="position: relative;" class="node" id="node22" d="M2433 1083 l2 -198 93 -3 92 -3 0 201 0 200 -95 0 -95 0 3 -197z
m157 97 l0 -70 -65 0 -65 0 0 70 0 70 65 0 65 0 0 -70z m0 -200 l0 -70 -65 0
-65 0 0 70 0 70 65 0 65 0 0 -70z"></path>
<path style="position: relative;" class="node" id="node23" d="M2232 778 l3 -93 90 0 90 0 3 93 3 92 -96 0 -96 0 3 -92z m158 2 l0
-70 -65 0 -65 0 0 70 0 70 65 0 65 0 0 -70z"></path>
<path style="position: relative;" class="node" id="node24" d="M2432 778 l3 -93 93 -3 92 -3 0 96 0 95 -95 0 -96 0 3 -92z m158 2
l0 -70 -65 0 -65 0 0 70 0 70 65 0 65 0 0 -70z"></path>
<path style="position: relative;" class="node" id="node25" d="M1464 845 c-4 -8 -4 -24 -1 -35 4 -17 0 -20 -29 -20 -31 0 -34 -3
-34 -30 0 -27 3 -30 30 -30 26 0 30 -4 30 -28 0 -58 47 -72 52 -14 3 34 6 37
36 40 28 3 32 7 32 33 0 27 -3 29 -35 29 -33 0 -35 2 -35 35 0 29 -4 35 -20
35 -11 0 -23 -7 -26 -15z"></path>
<path style="position: relative;" class="node" id="node26" d="M1374 497 c-3 -8 -4 -34 -2 -58 3 -40 6 -44 31 -47 l28 -3 -3 58 c-3
51 -6 58 -26 61 -12 2 -24 -3 -28 -11z"></path>
<path style="position: relative;" class="node" id="node27" d="M1557 504 c-4 -4 -7 -31 -7 -61 0 -52 0 -53 30 -53 l31 0 -3 58 c-3
49 -6 57 -23 60 -12 2 -24 0 -28 -4z"></path>
























</g>
<g transform="translate(0.000000,253.000000) scale(0.100000,-0.100000)" fill="#FFFFFF" stroke="none">

<path style="position: relative;" class="node" id="node53" d="M830 2290 l0 -60 665 0 665 0 0 60 0 60 -665 0 -665 0 0 -60z"></path>
<path style="position: relative;" class="node" id="node54" d="M855 2180 c9 -14 1275 -14 1275 0 0 7 -220 10 -641 10 -424 0 -638
-3 -634 -10z"></path>
<path style="position: relative;" class="node" id="node55" d="M910 1230 l0 -900 95 0 95 0 2 202 3 203 120 5 120 5 2 75 c0 41 2
81 2 88 1 10 33 12 144 10 l142 -3 3 -87 3 -88 123 0 c104 0 125 -3 130 -16 3
-9 6 -101 6 -205 l0 -190 88 3 87 3 0 895 0 895 -582 3 -583 2 0 -900z m160
815 c0 -20 5 -25 25 -25 18 0 25 5 25 18 0 23 8 32 23 26 12 -4 15 -119 4
-130 -11 -11 -27 7 -27 32 0 19 -5 24 -25 24 -21 0 -25 -5 -25 -31 0 -20 -4
-29 -12 -27 -13 5 -24 99 -14 124 9 23 26 16 26 -11z m211 4 c17 -17 20 -29
15 -58 -3 -20 -13 -42 -23 -48 -43 -32 -103 2 -103 57 0 61 69 91 111 49z
m123 2 c20 -22 4 -40 -19 -21 -8 6 -22 10 -32 8 -13 -3 -7 -9 22 -23 49 -25
59 -59 21 -76 -29 -14 -75 -4 -83 17 -8 23 4 29 31 15 24 -13 51 -7 41 8 -2 5
-18 11 -34 14 -36 7 -47 34 -25 58 22 24 56 24 78 0z m120 6 c29 -21 17 -60
-21 -71 -20 -6 -33 -17 -35 -30 -2 -11 -9 -21 -15 -24 -10 -3 -13 15 -13 67
l0 71 33 0 c18 0 41 -6 51 -13z m61 -57 c0 -42 -4 -65 -12 -67 -10 -4 -13 14
-13 67 0 53 3 71 13 68 8 -3 12 -26 12 -68z m113 53 c2 -8 -5 -13 -17 -13 -19
0 -21 -6 -21 -56 0 -73 -24 -70 -28 4 -2 37 -7 52 -18 52 -7 0 -14 7 -14 16 0
12 10 14 47 12 26 -2 48 -9 51 -15z m102 -25 c36 -82 36 -126 0 -83 -17 20
-50 19 -66 -2 -22 -31 -27 -6 -9 49 30 91 47 99 75 36z m78 -16 c3 -46 5 -51
29 -54 15 -2 28 -9 31 -16 3 -10 -8 -12 -44 -10 l-49 3 -3 54 c-4 61 3 84 21
79 7 -3 13 -26 15 -56z m-660 -295 c2 -54 -2 -94 -8 -102 -8 -9 -8 -15 0 -20
7 -4 10 -47 9 -116 0 -61 2 -113 5 -116 3 -4 6 3 6 15 0 18 6 22 33 24 l32 1
-32 4 -33 4 3 197 2 197 90 0 90 0 2 -197 3 -198 -53 -2 -52 -2 53 -3 c59 -5
55 4 52 -118 -1 -38 -3 -117 -4 -175 l-1 -105 -90 0 -90 0 -1 104 c0 65 -5
106 -11 108 -15 5 -26 -14 -13 -22 5 -3 10 -46 10 -95 0 -105 2 -103 -115 -98
l-70 3 -8 174 c-5 96 -6 185 -2 198 5 21 11 23 88 25 l82 2 -82 3 c-52 3 -83
8 -85 16 -2 7 -2 51 1 98 4 47 4 99 1 114 -3 15 -4 61 -2 101 l4 75 91 -3 92
-3 3 -88z m540 -1 c2 -51 -2 -94 -7 -99 -7 -7 -7 -14 0 -23 5 -7 9 -49 7 -96
l-3 -83 -92 -3 c-78 -2 -93 0 -94 13 -3 68 -1 166 4 171 4 4 3 14 -2 23 -6 12
-7 126 -2 184 1 4 43 6 94 5 l92 -3 3 -89z m199 -108 l3 -198 -68 -2 -67 -2
68 -3 c55 -3 67 -7 68 -21 0 -9 0 -51 -1 -92 -1 -41 -3 -122 -4 -180 l-1 -105
-90 0 -90 0 -2 198 c-3 181 -2 197 15 198 16 1 16 2 0 6 -16 4 -18 23 -18 197
0 106 4 196 7 200 4 4 46 5 93 4 l85 -3 2 -197z m-199 -296 c2 -50 -2 -89 -8
-97 -8 -9 -8 -15 0 -20 6 -3 10 -44 10 -95 0 -71 -3 -89 -16 -94 -25 -10 -162
-7 -169 4 -9 14 -16 308 -9 353 l6 38 91 -3 92 -3 3 -83z"></path>
<path style="position: relative;" class="node" id="node56" d="M1212 2028 c-23 -23 -7 -68 25 -68 21 0 35 37 23 60 -12 23 -30 26
-48 8z"></path>
<path style="position: relative;" class="node" id="node57" d="M1470 2025 c0 -10 7 -15 18 -13 21 4 19 22 -2 26 -10 2 -16 -3 -16
-13z"></path>
<path style="position: relative;" class="node" id="node58" d="M1760 2006 c0 -9 5 -16 10 -16 6 0 10 4 10 9 0 6 -4 13 -10 16 -5 3
-10 -1 -10 -9z"></path>
<path style="position: relative;" class="node" id="node59" d="M1060 1710 l0 -70 65 0 65 0 0 70 0 70 -65 0 -65 0 0 -70z"></path>
<path style="position: relative;" class="node" id="node60" d="M1260 1710 l0 -70 65 0 65 0 0 70 0 70 -65 0 -65 0 0 -70z"></path>
<path style="position: relative;" class="node" id="node61" d="M1060 1510 l0 -70 65 0 65 0 0 70 0 70 -65 0 -65 0 0 -70z"></path>
<path style="position: relative;" class="node" id="node62" d="M1260 1512 c0 -79 2 -81 83 -74 l48 4 -3 67 -3 66 -62 3 -63 3 0 -69z"></path>
<path style="position: relative;" class="node" id="node63" d="M1052 1303 l3 -68 68 -2 67 -1 0 46 c0 88 -4 92 -77 92 l-64 0 3 -67z"></path>
<path style="position: relative;" class="node" id="node64" d="M1260 1303 l0 -68 65 -1 65 0 0 68 0 68 -65 0 -65 0 0 -67z m47 -25
c-2 -13 -4 -3 -4 22 0 25 2 35 4 23 2 -13 2 -33 0 -45z"></path>
<path style="position: relative;" class="node" id="node65" d="M1223 1295 c0 -33 2 -45 4 -27 2 18 2 45 0 60 -2 15 -4 0 -4 -33z"></path>
<path style="position: relative;" class="node" id="node66" d="M1060 1100 l0 -70 65 0 65 0 0 70 0 70 -65 0 -65 0 0 -70z"></path>
<path style="position: relative;" class="node" id="node67" d="M1260 1100 l0 -70 65 0 65 0 0 70 0 70 -65 0 -65 0 0 -70z"></path>
<path style="position: relative;" class="node" id="node68" d="M1600 1710 l0 -70 65 0 65 0 0 70 0 70 -65 0 -65 0 0 -70z"></path>
<path style="position: relative;" class="node" id="node69" d="M1600 1576 c-3 -2 -3 -34 -2 -70 l4 -66 64 0 65 0 -3 68 -3 67 -60 3
c-34 2 -63 1 -65 -2z"></path>
<path style="position: relative;" class="node" id="node70" d="M1800 1710 l0 -70 65 0 65 0 0 70 0 70 -65 0 -65 0 0 -70z"></path>
<path style="position: relative;" class="node" id="node71" d="M1800 1504 c0 -65 2 -75 16 -70 9 3 38 6 65 6 l50 0 -3 68 -3 67 -62
3 -63 3 0 -77z"></path>
<path style="position: relative;" class="node" id="node72" d="M1800 1303 l0 -68 66 -3 65 -3 -3 71 -3 70 -62 0 -63 0 0 -67z"></path>
<path style="position: relative;" class="node" id="node73" d="M1800 1100 l0 -70 65 0 65 0 0 70 0 70 -65 0 -65 0 0 -70z"></path>
<path style="position: relative;" class="node" id="node74" d="M1639 1372 c-43 -4 -47 -13 -41 -89 l4 -52 61 2 62 2 2 50 c3 85 -6
94 -88 87z"></path>
<path style="position: relative;" class="node" id="node75" d="M1599 1165 c0 -3 0 -33 -1 -67 l0 -63 66 -3 66 -3 0 71 0 70 -65 0
c-36 0 -65 -2 -66 -5z"></path>
<path style="position: relative;" class="node" id="node76" d="M267 1823 c-4 -3 -7 -21 -7 -40 l0 -33 306 0 305 0 -3 38 -3 37 -296
3 c-162 1 -298 -1 -302 -5z"></path>
<path style="position: relative;" class="node" id="node77" d="M2120 1790 l0 -40 310 0 310 0 0 40 0 40 -310 0 -310 0 0 -40z"></path>
<path style="position: relative;" class="node" id="node78" d="M433 1693 c82 -2 212 -2 290 0 78 1 12 3 -148 3 -159 0 -223 -2 -142
-3z"></path>
<path style="position: relative;" class="node" id="node79" d="M2283 1693 c82 -2 212 -2 290 0 78 1 12 3 -148 3 -159 0 -223 -2
-142 -3z"></path>
<path style="position: relative;" class="node" id="node80" d="M300 1025 l0 -625 285 0 286 0 -3 623 -3 622 -282 3 -283 2 0 -625z
m254 459 c13 -5 16 -24 16 -100 l0 -94 -95 0 -95 0 0 94 c0 66 4 96 13 99 18
8 143 8 161 1z m204 -3 c13 -8 16 -184 9 -491 l-2 -105 -90 0 -90 0 -2 198 -3
197 78 2 77 2 -77 3 -78 4 0 87 c0 55 4 92 12 100 14 14 146 16 166 3z m-191
-398 l-2 -198 -92 -3 -93 -3 0 201 0 200 95 0 95 0 -3 -197z m1 -305 l-3 -93
-92 -3 -93 -3 0 96 0 95 95 0 96 0 -3 -92z m200 0 l-3 -93 -90 0 -90 0 -3 93
-3 92 96 0 96 0 -3 -92z"></path>
<path style="position: relative;" class="node" id="node81" d="M410 1390 l0 -70 65 0 65 0 0 70 0 70 -65 0 -65 0 0 -70z"></path>
<path style="position: relative;" class="node" id="node82" d="M608 1390 l-3 -70 66 0 66 0 2 70 2 70 -65 0 -64 0 -4 -70z"></path>
<path style="position: relative;" class="node" id="node83" d="M610 1180 l0 -70 65 0 65 0 -1 70 -2 70 -63 0 -64 0 0 -70z"></path>
<path style="position: relative;" class="node" id="node84" d="M610 980 l0 -70 65 0 65 0 0 70 0 70 -65 0 -65 0 0 -70z"></path>
<path style="position: relative;" class="node" id="node85" d="M410 1180 l0 -70 65 0 65 0 0 70 0 70 -65 0 -65 0 0 -70z"></path>
<path style="position: relative;" class="node" id="node86" d="M410 980 l0 -70 65 0 65 0 0 70 0 70 -65 0 -65 0 0 -70z"></path>
<path style="position: relative;" class="node" id="node87" d="M410 780 l0 -70 65 0 65 0 0 70 0 70 -65 0 -65 0 0 -70z"></path>
<path style="position: relative;" class="node" id="node88" d="M610 780 l0 -70 65 0 65 0 0 70 0 70 -65 0 -65 0 0 -70z"></path>
<path style="position: relative;" class="node" id="node89" d="M2120 1025 l0 -625 290 0 290 0 -2 623 -3 622 -287 3 -288 2 0 -625z
m288 453 c8 -8 12 -45 12 -100 l0 -88 -62 -2 -63 -2 62 -3 63 -4 -3 -197 -2
-197 -90 0 -90 0 -2 105 c-9 411 -8 481 7 490 22 14 154 12 168 -2z m196 6
c13 -5 16 -24 16 -100 l0 -94 -95 0 -95 0 0 94 c0 66 4 96 13 99 18 8 143 8
161 1z m16 -404 l0 -201 -92 3 -93 3 -2 198 -3 197 95 0 95 0 0 -200z m-202
-302 l-3 -93 -90 0 -90 0 -3 93 -3 92 96 0 96 0 -3 -92z m202 -3 l0 -96 -92 3
-93 3 -3 93 -3 92 96 0 95 0 0 -95z"></path>
<path style="position: relative;" class="node" id="node90" d="M2260 1391 c0 -78 2 -79 85 -73 l50 4 -3 69 -4 69 -64 0 -64 0 0 -69z"></path>
<path style="position: relative;" class="node" id="node91" d="M2260 1180 l0 -70 65 0 65 0 0 70 0 70 -65 0 -65 0 0 -70z"></path>
<path style="position: relative;" class="node" id="node92" d="M2260 980 l0 -70 65 0 65 0 0 70 0 70 -65 0 -65 0 0 -70z"></path>
<path style="position: relative;" class="node" id="node93" d="M2460 1390 l0 -70 65 0 65 0 0 70 0 70 -65 0 -65 0 0 -70z"></path>
<path style="position: relative;" class="node" id="node94" d="M2460 1180 l0 -70 65 0 65 0 0 70 0 70 -65 0 -65 0 0 -70z"></path>
<path style="position: relative;" class="node" id="node95" d="M2460 980 l0 -70 65 0 65 0 0 70 0 70 -65 0 -65 0 0 -70z"></path>
<path style="position: relative;" class="node" id="node96" d="M2260 780 l0 -70 65 0 65 0 0 70 0 70 -65 0 -65 0 0 -70z"></path>
<path style="position: relative;" class="node" id="node97" d="M2460 780 l0 -70 65 0 65 0 0 70 0 70 -65 0 -65 0 0 -70z"></path>
<path style="position: relative;" class="node" id="node98" d="M1380 755 l0 -125 113 0 112 0 0 125 0 125 -112 0 -113 0 0 -125z
m130 70 c0 -33 2 -35 35 -35 32 0 35 -2 35 -29 0 -26 -4 -30 -32 -33 -30 -3
-33 -6 -36 -40 -5 -58 -52 -44 -52 14 0 24 -4 28 -30 28 -27 0 -30 3 -30 30 0
27 3 30 34 30 29 0 33 3 29 20 -8 29 4 50 27 50 16 0 20 -6 20 -35z"></path>
<path style="position: relative;" class="node" id="node99" d="M1150 515 l0 -185 163 2 162 3 3 128 3 127 -60 0 c-34 0 -63 5 -67
11 -4 6 -7 30 -8 53 l-2 41 -97 3 -97 3 0 -186z m278 -68 l3 -58 -28 3 c-25 3
-28 7 -31 47 -4 57 3 73 30 69 20 -3 23 -10 26 -61z"></path>
<path style="position: relative;" class="node" id="node100" d="M1640 651 c0 -56 -6 -61 -81 -61 l-49 0 0 -130 0 -130 170 0 170 0 0
185 0 185 -105 0 -105 0 0 -49z m-32 -203 l3 -58 -31 0 c-30 0 -30 1 -30 53 0
60 5 69 35 65 17 -3 20 -11 23 -60z"></path>
<path style="position: relative;" class="node" id="node101" d="M1850 60 c0 -5 5 -10 10 -10 6 0 10 5 10 10 0 6 -4 10 -10 10 -5 0
-10 -4 -10 -10z"></path>
<path style="position: relative;" class="node" id="node102" d="M2141 64 c0 -11 3 -14 6 -6 3 7 2 16 -1 19 -3 4 -6 -2 -5 -13z"></path>
</g>
</svg>