<?xml version="1.0" encoding="iso-8859-1"?>
<!-- Generator: Adobe Illustrator 17.1.0, SVG Export Plug-In . SVG Version: 6.00 Build 0)  -->
<!DOCTYPE svg PUBLIC "-//W3C//DTD SVG 1.1//EN" "http://www.w3.org/Graphics/SVG/1.1/DTD/svg11.dtd">
<svg version="1.1" id="Capa_1" xmlns="http://www.w3.org/2000/svg" xmlns:xlink="http://www.w3.org/1999/xlink" x="0px" y="0px"
	 viewBox="0 0 267.607 267.607" style="enable-background:new 0 0 267.607 267.607;" xml:space="preserve">
<g>
	<path d="M151.782,51.382c2.169,0,3.928-1.759,3.928-3.928V34.941c0-2.169-1.759-3.928-3.928-3.928
		c-2.169,0-3.928,1.759-3.928,3.928v12.513C147.855,49.623,149.613,51.382,151.782,51.382z"/>
	<path d="M118.15,50.97l9.824,6.617c0.674,0.454,1.436,0.671,2.19,0.671c1.263,0,2.503-0.607,3.261-1.733
		c1.212-1.799,0.736-4.24-1.063-5.451l-9.824-6.617c-1.802-1.213-4.24-0.737-5.451,1.063
		C115.876,47.317,116.352,49.759,118.15,50.97z"/>
	<path d="M173.399,58.258c0.754,0,1.517-0.217,2.189-0.67l9.825-6.617c1.8-1.212,2.275-3.652,1.064-5.451
		c-1.212-1.8-3.651-2.277-5.451-1.064l-9.825,6.617c-1.8,1.212-2.275,3.652-1.064,5.451
		C170.896,57.65,172.137,58.258,173.399,58.258z"/>
	<path d="M262.695,133.302l-24.162-41.026c-2.921-4.959-9.718-8.844-15.472-8.844h-46.279c-1.247-12.65-11.946-22.567-24.92-22.567
		c-12.974,0-23.673,9.917-24.921,22.567H99.256c-5.69,0-12.75,3.62-16.071,8.24l-27.67,38.501
		c-2.675,3.721-8.665,7.893-13.081,9.111l-32.181,8.878C4.6,149.722,0,155.762,0,161.626v41.485c0,6.122,4.981,11.103,11.103,11.103
		h27.202c3.763,12.914,15.696,22.38,29.808,22.38c14.11,0,26.044-9.466,29.806-22.38h82.463c3.762,12.914,15.695,22.38,29.807,22.38
		s26.045-9.466,29.807-22.38h16.511c6.122,0,11.102-4.98,11.102-11.103v-51.793C267.607,145.981,265.404,137.898,262.695,133.302z
		 M68.112,220.968c-8.518,0-15.422-6.906-15.422-15.424c0-8.518,6.904-15.421,15.422-15.421s15.421,6.903,15.421,15.421
		C83.533,214.062,76.63,220.968,68.112,220.968z M78.308,143.008c-4.057,0-5.646-2.833-3.532-6.295l19.677-32.226
		c2.114-3.462,7.163-6.295,11.22-6.295h37.237v44.816H78.308z M175.239,174.783l-6.63,6.463c-1.592,1.552-2.62,4.715-2.244,6.906
		l1.565,9.124c0.265,1.544-0.151,2.428-0.547,2.896c-0.439,0.521-1.064,0.797-1.806,0.797c-0.607,0-1.27-0.187-1.969-0.554
		l-8.195-4.309c-1.877-0.986-5.385-0.986-7.262,0l-8.195,4.309c-1.554,0.814-2.975,0.704-3.774-0.243
		c-0.396-0.469-0.812-1.352-0.547-2.896l1.565-9.124c0.376-2.191-0.652-5.354-2.244-6.906l-6.63-6.463
		c-1.449-1.414-1.349-2.603-1.159-3.185c0.189-0.583,0.806-1.604,2.809-1.895l9.165-1.33c2.2-0.32,4.891-2.275,5.874-4.269
		l4.098-8.305c0.896-1.814,2.058-2.086,2.67-2.086c0.612,0,1.774,0.271,2.67,2.086l4.098,8.305c0.983,1.993,3.674,3.948,5.875,4.269
		l9.163,1.33c2.004,0.292,2.62,1.313,2.81,1.895C176.588,172.181,176.689,173.369,175.239,174.783z M210.188,220.968
		c-8.518,0-15.422-6.906-15.422-15.424c0-8.518,6.904-15.421,15.422-15.421c8.517,0,15.422,6.903,15.422,15.421
		C225.609,214.062,218.704,220.968,210.188,220.968z M234.913,143.008h-74.256V98.191h51.38c4.057,0,8.885,2.956,10.73,6.569
		l16.169,31.678C240.78,140.052,238.97,143.008,234.913,143.008z"/>
</g>
<g>
</g>
<g>
</g>
<g>
</g>
<g>
</g>
<g>
</g>
<g>
</g>
<g>
</g>
<g>
</g>
<g>
</g>
<g>
</g>
<g>
</g>
<g>
</g>
<g>
</g>
<g>
</g>
<g>
</g>
</svg>
